<svg class="svgImage" data-alt="{{ include.alt }}" xmlns="http://www.w3.org/2000/svg" xmlns:xlink="http://www.w3.org/1999/xlink" x="0px" y="0px"
	 viewBox="0 0 503.1 285.3" style="enable-background:new 0 0 503.1 285.3;" xml:space="preserve">
<style type="text/css">
	.st0{fill:none;stroke:#000000;stroke-width:1.5;stroke-linejoin:round;stroke-miterlimit:10;stroke-dasharray:6.24,4.68;}
	.st1{fill:none;stroke:#000000;stroke-width:1.5;stroke-linejoin:round;stroke-miterlimit:10;stroke-dasharray:12.48,4.68,1.56,4.68,1.56,4.68;}
	.st2{fill:none;stroke:#000000;stroke-width:1.5;stroke-linejoin:round;stroke-miterlimit:10;}
	.st3{fill:none;stroke:#000000;stroke-width:0.7;stroke-linejoin:round;stroke-miterlimit:10;}
	.st4{font-family:'Times New Roman';font-weight:bold;}
	.st5{font-size:24px;}
	.st6{font-family:'SimSun';}
	.st7{font-size:18px;}
</style>
<g>
	<line class="st0" x1="5.1" y1="85.7" x2="72.7" y2="85.7"/>
	<path class="st0" d="M69.7,83.3c1.8,12.6,3.5,25.3,6.2,37.3s2.9,21.5,9.9,34.8c7,13.2,21.3,34.6,32.3,44.7s23.4,12.8,33.5,16.1
		s17.4,4.6,27.3,3.7c9.9-0.8,23-4.1,32.3-8.7s18-13.2,23.6-18.6s6.2-8.7,9.9-13.7s8.3-10.3,12.4-16.1s6.4-11.6,12.4-18.6
		s15.3-17.6,23.6-23.6s16.4-8.5,26.1-12.4s22.1-8.5,32.3-11.2c10.1-2.7,18.8-3.5,28.6-5c9.7-1.4,29.8-3.7,29.8-3.7"/>
</g>
<g>
	<line class="st1" x1="5.1" y1="108.1" x2="72.6" y2="108.1"/>
	<path class="st1" d="M75.9,123.8l11.2,14.9c4.4,5.8,9.3,14.1,14.9,19.8c5.6,5.8,11,10.3,18.6,14.9c7.6,4.5,18.8,9.3,27.3,12.4
		s15.5,5.8,23.6,6.2s18.6-2.3,24.8-3.7s6.6-1.4,12.4-5c5.8-3.5,17.4-12.2,22.3-16.1s2.5-4.1,7.4-7.5c5-3.3,16.1-8.9,22.3-12.4
		c6.2-3.5,6.8-6.4,14.9-8.7s20.1-3.9,33.5-5c13.4-1,37.4-0.8,47.2-1.2c9.7-0.4,11.2-1.2,11.2-1.2"/>
</g>
<g>
	<line class="st2" x1="5.1" y1="203.7" x2="72.7" y2="203.7"/>
	<path class="st2" d="M72.2,205.1c-0.5-7.1-1-14.3,3.7-24.8c4.8-10.5,17.4-29.2,24.8-38.5s11.8-11.2,19.9-17.4
		c8.1-6.2,16.4-14.3,28.6-19.9s29.8-14.3,44.7-13.6c14.9,0.6,33.1,5.4,44.7,17.4s18.2,41,24.8,54.6c6.6,13.6,8.1,20.5,14.9,27.3
		s15.7,9.9,26.1,13.6c10.3,3.7,24.8,6.4,36,8.7s31,5,31,5"/>
</g>
<g>
	<path d="M0.2,8.5l5-8.5l5,8.5c0.3,0.5,0.1,1.2-0.4,1.6c-0.5,0.3-1.2,0.1-1.6-0.4l-4-6.8h2l-4,6.8c-0.3,0.5-1,0.7-1.5,0.4
		C0,9.7-0.1,9,0.2,8.5z M3.9,238.1L4,2.2h2.3L6.2,238.1H3.9z"/>
	<path d="M435.5,232.7l8.5,5l-8.5,5c-0.5,0.3-1.3,0.1-1.6-0.4s-0.1-1.2,0.4-1.6l6.8-4v2l-6.8-4c-0.5-0.3-0.7-1-0.4-1.6
		C434.2,232.6,434.9,232.4,435.5,232.7z M5.1,236.4l436.6,0.1v2.3L5.1,238.7V236.4L5.1,236.4z"/>
	<path d="M68.7,244.4l4-6.7l3.9,6.8c0.1,0.2,0.1,0.5-0.2,0.7c-0.2,0.1-0.5,0.1-0.7-0.2l-3.5-6h0.9l-3.5,6c-0.1,0.2-0.4,0.3-0.7,0.2
		C68.6,244.9,68.5,244.6,68.7,244.4z M72,266l0.1-27.4h1L73,266H72z"/>
	<path d="M11.8,36.8l-6.7-4l6.8-3.9c0.2-0.1,0.5-0.1,0.7,0.2c0.1,0.2,0.1,0.5-0.2,0.7l-6,3.5v-0.9l6,3.5c0.2,0.1,0.3,0.5,0.2,0.7
		C12.3,36.8,12,36.9,11.8,36.8z M27.6,33.4L6.1,33.3v-1l21.5,0.1V33.4z"/>
	<path d="M65.9,29l6.7,4l-6.8,3.9c-0.2,0.1-0.6,0.1-0.7-0.2c-0.1-0.2,0-0.5,0.2-0.7l6-3.5v0.9l-6-3.5c-0.2-0.1-0.3-0.4-0.2-0.7
		C65.3,28.9,65.6,28.8,65.9,29z M50.1,32.3l21.5,0.1v1l-21.5-0.1V32.3z"/>
	<path d="M118.6,36.6l-6.7-3.9l6.8-3.9c0.2-0.1,0.5-0.1,0.7,0.2c0.1,0.2,0.1,0.5-0.2,0.7l-6,3.5v-0.9l6,3.5c0.2,0.1,0.3,0.5,0.2,0.7
		C119.2,36.7,118.8,36.8,118.6,36.6z M154.4,33.3l-41.5-0.1v-1l41.5,0.1V33.3z"/>
	<path d="M235,28.8l6.7,4l-6.8,3.9c-0.2,0.1-0.6,0.1-0.7-0.2c-0.1-0.2,0-0.5,0.2-0.7l6-3.5v0.9l-6-3.5c-0.2-0.1-0.3-0.5-0.2-0.7
		C234.5,28.8,234.8,28.7,235,28.8z M196.4,32.2l44.4,0.1v1l-44.4-0.1V32.2z"/>
	<path d="M245,36.6l-6.7-3.9l6.8-3.9c0.2-0.1,0.5-0.1,0.7,0.2c0.1,0.2,0.1,0.6-0.2,0.7l-6,3.5v-0.9l6,3.5c0.2,0.1,0.3,0.5,0.2,0.7
		C245.5,36.7,245.2,36.8,245,36.6z M275.1,33.3l-35.9-0.1v-1l35.9,0.1V33.3z"/>
	<path d="M347.4,28.8l6.7,4l-6.8,3.9c-0.2,0.1-0.5,0-0.7-0.2c-0.1-0.2-0.1-0.5,0.2-0.7l6-3.5v0.9l-6-3.5c-0.2-0.1-0.3-0.4-0.2-0.7
		C346.9,28.8,347.2,28.7,347.4,28.8z M314.4,32.2l38.7,0.1v1l-38.7-0.1V32.2z"/>
	<path d="M360.6,36.8l-6.7-4l6.8-3.9c0.2-0.1,0.5-0.1,0.7,0.2c0.1,0.2,0.1,0.6-0.2,0.7l-6,3.5v-0.9l6,3.5c0.2,0.1,0.3,0.5,0.2,0.7
		C361.2,36.8,360.9,36.9,360.6,36.8z M390.8,33.4l-35.9-0.1v-1l35.9,0.1V33.4z"/>
	<line class="st3" x1="441.3" y1="32.9" x2="418.6" y2="32.8"/>
	<line class="st3" x1="72.5" y1="15.9" x2="72.5" y2="44"/>
	<line class="st3" x1="111.9" y1="15.9" x2="111.9" y2="44"/>
	<line class="st3" x1="241.4" y1="15.9" x2="241.4" y2="44"/>
	<line class="st3" x1="353.9" y1="15.9" x2="353.9" y2="44"/>
</g>
<g>
	<text transform="matrix(1 0 0 1 33.8955 38.1001)" class="st4 st5">I</text>
	<text transform="matrix(1 0 0 1 84.5358 38.1001)" class="st4 st5">II</text>
	<text transform="matrix(1 0 0 1 157.6855 38.1001)" class="st4 st5">III</text>
	<text transform="matrix(1 0 0 1 287.1151 38.1001)" class="st4 st5">IV</text>
	<text transform="matrix(1 0 0 1 399.9453 38.1001)" class="st4 st5">V</text>
</g>
<g>
	<text transform="matrix(1 0 0 1 11.8594 57.8)" class="st6 st7">清洁区</text>
	<text transform="matrix(1 0 0 1 67.0344 57.8)" class="st6 st7">降解区</text>
	<text transform="matrix(1 0 0 1 147.2094 57.8)" class="st6 st7">强分解区</text>
	<text transform="matrix(1 0 0 1 285.3842 57.8)" class="st6 st7">恢复区</text>
	<text transform="matrix(1 0 0 1 382.8595 57.8)" class="st6 st7">清洁区</text>
</g>
<g>
	<text transform="matrix(1 0 0 1 111.2094 82.8)" class="st6 st7">个别微生物的数量</text>
	<text transform="matrix(1 0 0 1 377.0593 138.8)" class="st6 st7">微生物物种数目</text>
	<text transform="matrix(1 0 0 1 413.0593 90.8602)" class="st6 st7">溶解氧</text>
	<text transform="matrix(1 0 0 1 27.6594 282.8)" class="st6 st7">废水排入点</text>
	<text transform="matrix(1 0 0 1 422.0593 263.8)" class="st6 st7">距离</text>
</g>
</svg>
