<svg xmlns="http://www.w3.org/2000/svg" viewBox="0 0 548.57984 243.37332"><defs><style>.a,.c,.f{fill:none;}.a{stroke:#00c;}.a,.c{stroke-linejoin:round;stroke-width:2px;}.b,.d,.g{font-size:22px;}.b,.d{fill:#00c;}.b,.g{font-family:SimSun, SimSun;}.c,.f{stroke:#000;}.d{font-family:TimesNewRomanPSMT, Times New Roman;}.e{fill:red;}.f{stroke-miterlimit:8;stroke-width:0.72px;stroke-dasharray:2.88 2.16;}.g{fill:#954f72;}</style></defs><title>压强的表示方法</title><line class="a" x1="158.34001" y1="242.37332" x2="428.34001" y2="242.37332"/><text class="b" transform="translate(438.57984 231.64355)">绝对零压线</text><line class="a" x1="158.34001" y1="92.31332" x2="428.34001" y2="92.31332"/><text class="b" transform="translate(438.57984 99.59326)">大气压强线</text><line class="c" x1="299.34001" y1="14.25333" x2="413.34001" y2="14.25333"/><text class="d" transform="translate(276.8899 18.2832)">A</text><path class="e" d="M314.28,236.37332l5-4-5,10-5-10Zm0-216.12-5,4,5-10,5,10Zm.5,0v216.12h-1v-216.12Z"/><text class="b" transform="translate(278.03981 132.07324)">绝</text><text class="b" transform="translate(278.03981 154.0332)">对</text><text class="b" transform="translate(278.03981 175.99316)">压</text><text class="b" transform="translate(278.03981 197.95313)">强</text><path class="e" d="M398.28,86.25333l5-4-5,10-5-10Zm0-66-5,4,5-10,5,10Zm.5,0v66h-1v-66Z"/><text class="b" transform="translate(362.03981 39.79346)">表</text><text class="b" transform="translate(362.03981 61.75342)">压</text><text class="b" transform="translate(362.03981 83.71338)">强</text><line class="a" x1="201.66" y1="161.43332" x2="165.66" y2="161.43332"/><text class="d" transform="translate(143.99977 168.45313)">B</text><path class="e" d="M176.28,236.37332l5-4-5,10-5-10Zm0-72.12-5,4,5-10,5,10Zm.5,0v72.12h-1v-72.12Z"/><text class="b" transform="translate(77.17994 205.87305)">绝对压强</text><path class="e" d="M176.28,158.25333l5-4-5,10-5-10Zm0-60-5,4,5-10,5,10Zm.5,0v60h-1v-60Z"/><text class="b" transform="translate(99.24 140.06348)">真空度</text><path class="e" d="M413.28,236.37332l5-4-5,10-5-10Zm0-138.12-5,4,5-10,5,10Zm.5,0v138.12h-1v-138.12Z"/><rect class="f" x="432.24" y="28.2933" width="78.12" height="38.04001"/><text class="g" transform="translate(438.31031 55.6333)">压强表</text><rect class="f" x="0.36" y="112.65332" width="78.12001" height="38.16"/><text class="g" transform="translate(6.4319 140.06348)">真空表</text></svg>