<svg xmlns="http://www.w3.org/2000/svg" xmlns:xlink="http://www.w3.org/1999/xlink" viewBox="0 0 731.76 478.38"><defs><style>.a,.d,.e,.g,.h,.i{fill:none;}.b{clip-path:url(#a);}.c{fill:#fff;}.d{stroke:#d9d9d9;}.d,.e,.g,.h,.i{stroke-linejoin:round;}.d,.e{stroke-width:0.75px;}.e{stroke:#000;}.f{clip-path:url(#b);}.g{stroke:#f07f09;}.g,.h,.i{stroke-linecap:round;stroke-width:1.5px;}.h{stroke:#9f2936;stroke-dasharray:4.5 6;}.i{stroke:#1b587c;stroke-dasharray:3 3;}.j{clip-path:url(#e);}.k{isolation:isolate;font-size:20px;font-family:TimesNewRomanPSMT, Times New Roman;}</style><clipPath id="a"><rect class="a" y="0.002" width="741.12" height="487.32"/></clipPath><clipPath id="b"><rect class="a" x="43.44" y="15.962" width="662.28" height="421.8"/></clipPath><clipPath id="e"><rect class="a" y="0.002" width="731.64" height="478.32"/></clipPath></defs><title>CEPN-01</title><g class="b"><rect class="c" width="731.76" height="478.38"/></g><path class="d" d="M43.513,16.072H705.76M43.513,76.322H705.76M43.513,136.562H705.76M43.513,196.8H705.76M43.513,257.042H705.76M43.513,317.4H705.76M43.513,377.642H705.76"/><path class="d" d="M705.76,16.072v421.78M573.36,16.072v421.78M440.88,16.072v421.78M308.4,16.072v421.78M175.92,16.072v421.78"/><rect class="e" x="43.513" y="16.072" width="662.24" height="421.78"/><line class="e" x1="43.513" y1="437.852" x2="43.513" y2="16.072"/><line class="e" x1="43.513" y1="437.852" x2="705.76" y2="437.852"/><g class="f"><polyline class="g" points="43.513 408.932 44.28 408.962 45 408.962 45.72 408.962 46.56 408.962 47.28 408.962 48 408.962 48.72 408.962 49.56 408.962 50.28 408.962 51 408.842 51.72 408.842 52.56 408.842 53.28 408.842 54 408.842 54.72 408.842 55.56 408.842 56.28 408.842 57 408.842 57.72 408.842 58.56 408.842 59.28 408.842 60 408.722 60.84 408.722 61.56 408.722 62.28 408.722 63 408.722 63.84 408.722 64.56 408.722 65.28 408.602 66 408.602 66.84 408.602 67.56 408.602 68.28 408.602 69 408.602 69.84 408.482 70.56 408.482 71.28 408.482 72 408.482 72.84 408.482 73.56 408.362 74.28 408.362 75 408.362 75.84 408.362 76.56 408.362 77.28 408.242 78 408.242 78.84 408.242 79.56 408.242 80.28 408.122 81 408.122 81.84 408.122 82.56 408.002 83.28 408.002 84 408.002 84.84 408.002 85.56 407.882 86.28 407.882 87.12 407.882 87.84 407.762 88.56 407.762 89.28 407.762 90.12 407.642 90.84 407.642 91.56 407.642 92.28 407.522 93.12 407.522 93.84 407.522 94.56 407.402 95.28 407.402 96.12 407.282 96.84 407.282 97.56 407.282 98.28 407.162 99.12 407.162 99.84 407.162 100.56 407.042 101.28 407.042 102.12 406.922 102.84 406.922 103.56 406.802 104.28 406.802 105.12 406.802 105.84 406.682 106.56 406.682 107.28 406.562 108.12 406.562 108.84 406.442 109.56 406.442 110.28 406.322 111.12 406.322 111.84 406.202 112.56 406.202 113.4 406.082 114.12 406.082 114.84 405.962 115.56 405.962 116.4 405.842 117.12 405.842 117.84 405.722 118.56 405.722 119.4 405.602 120.12 405.602 120.84 405.482 121.56 405.362 122.4 405.362 123.12 405.242 123.84 405.242 124.56 405.122 125.4 405.122 126.12 405.002 126.84 404.882 127.56 404.882 128.4 404.762 129.12 404.762 129.84 404.642 130.56 404.522 131.4 404.522 132.12 404.402 132.84 404.282 133.56 404.282 134.4 404.162 135.12 404.042 135.84 404.042 136.56 403.922 137.4 403.802 138.12 403.802 138.84 403.682 139.68 403.562 140.4 403.562 141.12 403.442 141.84 403.322 142.68 403.322 143.4 403.202 144.12 403.082 144.84 402.962 145.68 402.962 146.4 402.842 147.12 402.722 147.84 402.602 148.68 402.602 149.4 402.482 150.12 402.362 150.84 402.242 151.68 402.242 152.4 402.122 153.12 402.002 153.84 401.882 154.68 401.762 155.4 401.762 156.12 401.642 156.84 401.522 157.68 401.402 158.4 401.282 159.12 401.162 159.84 401.162 160.68 401.042 161.4 400.922 162.12 400.802 162.84 400.682 163.68 400.562 164.4 400.442 165.12 400.442 165.96 400.322 166.68 400.202 167.4 400.082 168.12 399.962 168.96 399.842 169.68 399.722 170.4 399.602 171.12 399.482 171.96 399.362 172.68 399.362 173.4 399.242 174.12 399.122 174.96 399.002 175.68 398.882 176.4 398.762 177.12 398.642 177.96 398.522 178.68 398.402 179.4 398.282 180.12 398.162 180.96 398.042 181.68 397.922 182.4 397.802 183.12 397.682 183.96 397.562 184.68 397.442 185.4 397.322 186.12 397.202 186.96 397.082 187.68 396.962 188.4 396.842 189.12 396.722 189.96 396.602 190.68 396.482 191.4 396.362 192.12 396.122 192.96 396.002 193.68 395.882 194.4 395.762 195.24 395.642 195.96 395.522 196.68 395.402 197.4 395.282 198.24 395.162 198.96 395.042 199.68 394.802 200.4 394.682 201.24 394.562 201.96 394.442 202.68 394.322 203.4 394.202 204.24 394.082 204.96 393.842 205.68 393.722 206.4 393.602 207.24 393.482 207.96 393.362 208.68 393.242 209.4 393.002 210.24 392.882 210.96 392.762 211.68 392.642 212.4 392.522 213.24 392.282 213.96 392.162 214.68 392.042 215.4 391.922 216.24 391.682 216.96 391.562 217.68 391.442 218.4 391.322 219.24 391.082 219.96 390.962 220.68 390.842 221.52 390.602 222.24 390.482 222.96 390.362 223.68 390.242 224.52 390.002 225.24 389.882 225.96 389.762 226.68 389.522 227.52 389.402 228.24 389.282 228.96 389.042 229.68 388.922 230.52 388.802 231.24 388.562 231.96 388.442 232.68 388.322 233.52 388.082 234.24 387.962 234.96 387.722 235.68 387.602 236.52 387.482 237.24 387.242 237.96 387.122 238.68 387.002 239.52 386.762 240.24 386.642 240.96 386.402 241.68 386.282 242.52 386.042 243.24 385.922 243.96 385.802 244.68 385.562 245.52 385.442 246.24 385.202 246.96 385.082 247.8 384.842 248.52 384.722 249.24 384.482 249.96 384.362 250.8 384.122 251.52 384.002 252.24 383.762 252.96 383.642 253.8 383.402 254.52 383.282 255.24 383.042 255.96 382.922 256.8 382.682 257.52 382.562 258.24 382.322 258.96 382.082 259.8 381.962 260.52 381.722 261.24 381.602 261.96 381.362 262.8 381.242 263.52 381.002 264.24 380.762 264.96 380.642 265.8 380.402 266.52 380.282 267.24 380.042 267.96 379.802 268.8 379.682 269.52 379.442 270.24 379.322 270.96 379.082 271.8 378.842 272.52 378.722 273.24 378.482 274.08 378.242 274.8 378.122 275.52 377.882 276.24 377.642 277.08 377.522 277.8 377.282 278.52 377.042 279.24 376.802 280.08 376.682 280.8 376.442 281.52 376.202 282.24 376.082 283.08 375.842 283.8 375.602 284.52 375.362 285.24 375.242 286.08 375.002 286.8 374.762 287.52 374.522 288.24 374.402 289.08 374.162 289.8 373.922 290.52 373.682 291.24 373.562 292.08 373.322 292.8 373.082 293.52 372.842 294.24 372.602 295.08 372.482 295.8 372.242 296.52 372.002 297.24 371.762 298.08 371.522 298.8 371.282 299.52 371.162 300.36 370.922 301.08 370.682 301.8 370.442 302.52 370.202 303.36 369.962 304.08 369.722 304.8 369.482 305.52 369.362 306.36 369.122 307.08 368.882 307.8 368.642 308.52 368.402 309.36 368.162 310.08 367.922 310.8 367.682 311.52 367.442 312.36 367.202 313.08 366.962 313.8 366.722 314.52 366.482 315.36 366.362 316.08 366.122 316.8 365.882 317.52 365.642 318.36 365.402 319.08 365.162 319.8 364.922 320.52 364.682 321.36 364.442 322.08 364.202 322.8 363.962 323.52 363.722 324.36 363.482 325.08 363.242 325.8 362.882 326.64 362.642 327.36 362.402 328.08 362.162 328.8 361.922 329.64 361.682 330.36 361.442 331.08 361.202 331.8 360.962 332.64 360.722 333.36 360.482 334.08 360.242 334.8 360.002 335.64 359.762 336.36 359.402 337.08 359.162 337.8 358.922 338.64 358.682 339.36 358.442 340.08 358.202 340.8 357.962 341.64 357.602 342.36 357.362 343.08 357.122 343.8 356.882 344.64 356.642 345.36 356.402 346.08 356.042 346.8 355.802 347.64 355.562 348.36 355.322 349.08 355.082 349.8 354.722 350.64 354.482 351.36 354.242 352.08 354.002 352.92 353.762 353.64 353.402 354.36 353.162 355.08 352.922 355.92 352.682 356.64 352.322 357.36 352.082 358.08 351.842 358.92 351.602 359.64 351.242 360.36 351.002 361.08 350.762 361.92 350.402 362.64 350.162 363.36 349.922 364.08 349.562 364.92 349.322 365.64 349.082 366.36 348.842 367.08 348.482 367.92 348.242 368.64 347.882 369.36 347.642 370.08 347.402 370.92 347.042 371.64 346.802 372.36 346.562 373.08 346.202 373.92 345.962 374.64 345.722 375.36 345.362 376.08 345.122 376.92 344.762 377.64 344.522 378.36 344.282 379.08 343.922 379.92 343.682 380.64 343.322 381.36 343.082 382.2 342.722 382.92 342.482 383.64 342.122 384.36 341.882 385.2 341.642 385.92 341.282 386.64 341.042 387.36 340.682 388.2 340.442 388.92 340.082 389.64 339.842 390.36 339.482 391.2 339.242 391.92 338.882 392.64 338.642 393.36 338.282 394.2 338.042 394.92 337.682 395.64 337.322 396.36 337.082 397.2 336.722 397.92 336.482 398.64 336.122 399.36 335.882 400.2 335.522 400.92 335.282 401.64 334.922 402.36 334.562 403.2 334.322 403.92 333.962 404.64 333.722 405.36 333.362 406.2 333.002 406.92 332.762 407.64 332.402 408.48 332.042 409.2 331.802 409.92 331.442 410.64 331.202 411.48 330.842 412.2 330.482 412.92 330.242 413.64 329.882 414.48 329.522 415.2 329.282 415.92 328.922 416.64 328.562 417.48 328.202 418.2 327.962 418.92 327.602 419.64 327.242 420.48 327.002 421.2 326.642 421.92 326.282 422.64 325.922 423.48 325.682 424.2 325.322 424.92 324.962 425.64 324.602 426.48 324.362 427.2 324.002 427.92 323.642 428.64 323.282 429.48 323.042 430.2 322.682 430.92 322.322 431.64 321.962 432.48 321.602 433.2 321.362 433.92 321.002 434.76 320.642 435.48 320.282 436.2 319.922 436.92 319.562 437.76 319.322 438.48 318.962 439.2 318.602 439.92 318.242 440.76 317.882 441.48 317.522 442.2 317.162 442.92 316.802 443.76 316.562 444.48 316.202 445.2 315.842 445.92 315.482 446.76 315.122 447.48 314.762 448.2 314.402 448.92 314.042 449.76 313.682 450.48 313.322 451.2 312.962 451.92 312.602 452.76 312.362 453.48 312.002 454.2 311.642 454.92 311.282 455.76 310.922 456.48 310.562 457.2 310.202 457.92 309.842 458.76 309.482 459.48 309.122 460.2 308.762 461.04 308.402 461.76 308.042 462.48 307.682 463.2 307.322 464.04 306.962 464.76 306.602 465.48 306.242 466.2 305.762 467.04 305.402 467.76 305.042 468.48 304.682 469.2 304.322 470.04 303.962 470.76 303.602 471.48 303.242 472.2 302.882 473.04 302.522 473.76 302.162 474.48 301.802 475.2 301.322 476.04 300.962 476.76 300.602 477.48 300.242 478.2 299.882 479.04 299.522 479.76 299.162 480.48 298.802 481.2 298.322 482.04 297.962 482.76 297.602 483.48 297.242 484.2 296.882 485.04 296.402 485.76 296.042 486.48 295.682 487.32 295.322 488.04 294.962 488.76 294.482 489.48 294.122 490.32 293.762 491.04 293.402 491.76 293.042 492.48 292.562 493.32 292.202 494.04 291.842 494.76 291.482 495.48 291.002 496.32 290.642 497.04 290.282 497.76 289.802 498.48 289.442 499.32 289.082 500.04 288.722 500.76 288.242 501.48 287.882 502.32 287.522 503.04 287.042 503.76 286.682 504.48 286.322 505.32 285.842 506.04 285.482 506.76 285.122 507.48 284.642 508.32 284.282 509.04 283.922 509.76 283.442 510.48 283.082 511.32 282.722 512.04 282.242 512.76 281.882 513.6 281.402 514.32 281.042 515.04 280.682 515.76 280.202 516.6 279.842 517.32 279.362 518.04 279.002 518.76 278.642 519.6 278.162 520.32 277.802 521.04 277.322 521.76 276.962 522.6 276.482 523.32 276.122 524.04 275.642 524.76 275.282 525.6 274.802 526.32 274.442 527.04 273.962 527.76 273.602 528.6 273.122 529.32 272.762 530.04 272.282 530.76 271.922 531.6 271.442 532.32 271.082 533.04 270.602 533.76 270.242 534.6 269.762 535.32 269.402 536.04 268.922 536.76 268.562 537.6 268.082 538.32 267.602 539.04 267.242 539.88 266.762 540.6 266.402 541.32 265.922 542.04 265.562 542.88 265.082 543.6 264.602 544.32 264.242 545.04 263.762 545.88 263.282 546.6 262.922 547.32 262.442 548.04 262.082 548.88 261.602 549.6 261.122 550.32 260.762 551.04 260.282 551.88 259.802 552.6 259.442 553.32 258.962 554.04 258.482 554.88 258.122 555.6 257.642 556.32 257.162 557.04 256.682 557.88 256.322 558.6 255.842 559.32 255.362 560.04 255.002 560.88 254.522 561.6 254.042 562.32 253.562 563.04 253.202 563.88 252.722 564.6 252.242 565.32 251.762 566.04 251.402 566.88 250.922 567.6 250.442 568.32 249.962 569.16 249.482 569.88 249.122 570.6 248.642 571.32 248.162 572.16 247.682 572.88 247.202 573.6 246.842 574.32 246.362 575.16 245.882 575.88 245.402 576.6 244.922 577.32 244.442 578.16 243.962 578.88 243.602 579.6 243.122 580.32 242.642 581.16 242.162 581.88 241.682 582.6 241.202 583.32 240.722 584.16 240.242 584.88 239.882 585.6 239.402 586.32 238.922 587.16 238.442 587.88 237.962 588.6 237.482 589.32 237.002 590.16 236.522 590.88 236.042 591.6 235.562 592.32 235.082 593.16 234.602 593.88 234.122 594.6 233.642 595.44 233.162 596.16 232.682 596.88 232.202 597.6 231.722 598.44 231.242 599.16 230.762 599.88 230.282 600.6 229.802 601.44 229.322 602.16 228.842 602.88 228.362 603.6 227.882 604.44 227.402 605.16 226.922 605.88 226.442 606.6 225.962 607.44 225.482 608.16 225.002 608.88 224.522 609.6 224.042 610.44 223.442 611.16 222.962 611.88 222.482 612.6 222.002 613.44 221.522 614.16 221.042 614.88 220.562 615.6 220.082 616.44 219.602 617.16 219.002 617.88 218.522 618.6 218.042 619.44 217.562 620.16 217.082 620.88 216.602 621.72 216.002 622.44 215.522 623.16 215.042 623.88 214.562 624.72 214.082 625.44 213.602 626.16 213.002 626.88 212.522 627.72 212.042 628.44 211.562 629.16 210.962 629.88 210.482 630.72 210.002 631.44 209.522 632.16 208.922 632.88 208.442 633.72 207.962 634.44 207.482 635.16 206.882 635.88 206.402 636.72 205.922 637.44 205.442 638.16 204.842 638.88 204.362 639.72 203.882 640.44 203.282 641.16 202.802 641.88 202.322 642.72 201.722 643.44 201.242 644.16 200.762 644.88 200.162 645.72 199.682 646.44 199.202 647.16 198.602 648 198.122 648.72 197.642 649.44 197.042 650.16 196.562 651 196.082 651.72 195.482 652.44 195.002 653.16 194.402 654 193.922 654.72 193.442 655.44 192.842 656.16 192.362 657 191.762 657.72 191.282 658.44 190.682 659.16 190.202 660 189.602 660.72 189.122 661.44 188.642 662.16 188.042 663 187.562 663.72 186.962 664.44 186.482 665.16 185.882 666 185.402 666.72 184.802 667.44 184.322 668.16 183.722 669 183.242 669.72 182.642 670.44 182.162 671.16 181.562 672 181.082 672.72 180.482 673.44 179.882 674.28 179.402 675 178.802 675.72 178.322 676.44 177.722 677.28 177.242 678 176.642 678.72 176.042 679.44 175.562 680.28 174.962 681 174.482 681.72 173.882 682.44 173.282 683.28 172.802 684 172.202 684.72 171.722 685.44 171.122 686.28 170.522 687 170.042 687.72 169.442 688.44 168.842 689.28 168.362 690 167.762 690.72 167.162 691.44 166.682 692.28 166.082 693 165.482 693.72 165.002 694.44 164.402 695.28 163.802 696 163.322 696.72 162.722 697.44 162.122 698.28 161.522 699 161.042 699.72 160.442 700.56 159.842 701.28 159.242 702 158.762 702.72 158.162 703.56 157.562 704.28 156.962 705 156.482 705.76 155.862"/></g><g class="f"><polyline class="h" points="43.513 211.922 44.28 211.922 45 211.922 45.72 211.922 46.56 211.922 47.28 211.922 48 211.802 48.72 211.802 49.56 211.802 50.28 211.802 51 211.802 51.72 211.802 52.56 211.682 53.28 211.682 54 211.682 54.72 211.682 55.56 211.682 56.28 211.682 57 211.682 57.72 211.562 58.56 211.562 59.28 211.562 60 211.562 60.84 211.562 61.56 211.562 62.28 211.562 63 211.562 63.84 211.442 64.56 211.442 65.28 211.442 66 211.442 66.84 211.442 67.56 211.442 68.28 211.442 69 211.442 69.84 211.322 70.56 211.322 71.28 211.322 72 211.322 72.84 211.322 73.56 211.322 74.28 211.322 75 211.322 75.84 211.322 76.56 211.202 77.28 211.202 78 211.202 78.84 211.202 79.56 211.202 80.28 211.202 81 211.202 81.84 211.202 82.56 211.202 83.28 211.202 84 211.202 84.84 211.082 85.56 211.082 86.28 211.082 87.12 211.082 87.84 211.082 88.56 211.082 89.28 211.082 90.12 211.082 90.84 211.082 91.56 211.082 92.28 211.082 93.12 211.082 93.84 211.082 94.56 211.082 95.28 210.962 96.12 210.962 96.84 210.962 97.56 210.962 98.28 210.962 99.12 210.962 99.84 210.962 100.56 210.962 101.28 210.962 102.12 210.962 102.84 210.962 103.56 210.962 104.28 210.962 105.12 210.962 105.84 210.962 106.56 210.962 107.28 210.962 108.12 210.962 108.84 210.962 109.56 210.962 110.28 210.962 111.12 210.962 111.84 210.962 112.56 210.962 113.4 210.962 114.12 210.842 114.84 210.842 115.56 210.842 116.4 210.842 117.12 210.842 117.84 210.842 118.56 210.842 119.4 210.842 120.12 210.842 120.84 210.842 121.56 210.842 122.4 210.842 123.12 210.842 123.84 210.882 124.56 210.842 125.4 210.842 126.12 210.842 126.84 210.842 127.56 210.842 128.4 210.842 129.12 210.842 129.84 210.842 130.56 210.842 131.4 210.842 132.12 210.842 132.84 210.842 133.56 210.842 134.4 210.962 135.12 210.962 135.84 210.962 136.56 210.962 137.4 210.962 138.12 210.962 138.84 210.962 139.68 210.962 140.4 210.962 141.12 210.962 141.84 210.962 142.68 210.962 143.4 210.962 144.12 210.962 144.84 210.962 145.68 210.962 146.4 210.962 147.12 210.962 147.84 210.962 148.68 210.962 149.4 210.962 150.12 210.962 150.84 210.962 151.68 210.962 152.4 210.962 153.12 211.082 153.84 211.082 154.68 211.082 155.4 211.082 156.12 211.082 156.84 211.082 157.68 211.082 158.4 211.082 159.12 211.082 159.84 211.082 160.68 211.082 161.4 211.082 162.12 211.082 162.84 211.082 163.68 211.202 164.4 211.202 165.12 211.202 165.96 211.202 166.68 211.202 167.4 211.202 168.12 211.202 168.96 211.202 169.68 211.202 170.4 211.202 171.12 211.202 171.96 211.322 172.68 211.322 173.4 211.322 174.12 211.322 174.96 211.322 175.68 211.322 176.4 211.322 177.12 211.322 177.96 211.322 178.68 211.442 179.4 211.442 180.12 211.442 180.96 211.442 181.68 211.442 182.4 211.442 183.12 211.442 183.96 211.442 184.68 211.562 185.4 211.562 186.12 211.562 186.96 211.562 187.68 211.562 188.4 211.562 189.12 211.562 189.96 211.562 190.68 211.682 191.4 211.682 192.12 211.682 192.96 211.682 193.68 211.682 194.4 211.682 195.24 211.682 195.96 211.802 196.68 211.802 197.4 211.802 198.24 211.802 198.96 211.802 199.68 211.802 200.4 211.922 201.24 211.922 201.96 211.922 202.68 211.922 203.4 211.922 204.24 211.922 204.96 212.042 205.68 212.042 206.4 212.042 207.24 212.042 207.96 212.042 208.68 212.042 209.4 212.162 210.24 212.162 210.96 212.162 211.68 212.162 212.4 212.162 213.24 212.162 213.96 212.282 214.68 212.282 215.4 212.282 216.24 212.282 216.96 212.282 217.68 212.402 218.4 212.402 219.24 212.402 219.96 212.402 220.68 212.402 221.52 212.522 222.24 212.522 222.96 212.522 223.68 212.522 224.52 212.522 225.24 212.642 225.96 212.642 226.68 212.642 227.52 212.642 228.24 212.762 228.96 212.762 229.68 212.762 230.52 212.762 231.24 212.762 231.96 212.882 232.68 212.882 233.52 212.882 234.24 212.882 234.96 213.002 235.68 213.002 236.52 213.002 237.24 213.002 237.96 213.122 238.68 213.122 239.52 213.122 240.24 213.122 240.96 213.122 241.68 213.242 242.52 213.242 243.24 213.242 243.96 213.242 244.68 213.362 245.52 213.362 246.24 213.362 246.96 213.362 247.8 213.482 248.52 213.482 249.24 213.482 249.96 213.602 250.8 213.602 251.52 213.602 252.24 213.602 252.96 213.722 253.8 213.722 254.52 213.722 255.24 213.722 255.96 213.842 256.8 213.842 257.52 213.842 258.24 213.962 258.96 213.962 259.8 213.962 260.52 213.962 261.24 214.082 261.96 214.082 262.8 214.082 263.52 214.202 264.24 214.202 264.96 214.202 265.8 214.202 266.52 214.322 267.24 214.322 267.96 214.322 268.8 214.442 269.52 214.442 270.24 214.442 270.96 214.562 271.8 214.562 272.52 214.562 273.24 214.562 274.08 214.682 274.8 214.682 275.52 214.682 276.24 214.802 277.08 214.802 277.8 214.802 278.52 214.922 279.24 214.922 280.08 214.922 280.8 215.042 281.52 215.042 282.24 215.042 283.08 215.162 283.8 215.162 284.52 215.162 285.24 215.282 286.08 215.282 286.8 215.282 287.52 215.402 288.24 215.402 289.08 215.402 289.8 215.522 290.52 215.522 291.24 215.522 292.08 215.642 292.8 215.642 293.52 215.762 294.24 215.762 295.08 215.762 295.8 215.882 296.52 215.882 297.24 215.882 298.08 216.002 298.8 216.002 299.52 216.002 300.36 216.122 301.08 216.122 301.8 216.242 302.52 216.242 303.36 216.242 304.08 216.362 304.8 216.362 305.52 216.362 306.36 216.482 307.08 216.482 307.8 216.602 308.52 216.602 309.36 216.602 310.08 216.722 310.8 216.722 311.52 216.722 312.36 216.842 313.08 216.842 313.8 216.962 314.52 216.962 315.36 216.962 316.08 217.082 316.8 217.082 317.52 217.202 318.36 217.202 319.08 217.202 319.8 217.322 320.52 217.322 321.36 217.442 322.08 217.442 322.8 217.562 323.52 217.562 324.36 217.562 325.08 217.682 325.8 217.682 326.64 217.802 327.36 217.802 328.08 217.922 328.8 217.922 329.64 217.922 330.36 218.042 331.08 218.042 331.8 218.162 332.64 218.162 333.36 218.282 334.08 218.282 334.8 218.282 335.64 218.402 336.36 218.402 337.08 218.522 337.8 218.522 338.64 218.642 339.36 218.642 340.08 218.762 340.8 218.762 341.64 218.762 342.36 218.882 343.08 218.882 343.8 219.002 344.64 219.002 345.36 219.122 346.08 219.122 346.8 219.242 347.64 219.242 348.36 219.362 349.08 219.362 349.8 219.482 350.64 219.482 351.36 219.602 352.08 219.602 352.92 219.602 353.64 219.722 354.36 219.722 355.08 219.842 355.92 219.842 356.64 219.962 357.36 219.962 358.08 220.082 358.92 220.082 359.64 220.202 360.36 220.202 361.08 220.322 361.92 220.322 362.64 220.442 363.36 220.442 364.08 220.562 364.92 220.562 365.64 220.682 366.36 220.682 367.08 220.802 367.92 220.802 368.64 220.922 369.36 220.922 370.08 221.042 370.92 221.042 371.64 221.162 372.36 221.162 373.08 221.282 373.92 221.402 374.64 221.402 375.36 221.522 376.08 221.522 376.92 221.642 377.64 221.642 378.36 221.762 379.08 221.762 379.92 221.882 380.64 221.882 381.36 222.002 382.2 222.002 382.92 222.122 383.64 222.122 384.36 222.242 385.2 222.362 385.92 222.362 386.64 222.482 387.36 222.482 388.2 222.602 388.92 222.602 389.64 222.722 390.36 222.722 391.2 222.842 391.92 222.962 392.64 222.962 393.36 223.082 394.2 223.082 394.92 223.202 395.64 223.202 396.36 223.322 397.2 223.442 397.92 223.442 398.64 223.562 399.36 223.562 400.2 223.682 400.92 223.682 401.64 223.802 402.36 223.922 403.2 223.922 403.92 224.042 404.64 224.042 405.36 224.162 406.2 224.282 406.92 224.282 407.64 224.402 408.48 224.402 409.2 224.522 409.92 224.522 410.64 224.642 411.48 224.762 412.2 224.762 412.92 224.882 413.64 225.002 414.48 225.002 415.2 225.122 415.92 225.122 416.64 225.242 417.48 225.362 418.2 225.362 418.92 225.482 419.64 225.482 420.48 225.602 421.2 225.722 421.92 225.722 422.64 225.842 423.48 225.962 424.2 225.962 424.92 226.082 425.64 226.082 426.48 226.202 427.2 226.322 427.92 226.322 428.64 226.442 429.48 226.562 430.2 226.562 430.92 226.682 431.64 226.802 432.48 226.802 433.2 226.922 433.92 226.922 434.76 227.042 435.48 227.162 436.2 227.162 436.92 227.282 437.76 227.402 438.48 227.402 439.2 227.522 439.92 227.642 440.76 227.642 441.48 227.762 442.2 227.882 442.92 227.882 443.76 228.002 444.48 228.122 445.2 228.122 445.92 228.242 446.76 228.362 447.48 228.362 448.2 228.482 448.92 228.602 449.76 228.602 450.48 228.722 451.2 228.842 451.92 228.962 452.76 228.962 453.48 229.082 454.2 229.202 454.92 229.202 455.76 229.322 456.48 229.442 457.2 229.442 457.92 229.562 458.76 229.682 459.48 229.682 460.2 229.802 461.04 229.922 461.76 230.042 462.48 230.042 463.2 230.162 464.04 230.282 464.76 230.282 465.48 230.402 466.2 230.522 467.04 230.642 467.76 230.642 468.48 230.762 469.2 230.882 470.04 230.882 470.76 231.002 471.48 231.122 472.2 231.242 473.04 231.242 473.76 231.362 474.48 231.482 475.2 231.602 476.04 231.602 476.76 231.722 477.48 231.842 478.2 231.962 479.04 231.962 479.76 232.082 480.48 232.202 481.2 232.322 482.04 232.322 482.76 232.442 483.48 232.562 484.2 232.682 485.04 232.682 485.76 232.802 486.48 232.922 487.32 233.042 488.04 233.042 488.76 233.162 489.48 233.282 490.32 233.402 491.04 233.402 491.76 233.522 492.48 233.642 493.32 233.762 494.04 233.762 494.76 233.882 495.48 234.002 496.32 234.122 497.04 234.242 497.76 234.242 498.48 234.362 499.32 234.482 500.04 234.602 500.76 234.722 501.48 234.722 502.32 234.842 503.04 234.962 503.76 235.082 504.48 235.202 505.32 235.202 506.04 235.322 506.76 235.442 507.48 235.562 508.32 235.682 509.04 235.682 509.76 235.802 510.48 235.922 511.32 236.042 512.04 236.162 512.76 236.162 513.6 236.282 514.32 236.402 515.04 236.522 515.76 236.642 516.6 236.642 517.32 236.762 518.04 236.882 518.76 237.002 519.6 237.122 520.32 237.242 521.04 237.242 521.76 237.362 522.6 237.482 523.32 237.602 524.04 237.722 524.76 237.842 525.6 237.842 526.32 237.962 527.04 238.082 527.76 238.202 528.6 238.322 529.32 238.442 530.04 238.562 530.76 238.562 531.6 238.682 532.32 238.802 533.04 238.922 533.76 239.042 534.6 239.162 535.32 239.282 536.04 239.282 536.76 239.402 537.6 239.522 538.32 239.642 539.04 239.762 539.88 239.882 540.6 240.002 541.32 240.002 542.04 240.122 542.88 240.242 543.6 240.362 544.32 240.482 545.04 240.602 545.88 240.722 546.6 240.842 547.32 240.962 548.04 240.962 548.88 241.082 549.6 241.202 550.32 241.322 551.04 241.442 551.88 241.562 552.6 241.682 553.32 241.802 554.04 241.922 554.88 241.922 555.6 242.042 556.32 242.162 557.04 242.282 557.88 242.402 558.6 242.522 559.32 242.642 560.04 242.762 560.88 242.882 561.6 243.002 562.32 243.122 563.04 243.122 563.88 243.242 564.6 243.362 565.32 243.482 566.04 243.602 566.88 243.722 567.6 243.842 568.32 243.962 569.16 244.082 569.88 244.202 570.6 244.322 571.32 244.442 572.16 244.562 572.88 244.682 573.6 244.802 574.32 244.802 575.16 244.922 575.88 245.042 576.6 245.162 577.32 245.282 578.16 245.402 578.88 245.522 579.6 245.642 580.32 245.762 581.16 245.882 581.88 246.002 582.6 246.122 583.32 246.242 584.16 246.362 584.88 246.482 585.6 246.602 586.32 246.722 587.16 246.842 587.88 246.962 588.6 247.082 589.32 247.202 590.16 247.322 590.88 247.442 591.6 247.562 592.32 247.682 593.16 247.802 593.88 247.922 594.6 248.042 595.44 248.162 596.16 248.282 596.88 248.402 597.6 248.402 598.44 248.522 599.16 248.642 599.88 248.762 600.6 248.882 601.44 249.002 602.16 249.122 602.88 249.242 603.6 249.362 604.44 249.482 605.16 249.722 605.88 249.842 606.6 249.962 607.44 250.082 608.16 250.202 608.88 250.322 609.6 250.442 610.44 250.562 611.16 250.682 611.88 250.802 612.6 250.922 613.44 251.042 614.16 251.162 614.88 251.282 615.6 251.402 616.44 251.522 617.16 251.642 617.88 251.762 618.6 251.882 619.44 252.002 620.16 252.122 620.88 252.242 621.72 252.362 622.44 252.482 623.16 252.602 623.88 252.722 624.72 252.842 625.44 252.962 626.16 253.082 626.88 253.202 627.72 253.322 628.44 253.562 629.16 253.682 629.88 253.802 630.72 253.922 631.44 254.042 632.16 254.162 632.88 254.282 633.72 254.402 634.44 254.522 635.16 254.642 635.88 254.762 636.72 254.882 637.44 255.002 638.16 255.122 638.88 255.242 639.72 255.482 640.44 255.602 641.16 255.722 641.88 255.842 642.72 255.962 643.44 256.082 644.16 256.202 644.88 256.322 645.72 256.442 646.44 256.562 647.16 256.682 648 256.922 648.72 257.042 649.44 257.162 650.16 257.282 651 257.402 651.72 257.522 652.44 257.642 653.16 257.762 654 257.882 654.72 258.002 655.44 258.242 656.16 258.362 657 258.482 657.72 258.602 658.44 258.722 659.16 258.842 660 258.962 660.72 259.082 661.44 259.322 662.16 259.442 663 259.562 663.72 259.682 664.44 259.802 665.16 259.922 666 260.042 666.72 260.162 667.44 260.402 668.16 260.522 669 260.642 669.72 260.762 670.44 260.882 671.16 261.002 672 261.122 672.72 261.362 673.44 261.482 674.28 261.602 675 261.722 675.72 261.842 676.44 261.962 677.28 262.202 678 262.322 678.72 262.442 679.44 262.562 680.28 262.682 681 262.802 681.72 263.042 682.44 263.162 683.28 263.282 684 263.402 684.72 263.522 685.44 263.642 686.28 263.882 687 264.002 687.72 264.122 688.44 264.242 689.28 264.362 690 264.482 690.72 264.722 691.44 264.842 692.28 264.962 693 265.082 693.72 265.202 694.44 265.442 695.28 265.562 696 265.682 696.72 265.802 697.44 265.922 698.28 266.162 699 266.282 699.72 266.402 700.56 266.522 701.28 266.642 702 266.882 702.72 267.002 703.56 267.122 704.28 267.242 705 267.482 705.76 267.572"/></g><g class="f"><polyline class="i" points="43.513 329.392 44.28 329.402 45 329.402 45.72 329.402 46.56 329.402 47.28 329.402 48 329.402 48.72 329.402 49.56 329.402 50.28 329.402 51 329.402 51.72 329.402 52.56 329.402 53.28 329.282 54 329.282 54.72 329.282 55.56 329.282 56.28 329.282 57 329.282 57.72 329.282 58.56 329.282 59.28 329.282 60 329.282 60.84 329.162 61.56 329.162 62.28 329.162 63 329.162 63.84 329.162 64.56 329.162 65.28 329.162 66 329.042 66.84 329.042 67.56 329.042 68.28 329.042 69 329.042 69.84 329.042 70.56 328.922 71.28 328.922 72 328.922 72.84 328.922 73.56 328.922 74.28 328.802 75 328.802 75.84 328.802 76.56 328.802 77.28 328.682 78 328.682 78.84 328.682 79.56 328.682 80.28 328.562 81 328.562 81.84 328.562 82.56 328.562 83.28 328.442 84 328.442 84.84 328.442 85.56 328.322 86.28 328.322 87.12 328.322 87.84 328.202 88.56 328.202 89.28 328.202 90.12 328.202 90.84 328.082 91.56 328.082 92.28 327.962 93.12 327.962 93.84 327.962 94.56 327.842 95.28 327.842 96.12 327.842 96.84 327.722 97.56 327.722 98.28 327.602 99.12 327.602 99.84 327.602 100.56 327.482 101.28 327.482 102.12 327.362 102.84 327.362 103.56 327.362 104.28 327.242 105.12 327.242 105.84 327.122 106.56 327.122 107.28 327.002 108.12 327.002 108.84 326.882 109.56 326.882 110.28 326.762 111.12 326.762 111.84 326.642 112.56 326.642 113.4 326.522 114.12 326.522 114.84 326.402 115.56 326.402 116.4 326.282 117.12 326.282 117.84 326.162 118.56 326.162 119.4 326.042 120.12 326.042 120.84 325.922 121.56 325.922 122.4 325.802 123.12 325.682 123.84 325.682 124.56 325.562 125.4 325.562 126.12 325.442 126.84 325.442 127.56 325.322 128.4 325.202 129.12 325.202 129.84 325.082 130.56 324.962 131.4 324.962 132.12 324.842 132.84 324.842 133.56 324.722 134.4 324.602 135.12 324.602 135.84 324.482 136.56 324.362 137.4 324.362 138.12 324.242 138.84 324.122 139.68 324.122 140.4 324.002 141.12 323.882 141.84 323.762 142.68 323.762 143.4 323.642 144.12 323.522 144.84 323.522 145.68 323.402 146.4 323.282 147.12 323.162 147.84 323.162 148.68 323.042 149.4 322.922 150.12 322.802 150.84 322.682 151.68 322.682 152.4 322.562 153.12 322.442 153.84 322.322 154.68 322.322 155.4 322.202 156.12 322.082 156.84 321.962 157.68 321.842 158.4 321.722 159.12 321.722 159.84 321.602 160.68 321.482 161.4 321.362 162.12 321.242 162.84 321.122 163.68 321.122 164.4 321.002 165.12 320.882 165.96 320.762 166.68 320.642 167.4 320.522 168.12 320.402 168.96 320.282 169.68 320.162 170.4 320.042 171.12 320.042 171.96 319.922 172.68 319.802 173.4 319.682 174.12 319.562 174.96 319.442 175.68 319.322 176.4 319.202 177.12 319.082 177.96 318.962 178.68 318.842 179.4 318.722 180.12 318.602 180.96 318.482 181.68 318.362 182.4 318.242 183.12 318.122 183.96 318.002 184.68 317.882 185.4 317.762 186.12 317.642 186.96 317.522 187.68 317.402 188.4 317.282 189.12 317.162 189.96 317.042 190.68 316.922 191.4 316.802 192.12 316.682 192.96 316.562 193.68 316.322 194.4 316.202 195.24 316.082 195.96 315.962 196.68 315.842 197.4 315.722 198.24 315.602 198.96 315.482 199.68 315.362 200.4 315.242 201.24 315.002 201.96 314.882 202.68 314.762 203.4 314.642 204.24 314.522 204.96 314.402 205.68 314.162 206.4 314.042 207.24 313.922 207.96 313.802 208.68 313.682 209.4 313.562 210.24 313.322 210.96 313.202 211.68 313.082 212.4 312.962 213.24 312.722 213.96 312.602 214.68 312.482 215.4 312.362 216.24 312.242 216.96 312.002 217.68 311.882 218.4 311.762 219.24 311.522 219.96 311.402 220.68 311.282 221.52 311.162 222.24 310.922 222.96 310.802 223.68 310.682 224.52 310.442 225.24 310.322 225.96 310.202 226.68 310.082 227.52 309.842 228.24 309.722 228.96 309.602 229.68 309.362 230.52 309.242 231.24 309.002 231.96 308.882 232.68 308.762 233.52 308.522 234.24 308.402 234.96 308.282 235.68 308.042 236.52 307.922 237.24 307.682 237.96 307.562 238.68 307.442 239.52 307.202 240.24 307.082 240.96 306.842 241.68 306.722 242.52 306.602 243.24 306.362 243.96 306.242 244.68 306.002 245.52 305.882 246.24 305.642 246.96 305.522 247.8 305.282 248.52 305.162 249.24 304.922 249.96 304.802 250.8 304.562 251.52 304.442 252.24 304.202 252.96 304.082 253.8 303.842 254.52 303.722 255.24 303.482 255.96 303.362 256.8 303.122 257.52 303.002 258.24 302.762 258.96 302.642 259.8 302.402 260.52 302.282 261.24 302.042 261.96 301.802 262.8 301.682 263.52 301.442 264.24 301.322 264.96 301.082 265.8 300.842 266.52 300.722 267.24 300.482 267.96 300.362 268.8 300.122 269.52 299.882 270.24 299.762 270.96 299.522 271.8 299.282 272.52 299.162 273.24 298.922 274.08 298.682 274.8 298.562 275.52 298.322 276.24 298.082 277.08 297.962 277.8 297.722 278.52 297.482 279.24 297.362 280.08 297.122 280.8 296.882 281.52 296.762 282.24 296.522 283.08 296.282 283.8 296.042 284.52 295.922 285.24 295.682 286.08 295.442 286.8 295.202 287.52 295.082 288.24 294.842 289.08 294.602 289.8 294.362 290.52 294.122 291.24 294.002 292.08 293.762 292.8 293.522 293.52 293.282 294.24 293.042 295.08 292.922 295.8 292.682 296.52 292.442 297.24 292.202 298.08 291.962 298.8 291.842 299.52 291.602 300.36 291.362 301.08 291.122 301.8 290.882 302.52 290.642 303.36 290.402 304.08 290.162 304.8 290.042 305.52 289.802 306.36 289.562 307.08 289.322 307.8 289.082 308.52 288.842 309.36 288.602 310.08 288.362 310.8 288.122 311.52 287.882 312.36 287.642 313.08 287.522 313.8 287.282 314.52 287.042 315.36 286.802 316.08 286.562 316.8 286.322 317.52 286.082 318.36 285.842 319.08 285.602 319.8 285.362 320.52 285.122 321.36 284.882 322.08 284.642 322.8 284.402 323.52 284.162 324.36 283.922 325.08 283.682 325.8 283.442 326.64 283.202 327.36 282.962 328.08 282.722 328.8 282.362 329.64 282.122 330.36 281.882 331.08 281.642 331.8 281.402 332.64 281.162 333.36 280.922 334.08 280.682 334.8 280.442 335.64 280.202 336.36 279.962 337.08 279.602 337.8 279.362 338.64 279.122 339.36 278.882 340.08 278.642 340.8 278.402 341.64 278.162 342.36 277.802 343.08 277.562 343.8 277.322 344.64 277.082 345.36 276.842 346.08 276.602 346.8 276.242 347.64 276.002 348.36 275.762 349.08 275.522 349.8 275.282 350.64 274.922 351.36 274.682 352.08 274.442 352.92 274.202 353.64 273.962 354.36 273.602 355.08 273.362 355.92 273.122 356.64 272.882 357.36 272.522 358.08 272.282 358.92 272.042 359.64 271.682 360.36 271.442 361.08 271.202 361.92 270.962 362.64 270.602 363.36 270.362 364.08 270.122 364.92 269.762 365.64 269.522 366.36 269.282 367.08 268.922 367.92 268.682 368.64 268.442 369.36 268.082 370.08 267.842 370.92 267.602 371.64 267.242 372.36 267.002 373.08 266.642 373.92 266.402 374.64 266.162 375.36 265.802 376.08 265.562 376.92 265.202 377.64 264.962 378.36 264.722 379.08 264.362 379.92 264.122 380.64 263.762 381.36 263.522 382.2 263.282 382.92 262.922 383.64 262.682 384.36 262.322 385.2 262.082 385.92 261.722 386.64 261.482 387.36 261.122 388.2 260.882 388.92 260.522 389.64 260.282 390.36 259.922 391.2 259.682 391.92 259.322 392.64 259.082 393.36 258.722 394.2 258.482 394.92 258.122 395.64 257.882 396.36 257.522 397.2 257.282 397.92 256.922 398.64 256.562 399.36 256.322 400.2 255.962 400.92 255.722 401.64 255.362 402.36 255.122 403.2 254.762 403.92 254.402 404.64 254.162 405.36 253.802 406.2 253.442 406.92 253.202 407.64 252.842 408.48 252.602 409.2 252.242 409.92 251.882 410.64 251.642 411.48 251.282 412.2 250.922 412.92 250.682 413.64 250.322 414.48 249.962 415.2 249.722 415.92 249.362 416.64 249.002 417.48 248.762 418.2 248.402 418.92 248.042 419.64 247.682 420.48 247.442 421.2 247.082 421.92 246.722 422.64 246.482 423.48 246.122 424.2 245.762 424.92 245.402 425.64 245.162 426.48 244.802 427.2 244.442 427.92 244.082 428.64 243.722 429.48 243.482 430.2 243.122 430.92 242.762 431.64 242.402 432.48 242.162 433.2 241.802 433.92 241.442 434.76 241.082 435.48 240.722 436.2 240.362 436.92 240.122 437.76 239.762 438.48 239.402 439.2 239.042 439.92 238.682 440.76 238.322 441.48 237.962 442.2 237.722 442.92 237.362 443.76 237.002 444.48 236.642 445.2 236.282 445.92 235.922 446.76 235.562 447.48 235.202 448.2 234.842 448.92 234.482 449.76 234.122 450.48 233.882 451.2 233.522 451.92 233.162 452.76 232.802 453.48 232.442 454.2 232.082 454.92 231.722 455.76 231.362 456.48 231.002 457.2 230.642 457.92 230.282 458.76 229.922 459.48 229.562 460.2 229.202 461.04 228.842 461.76 228.482 462.48 228.122 463.2 227.762 464.04 227.402 464.76 227.042 465.48 226.682 466.2 226.322 467.04 225.962 467.76 225.602 468.48 225.122 469.2 224.762 470.04 224.402 470.76 224.042 471.48 223.682 472.2 223.322 473.04 222.962 473.76 222.602 474.48 222.242 475.2 221.882 476.04 221.402 476.76 221.042 477.48 220.682 478.2 220.322 479.04 219.962 479.76 219.602 480.48 219.242 481.2 218.882 482.04 218.402 482.76 218.042 483.48 217.682 484.2 217.322 485.04 216.962 485.76 216.482 486.48 216.122 487.32 215.762 488.04 215.402 488.76 215.042 489.48 214.562 490.32 214.202 491.04 213.842 491.76 213.482 492.48 213.002 493.32 212.642 494.04 212.282 494.76 211.922 495.48 211.442 496.32 211.082 497.04 210.722 497.76 210.362 498.48 209.882 499.32 209.522 500.04 209.162 500.76 208.682 501.48 208.322 502.32 207.962 503.04 207.602 503.76 207.122 504.48 206.762 505.32 206.402 506.04 205.922 506.76 205.562 507.48 205.202 508.32 204.722 509.04 204.362 509.76 203.882 510.48 203.522 511.32 203.162 512.04 202.682 512.76 202.322 513.6 201.962 514.32 201.482 515.04 201.122 515.76 200.642 516.6 200.282 517.32 199.922 518.04 199.442 518.76 199.082 519.6 198.602 520.32 198.242 521.04 197.762 521.76 197.402 522.6 196.922 523.32 196.562 524.04 196.202 524.76 195.722 525.6 195.362 526.32 194.882 527.04 194.522 527.76 194.042 528.6 193.682 529.32 193.202 530.04 192.842 530.76 192.362 531.6 192.002 532.32 191.522 533.04 191.042 533.76 190.682 534.6 190.202 535.32 189.842 536.04 189.362 536.76 189.002 537.6 188.522 538.32 188.162 539.04 187.682 539.88 187.202 540.6 186.842 541.32 186.362 542.04 186.002 542.88 185.522 543.6 185.042 544.32 184.682 545.04 184.202 545.88 183.842 546.6 183.362 547.32 182.882 548.04 182.522 548.88 182.042 549.6 181.562 550.32 181.202 551.04 180.722 551.88 180.242 552.6 179.882 553.32 179.402 554.04 178.922 554.88 178.562 555.6 178.082 556.32 177.602 557.04 177.242 557.88 176.762 558.6 176.282 559.32 175.802 560.04 175.442 560.88 174.962 561.6 174.482 562.32 174.002 563.04 173.642 563.88 173.162 564.6 172.682 565.32 172.202 566.04 171.842 566.88 171.362 567.6 170.882 568.32 170.402 569.16 170.042 569.88 169.562 570.6 169.082 571.32 168.602 572.16 168.122 572.88 167.762 573.6 167.282 574.32 166.802 575.16 166.322 575.88 165.842 576.6 165.362 577.32 164.882 578.16 164.522 578.88 164.042 579.6 163.562 580.32 163.082 581.16 162.602 581.88 162.122 582.6 161.642 583.32 161.162 584.16 160.802 584.88 160.322 585.6 159.842 586.32 159.362 587.16 158.882 587.88 158.402 588.6 157.922 589.32 157.442 590.16 156.962 590.88 156.482 591.6 156.002 592.32 155.522 593.16 155.042 593.88 154.562 594.6 154.082 595.44 153.602 596.16 153.122 596.88 152.642 597.6 152.162 598.44 151.682 599.16 151.202 599.88 150.722 600.6 150.242 601.44 149.762 602.16 149.282 602.88 148.802 603.6 148.322 604.44 147.842 605.16 147.362 605.88 146.882 606.6 146.402 607.44 145.922 608.16 145.442 608.88 144.962 609.6 144.482 610.44 144.002 611.16 143.522 611.88 142.922 612.6 142.442 613.44 141.962 614.16 141.482 614.88 141.002 615.6 140.522 616.44 140.042 617.16 139.562 617.88 138.962 618.6 138.482 619.44 138.002 620.16 137.522 620.88 137.042 621.72 136.562 622.44 135.962 623.16 135.482 623.88 135.002 624.72 134.522 625.44 134.042 626.16 133.442 626.88 132.962 627.72 132.482 628.44 132.002 629.16 131.522 629.88 130.922 630.72 130.442 631.44 129.962 632.16 129.482 632.88 128.882 633.72 128.402 634.44 127.922 635.16 127.442 635.88 126.842 636.72 126.362 637.44 125.882 638.16 125.282 638.88 124.802 639.72 124.322 640.44 123.842 641.16 123.242 641.88 122.762 642.72 122.282 643.44 121.682 644.16 121.202 644.88 120.722 645.72 120.122 646.44 119.642 647.16 119.162 648 118.562 648.72 118.082 649.44 117.482 650.16 117.002 651 116.522 651.72 115.922 652.44 115.442 653.16 114.842 654 114.362 654.72 113.882 655.44 113.282 656.16 112.802 657 112.202 657.72 111.722 658.44 111.242 659.16 110.642 660 110.162 660.72 109.562 661.44 109.082 662.16 108.482 663 108.002 663.72 107.402 664.44 106.922 665.16 106.322 666 105.842 666.72 105.242 667.44 104.762 668.16 104.162 669 103.682 669.72 103.082 670.44 102.602 671.16 102.002 672 101.522 672.72 100.922 673.44 100.442 674.28 99.842 675 99.362 675.72 98.762 676.44 98.162 677.28 97.682 678 97.082 678.72 96.602 679.44 96.002 680.28 95.402 681 94.922 681.72 94.322 682.44 93.842 683.28 93.242 684 92.642 684.72 92.162 685.44 91.562 686.28 91.082 687 90.482 687.72 89.882 688.44 89.402 689.28 88.802 690 88.202 690.72 87.722 691.44 87.122 692.28 86.522 693 86.042 693.72 85.442 694.44 84.842 695.28 84.242 696 83.762 696.72 83.162 697.44 82.562 698.28 82.082 699 81.482 699.72 80.882 700.56 80.282 701.28 79.802 702 79.202 702.72 78.602 703.56 78.002 704.28 77.522 705 76.922 705.76 76.322"/></g><g class="j"><text class="k" transform="translate(16.512 444.219)">0</text></g><g class="j"><text class="k" transform="translate(6.504 383.952)">10</text></g><g class="j"><text class="k" transform="translate(6.504 323.692)">20</text></g><g class="j"><text class="k" transform="translate(6.504 263.422)">30</text></g><g class="j"><text class="k" transform="translate(6.504 203.162)">40</text></g><g class="j"><text class="k" transform="translate(6.504 142.902)">50</text></g><g class="j"><text class="k" transform="translate(6.504 82.632)">60</text></g><g class="j"><text class="k" transform="translate(6.504 22.342)">70</text></g><g class="j"><text class="k" transform="translate(38.52 467.714)">0</text></g><g class="j"><text class="k" transform="translate(160.99 467.714)">100</text></g><g class="j"><text class="k" transform="translate(293.47 467.714)">200</text></g><g class="j"><text class="k" transform="translate(425.93 467.714)">300</text></g><g class="j"><text class="k" transform="translate(558.38 467.714)">400</text></g><g class="j"><text class="k" transform="translate(690.86 467.714)">500</text></g></svg>