<svg id="19c9c6fc-a970-402b-aca3-e51ed390dc1d" data-name="图层 1" xmlns="http://www.w3.org/2000/svg" viewBox="0 0 678.97168 209.74023"><defs><style>.\37 5ee9e56-c824-438e-a5de-ee9c12438255{fill:none;stroke:#000;stroke-miterlimit:10;}.\33 d42cad3-1596-42f7-a513-a97011dee569{isolation:isolate;font-size:16px;font-family:FZHTK--GBK1-0, FZHei-B01;}</style></defs><title>固体废弃物</title><line class="75ee9e56-c824-438e-a5de-ee9c12438255" x1="229.39999" y1="201.5343" x2="276.10001" y2="201.5343"/><polyline class="75ee9e56-c824-438e-a5de-ee9c12438255" points="82.6 105.334 106 105.334 106 201.534 129.4 201.534"/><line class="75ee9e56-c824-438e-a5de-ee9c12438255" x1="229.39999" y1="137.3343" x2="276.10001" y2="137.3343"/><polyline class="75ee9e56-c824-438e-a5de-ee9c12438255" points="82.6 105.334 106 105.334 106 137.434 129.4 137.434"/><line class="75ee9e56-c824-438e-a5de-ee9c12438255" x1="229.39999" y1="73.3343" x2="276.10001" y2="73.3343"/><polyline class="75ee9e56-c824-438e-a5de-ee9c12438255" points="82.6 105.334 106 105.334 106 73.334 129.4 73.334"/><line class="75ee9e56-c824-438e-a5de-ee9c12438255" x1="229.39999" y1="9.2343" x2="276.10001" y2="9.2343"/><polyline class="75ee9e56-c824-438e-a5de-ee9c12438255" points="82.6 105.434 106 105.434 106 9.234 129.4 9.234"/><text class="3d42cad3-1596-42f7-a513-a97011dee569" transform="translate(0 109.8761)">固体废弃物</text><text class="3d42cad3-1596-42f7-a513-a97011dee569" transform="translate(163.3716 13.6554)">分类</text><text class="3d42cad3-1596-42f7-a513-a97011dee569" transform="translate(278.97171 13.6554)">主要是分离出金属（黑色、有色）、纸类、塑料、玻璃等</text><text class="3d42cad3-1596-42f7-a513-a97011dee569" transform="translate(139.4917 77.80579)">资源化利用</text><text class="3d42cad3-1596-42f7-a513-a97011dee569" transform="translate(278.97171 77.80579)">焚烧发电供热、生产有机复合肥、生产沼气、生产饲料等</text><text class="3d42cad3-1596-42f7-a513-a97011dee569" transform="translate(147.41161 141.9552)">灰渣处理</text><text class="3d42cad3-1596-42f7-a513-a97011dee569" transform="translate(278.97171 141.9552)">建材生产、公路路基土等</text><text class="3d42cad3-1596-42f7-a513-a97011dee569" transform="translate(139.4917 206.11542)">无害化堆埋</text><text class="3d42cad3-1596-42f7-a513-a97011dee569" transform="translate(278.97171 206.11542)">垃圾堆埋后，表明覆土绿化</text></svg>