<svg id="90154867-1fd5-409a-b11b-89715a5d09b0" data-name="4265c5d8-022a-469f-a2c2-a4393d503ff5" xmlns="http://www.w3.org/2000/svg" xmlns:xlink="http://www.w3.org/1999/xlink" viewBox="0 0 281.94629 71.59033"><defs><style>.\38 f158901-cb8d-4257-bb7b-b713b6494441,.\39 26b120f-6f36-4618-927a-dcf7479214a7{fill:none;}.\32 300e260-efb7-4162-a2f1-1bda9a55f064,.\37 8c1c7f2-3186-4bc1-bdf1-37be19ef8cb1{isolation:isolate;font-family:FZHTK--GBK1-0, FZHei-B01;}.\32 300e260-efb7-4162-a2f1-1bda9a55f064{font-size:12px;}.\37 8c1c7f2-3186-4bc1-bdf1-37be19ef8cb1{font-size:8px;}.\37 59e07d1-b1d2-47f9-90f7-10791a3884bf{fill:url(#ac01c789-26df-4263-840e-3315deb5e1eb);}.\39 26b120f-6f36-4618-927a-dcf7479214a7{stroke:#000;stroke-linejoin:round;}.f9c7ab5e-4963-40b3-a89c-d0a46b27e7b0{fill:url(#d478be33-c367-4b6c-aaba-07f6ace9cab8);}.\35 7772490-69a0-4661-aadd-af0c5fcf86b8{fill:url(#51d0a491-b81f-4dbf-9d3f-df8404c35a35);}</style><pattern id="ac01c789-26df-4263-840e-3315deb5e1eb" data-name="SVGID 7 " width="281.89999" height="71.6" patternTransform="matrix(0.9974, 0, 0, -0.9893, 357.689, 16912.1291)" patternUnits="userSpaceOnUse" viewBox="0 0 281.9 71.6"><rect class="8f158901-cb8d-4257-bb7b-b713b6494441" width="281.89999" height="71.6"/></pattern><pattern id="d478be33-c367-4b6c-aaba-07f6ace9cab8" data-name="SVGID 8 " width="281.89999" height="71.6" patternTransform="translate(411.3054 493.62493) scale(0.9987 0.9946)" patternUnits="userSpaceOnUse" viewBox="0 0 281.9 71.6"><rect class="8f158901-cb8d-4257-bb7b-b713b6494441" width="281.89999" height="71.6"/></pattern><pattern id="51d0a491-b81f-4dbf-9d3f-df8404c35a35" data-name="SVGID 9 " width="281.89999" height="71.6" patternTransform="matrix(0.9974, 0, 0, -0.9893, 451.689, 16882.72871)" patternUnits="userSpaceOnUse" viewBox="0 0 281.9 71.6"><rect class="8f158901-cb8d-4257-bb7b-b713b6494441" width="281.89999" height="71.6"/></pattern></defs><title>有机态磷-核酸类</title><text class="2300e260-efb7-4162-a2f1-1bda9a55f064" transform="translate(0 13.17413)">核蛋白</text><text class="2300e260-efb7-4162-a2f1-1bda9a55f064" transform="translate(68.97949 13.17413)">核酸</text><text class="2300e260-efb7-4162-a2f1-1bda9a55f064" transform="translate(107.3584 13.17413)">蛋白质</text><text class="2300e260-efb7-4162-a2f1-1bda9a55f064" transform="translate(122.86761 32.96265)">磷酸</text><text class="2300e260-efb7-4162-a2f1-1bda9a55f064" transform="translate(161.94629 32.96265)">含氨的嘌呤基或吡啶基</text><text class="2300e260-efb7-4162-a2f1-1bda9a55f064" transform="translate(110.86761 68.87183)">植物吸收</text><text class="2300e260-efb7-4162-a2f1-1bda9a55f064" transform="translate(161.94629 49.90552)">核糖或脱氧核糖</text><text class="78c1c7f2-3186-4bc1-bdf1-37be19ef8cb1" transform="translate(43.18509 6.82693)">水解</text><text class="78c1c7f2-3186-4bc1-bdf1-37be19ef8cb1" transform="translate(87.55371 26.69315)">核酸酶</text><text class="2300e260-efb7-4162-a2f1-1bda9a55f064" transform="translate(151.4502 32.96265)">+</text><text class="2300e260-efb7-4162-a2f1-1bda9a55f064" transform="translate(151.4502 49.90552)">+</text><text class="2300e260-efb7-4162-a2f1-1bda9a55f064" transform="translate(97.16602 13.17413)">+</text><path class="759e07d1-b1d2-47f9-90f7-10791a3884bf" d="M65.9,9.4l-6,1.8,1.2-1.8L59.9,7.6Zm-26.8,0H65.9" transform="translate(0 -0.00038)"/><path class="926b120f-6f36-4618-927a-dcf7479214a7" d="M65.9,9.4l-6,1.8,1.2-1.8L59.9,7.6Zm-26.8,0H65.9" transform="translate(0 -0.00038)"/><path class="f9c7ab5e-4963-40b3-a89c-d0a46b27e7b0" d="M120.2,29.7l-6,1.8,1.2-1.8-1.2-1.8Zm-39.9,0h40" transform="translate(0 -0.00038)"/><path class="926b120f-6f36-4618-927a-dcf7479214a7" d="M120.2,29.7l-6,1.8,1.2-1.8-1.2-1.8Zm-39.9,0h40" transform="translate(0 -0.00038)"/><line class="926b120f-6f36-4618-927a-dcf7479214a7" x1="80.3" y1="29.69963" x2="80.3" y2="19.59963"/><path class="57772490-69a0-4661-aadd-af0c5fcf86b8" d="M134.9,56l-1.8-6,1.8,1.2,1.8-1.2Zm0-19V56.1" transform="translate(0 -0.00038)"/><path class="926b120f-6f36-4618-927a-dcf7479214a7" d="M134.9,56l-1.8-6,1.8,1.2,1.8-1.2Zm0-19V56.1" transform="translate(0 -0.00038)"/></svg>