<svg id="505ac312-19d6-488d-9358-2cf03ea5bc5b" data-name="2d4b6fc8-ca73-4bd1-a8d7-8ffe20651dd8" xmlns="http://www.w3.org/2000/svg" viewBox="0 0 452.59 306.70908"><defs><style>.\36 9e1a6ed-de8e-49b0-9e07-c3182ba42e0d,.\37 9361333-148a-45f2-826e-b5168a355c12{fill:none;stroke:#000;}.\36 9e1a6ed-de8e-49b0-9e07-c3182ba42e0d{stroke-linecap:round;stroke-linejoin:round;stroke-width:0.5px;}.\33 92e1db9-645d-4bca-a6d2-eef2088f5a66{isolation:isolate;font-size:10px;font-family:FZHTK--GBK1-0, FZHei-B01;}.\37 9361333-148a-45f2-826e-b5168a355c12{stroke-miterlimit:2;stroke-width:3.12px;}</style></defs><title>湖泊水体富营养化的污染来源</title><ellipse class="69e1a6ed-de8e-49b0-9e07-c3182ba42e0d" cx="72.25" cy="158.58406" rx="72" ry="35.28"/><text class="392e1db9-645d-4bca-a6d2-eef2088f5a66" transform="translate(7.2998 162.93359)">湖泊水体富营养化的污染来源</text><line class="79361333-148a-45f2-826e-b5168a355c12" x1="245.59" y1="75.96404" x2="335.59" y2="75.96404"/><text class="392e1db9-645d-4bca-a6d2-eef2088f5a66" transform="translate(281.01953 71.16406)">点源</text><path class="69e1a6ed-de8e-49b0-9e07-c3182ba42e0d" d="M239.92,179.91847c2.83,0,2.83-26.05,2.83-52.09,0-19.14,0-38.28,1.13-47.08" transform="translate(0 0.22559)"/><polygon points="240.78 80.704 245.59 75.964 246.49 82.664 240.78 80.704"/><line class="79361333-148a-45f2-826e-b5168a355c12" x1="245.59" y1="221.81407" x2="335.59" y2="221.81407"/><text class="392e1db9-645d-4bca-a6d2-eef2088f5a66" transform="translate(281.01953 217.29395)">面源</text><path class="69e1a6ed-de8e-49b0-9e07-c3182ba42e0d" d="M239.92,179.91847c2.83,0,2.83,10.41,2.83,20.83a138.189,138.189,0,0,0,.55,16.07" transform="translate(0 0.22559)"/><polygon points="245.7 215.054 245.59 221.814 240.25 217.674 245.7 215.054"/><line class="79361333-148a-45f2-826e-b5168a355c12" x1="149.92" y1="13.46405" x2="239.92001" y2="13.46405"/><text class="392e1db9-645d-4bca-a6d2-eef2088f5a66" transform="translate(185.22021 8.53418)">内源</text><path class="69e1a6ed-de8e-49b0-9e07-c3182ba42e0d" d="M144.25,159.07848c2.83,0,2.83-36.46,2.83-72.92,0-28.3,0-56.61,1.33-67.85" transform="translate(0 0.22559)"/><polygon points="145.3 18.394 149.92 13.464 151.09 20.114 145.3 18.394"/><line class="79361333-148a-45f2-826e-b5168a355c12" x1="341.26001" y1="55.13407" x2="431.26001" y2="55.13407"/><text class="392e1db9-645d-4bca-a6d2-eef2088f5a66" transform="translate(366.83008 50.28418)">工厂排污</text><line class="79361333-148a-45f2-826e-b5168a355c12" x1="341.26001" y1="96.80407" x2="431.26001" y2="96.80407"/><text class="392e1db9-645d-4bca-a6d2-eef2088f5a66" transform="translate(351.7998 92.03418)">生活污水的排放</text><path class="69e1a6ed-de8e-49b0-9e07-c3182ba42e0d" d="M335.59,75.73846c2.83,0,2.83-5.2,2.83-10.41,0-2.06,0-4.12.18-5.85" transform="translate(0 0.22559)"/><polygon points="335.61 58.834 341.26 55.134 340.83 61.874 335.61 58.834"/><path class="69e1a6ed-de8e-49b0-9e07-c3182ba42e0d" d="M335.59,75.73846c2.83,0,2.83,5.21,2.83,10.42,0,2.06,0,4.12.18,5.85" transform="translate(0 0.22559)"/><polygon points="340.83 90.064 341.26 96.804 335.61 93.104 340.83 90.064"/><line class="79361333-148a-45f2-826e-b5168a355c12" x1="341.26001" y1="138.47406" x2="431.26001" y2="138.47406"/><text class="392e1db9-645d-4bca-a6d2-eef2088f5a66" transform="translate(366.83008 133.78418)">农田肥料</text><line class="79361333-148a-45f2-826e-b5168a355c12" x1="341.26001" y1="180.14406" x2="431.26001" y2="180.14406"/><text class="392e1db9-645d-4bca-a6d2-eef2088f5a66" transform="translate(366.83008 175.53418)">农药污染</text><line class="79361333-148a-45f2-826e-b5168a355c12" x1="341.26001" y1="221.81407" x2="431.26001" y2="221.81407"/><text class="392e1db9-645d-4bca-a6d2-eef2088f5a66" transform="translate(356.82031 217.29395)">地面径流污染</text><line class="79361333-148a-45f2-826e-b5168a355c12" x1="341.26001" y1="263.48007" x2="431.26001" y2="263.48007"/><text class="392e1db9-645d-4bca-a6d2-eef2088f5a66" transform="translate(356.82031 259.03906)">大气沉降污染</text><line class="79361333-148a-45f2-826e-b5168a355c12" x1="341.26001" y1="305.14908" x2="431.26001" y2="305.14908"/><text class="392e1db9-645d-4bca-a6d2-eef2088f5a66" transform="translate(356.82031 300.78906)">固废淋溶下渗</text><path class="69e1a6ed-de8e-49b0-9e07-c3182ba42e0d" d="M335.59,221.58849c2.83,0,2.83-20.84,2.83-41.67,0-14.66,0-29.32.99-36.72" transform="translate(0 0.22559)"/><polygon points="336.32 143.074 341.26 138.474 341.98 145.184 336.32 143.074"/><path class="69e1a6ed-de8e-49b0-9e07-c3182ba42e0d" d="M335.59,221.58849c2.83,0,2.83-10.42,2.83-20.84a138.191,138.191,0,0,1,.55-16.07" transform="translate(0 0.22559)"/><polygon points="335.92 184.284 341.26 180.144 341.37 186.894 335.92 184.284"/><path class="69e1a6ed-de8e-49b0-9e07-c3182ba42e0d" d="M335.59,221.58849h.38" transform="translate(0 0.22559)"/><polygon points="335.22 218.794 341.26 221.814 335.22 224.834 335.22 218.794"/><path class="69e1a6ed-de8e-49b0-9e07-c3182ba42e0d" d="M335.59,221.58849c2.83,0,2.83,10.41,2.83,20.831a138.16042,138.16042,0,0,0,.55,16.069" transform="translate(0 0.22559)"/><polygon points="341.37 256.728 341.26 263.48 335.92 259.339 341.37 256.728"/><path class="69e1a6ed-de8e-49b0-9e07-c3182ba42e0d" d="M335.59,221.58849c2.83,0,2.83,20.831,2.83,41.666,0,14.657,0,29.314.99,36.718" transform="translate(0 0.22559)"/><polygon points="341.98 298.434 341.26 305.149 336.32 300.546 341.98 298.434"/><line class="79361333-148a-45f2-826e-b5168a355c12" x1="149.92" y1="180.14406" x2="239.92001" y2="180.14406"/><text class="392e1db9-645d-4bca-a6d2-eef2088f5a66" transform="translate(185.22021 175.53418)">外源</text><path class="69e1a6ed-de8e-49b0-9e07-c3182ba42e0d" d="M144.25,159.07848c2.83,0,2.83,5.21,2.83,10.42,0,2.06,0,4.11.18,5.85" transform="translate(0 0.22559)"/><polygon points="149.49 173.404 149.92 180.144 144.27 176.444 149.49 173.404"/><line class="79361333-148a-45f2-826e-b5168a355c12" x1="245.59" y1="13.46405" x2="452.59" y2="13.46405"/><text class="392e1db9-645d-4bca-a6d2-eef2088f5a66" transform="translate(274.51953 8.53418)">沉降至湖泊底部的营养物质的释放</text><path class="69e1a6ed-de8e-49b0-9e07-c3182ba42e0d" d="M239.92,13.23846h.38" transform="translate(0 0.22559)"/><polygon points="239.55 10.444 245.59 13.464 239.55 16.484 239.55 10.444"/></svg>