<svg id="e052bd57-57b4-462e-8a13-5b36ff8b07d1" data-name="17e0f7e3-d73f-458b-9ec7-c1b6ca4456f6" xmlns="http://www.w3.org/2000/svg" viewBox="0 0 575.43945 507.79639"><defs><style>.\32 28c961d-0fb7-4cd0-86dc-31b6b0b4740f{fill:none;stroke:#000;stroke-miterlimit:10;}.\31 cac3d9b-117a-4f48-9368-7438b81f8463{isolation:isolate;font-size:16px;font-family:FZHTK--GBK1-0, FZHei-B01;}</style></defs><title>氮素在土壤中的形态有哪些</title><line class="228c961d-0fb7-4cd0-86dc-31b6b0b4740f" x1="240.61975" y1="499.03525" x2="273.19977" y2="499.03525"/><polyline class="228c961d-0fb7-4cd0-86dc-31b6b0b4740f" points="94.7 306.555 110.99 306.555 110.99 499.173 127.28 499.173"/><polyline class="228c961d-0fb7-4cd0-86dc-31b6b0b4740f" points="240.62 359.115 256.91 359.115 256.91 429.158 273.2 429.158"/><line class="228c961d-0fb7-4cd0-86dc-31b6b0b4740f" x1="240.61975" y1="359.11523" x2="273.19977" y2="359.11523"/><polyline class="228c961d-0fb7-4cd0-86dc-31b6b0b4740f" points="240.62 359.075 256.91 359.075 256.91 289.035 273.2 289.035"/><polyline class="228c961d-0fb7-4cd0-86dc-31b6b0b4740f" points="94.7 306.555 110.99 306.555 110.99 359.085 127.28 359.085"/><polyline class="228c961d-0fb7-4cd0-86dc-31b6b0b4740f" points="240.62 113.835 256.91 113.835 256.91 218.895 273.2 218.895"/><polyline class="228c961d-0fb7-4cd0-86dc-31b6b0b4740f" points="240.62 113.835 256.91 113.835 256.91 148.855 273.2 148.855"/><polyline class="228c961d-0fb7-4cd0-86dc-31b6b0b4740f" points="240.62 113.815 256.91 113.815 256.91 78.795 273.2 78.795"/><polyline class="228c961d-0fb7-4cd0-86dc-31b6b0b4740f" points="240.62 114.015 256.91 114.015 256.91 8.955 273.2 8.955"/><polyline class="228c961d-0fb7-4cd0-86dc-31b6b0b4740f" points="94.7 306.455 110.99 306.455 110.99 113.835 127.28 113.835"/><text class="1cac3d9b-117a-4f48-9368-7438b81f8463" transform="translate(0 311.47571)">土壤中全氮</text><text class="1cac3d9b-117a-4f48-9368-7438b81f8463" transform="translate(159.68994 118.77502)">无机氮</text><text class="1cac3d9b-117a-4f48-9368-7438b81f8463" transform="translate(287.43994 13.6554)">游离氮（气体氮）</text><text class="1cac3d9b-117a-4f48-9368-7438b81f8463" transform="translate(287.43994 83.73547)">铵态氮</text><text class="1cac3d9b-117a-4f48-9368-7438b81f8463" transform="translate(287.43994 153.79504)">硝态氮</text><text class="1cac3d9b-117a-4f48-9368-7438b81f8463" transform="translate(287.43994 223.87512)">亚硝态氮</text><text class="1cac3d9b-117a-4f48-9368-7438b81f8463" transform="translate(159.68994 364.01477)">有机氮</text><text class="1cac3d9b-117a-4f48-9368-7438b81f8463" transform="translate(287.43994 293.9552)">水溶性有机氮</text><text class="1cac3d9b-117a-4f48-9368-7438b81f8463" transform="translate(287.43994 364.01477)">易水解的有机氮（氨基酸、肽、酰胺等）</text><text class="1cac3d9b-117a-4f48-9368-7438b81f8463" transform="translate(287.43994 434.09094)">难水解性有机氮（腐殖质、核蛋白）</text><text class="1cac3d9b-117a-4f48-9368-7438b81f8463" transform="translate(143.60986 504.17102)">有机无机氮</text><text class="1cac3d9b-117a-4f48-9368-7438b81f8463" transform="translate(287.43994 504.17102)">粘土矿物固定的氮</text></svg>