<svg class="svgImage" version="1.1" xmlns="http://www.w3.org/2000/svg" xmlns:xlink="http://www.w3.org/1999/xlink" x="0px" y="0px"
	 viewBox="0 0 733 479" style="enable-background:new 0 0 733 479;" xml:space="preserve">
<style type="text/css">
	.EEI-HW-3-02-st0{fill:none;stroke:#D9D9D9;stroke-width:0.75;stroke-linejoin:round;stroke-miterlimit:10;}
	.EEI-HW-3-02-st1{fill:none;stroke:#BFBFBF;stroke-width:0.75;stroke-linejoin:round;stroke-miterlimit:10;}
	.EEI-HW-3-02-st2{fill:none;stroke:#000000;stroke-width:0.72;stroke-linejoin:round;stroke-miterlimit:10;}
	
		.EEI-HW-3-02-st3{fill:none;stroke:#000000;stroke-width:1.5;stroke-linecap:round;stroke-linejoin:round;stroke-miterlimit:10;stroke-dasharray:0,3;}
	.EEI-HW-3-02-st4{clip-path:url(#SVGID_2_);}
	.EEI-HW-3-02-st5{fill:#595959;}
	.EEI-HW-3-02-st6{font-family:'Times New Roman';font-style:italic;}
	.EEI-HW-3-02-st7{font-size:20.064px;}
	.EEI-HW-3-02-st8{clip-path:url(#SVGID_4_);}
	.EEI-HW-3-02-st9{font-family:'Times New Roman';}
	.EEI-HW-3-02-st10{clip-path:url(#SVGID_6_);}
	.EEI-HW-3-02-st11{clip-path:url(#SVGID_8_);}
	.EEI-HW-3-02-st12{clip-path:url(#SVGID_10_);}
	.EEI-HW-3-02-st13{font-size:20.04px;}
	.EEI-HW-3-02-st14{clip-path:url(#SVGID_12_);}
	.EEI-HW-3-02-st15{clip-path:url(#SVGID_14_);}
	.EEI-HW-3-02-st16{clip-path:url(#SVGID_16_);}
	.EEI-HW-3-02-st17{clip-path:url(#SVGID_18_);}
	.EEI-HW-3-02-st18{clip-path:url(#SVGID_20_);}
	.EEI-HW-3-02-st19{clip-path:url(#SVGID_22_);}
	.EEI-HW-3-02-st20{clip-path:url(#SVGID_24_);}
	.EEI-HW-3-02-st21{clip-path:url(#SVGID_26_);}
	.EEI-HW-3-02-st22{clip-path:url(#SVGID_28_);}
	.EEI-HW-3-02-st23{clip-path:url(#SVGID_30_);}
	.EEI-HW-3-02-st24{clip-path:url(#SVGID_32_);}
	.EEI-HW-3-02-st25{clip-path:url(#SVGID_34_);}
	.EEI-HW-3-02-st26{clip-path:url(#SVGID_36_);}
	.EEI-HW-3-02-st27{clip-path:url(#SVGID_38_);}
	.EEI-HW-3-02-st28{clip-path:url(#SVGID_40_);}
	.EEI-HW-3-02-st29{clip-path:url(#SVGID_42_);}
	.EEI-HW-3-02-st30{clip-path:url(#SVGID_44_);}
	.EEI-HW-3-02-st31{clip-path:url(#SVGID_46_);}
	.EEI-HW-3-02-st32{clip-path:url(#SVGID_48_);}
	.EEI-HW-3-02-st33{clip-path:url(#SVGID_50_);}
	.EEI-HW-3-02-st34{clip-path:url(#SVGID_52_);}
	.EEI-HW-3-02-st35{clip-path:url(#SVGID_54_);}
	.EEI-HW-3-02-st36{clip-path:url(#SVGID_56_);}
	.EEI-HW-3-02-st37{clip-path:url(#SVGID_58_);}
	.EEI-HW-3-02-st38{clip-path:url(#SVGID_60_);}
	.EEI-HW-3-02-st39{font-family:'SimSun';}
	.EEI-HW-3-02-st40{font-size:24px;}
</style>
<path class="EEI-HW-3-02-st0" d="M95.9,56.6h603.2 M95.9,106.6h603.2 M95.9,156.5h603.2 M95.9,206.4h603.2 M95.9,256.3h603.2 M95.9,306.3h603.2
	 M95.9,356.2h603.2"/>
<path class="EEI-HW-3-02-st0" d="M699.1,56.6v349.5 M632.1,56.6v349.5 M565.1,56.6v349.5 M498,56.6v349.5 M431.1,56.6v349.5 M364,56.6v349.5
	 M297,56.6v349.5 M229.9,56.6v349.5 M162.9,56.6v349.5"/>
<line class="EEI-HW-3-02-st1" x1="95.9" y1="406.1" x2="95.9" y2="56.6"/>
<line class="EEI-HW-3-02-st1" x1="95.9" y1="406.1" x2="699.1" y2="406.1"/>
<circle cx="122.7" cy="253.3" r="2.5"/>
<circle class="EEI-HW-3-02-st2" cx="122.7" cy="253.3" r="2.5"/>
<circle cx="149.5" cy="239.9" r="2.5"/>
<circle class="EEI-HW-3-02-st2" cx="149.5" cy="239.9" r="2.5"/>
<circle cx="229.9" cy="212.9" r="2.5"/>
<circle class="EEI-HW-3-02-st2" cx="229.9" cy="212.9" r="2.5"/>
<ellipse transform="matrix(0.1602 -0.9871 0.9871 0.1602 126.5599 511.6652)" cx="364" cy="181.5" rx="2.5" ry="2.5"/>
<ellipse transform="matrix(0.1602 -0.9871 0.9871 0.1602 126.5599 511.6652)" class="EEI-HW-3-02-st2" cx="364" cy="181.5" rx="2.5" ry="2.5"/>
<path d="M473.8,159c0,1.4-1.1,2.5-2.5,2.5c-1.4,0-2.5-1.1-2.5-2.5c0-1.4,1.1-2.5,2.5-2.5C472.6,156.5,473.8,157.6,473.8,159z"/>
<path class="EEI-HW-3-02-st2" d="M473.8,159c0,1.4-1.1,2.5-2.5,2.5c-1.4,0-2.5-1.1-2.5-2.5c0-1.4,1.1-2.5,2.5-2.5
	C472.6,156.5,473.8,157.6,473.8,159z"/>
<ellipse transform="matrix(0.9239 -0.3827 0.3827 0.9239 -11.9723 221.843)" cx="551.7" cy="141" rx="2.5" ry="2.5"/>
<ellipse transform="matrix(0.9239 -0.3827 0.3827 0.9239 -11.9723 221.843)" class="EEI-HW-3-02-st2" cx="551.7" cy="141" rx="2.5" ry="2.5"/>
<path d="M661.5,118.6c0,1.4-1.1,2.5-2.5,2.5c-1.4,0-2.5-1.1-2.5-2.5c0-1.4,1.1-2.5,2.5-2.5C660.3,116.1,661.5,117.2,661.5,118.6z"/>
<path class="EEI-HW-3-02-st2" d="M661.5,118.6c0,1.4-1.1,2.5-2.5,2.5c-1.4,0-2.5-1.1-2.5-2.5c0-1.4,1.1-2.5,2.5-2.5
	C660.3,116.1,661.5,117.2,661.5,118.6z"/>
<line class="EEI-HW-3-02-st3" x1="122.7" y1="245.7" x2="658.9" y2="114.4"/>
<g>
	<defs>
		<rect id="SVGID_1_" x="0.4" y="0.4" width="732.1" height="478.2"/>
	</defs>
	<clipPath id="SVGID_2_">
		<use xlink:href="#SVGID_1_"  style="overflow:visible;"/>
	</clipPath>
	<g class="EEI-HW-3-02-st4">
		<text transform="matrix(1 0 0 1 564.1849 20.606)" class="EEI-HW-3-02-st5 EEI-HW-3-02-st6 EEI-HW-3-02-st7">y</text>
	</g>
</g>
<g>
	<defs>
		<rect id="SVGID_3_" x="0.4" y="0.4" width="732.1" height="478.2"/>
	</defs>
	<clipPath id="SVGID_4_">
		<use xlink:href="#SVGID_3_"  style="overflow:visible;"/>
	</clipPath>
	<g class="EEI-HW-3-02-st8">
		<text transform="matrix(1 0 0 1 578.1049 20.606)"><tspan x="0" y="0" class="EEI-HW-3-02-st5 EEI-HW-3-02-st9 EEI-HW-3-02-st7">=</tspan><tspan x="11.3" y="0" class="EEI-HW-3-02-st5 EEI-HW-3-02-st9 EEI-HW-3-02-st7"> </tspan><tspan x="16.2" y="0" class="EEI-HW-3-02-st5 EEI-HW-3-02-st9 EEI-HW-3-02-st7">1</tspan><tspan x="26.2" y="0" class="EEI-HW-3-02-st5 EEI-HW-3-02-st9 EEI-HW-3-02-st7">3</tspan><tspan x="36.3" y="0" class="EEI-HW-3-02-st5 EEI-HW-3-02-st9 EEI-HW-3-02-st7">1</tspan><tspan x="46.3" y="0" class="EEI-HW-3-02-st5 EEI-HW-3-02-st9 EEI-HW-3-02-st7">4</tspan><tspan x="56.4" y="0" class="EEI-HW-3-02-st5 EEI-HW-3-02-st9 EEI-HW-3-02-st7">6</tspan></text>
	</g>
</g>
<g>
	<defs>
		<rect id="SVGID_5_" x="0.4" y="0.4" width="732.1" height="478.2"/>
	</defs>
	<clipPath id="SVGID_6_">
		<use xlink:href="#SVGID_5_"  style="overflow:visible;"/>
	</clipPath>
	<g class="EEI-HW-3-02-st10">
		<text transform="matrix(1 0 0 1 644.725 20.606)" class="EEI-HW-3-02-st5 EEI-HW-3-02-st6 EEI-HW-3-02-st7">x</text>
	</g>
</g>
<g>
	<defs>
		<rect id="SVGID_7_" x="0.4" y="0.4" width="732.1" height="478.2"/>
	</defs>
	<clipPath id="SVGID_8_">
		<use xlink:href="#SVGID_7_"  style="overflow:visible;"/>
	</clipPath>
	<g class="EEI-HW-3-02-st11">
		<text transform="matrix(1 0 0 1 658.2845 20.606)"><tspan x="0" y="0" class="EEI-HW-3-02-st5 EEI-HW-3-02-st9 EEI-HW-3-02-st7">+</tspan><tspan x="11.3" y="0" class="EEI-HW-3-02-st5 EEI-HW-3-02-st9 EEI-HW-3-02-st7"> </tspan><tspan x="16.2" y="0" class="EEI-HW-3-02-st5 EEI-HW-3-02-st9 EEI-HW-3-02-st7">6</tspan><tspan x="26.2" y="0" class="EEI-HW-3-02-st5 EEI-HW-3-02-st9 EEI-HW-3-02-st7">1</tspan><tspan x="36.3" y="0" class="EEI-HW-3-02-st5 EEI-HW-3-02-st9 EEI-HW-3-02-st7">6</tspan><tspan x="46.3" y="0" class="EEI-HW-3-02-st5 EEI-HW-3-02-st9 EEI-HW-3-02-st7">.</tspan><tspan x="51.4" y="0" class="EEI-HW-3-02-st5 EEI-HW-3-02-st9 EEI-HW-3-02-st7">51</tspan></text>
	</g>
</g>
<g>
	<defs>
		<rect id="SVGID_9_" x="0.4" y="0.4" width="732.1" height="478.2"/>
	</defs>
	<clipPath id="SVGID_10_">
		<use xlink:href="#SVGID_9_"  style="overflow:visible;"/>
	</clipPath>
	<g class="EEI-HW-3-02-st12">
		<text transform="matrix(1 0 0 1 601.8646 43.5562)" class="EEI-HW-3-02-st5 EEI-HW-3-02-st6 EEI-HW-3-02-st13">r</text>
	</g>
</g>
<g>
	<defs>
		<rect id="SVGID_11_" x="0.4" y="0.4" width="732.1" height="478.2"/>
	</defs>
	<clipPath id="SVGID_12_">
		<use xlink:href="#SVGID_11_"  style="overflow:visible;"/>
	</clipPath>
	<g class="EEI-HW-3-02-st14">
		<text transform="matrix(1 0 0 1 609.6654 43.5562)"><tspan x="0" y="0" class="EEI-HW-3-02-st5 EEI-HW-3-02-st9 EEI-HW-3-02-st13">²</tspan><tspan x="6" y="0" class="EEI-HW-3-02-st5 EEI-HW-3-02-st9 EEI-HW-3-02-st13"> </tspan><tspan x="11" y="0" class="EEI-HW-3-02-st5 EEI-HW-3-02-st9 EEI-HW-3-02-st13">= </tspan><tspan x="27.3" y="0" class="EEI-HW-3-02-st5 EEI-HW-3-02-st9 EEI-HW-3-02-st13">0</tspan><tspan x="37.3" y="0" class="EEI-HW-3-02-st5 EEI-HW-3-02-st9 EEI-HW-3-02-st13">.</tspan><tspan x="42.3" y="0" class="EEI-HW-3-02-st5 EEI-HW-3-02-st9 EEI-HW-3-02-st13">9</tspan><tspan x="52.4" y="0" class="EEI-HW-3-02-st5 EEI-HW-3-02-st9 EEI-HW-3-02-st13">9</tspan><tspan x="62.4" y="0" class="EEI-HW-3-02-st5 EEI-HW-3-02-st9 EEI-HW-3-02-st13">0</tspan><tspan x="72.5" y="0" class="EEI-HW-3-02-st5 EEI-HW-3-02-st9 EEI-HW-3-02-st13">5</tspan></text>
	</g>
</g>
<g>
	<defs>
		<rect id="SVGID_13_" x="0.4" y="0.4" width="732.1" height="478.2"/>
	</defs>
	<clipPath id="SVGID_14_">
		<use xlink:href="#SVGID_13_"  style="overflow:visible;"/>
	</clipPath>
	<g class="EEI-HW-3-02-st15">
		<text transform="matrix(1 0 0 1 68.8949 412.5264)" class="EEI-HW-3-02-st5 EEI-HW-3-02-st9 EEI-HW-3-02-st13">0</text>
	</g>
</g>
<g>
	<defs>
		<rect id="SVGID_15_" x="0.4" y="0.4" width="732.1" height="478.2"/>
	</defs>
	<clipPath id="SVGID_16_">
		<use xlink:href="#SVGID_15_"  style="overflow:visible;"/>
	</clipPath>
	<g class="EEI-HW-3-02-st16">
		<text transform="matrix(1 0 0 1 48.8788 362.586)" class="EEI-HW-3-02-st5 EEI-HW-3-02-st9 EEI-HW-3-02-st13">200</text>
	</g>
</g>
<g>
	<defs>
		<rect id="SVGID_17_" x="0.4" y="0.4" width="732.1" height="478.2"/>
	</defs>
	<clipPath id="SVGID_18_">
		<use xlink:href="#SVGID_17_"  style="overflow:visible;"/>
	</clipPath>
	<g class="EEI-HW-3-02-st17">
		<text transform="matrix(1 0 0 1 48.8788 312.6358)" class="EEI-HW-3-02-st5 EEI-HW-3-02-st9 EEI-HW-3-02-st13">400</text>
	</g>
</g>
<g>
	<defs>
		<rect id="SVGID_19_" x="0.4" y="0.4" width="732.1" height="478.2"/>
	</defs>
	<clipPath id="SVGID_20_">
		<use xlink:href="#SVGID_19_"  style="overflow:visible;"/>
	</clipPath>
	<g class="EEI-HW-3-02-st18">
		<text transform="matrix(1 0 0 1 48.8788 262.6964)"><tspan x="0" y="0" class="EEI-HW-3-02-st5 EEI-HW-3-02-st9 EEI-HW-3-02-st7">6</tspan><tspan x="10" y="0" class="EEI-HW-3-02-st5 EEI-HW-3-02-st9 EEI-HW-3-02-st7">00</tspan></text>
	</g>
</g>
<g>
	<defs>
		<rect id="SVGID_21_" x="0.4" y="0.4" width="732.1" height="478.2"/>
	</defs>
	<clipPath id="SVGID_22_">
		<use xlink:href="#SVGID_21_"  style="overflow:visible;"/>
	</clipPath>
	<g class="EEI-HW-3-02-st19">
		<text transform="matrix(1 0 0 1 48.8788 212.7759)" class="EEI-HW-3-02-st5 EEI-HW-3-02-st9 EEI-HW-3-02-st13">800</text>
	</g>
</g>
<g>
	<defs>
		<rect id="SVGID_23_" x="0.4" y="0.4" width="732.1" height="478.2"/>
	</defs>
	<clipPath id="SVGID_24_">
		<use xlink:href="#SVGID_23_"  style="overflow:visible;"/>
	</clipPath>
	<g class="EEI-HW-3-02-st20">
		<text transform="matrix(1 0 0 1 38.871 162.836)" class="EEI-HW-3-02-st5 EEI-HW-3-02-st9 EEI-HW-3-02-st13">1000</text>
	</g>
</g>
<g>
	<defs>
		<rect id="SVGID_25_" x="0.4" y="0.4" width="732.1" height="478.2"/>
	</defs>
	<clipPath id="SVGID_26_">
		<use xlink:href="#SVGID_25_"  style="overflow:visible;"/>
	</clipPath>
	<g class="EEI-HW-3-02-st21">
		<text transform="matrix(1 0 0 1 38.871 112.8858)" class="EEI-HW-3-02-st5 EEI-HW-3-02-st9 EEI-HW-3-02-st13">1200</text>
	</g>
</g>
<g>
	<defs>
		<rect id="SVGID_27_" x="0.4" y="0.4" width="732.1" height="478.2"/>
	</defs>
	<clipPath id="SVGID_28_">
		<use xlink:href="#SVGID_27_"  style="overflow:visible;"/>
	</clipPath>
	<g class="EEI-HW-3-02-st22">
		<text transform="matrix(1 0 0 1 38.871 62.9459)" class="EEI-HW-3-02-st5 EEI-HW-3-02-st9 EEI-HW-3-02-st13">1400</text>
	</g>
</g>
<g>
	<defs>
		<rect id="SVGID_29_" x="0.4" y="0.4" width="732.1" height="478.2"/>
	</defs>
	<clipPath id="SVGID_30_">
		<use xlink:href="#SVGID_29_"  style="overflow:visible;"/>
	</clipPath>
	<g class="EEI-HW-3-02-st23">
		<text transform="matrix(1 0 0 1 90.9052 436.0264)" class="EEI-HW-3-02-st5 EEI-HW-3-02-st9 EEI-HW-3-02-st13">0</text>
	</g>
</g>
<g>
	<defs>
		<rect id="SVGID_31_" x="0.4" y="0.4" width="732.1" height="478.2"/>
	</defs>
	<clipPath id="SVGID_32_">
		<use xlink:href="#SVGID_31_"  style="overflow:visible;"/>
	</clipPath>
	<g class="EEI-HW-3-02-st24">
		<text transform="matrix(1 0 0 1 140.435 436.0264)"><tspan x="0" y="0" class="EEI-HW-3-02-st5 EEI-HW-3-02-st9 EEI-HW-3-02-st13">0.</tspan><tspan x="15" y="0" class="EEI-HW-3-02-st5 EEI-HW-3-02-st9 EEI-HW-3-02-st13">0</tspan><tspan x="25" y="0" class="EEI-HW-3-02-st5 EEI-HW-3-02-st9 EEI-HW-3-02-st13">05</tspan></text>
	</g>
</g>
<g>
	<defs>
		<rect id="SVGID_33_" x="0.4" y="0.4" width="732.1" height="478.2"/>
	</defs>
	<clipPath id="SVGID_34_">
		<use xlink:href="#SVGID_33_"  style="overflow:visible;"/>
	</clipPath>
	<g class="EEI-HW-3-02-st25">
		<text transform="matrix(1 0 0 1 212.4652 436.0264)"><tspan x="0" y="0" class="EEI-HW-3-02-st5 EEI-HW-3-02-st9 EEI-HW-3-02-st13">0.</tspan><tspan x="15" y="0" class="EEI-HW-3-02-st5 EEI-HW-3-02-st9 EEI-HW-3-02-st13">0</tspan><tspan x="25" y="0" class="EEI-HW-3-02-st5 EEI-HW-3-02-st9 EEI-HW-3-02-st13">1</tspan></text>
	</g>
</g>
<g>
	<defs>
		<rect id="SVGID_35_" x="0.4" y="0.4" width="732.1" height="478.2"/>
	</defs>
	<clipPath id="SVGID_36_">
		<use xlink:href="#SVGID_35_"  style="overflow:visible;"/>
	</clipPath>
	<g class="EEI-HW-3-02-st26">
		<text transform="matrix(1 0 0 1 274.5048 436.0264)"><tspan x="0" y="0" class="EEI-HW-3-02-st5 EEI-HW-3-02-st9 EEI-HW-3-02-st13">0.</tspan><tspan x="15" y="0" class="EEI-HW-3-02-st5 EEI-HW-3-02-st9 EEI-HW-3-02-st13">0</tspan><tspan x="25" y="0" class="EEI-HW-3-02-st5 EEI-HW-3-02-st9 EEI-HW-3-02-st13">15</tspan></text>
	</g>
</g>
<g>
	<defs>
		<rect id="SVGID_37_" x="0.4" y="0.4" width="732.1" height="478.2"/>
	</defs>
	<clipPath id="SVGID_38_">
		<use xlink:href="#SVGID_37_"  style="overflow:visible;"/>
	</clipPath>
	<g class="EEI-HW-3-02-st27">
		<text transform="matrix(1 0 0 1 346.5248 436.0264)" class="EEI-HW-3-02-st5 EEI-HW-3-02-st9 EEI-HW-3-02-st13">0.02</text>
	</g>
</g>
<g>
	<defs>
		<rect id="SVGID_39_" x="0.4" y="0.4" width="732.1" height="478.2"/>
	</defs>
	<clipPath id="SVGID_40_">
		<use xlink:href="#SVGID_39_"  style="overflow:visible;"/>
	</clipPath>
	<g class="EEI-HW-3-02-st28">
		<text transform="matrix(1 0 0 1 408.5648 436.0264)"><tspan x="0" y="0" class="EEI-HW-3-02-st5 EEI-HW-3-02-st9 EEI-HW-3-02-st13">0.</tspan><tspan x="15" y="0" class="EEI-HW-3-02-st5 EEI-HW-3-02-st9 EEI-HW-3-02-st13">0</tspan><tspan x="25" y="0" class="EEI-HW-3-02-st5 EEI-HW-3-02-st9 EEI-HW-3-02-st13">25</tspan></text>
	</g>
</g>
<g>
	<defs>
		<rect id="SVGID_41_" x="0.4" y="0.4" width="732.1" height="478.2"/>
	</defs>
	<clipPath id="SVGID_42_">
		<use xlink:href="#SVGID_41_"  style="overflow:visible;"/>
	</clipPath>
	<g class="EEI-HW-3-02-st29">
		<text transform="matrix(1 0 0 1 480.6147 436.0264)"><tspan x="0" y="0" class="EEI-HW-3-02-st5 EEI-HW-3-02-st9 EEI-HW-3-02-st13">0.</tspan><tspan x="15" y="0" class="EEI-HW-3-02-st5 EEI-HW-3-02-st9 EEI-HW-3-02-st13">0</tspan><tspan x="25" y="0" class="EEI-HW-3-02-st5 EEI-HW-3-02-st9 EEI-HW-3-02-st13">3</tspan></text>
	</g>
</g>
<g>
	<defs>
		<rect id="SVGID_43_" x="0.4" y="0.4" width="732.1" height="478.2"/>
	</defs>
	<clipPath id="SVGID_44_">
		<use xlink:href="#SVGID_43_"  style="overflow:visible;"/>
	</clipPath>
	<g class="EEI-HW-3-02-st30">
		<text transform="matrix(1 0 0 1 542.6351 436.0264)" class="EEI-HW-3-02-st5 EEI-HW-3-02-st9 EEI-HW-3-02-st13">0.035</text>
	</g>
</g>
<g>
	<defs>
		<rect id="SVGID_45_" x="0.4" y="0.4" width="732.1" height="478.2"/>
	</defs>
	<clipPath id="SVGID_46_">
		<use xlink:href="#SVGID_45_"  style="overflow:visible;"/>
	</clipPath>
	<g class="EEI-HW-3-02-st31">
		<text transform="matrix(1 0 0 1 614.6752 436.0264)"><tspan x="0" y="0" class="EEI-HW-3-02-st5 EEI-HW-3-02-st9 EEI-HW-3-02-st13">0.</tspan><tspan x="15" y="0" class="EEI-HW-3-02-st5 EEI-HW-3-02-st9 EEI-HW-3-02-st13">0</tspan><tspan x="25" y="0" class="EEI-HW-3-02-st5 EEI-HW-3-02-st9 EEI-HW-3-02-st13">4</tspan></text>
	</g>
</g>
<g>
	<defs>
		<rect id="SVGID_47_" x="0.4" y="0.4" width="732.1" height="478.2"/>
	</defs>
	<clipPath id="SVGID_48_">
		<use xlink:href="#SVGID_47_"  style="overflow:visible;"/>
	</clipPath>
	<g class="EEI-HW-3-02-st32">
		<text transform="matrix(1 0 0 1 676.7152 436.0264)"><tspan x="0" y="0" class="EEI-HW-3-02-st5 EEI-HW-3-02-st9 EEI-HW-3-02-st13">0.</tspan><tspan x="15" y="0" class="EEI-HW-3-02-st5 EEI-HW-3-02-st9 EEI-HW-3-02-st13">0</tspan><tspan x="25" y="0" class="EEI-HW-3-02-st5 EEI-HW-3-02-st9 EEI-HW-3-02-st13">45</tspan></text>
	</g>
</g>
<g>
	<defs>
		<rect id="SVGID_49_" x="0.4" y="0.4" width="732.1" height="478.2"/>
	</defs>
	<clipPath id="SVGID_50_">
		<use xlink:href="#SVGID_49_"  style="overflow:visible;"/>
	</clipPath>
	<g class="EEI-HW-3-02-st33">
		<text transform="matrix(-6.123234e-17 -1 1 -6.123234e-17 31.5994 255.7364)" class="EEI-HW-3-02-st5 EEI-HW-3-02-st9 EEI-HW-3-02-st13">Δ</text>
	</g>
</g>
<g>
	<defs>
		<rect id="SVGID_51_" x="0.4" y="0.4" width="732.1" height="478.2"/>
	</defs>
	<clipPath id="SVGID_52_">
		<use xlink:href="#SVGID_51_"  style="overflow:visible;"/>
	</clipPath>
	<g class="EEI-HW-3-02-st34">
		<text transform="matrix(-6.123234e-17 -1 1 -6.123234e-17 31.5991 242.8956)" class="EEI-HW-3-02-st5 EEI-HW-3-02-st6 EEI-HW-3-02-st13">p</text>
	</g>
</g>
<g>
	<defs>
		<rect id="SVGID_53_" x="0.4" y="0.4" width="732.1" height="478.2"/>
	</defs>
	<clipPath id="SVGID_54_">
		<use xlink:href="#SVGID_53_"  style="overflow:visible;"/>
	</clipPath>
	<g class="EEI-HW-3-02-st35">
		<text transform="matrix(-6.123234e-17 -1 1 -6.123234e-17 31.599 232.8155)" class="EEI-HW-3-02-st5 EEI-HW-3-02-st9 EEI-HW-3-02-st13">/Pa</text>
	</g>
</g>
<g>
	<defs>
		<rect id="SVGID_55_" x="0.4" y="0.4" width="732.1" height="478.2"/>
	</defs>
	<clipPath id="SVGID_56_">
		<use xlink:href="#SVGID_55_"  style="overflow:visible;"/>
	</clipPath>
	<g class="EEI-HW-3-02-st36">
		<text transform="matrix(1 0 0 1 377.4154 462.0157)" class="EEI-HW-3-02-st5 EEI-HW-3-02-st6 EEI-HW-3-02-st13">m</text>
	</g>
</g>
<g>
	<defs>
		<rect id="SVGID_57_" x="0.4" y="0.4" width="732.1" height="478.2"/>
	</defs>
	<clipPath id="SVGID_58_">
		<use xlink:href="#SVGID_57_"  style="overflow:visible;"/>
	</clipPath>
	<g class="EEI-HW-3-02-st37">
		<text transform="matrix(1 0 0 1 391.935 462.0157)" class="EEI-HW-3-02-st5 EEI-HW-3-02-st9 EEI-HW-3-02-st13">/kg</text>
	</g>
</g>
<g>
	<defs>
		<rect id="SVGID_59_" x="0.4" y="0.4" width="732.1" height="478.2"/>
	</defs>
	<clipPath id="SVGID_60_">
		<use xlink:href="#SVGID_59_"  style="overflow:visible;"/>
	</clipPath>
	<g class="EEI-HW-3-02-st38">
		<text transform="matrix(1 0 0 1 318.5648 32.1558)" class="EEI-HW-3-02-st5 EEI-HW-3-02-st39 EEI-HW-3-02-st40">回归曲线</text>
	</g>
</g>
<rect x="0.4" y="0.4" class="EEI-HW-3-02-st0" width="732.2" height="478.3"/>
</svg>
