<svg class="svgImage" version="1.1" xmlns="http://www.w3.org/2000/svg" xmlns:xlink="http://www.w3.org/1999/xlink" x="0px" y="0px"
	 viewBox="0 0 732.6 479.2" style="enable-background:new 0 0 732.6 479.2;" xml:space="preserve">
<style type="text/css">
	.EEI-HW-2-02-st0{clip-path:url(#SVGID_2_);fill-rule:evenodd;clip-rule:evenodd;fill:#FFFFFF;}
	.EEI-HW-2-02-st1{fill:none;stroke:#D9D9D9;stroke-width:0.75;stroke-linejoin:round;stroke-miterlimit:10;}
	.EEI-HW-2-02-st2{fill:none;stroke:#BFBFBF;stroke-width:0.75;stroke-linejoin:round;stroke-miterlimit:10;}
	.EEI-HW-2-02-st3{fill:none;stroke:#000000;stroke-width:1.5;stroke-linecap:round;stroke-linejoin:round;stroke-miterlimit:10;}
	.EEI-HW-2-02-st4{clip-path:url(#SVGID_4_);}
	.EEI-HW-2-02-st5{fill:#595959;}
	.EEI-HW-2-02-st6{font-family:'Times New Roman';}
	.EEI-HW-2-02-st7{font-size:20.04px;}
	.EEI-HW-2-02-st8{clip-path:url(#SVGID_6_);}
	.EEI-HW-2-02-st9{font-size:20.064px;}
	.EEI-HW-2-02-st10{clip-path:url(#SVGID_8_);}
	.EEI-HW-2-02-st11{clip-path:url(#SVGID_10_);}
	.EEI-HW-2-02-st12{clip-path:url(#SVGID_12_);}
	.EEI-HW-2-02-st13{clip-path:url(#SVGID_14_);}
	.EEI-HW-2-02-st14{clip-path:url(#SVGID_16_);}
	.EEI-HW-2-02-st15{clip-path:url(#SVGID_18_);}
	.EEI-HW-2-02-st16{clip-path:url(#SVGID_20_);}
	.EEI-HW-2-02-st17{clip-path:url(#SVGID_22_);}
	.EEI-HW-2-02-st18{clip-path:url(#SVGID_24_);}
	.EEI-HW-2-02-st19{clip-path:url(#SVGID_26_);}
	.EEI-HW-2-02-st20{clip-path:url(#SVGID_28_);}
	.EEI-HW-2-02-st21{clip-path:url(#SVGID_30_);}
	.EEI-HW-2-02-st22{clip-path:url(#SVGID_32_);}
	.EEI-HW-2-02-st23{clip-path:url(#SVGID_34_);}
	.EEI-HW-2-02-st24{clip-path:url(#SVGID_36_);}
	.EEI-HW-2-02-st25{clip-path:url(#SVGID_38_);}
	.EEI-HW-2-02-st26{clip-path:url(#SVGID_40_);}
	.EEI-HW-2-02-st27{clip-path:url(#SVGID_42_);}
	.EEI-HW-2-02-st28{font-family:'Times New Roman';font-style:italic;}
	.EEI-HW-2-02-st29{clip-path:url(#SVGID_44_);}
	.EEI-HW-2-02-st30{font-size:13.32px;}
	.EEI-HW-2-02-st31{clip-path:url(#SVGID_46_);}
	.EEI-HW-2-02-st32{clip-path:url(#SVGID_48_);}
	.EEI-HW-2-02-st33{clip-path:url(#SVGID_50_);}
	.EEI-HW-2-02-st34{clip-path:url(#SVGID_52_);}
	.EEI-HW-2-02-st35{clip-path:url(#SVGID_54_);}
	.EEI-HW-2-02-st36{font-family:'SimSun';}
	.EEI-HW-2-02-st37{font-size:24px;}
	.EEI-HW-2-02-st38{fill-rule:evenodd;clip-rule:evenodd;fill:none;}
</style>
<g>
	<defs>
		<rect id="SVGID_1_" x="0.4" y="0.4" width="741.2" height="487"/>
	</defs>
	<clipPath id="SVGID_2_">
		<use xlink:href="#SVGID_1_"  style="overflow:visible;"/>
	</clipPath>
	<rect x="0.4" y="0.4" class="EEI-HW-2-02-st0" width="731.8" height="478.4"/>
</g>
<path class="EEI-HW-2-02-st1" d="M90.9,56.6h620.3 M90.9,88.5h620.3 M90.9,120.3h620.3 M90.9,152.1h620.3 M90.9,183.7h620.3 M90.9,215.5h620.3
	 M90.9,247.3h620.3 M90.9,279.1h620.3 M90.9,310.9h620.3 M90.9,342.7h620.3 M90.9,374.5h620.3"/>
<path class="EEI-HW-2-02-st1" d="M711.2,56.6v349.6 M607.8,56.6v349.6 M504.5,56.6v349.6 M401.1,56.6v349.6 M297.6,56.6v349.6 M194.3,56.6v349.6
	"/>
<line class="EEI-HW-2-02-st2" x1="90.9" y1="406.3" x2="90.9" y2="56.6"/>
<line class="EEI-HW-2-02-st2" x1="90.9" y1="406.3" x2="711.2" y2="406.3"/>
<path class="EEI-HW-2-02-st3" d="M97.1,279.1c1.2-10.6,5.7-79.5,7.2-63.6c1.5,15.9,1.2,140,2.1,158.9c0.9,18.9,0.5-34.8,3.1-45.4
	c1.6-6.5,9-7.7,12.4-18.2c5.5-17.2,13.8-55.2,20.7-84.8c6.9-29.6,13.8-69.3,20.7-92.7c6.9-23.4,13.8-45.3,20.7-47.5
	c6.9-2.2,12.1,28.5,20.7,34.2c8.6,5.7,19,1.8,31,0c12.1-1.8,27.6-8.2,41.4-10.6c5.2-0.9,20.6-4,41.3-3.9c55.1,0.5,193,4.3,289.5,6.5
	"/>
<g>
	<defs>
		<rect id="SVGID_3_" x="0.4" y="0.4" width="731.8" height="478.3"/>
	</defs>
	<clipPath id="SVGID_4_">
		<use xlink:href="#SVGID_3_"  style="overflow:visible;"/>
	</clipPath>
	<g class="EEI-HW-2-02-st4">
		<text transform="matrix(1 0 0 1 38.871 412.6436)"><tspan x="0" y="0" class="EEI-HW-2-02-st5 EEI-HW-2-02-st6 EEI-HW-2-02-st7">0.</tspan><tspan x="15" y="0" class="EEI-HW-2-02-st5 EEI-HW-2-02-st6 EEI-HW-2-02-st7">8</tspan><tspan x="25" y="0" class="EEI-HW-2-02-st5 EEI-HW-2-02-st6 EEI-HW-2-02-st7">9</tspan></text>
	</g>
</g>
<g>
	<defs>
		<rect id="SVGID_5_" x="0.4" y="0.4" width="731.8" height="478.3"/>
	</defs>
	<clipPath id="SVGID_6_">
		<use xlink:href="#SVGID_5_"  style="overflow:visible;"/>
	</clipPath>
	<g class="EEI-HW-2-02-st8">
		<text transform="matrix(1 0 0 1 48.8788 380.8438)"><tspan x="0" y="0" class="EEI-HW-2-02-st5 EEI-HW-2-02-st6 EEI-HW-2-02-st9">0</tspan><tspan x="10" y="0" class="EEI-HW-2-02-st5 EEI-HW-2-02-st6 EEI-HW-2-02-st9">.9</tspan></text>
	</g>
</g>
<g>
	<defs>
		<rect id="SVGID_7_" x="0.4" y="0.4" width="731.8" height="478.3"/>
	</defs>
	<clipPath id="SVGID_8_">
		<use xlink:href="#SVGID_7_"  style="overflow:visible;"/>
	</clipPath>
	<g class="EEI-HW-2-02-st10">
		<text transform="matrix(1 0 0 1 38.871 349.0742)"><tspan x="0" y="0" class="EEI-HW-2-02-st5 EEI-HW-2-02-st6 EEI-HW-2-02-st7">0.</tspan><tspan x="15" y="0" class="EEI-HW-2-02-st5 EEI-HW-2-02-st6 EEI-HW-2-02-st7">9</tspan><tspan x="25" y="0" class="EEI-HW-2-02-st5 EEI-HW-2-02-st6 EEI-HW-2-02-st7">1</tspan></text>
	</g>
</g>
<g>
	<defs>
		<rect id="SVGID_9_" x="0.4" y="0.4" width="731.8" height="478.3"/>
	</defs>
	<clipPath id="SVGID_10_">
		<use xlink:href="#SVGID_9_"  style="overflow:visible;"/>
	</clipPath>
	<g class="EEI-HW-2-02-st11">
		<text transform="matrix(1 0 0 1 38.871 317.2744)"><tspan x="0" y="0" class="EEI-HW-2-02-st5 EEI-HW-2-02-st6 EEI-HW-2-02-st7">0.</tspan><tspan x="15" y="0" class="EEI-HW-2-02-st5 EEI-HW-2-02-st6 EEI-HW-2-02-st7">9</tspan><tspan x="25" y="0" class="EEI-HW-2-02-st5 EEI-HW-2-02-st6 EEI-HW-2-02-st7">2</tspan></text>
	</g>
</g>
<g>
	<defs>
		<rect id="SVGID_11_" x="0.4" y="0.4" width="731.8" height="478.3"/>
	</defs>
	<clipPath id="SVGID_12_">
		<use xlink:href="#SVGID_11_"  style="overflow:visible;"/>
	</clipPath>
	<g class="EEI-HW-2-02-st12">
		<text transform="matrix(1 0 0 1 38.871 285.4941)"><tspan x="0" y="0" class="EEI-HW-2-02-st5 EEI-HW-2-02-st6 EEI-HW-2-02-st7">0.</tspan><tspan x="15" y="0" class="EEI-HW-2-02-st5 EEI-HW-2-02-st6 EEI-HW-2-02-st7">9</tspan><tspan x="25" y="0" class="EEI-HW-2-02-st5 EEI-HW-2-02-st6 EEI-HW-2-02-st7">3</tspan></text>
	</g>
</g>
<g>
	<defs>
		<rect id="SVGID_13_" x="0.4" y="0.4" width="731.8" height="478.3"/>
	</defs>
	<clipPath id="SVGID_14_">
		<use xlink:href="#SVGID_13_"  style="overflow:visible;"/>
	</clipPath>
	<g class="EEI-HW-2-02-st13">
		<text transform="matrix(1 0 0 1 38.871 253.6943)"><tspan x="0" y="0" class="EEI-HW-2-02-st5 EEI-HW-2-02-st6 EEI-HW-2-02-st7">0.</tspan><tspan x="15" y="0" class="EEI-HW-2-02-st5 EEI-HW-2-02-st6 EEI-HW-2-02-st7">9</tspan><tspan x="25" y="0" class="EEI-HW-2-02-st5 EEI-HW-2-02-st6 EEI-HW-2-02-st7">4</tspan></text>
	</g>
</g>
<g>
	<defs>
		<rect id="SVGID_15_" x="0.4" y="0.4" width="731.8" height="478.3"/>
	</defs>
	<clipPath id="SVGID_16_">
		<use xlink:href="#SVGID_15_"  style="overflow:visible;"/>
	</clipPath>
	<g class="EEI-HW-2-02-st14">
		<text transform="matrix(1 0 0 1 38.871 221.894)"><tspan x="0" y="0" class="EEI-HW-2-02-st5 EEI-HW-2-02-st6 EEI-HW-2-02-st9">0</tspan><tspan x="10" y="0" class="EEI-HW-2-02-st5 EEI-HW-2-02-st6 EEI-HW-2-02-st9">.95</tspan></text>
	</g>
</g>
<g>
	<defs>
		<rect id="SVGID_17_" x="0.4" y="0.4" width="731.8" height="478.3"/>
	</defs>
	<clipPath id="SVGID_18_">
		<use xlink:href="#SVGID_17_"  style="overflow:visible;"/>
	</clipPath>
	<g class="EEI-HW-2-02-st15">
		<text transform="matrix(1 0 0 1 38.871 190.1138)"><tspan x="0" y="0" class="EEI-HW-2-02-st5 EEI-HW-2-02-st6 EEI-HW-2-02-st7">0.</tspan><tspan x="15" y="0" class="EEI-HW-2-02-st5 EEI-HW-2-02-st6 EEI-HW-2-02-st7">9</tspan><tspan x="25" y="0" class="EEI-HW-2-02-st5 EEI-HW-2-02-st6 EEI-HW-2-02-st7">6</tspan></text>
	</g>
</g>
<g>
	<defs>
		<rect id="SVGID_19_" x="0.4" y="0.4" width="731.8" height="478.3"/>
	</defs>
	<clipPath id="SVGID_20_">
		<use xlink:href="#SVGID_19_"  style="overflow:visible;"/>
	</clipPath>
	<g class="EEI-HW-2-02-st16">
		<text transform="matrix(1 0 0 1 38.871 158.314)"><tspan x="0" y="0" class="EEI-HW-2-02-st5 EEI-HW-2-02-st6 EEI-HW-2-02-st7">0.</tspan><tspan x="15" y="0" class="EEI-HW-2-02-st5 EEI-HW-2-02-st6 EEI-HW-2-02-st7">9</tspan><tspan x="25" y="0" class="EEI-HW-2-02-st5 EEI-HW-2-02-st6 EEI-HW-2-02-st7">7</tspan></text>
	</g>
</g>
<g>
	<defs>
		<rect id="SVGID_21_" x="0.4" y="0.4" width="731.8" height="478.3"/>
	</defs>
	<clipPath id="SVGID_22_">
		<use xlink:href="#SVGID_21_"  style="overflow:visible;"/>
	</clipPath>
	<g class="EEI-HW-2-02-st17">
		<text transform="matrix(1 0 0 1 38.871 126.5142)"><tspan x="0" y="0" class="EEI-HW-2-02-st5 EEI-HW-2-02-st6 EEI-HW-2-02-st9">0</tspan><tspan x="10" y="0" class="EEI-HW-2-02-st5 EEI-HW-2-02-st6 EEI-HW-2-02-st9">.98</tspan></text>
	</g>
</g>
<g>
	<defs>
		<rect id="SVGID_23_" x="0.4" y="0.4" width="731.8" height="478.3"/>
	</defs>
	<clipPath id="SVGID_24_">
		<use xlink:href="#SVGID_23_"  style="overflow:visible;"/>
	</clipPath>
	<g class="EEI-HW-2-02-st18">
		<text transform="matrix(1 0 0 1 38.871 94.7441)"><tspan x="0" y="0" class="EEI-HW-2-02-st5 EEI-HW-2-02-st6 EEI-HW-2-02-st7">0.</tspan><tspan x="15" y="0" class="EEI-HW-2-02-st5 EEI-HW-2-02-st6 EEI-HW-2-02-st7">9</tspan><tspan x="25" y="0" class="EEI-HW-2-02-st5 EEI-HW-2-02-st6 EEI-HW-2-02-st7">9</tspan></text>
	</g>
</g>
<g>
	<defs>
		<rect id="SVGID_25_" x="0.4" y="0.4" width="731.8" height="478.3"/>
	</defs>
	<clipPath id="SVGID_26_">
		<use xlink:href="#SVGID_25_"  style="overflow:visible;"/>
	</clipPath>
	<g class="EEI-HW-2-02-st19">
		<text transform="matrix(1 0 0 1 63.8749 62.9438)" class="EEI-HW-2-02-st5 EEI-HW-2-02-st6 EEI-HW-2-02-st7">1</text>
	</g>
</g>
<g>
	<defs>
		<rect id="SVGID_27_" x="0.4" y="0.4" width="731.8" height="478.3"/>
	</defs>
	<clipPath id="SVGID_28_">
		<use xlink:href="#SVGID_27_"  style="overflow:visible;"/>
	</clipPath>
	<g class="EEI-HW-2-02-st20">
		<text transform="matrix(1 0 0 1 85.9149 436.1436)" class="EEI-HW-2-02-st5 EEI-HW-2-02-st6 EEI-HW-2-02-st7">0</text>
	</g>
</g>
<g>
	<defs>
		<rect id="SVGID_29_" x="0.4" y="0.4" width="731.8" height="478.3"/>
	</defs>
	<clipPath id="SVGID_30_">
		<use xlink:href="#SVGID_29_"  style="overflow:visible;"/>
	</clipPath>
	<g class="EEI-HW-2-02-st21">
		<text transform="matrix(1 0 0 1 189.3051 436.1436)" class="EEI-HW-2-02-st5 EEI-HW-2-02-st6 EEI-HW-2-02-st7">5</text>
	</g>
</g>
<g>
	<defs>
		<rect id="SVGID_31_" x="0.4" y="0.4" width="731.8" height="478.3"/>
	</defs>
	<clipPath id="SVGID_32_">
		<use xlink:href="#SVGID_31_"  style="overflow:visible;"/>
	</clipPath>
	<g class="EEI-HW-2-02-st22">
		<text transform="matrix(1 0 0 1 287.705 436.1436)"><tspan x="0" y="0" class="EEI-HW-2-02-st5 EEI-HW-2-02-st6 EEI-HW-2-02-st7">1</tspan><tspan x="10" y="0" class="EEI-HW-2-02-st5 EEI-HW-2-02-st6 EEI-HW-2-02-st7">0</tspan></text>
	</g>
</g>
<g>
	<defs>
		<rect id="SVGID_33_" x="0.4" y="0.4" width="731.8" height="478.3"/>
	</defs>
	<clipPath id="SVGID_34_">
		<use xlink:href="#SVGID_33_"  style="overflow:visible;"/>
	</clipPath>
	<g class="EEI-HW-2-02-st23">
		<text transform="matrix(1 0 0 1 391.1147 436.1436)"><tspan x="0" y="0" class="EEI-HW-2-02-st5 EEI-HW-2-02-st6 EEI-HW-2-02-st7">1</tspan><tspan x="10" y="0" class="EEI-HW-2-02-st5 EEI-HW-2-02-st6 EEI-HW-2-02-st7">5</tspan></text>
	</g>
</g>
<g>
	<defs>
		<rect id="SVGID_35_" x="0.4" y="0.4" width="731.8" height="478.3"/>
	</defs>
	<clipPath id="SVGID_36_">
		<use xlink:href="#SVGID_35_"  style="overflow:visible;"/>
	</clipPath>
	<g class="EEI-HW-2-02-st24">
		<text transform="matrix(1 0 0 1 494.515 436.1436)"><tspan x="0" y="0" class="EEI-HW-2-02-st5 EEI-HW-2-02-st6 EEI-HW-2-02-st7">2</tspan><tspan x="10" y="0" class="EEI-HW-2-02-st5 EEI-HW-2-02-st6 EEI-HW-2-02-st7">0</tspan></text>
	</g>
</g>
<g>
	<defs>
		<rect id="SVGID_37_" x="0.4" y="0.4" width="731.8" height="478.3"/>
	</defs>
	<clipPath id="SVGID_38_">
		<use xlink:href="#SVGID_37_"  style="overflow:visible;"/>
	</clipPath>
	<g class="EEI-HW-2-02-st25">
		<text transform="matrix(1 0 0 1 597.9252 436.1436)"><tspan x="0" y="0" class="EEI-HW-2-02-st5 EEI-HW-2-02-st6 EEI-HW-2-02-st7">2</tspan><tspan x="10" y="0" class="EEI-HW-2-02-st5 EEI-HW-2-02-st6 EEI-HW-2-02-st7">5</tspan></text>
	</g>
</g>
<g>
	<defs>
		<rect id="SVGID_39_" x="0.4" y="0.4" width="731.8" height="478.3"/>
	</defs>
	<clipPath id="SVGID_40_">
		<use xlink:href="#SVGID_39_"  style="overflow:visible;"/>
	</clipPath>
	<g class="EEI-HW-2-02-st26">
		<text transform="matrix(1 0 0 1 701.3148 436.1436)"><tspan x="0" y="0" class="EEI-HW-2-02-st5 EEI-HW-2-02-st6 EEI-HW-2-02-st7">3</tspan><tspan x="10" y="0" class="EEI-HW-2-02-st5 EEI-HW-2-02-st6 EEI-HW-2-02-st7">0</tspan></text>
	</g>
</g>
<g>
	<defs>
		<rect id="SVGID_41_" x="0.4" y="0.4" width="731.8" height="478.3"/>
	</defs>
	<clipPath id="SVGID_42_">
		<use xlink:href="#SVGID_41_"  style="overflow:visible;"/>
	</clipPath>
	<g class="EEI-HW-2-02-st27">
		<text transform="matrix(-6.123234e-17 -1 1 -6.123234e-17 31.5991 238.4541)" class="EEI-HW-2-02-st5 EEI-HW-2-02-st28 EEI-HW-2-02-st7">η</text>
	</g>
</g>
<g>
	<defs>
		<rect id="SVGID_43_" x="0.4" y="0.4" width="731.8" height="478.3"/>
	</defs>
	<clipPath id="SVGID_44_">
		<use xlink:href="#SVGID_43_"  style="overflow:visible;"/>
	</clipPath>
	<g class="EEI-HW-2-02-st29">
		<text transform="matrix(-6.123234e-17 -1 1 -6.123234e-17 36.5192 228.4941)" class="EEI-HW-2-02-st5 EEI-HW-2-02-st28 EEI-HW-2-02-st30">i</text>
	</g>
</g>
<g>
	<defs>
		<rect id="SVGID_45_" x="0.4" y="0.4" width="731.8" height="478.3"/>
	</defs>
	<clipPath id="SVGID_46_">
		<use xlink:href="#SVGID_45_"  style="overflow:visible;"/>
	</clipPath>
	<g class="EEI-HW-2-02-st31">
		<text transform="matrix(1 0 0 1 375.015 462.1338)" class="EEI-HW-2-02-st5 EEI-HW-2-02-st28 EEI-HW-2-02-st7">d</text>
	</g>
</g>
<g>
	<defs>
		<rect id="SVGID_47_" x="0.4" y="0.4" width="731.8" height="478.3"/>
	</defs>
	<clipPath id="SVGID_48_">
		<use xlink:href="#SVGID_47_"  style="overflow:visible;"/>
	</clipPath>
	<g class="EEI-HW-2-02-st32">
		<text transform="matrix(1 0 0 1 385.0951 467.0537)" class="EEI-HW-2-02-st5 EEI-HW-2-02-st6 EEI-HW-2-02-st30">p</text>
	</g>
</g>
<g>
	<defs>
		<rect id="SVGID_49_" x="0.4" y="0.4" width="731.8" height="478.3"/>
	</defs>
	<clipPath id="SVGID_50_">
		<use xlink:href="#SVGID_49_"  style="overflow:visible;"/>
	</clipPath>
	<g class="EEI-HW-2-02-st33">
		<text transform="matrix(1 0 0 1 391.8148 467.0537)" class="EEI-HW-2-02-st5 EEI-HW-2-02-st28 EEI-HW-2-02-st30">i</text>
	</g>
</g>
<g>
	<defs>
		<rect id="SVGID_51_" x="0.4" y="0.4" width="731.8" height="478.3"/>
	</defs>
	<clipPath id="SVGID_52_">
		<use xlink:href="#SVGID_51_"  style="overflow:visible;"/>
	</clipPath>
	<g class="EEI-HW-2-02-st34">
		<text transform="matrix(1 0 0 1 395.5346 462.1338)" class="EEI-HW-2-02-st5 EEI-HW-2-02-st6 EEI-HW-2-02-st7">/μm</text>
	</g>
</g>
<g>
	<defs>
		<rect id="SVGID_53_" x="0.4" y="0.4" width="731.8" height="478.3"/>
	</defs>
	<clipPath id="SVGID_54_">
		<use xlink:href="#SVGID_53_"  style="overflow:visible;"/>
	</clipPath>
	<g class="EEI-HW-2-02-st35">
		<text transform="matrix(1 0 0 1 270.2748 32.1538)" class="EEI-HW-2-02-st5 EEI-HW-2-02-st36 EEI-HW-2-02-st37">分级除尘效率曲线</text>
	</g>
</g>
<rect x="0.4" y="0.4" class="EEI-HW-2-02-st38" width="741.2" height="487"/>
</svg>
