<svg class="svgImage" alt="{{ include.alt }}" version="1.1" xmlns="http://www.w3.org/2000/svg" xmlns:xlink="http://www.w3.org/1999/xlink" x="0px" y="0px"
	 viewBox="0 0 732.2 478.2" style="enable-background:new 0 0 732.2 478.2;" xml:space="preserve">
<style type="text/css">
	.EEI-HW-3-01-st0{fill:none;stroke:#D9D9D9;stroke-width:0.75;stroke-linejoin:round;stroke-miterlimit:10;}
	.EEI-HW-3-01-st1{fill:none;stroke:#BFBFBF;stroke-width:0.75;stroke-linejoin:round;stroke-miterlimit:10;}
	.EEI-HW-3-01-st2{fill:none;stroke:#000000;stroke-width:1.5;stroke-linecap:round;stroke-linejoin:round;stroke-miterlimit:10;}
	.EEI-HW-3-01-st3{fill:none;stroke:#000000;stroke-width:0.72;stroke-linejoin:round;stroke-miterlimit:10;}
	.EEI-HW-3-01-st4{clip-path:url(#SVGID_2_);}
	.EEI-HW-3-01-st5{fill:#595959;}
	.EEI-HW-3-01-st6{font-family:'Times New Roman';}
	.EEI-HW-3-01-st7{font-size:20.064px;}
	.EEI-HW-3-01-st8{clip-path:url(#SVGID_4_);}
	.EEI-HW-3-01-st9{font-size:20.04px;}
	.EEI-HW-3-01-st10{clip-path:url(#SVGID_6_);}
	.EEI-HW-3-01-st11{clip-path:url(#SVGID_8_);}
	.EEI-HW-3-01-st12{clip-path:url(#SVGID_10_);}
	.EEI-HW-3-01-st13{clip-path:url(#SVGID_12_);}
	.EEI-HW-3-01-st14{clip-path:url(#SVGID_14_);}
	.EEI-HW-3-01-st15{clip-path:url(#SVGID_16_);}
	.EEI-HW-3-01-st16{clip-path:url(#SVGID_18_);}
	.EEI-HW-3-01-st17{clip-path:url(#SVGID_20_);}
	.EEI-HW-3-01-st18{clip-path:url(#SVGID_22_);}
	.EEI-HW-3-01-st19{clip-path:url(#SVGID_24_);}
	.EEI-HW-3-01-st20{clip-path:url(#SVGID_26_);}
	.EEI-HW-3-01-st21{clip-path:url(#SVGID_28_);}
	.EEI-HW-3-01-st22{clip-path:url(#SVGID_30_);}
	.EEI-HW-3-01-st23{clip-path:url(#SVGID_32_);}
	.EEI-HW-3-01-st24{clip-path:url(#SVGID_34_);}
	.EEI-HW-3-01-st25{clip-path:url(#SVGID_36_);}
	.EEI-HW-3-01-st26{clip-path:url(#SVGID_38_);}
	.EEI-HW-3-01-st27{clip-path:url(#SVGID_40_);}
	.EEI-HW-3-01-st28{clip-path:url(#SVGID_42_);}
	.EEI-HW-3-01-st29{font-family:'SimSun';}
	.EEI-HW-3-01-st30{font-size:24px;}
</style>
<path class="EEI-HW-3-01-st0" d="M95.2,56.3h616.1 M95.2,94.4h616.1 M95.2,132.6h616.1 M95.2,170.8h616.1 M95.2,208.8h616.1 M95.2,247h616.1
	 M95.2,285.1h616.1 M95.2,323.3h616.1 M95.2,361.4h616.1 M95.2,399.6h616.1"/>
<path class="EEI-HW-3-01-st0" d="M711.3,56.3v381.4 M642.8,56.3v381.4 M574.3,56.3v381.4 M505.9,56.3v381.4 M437.4,56.3v381.4 M369,56.3v381.4
	 M300.5,56.3v381.4 M232.1,56.3v381.4 M163.7,56.3v381.4"/>
<line class="EEI-HW-3-01-st1" x1="95.2" y1="437.7" x2="95.2" y2="56.3"/>
<line class="EEI-HW-3-01-st1" x1="95.2" y1="437.7" x2="711.3" y2="437.7"/>
<path class="EEI-HW-3-01-st2" d="M129.4,416.4c22.8-55.7,45.6-120.4,68.5-167.1c22.8-46.8,45.6-87.7,68.5-113.5c22.8-25.8,45.6-32.8,68.5-41.3
	c22.8-8.6,45.6-6.1,68.5-10.1c22.8-4,45.6-10.8,68.5-13.8s45.6-3,68.4-4c22.8-1,45.6-1.3,68.5-2c22.8-0.7,45.6-1.4,68.5-2"/>
<circle cx="129.4" cy="416.4" r="2.5"/>
<circle class="EEI-HW-3-01-st3" cx="129.4" cy="416.4" r="2.5"/>
<circle cx="197.9" cy="249.2" r="2.5"/>
<circle class="EEI-HW-3-01-st3" cx="197.9" cy="249.2" r="2.5"/>
<circle cx="266.3" cy="135.7" r="2.5"/>
<circle class="EEI-HW-3-01-st3" cx="266.3" cy="135.7" r="2.5"/>
<ellipse transform="matrix(0.2298 -0.9732 0.9732 0.2298 165.9647 398.5857)" cx="334.8" cy="94.4" rx="2.5" ry="2.5"/>
<ellipse transform="matrix(0.2298 -0.9732 0.9732 0.2298 165.9647 398.5857)" class="EEI-HW-3-01-st3" cx="334.8" cy="94.4" rx="2.5" ry="2.5"/>
<ellipse transform="matrix(0.7071 -0.7071 0.7071 0.7071 58.443 309.8139)" cx="403.2" cy="84.4" rx="2.5" ry="2.5"/>
<ellipse transform="matrix(0.7071 -0.7071 0.7071 0.7071 58.443 309.8139)" class="EEI-HW-3-01-st3" cx="403.2" cy="84.4" rx="2.5" ry="2.5"/>
<ellipse transform="matrix(0.1602 -0.9871 0.9871 0.1602 326.5097 524.8864)" cx="471.7" cy="70.6" rx="2.5" ry="2.5"/>
<ellipse transform="matrix(0.1602 -0.9871 0.9871 0.1602 326.5097 524.8864)" class="EEI-HW-3-01-st3" cx="471.7" cy="70.6" rx="2.5" ry="2.5"/>
<path d="M542.6,66.6c0,1.4-1.1,2.5-2.5,2.5c-1.4,0-2.5-1.1-2.5-2.5c0-1.4,1.1-2.5,2.5-2.5C541.5,64.1,542.6,65.2,542.6,66.6z"/>
<path class="EEI-HW-3-01-st3" d="M542.6,66.6c0,1.4-1.1,2.5-2.5,2.5c-1.4,0-2.5-1.1-2.5-2.5c0-1.4,1.1-2.5,2.5-2.5
	C541.5,64.1,542.6,65.2,542.6,66.6z"/>
<path d="M611,64.6c0,1.4-1.1,2.5-2.5,2.5c-1.4,0-2.5-1.1-2.5-2.5c0-1.4,1.1-2.5,2.5-2.5C609.9,62,611,63.2,611,64.6z"/>
<path class="EEI-HW-3-01-st3" d="M611,64.6c0,1.4-1.1,2.5-2.5,2.5c-1.4,0-2.5-1.1-2.5-2.5c0-1.4,1.1-2.5,2.5-2.5C609.9,62,611,63.2,611,64.6z"/>
<circle cx="677" cy="62.5" r="2.5"/>
<circle class="EEI-HW-3-01-st3" cx="677" cy="62.5" r="2.5"/>
<g>
	<defs>
		<rect id="SVGID_1_" width="732.2" height="478.2"/>
	</defs>
	<clipPath id="SVGID_2_">
		<use xlink:href="#SVGID_1_"  style="overflow:visible;"/>
	</clipPath>
	<g class="EEI-HW-3-01-st4">
		<text transform="matrix(1 0 0 1 26.5199 444.0723)"><tspan x="0" y="0" class="EEI-HW-3-01-st5 EEI-HW-3-01-st6 EEI-HW-3-01-st7">0</tspan><tspan x="10" y="0" class="EEI-HW-3-01-st5 EEI-HW-3-01-st6 EEI-HW-3-01-st7">.00%</tspan></text>
	</g>
</g>
<g>
	<defs>
		<rect id="SVGID_3_" width="732.2" height="478.2"/>
	</defs>
	<clipPath id="SVGID_4_">
		<use xlink:href="#SVGID_3_"  style="overflow:visible;"/>
	</clipPath>
	<g class="EEI-HW-3-01-st8">
		<text transform="matrix(1 0 0 1 16.5121 405.9405)"><tspan x="0" y="0" class="EEI-HW-3-01-st5 EEI-HW-3-01-st6 EEI-HW-3-01-st9">10</tspan><tspan x="20" y="0" class="EEI-HW-3-01-st5 EEI-HW-3-01-st6 EEI-HW-3-01-st9">.</tspan><tspan x="25" y="0" class="EEI-HW-3-01-st5 EEI-HW-3-01-st6 EEI-HW-3-01-st9">00%</tspan></text>
	</g>
</g>
<g>
	<defs>
		<rect id="SVGID_5_" width="732.2" height="478.2"/>
	</defs>
	<clipPath id="SVGID_6_">
		<use xlink:href="#SVGID_5_"  style="overflow:visible;"/>
	</clipPath>
	<g class="EEI-HW-3-01-st10">
		<text transform="matrix(1 0 0 1 16.5121 367.7803)"><tspan x="0" y="0" class="EEI-HW-3-01-st5 EEI-HW-3-01-st6 EEI-HW-3-01-st9">20</tspan><tspan x="20" y="0" class="EEI-HW-3-01-st5 EEI-HW-3-01-st6 EEI-HW-3-01-st9">.</tspan><tspan x="25" y="0" class="EEI-HW-3-01-st5 EEI-HW-3-01-st6 EEI-HW-3-01-st9">00%</tspan></text>
	</g>
</g>
<g>
	<defs>
		<rect id="SVGID_7_" width="732.2" height="478.2"/>
	</defs>
	<clipPath id="SVGID_8_">
		<use xlink:href="#SVGID_7_"  style="overflow:visible;"/>
	</clipPath>
	<g class="EEI-HW-3-01-st11">
		<text transform="matrix(1 0 0 1 16.5121 329.6397)"><tspan x="0" y="0" class="EEI-HW-3-01-st5 EEI-HW-3-01-st6 EEI-HW-3-01-st9">30</tspan><tspan x="20" y="0" class="EEI-HW-3-01-st5 EEI-HW-3-01-st6 EEI-HW-3-01-st9">.</tspan><tspan x="25" y="0" class="EEI-HW-3-01-st5 EEI-HW-3-01-st6 EEI-HW-3-01-st9">00%</tspan></text>
	</g>
</g>
<g>
	<defs>
		<rect id="SVGID_9_" width="732.2" height="478.2"/>
	</defs>
	<clipPath id="SVGID_10_">
		<use xlink:href="#SVGID_9_"  style="overflow:visible;"/>
	</clipPath>
	<g class="EEI-HW-3-01-st12">
		<text transform="matrix(1 0 0 1 16.5121 291.4796)"><tspan x="0" y="0" class="EEI-HW-3-01-st5 EEI-HW-3-01-st6 EEI-HW-3-01-st9">40</tspan><tspan x="20" y="0" class="EEI-HW-3-01-st5 EEI-HW-3-01-st6 EEI-HW-3-01-st9">.</tspan><tspan x="25" y="0" class="EEI-HW-3-01-st5 EEI-HW-3-01-st6 EEI-HW-3-01-st9">00%</tspan></text>
	</g>
</g>
<g>
	<defs>
		<rect id="SVGID_11_" width="732.2" height="478.2"/>
	</defs>
	<clipPath id="SVGID_12_">
		<use xlink:href="#SVGID_11_"  style="overflow:visible;"/>
	</clipPath>
	<g class="EEI-HW-3-01-st13">
		<text transform="matrix(1 0 0 1 16.5121 253.3204)"><tspan x="0" y="0" class="EEI-HW-3-01-st5 EEI-HW-3-01-st6 EEI-HW-3-01-st9">50</tspan><tspan x="20" y="0" class="EEI-HW-3-01-st5 EEI-HW-3-01-st6 EEI-HW-3-01-st9">.</tspan><tspan x="25" y="0" class="EEI-HW-3-01-st5 EEI-HW-3-01-st6 EEI-HW-3-01-st9">00%</tspan></text>
	</g>
</g>
<g>
	<defs>
		<rect id="SVGID_13_" width="732.2" height="478.2"/>
	</defs>
	<clipPath id="SVGID_14_">
		<use xlink:href="#SVGID_13_"  style="overflow:visible;"/>
	</clipPath>
	<g class="EEI-HW-3-01-st14">
		<text transform="matrix(1 0 0 1 16.5121 215.1802)"><tspan x="0" y="0" class="EEI-HW-3-01-st5 EEI-HW-3-01-st6 EEI-HW-3-01-st9">60</tspan><tspan x="20" y="0" class="EEI-HW-3-01-st5 EEI-HW-3-01-st6 EEI-HW-3-01-st9">.</tspan><tspan x="25" y="0" class="EEI-HW-3-01-st5 EEI-HW-3-01-st6 EEI-HW-3-01-st9">00%</tspan></text>
	</g>
</g>
<g>
	<defs>
		<rect id="SVGID_15_" width="732.2" height="478.2"/>
	</defs>
	<clipPath id="SVGID_16_">
		<use xlink:href="#SVGID_15_"  style="overflow:visible;"/>
	</clipPath>
	<g class="EEI-HW-3-01-st15">
		<text transform="matrix(1 0 0 1 16.5121 177.0201)"><tspan x="0" y="0" class="EEI-HW-3-01-st5 EEI-HW-3-01-st6 EEI-HW-3-01-st9">70</tspan><tspan x="20" y="0" class="EEI-HW-3-01-st5 EEI-HW-3-01-st6 EEI-HW-3-01-st9">.</tspan><tspan x="25" y="0" class="EEI-HW-3-01-st5 EEI-HW-3-01-st6 EEI-HW-3-01-st9">00%</tspan></text>
	</g>
</g>
<g>
	<defs>
		<rect id="SVGID_17_" width="732.2" height="478.2"/>
	</defs>
	<clipPath id="SVGID_18_">
		<use xlink:href="#SVGID_17_"  style="overflow:visible;"/>
	</clipPath>
	<g class="EEI-HW-3-01-st16">
		<text transform="matrix(1 0 0 1 16.5121 138.8599)"><tspan x="0" y="0" class="EEI-HW-3-01-st5 EEI-HW-3-01-st6 EEI-HW-3-01-st7">8</tspan><tspan x="10" y="0" class="EEI-HW-3-01-st5 EEI-HW-3-01-st6 EEI-HW-3-01-st7">0.0</tspan><tspan x="35.1" y="0" class="EEI-HW-3-01-st5 EEI-HW-3-01-st6 EEI-HW-3-01-st7">0</tspan><tspan x="45" y="0" class="EEI-HW-3-01-st5 EEI-HW-3-01-st6 EEI-HW-3-01-st7">%</tspan></text>
	</g>
</g>
<g>
	<defs>
		<rect id="SVGID_19_" width="732.2" height="478.2"/>
	</defs>
	<clipPath id="SVGID_20_">
		<use xlink:href="#SVGID_19_"  style="overflow:visible;"/>
	</clipPath>
	<g class="EEI-HW-3-01-st17">
		<text transform="matrix(1 0 0 1 16.5121 100.73)"><tspan x="0" y="0" class="EEI-HW-3-01-st5 EEI-HW-3-01-st6 EEI-HW-3-01-st9">90</tspan><tspan x="20" y="0" class="EEI-HW-3-01-st5 EEI-HW-3-01-st6 EEI-HW-3-01-st9">.</tspan><tspan x="25" y="0" class="EEI-HW-3-01-st5 EEI-HW-3-01-st6 EEI-HW-3-01-st9">00%</tspan></text>
	</g>
</g>
<g>
	<defs>
		<rect id="SVGID_21_" width="732.2" height="478.2"/>
	</defs>
	<clipPath id="SVGID_22_">
		<use xlink:href="#SVGID_21_"  style="overflow:visible;"/>
	</clipPath>
	<g class="EEI-HW-3-01-st18">
		<text transform="matrix(1 0 0 1 6.5038 62.5699)"><tspan x="0" y="0" class="EEI-HW-3-01-st5 EEI-HW-3-01-st6 EEI-HW-3-01-st9">100.</tspan><tspan x="35.1" y="0" class="EEI-HW-3-01-st5 EEI-HW-3-01-st6 EEI-HW-3-01-st9">0</tspan><tspan x="45" y="0" class="EEI-HW-3-01-st5 EEI-HW-3-01-st6 EEI-HW-3-01-st9">0%</tspan></text>
	</g>
</g>
<g>
	<defs>
		<rect id="SVGID_23_" width="732.2" height="478.2"/>
	</defs>
	<clipPath id="SVGID_24_">
		<use xlink:href="#SVGID_23_"  style="overflow:visible;"/>
	</clipPath>
	<g class="EEI-HW-3-01-st19">
		<text transform="matrix(1 0 0 1 90.1898 467.5684)" class="EEI-HW-3-01-st5 EEI-HW-3-01-st6 EEI-HW-3-01-st7">0</text>
	</g>
</g>
<g>
	<defs>
		<rect id="SVGID_25_" width="732.2" height="478.2"/>
	</defs>
	<clipPath id="SVGID_26_">
		<use xlink:href="#SVGID_25_"  style="overflow:visible;"/>
	</clipPath>
	<g class="EEI-HW-3-01-st20">
		<text transform="matrix(1 0 0 1 158.6601 467.5684)" class="EEI-HW-3-01-st5 EEI-HW-3-01-st6 EEI-HW-3-01-st7">5</text>
	</g>
</g>
<g>
	<defs>
		<rect id="SVGID_27_" width="732.2" height="478.2"/>
	</defs>
	<clipPath id="SVGID_28_">
		<use xlink:href="#SVGID_27_"  style="overflow:visible;"/>
	</clipPath>
	<g class="EEI-HW-3-01-st21">
		<text transform="matrix(1 0 0 1 222.12 467.5684)"><tspan x="0" y="0" class="EEI-HW-3-01-st5 EEI-HW-3-01-st6 EEI-HW-3-01-st7">1</tspan><tspan x="10" y="0" class="EEI-HW-3-01-st5 EEI-HW-3-01-st6 EEI-HW-3-01-st7">0</tspan></text>
	</g>
</g>
<g>
	<defs>
		<rect id="SVGID_29_" width="732.2" height="478.2"/>
	</defs>
	<clipPath id="SVGID_30_">
		<use xlink:href="#SVGID_29_"  style="overflow:visible;"/>
	</clipPath>
	<g class="EEI-HW-3-01-st22">
		<text transform="matrix(1 0 0 1 290.5902 467.5684)"><tspan x="0" y="0" class="EEI-HW-3-01-st5 EEI-HW-3-01-st6 EEI-HW-3-01-st7">1</tspan><tspan x="10" y="0" class="EEI-HW-3-01-st5 EEI-HW-3-01-st6 EEI-HW-3-01-st7">5</tspan></text>
	</g>
</g>
<g>
	<defs>
		<rect id="SVGID_31_" width="732.2" height="478.2"/>
	</defs>
	<clipPath id="SVGID_32_">
		<use xlink:href="#SVGID_31_"  style="overflow:visible;"/>
	</clipPath>
	<g class="EEI-HW-3-01-st23">
		<text transform="matrix(1 0 0 1 359.0399 467.5684)"><tspan x="0" y="0" class="EEI-HW-3-01-st5 EEI-HW-3-01-st6 EEI-HW-3-01-st7">2</tspan><tspan x="10" y="0" class="EEI-HW-3-01-st5 EEI-HW-3-01-st6 EEI-HW-3-01-st7">0</tspan></text>
	</g>
</g>
<g>
	<defs>
		<rect id="SVGID_33_" width="732.2" height="478.2"/>
	</defs>
	<clipPath id="SVGID_34_">
		<use xlink:href="#SVGID_33_"  style="overflow:visible;"/>
	</clipPath>
	<g class="EEI-HW-3-01-st24">
		<text transform="matrix(1 0 0 1 427.5102 467.5684)"><tspan x="0" y="0" class="EEI-HW-3-01-st5 EEI-HW-3-01-st6 EEI-HW-3-01-st7">2</tspan><tspan x="10" y="0" class="EEI-HW-3-01-st5 EEI-HW-3-01-st6 EEI-HW-3-01-st7">5</tspan></text>
	</g>
</g>
<g>
	<defs>
		<rect id="SVGID_35_" width="732.2" height="478.2"/>
	</defs>
	<clipPath id="SVGID_36_">
		<use xlink:href="#SVGID_35_"  style="overflow:visible;"/>
	</clipPath>
	<g class="EEI-HW-3-01-st25">
		<text transform="matrix(1 0 0 1 495.9604 467.5684)"><tspan x="0" y="0" class="EEI-HW-3-01-st5 EEI-HW-3-01-st6 EEI-HW-3-01-st7">3</tspan><tspan x="10" y="0" class="EEI-HW-3-01-st5 EEI-HW-3-01-st6 EEI-HW-3-01-st7">0</tspan></text>
	</g>
</g>
<g>
	<defs>
		<rect id="SVGID_37_" width="732.2" height="478.2"/>
	</defs>
	<clipPath id="SVGID_38_">
		<use xlink:href="#SVGID_37_"  style="overflow:visible;"/>
	</clipPath>
	<g class="EEI-HW-3-01-st26">
		<text transform="matrix(1 0 0 1 564.4301 467.5684)"><tspan x="0" y="0" class="EEI-HW-3-01-st5 EEI-HW-3-01-st6 EEI-HW-3-01-st7">3</tspan><tspan x="10" y="0" class="EEI-HW-3-01-st5 EEI-HW-3-01-st6 EEI-HW-3-01-st7">5</tspan></text>
	</g>
</g>
<g>
	<defs>
		<rect id="SVGID_39_" width="732.2" height="478.2"/>
	</defs>
	<clipPath id="SVGID_40_">
		<use xlink:href="#SVGID_39_"  style="overflow:visible;"/>
	</clipPath>
	<g class="EEI-HW-3-01-st27">
		<text transform="matrix(1 0 0 1 632.8998 467.5684)"><tspan x="0" y="0" class="EEI-HW-3-01-st5 EEI-HW-3-01-st6 EEI-HW-3-01-st7">4</tspan><tspan x="10" y="0" class="EEI-HW-3-01-st5 EEI-HW-3-01-st6 EEI-HW-3-01-st7">0</tspan></text>
	</g>
</g>
<g>
	<defs>
		<rect id="SVGID_41_" width="732.2" height="478.2"/>
	</defs>
	<clipPath id="SVGID_42_">
		<use xlink:href="#SVGID_41_"  style="overflow:visible;"/>
	</clipPath>
	<g class="EEI-HW-3-01-st28">
		<text transform="matrix(1 0 0 1 701.35 467.5684)"><tspan x="0" y="0" class="EEI-HW-3-01-st5 EEI-HW-3-01-st6 EEI-HW-3-01-st7">4</tspan><tspan x="10" y="0" class="EEI-HW-3-01-st5 EEI-HW-3-01-st6 EEI-HW-3-01-st7">5</tspan></text>
	</g>
</g>
<text transform="matrix(1 0 0 1 294.1898 31.7798)" class="EEI-HW-3-01-st5 EEI-HW-3-01-st29 EEI-HW-3-01-st30">分级效率曲线</text>
</svg>
