<svg class="svgImage" version="1.1" xmlns="http://www.w3.org/2000/svg" xmlns:xlink="http://www.w3.org/1999/xlink" x="0px" y="0px"
	 viewBox="0 0 732.3 478.2" style="enable-background:new 0 0 732.3 478.2;" xml:space="preserve">
<style type="text/css">
	.EEI-HW-2-01-st0{fill-rule:evenodd;clip-rule:evenodd;fill:none;}
	.EEI-HW-2-01-st1{fill:none;stroke:#F2F2F2;stroke-width:0.75;stroke-linejoin:round;stroke-miterlimit:10;}
	.EEI-HW-2-01-st2{fill:none;stroke:#D9D9D9;stroke-width:0.75;stroke-linejoin:round;stroke-miterlimit:10;}
	.EEI-HW-2-01-st3{fill:none;stroke:#BFBFBF;stroke-width:0.75;stroke-linejoin:round;stroke-miterlimit:10;}
	.EEI-HW-2-01-st4{fill:#000000;}
	.EEI-HW-2-01-st5{fill:none;stroke:#000000;stroke-width:0.72;stroke-linejoin:round;stroke-miterlimit:10;}
	
		.EEI-HW-2-01-st6{fill:none;stroke:#000000;stroke-width:1.5;stroke-linecap:round;stroke-linejoin:round;stroke-miterlimit:10;stroke-dasharray:0,3;}
	.EEI-HW-2-01-st7{clip-path:url(#SVGID_2_);}
	.EEI-HW-2-01-st8{fill:#595959;}
	.EEI-HW-2-01-st9{font-family:'Times New Roman';font-style:italic;}
	.EEI-HW-2-01-st10{font-size:20.04px;}
	.EEI-HW-2-01-st11{clip-path:url(#SVGID_4_);}
	.EEI-HW-2-01-st12{font-family:'Times New Roman';}
	.EEI-HW-2-01-st13{clip-path:url(#SVGID_6_);}
	.EEI-HW-2-01-st14{clip-path:url(#SVGID_8_);}
	.EEI-HW-2-01-st15{clip-path:url(#SVGID_10_);}
	.EEI-HW-2-01-st16{clip-path:url(#SVGID_12_);}
	.EEI-HW-2-01-st17{clip-path:url(#SVGID_14_);}
	.EEI-HW-2-01-st18{clip-path:url(#SVGID_16_);}
	.EEI-HW-2-01-st19{clip-path:url(#SVGID_18_);}
	.EEI-HW-2-01-st20{clip-path:url(#SVGID_20_);}
	.EEI-HW-2-01-st21{clip-path:url(#SVGID_22_);}
	.EEI-HW-2-01-st22{clip-path:url(#SVGID_24_);}
	.EEI-HW-2-01-st23{clip-path:url(#SVGID_26_);}
	.EEI-HW-2-01-st24{clip-path:url(#SVGID_28_);}
	.EEI-HW-2-01-st25{clip-path:url(#SVGID_30_);}
	.EEI-HW-2-01-st26{clip-path:url(#SVGID_32_);}
	.EEI-HW-2-01-st27{clip-path:url(#SVGID_34_);}
	.EEI-HW-2-01-st28{clip-path:url(#SVGID_36_);}
	.EEI-HW-2-01-st29{clip-path:url(#SVGID_38_);}
	.EEI-HW-2-01-st30{clip-path:url(#SVGID_40_);}
	.EEI-HW-2-01-st31{clip-path:url(#SVGID_42_);}
	.EEI-HW-2-01-st32{clip-path:url(#SVGID_44_);}
	.EEI-HW-2-01-st33{clip-path:url(#SVGID_46_);}
	.EEI-HW-2-01-st34{clip-path:url(#SVGID_48_);}
	.EEI-HW-2-01-st35{clip-path:url(#SVGID_50_);}
	.EEI-HW-2-01-st36{font-size:13.32px;}
	.EEI-HW-2-01-st37{clip-path:url(#SVGID_52_);}
	.EEI-HW-2-01-st38{clip-path:url(#SVGID_54_);}
	.EEI-HW-2-01-st39{font-size:24px;}
	.EEI-HW-2-01-st40{clip-path:url(#SVGID_56_);}
	.EEI-HW-2-01-st41{clip-path:url(#SVGID_58_);}
	.EEI-HW-2-01-st42{clip-path:url(#SVGID_60_);}
	.EEI-HW-2-01-st43{clip-path:url(#SVGID_62_);}
	.EEI-HW-2-01-st44{clip-path:url(#SVGID_64_);}
	.EEI-HW-2-01-st45{clip-path:url(#SVGID_66_);}
	.EEI-HW-2-01-st46{font-size:15.96px;}
	.EEI-HW-2-01-st47{clip-path:url(#SVGID_68_);}
	.EEI-HW-2-01-st48{font-family:'SimSun';}
	.EEI-HW-2-01-st49{clip-path:url(#SVGID_70_);fill:none;stroke:#D9D9D9;stroke-width:0.75;stroke-linejoin:round;stroke-miterlimit:10;}
</style>
<rect y="0" class="EEI-HW-2-01-st0" width="741.2" height="487"/>
<path class="EEI-HW-2-01-st1" d="M37,65h679.3 M37,73.8h679.3 M37,82.4h679.3 M37,91.2h679.3 M37,108.7h679.3 M37,117.5h679.3 M37,126.1h679.3
	 M37,134.9h679.3 M37,152.4h679.3 M37,161.2h679.3 M37,169.8h679.3 M37,178.6h679.3 M37,196.1h679.3 M37,204.8h679.3 M37,213.5
	h679.3 M37,222.2h679.3 M37,239.8h679.3 M37,248.5h679.3 M37,257.2h679.3 M37,265.9h679.3 M37,283.4h679.3 M37,292.1h679.3
	 M37,300.8h679.3 M37,309.6h679.3 M37,327.1h679.3 M37,335.8h679.3 M37,344.5h679.3 M37,353.3h679.3 M37,370.8h679.3 M37,379.4
	h679.3 M37,388.2h679.3 M37,397h679.3"/>
<path class="EEI-HW-2-01-st2" d="M37,56.3h679.3 M37,100h679.3 M37,143.6h679.3 M37,187.3h679.3 M37,231h679.3 M37,274.7h679.3 M37,318.4h679.3
	 M37,362h679.3"/>
<path class="EEI-HW-2-01-st1" d="M693.6,56.3v349.4 M670.9,56.3v349.4 M648.4,56.3v349.4 M625.7,56.3v349.4 M580.4,56.3v349.4 M557.8,56.3v349.4
	 M535.1,56.3v349.4 M512.5,56.3v349.4 M467.2,56.3v349.4 M444.6,56.3v349.4 M421.9,56.3v349.4 M399.2,56.3v349.4 M354,56.3v349.4
	 M331.3,56.3v349.4 M308.8,56.3v349.4 M286.1,56.3v349.4 M240.7,56.3v349.4 M218.2,56.3v349.4 M195.5,56.3v349.4 M172.8,56.3v349.4
	 M127.6,56.3v349.4 M104.9,56.3v349.4 M82.3,56.3v349.4 M59.6,56.3v349.4"/>
<path class="EEI-HW-2-01-st2" d="M716.3,56.3v349.4 M603,56.3v349.4 M489.8,56.3v349.4 M263.4,56.3v349.4 M150.2,56.3v349.4 M37,56.3v349.4"/>
<line class="EEI-HW-2-01-st3" x1="376.6" y1="405.7" x2="376.6" y2="56.3"/>
<path class="EEI-HW-2-01-st3" d="M370.7,56.3h5.9 M370.7,100h5.9 M370.7,143.6h5.9 M370.7,187.3h5.9 M370.7,231h5.9 M370.7,274.7h5.9
	 M370.7,318.4h5.9 M370.7,362h5.9 M370.7,405.7h5.9"/>
<line class="EEI-HW-2-01-st3" x1="37" y1="405.7" x2="716.3" y2="405.7"/>
<path class="EEI-HW-2-01-st3" d="M716.3,405.7v5.9 M603,405.7v5.9 M489.8,405.7v5.9 M376.7,405.7v5.9 M263.4,405.7v5.9 M150.2,405.7v5.9
	 M37,405.7v5.9"/>
<circle class="EEI-HW-2-01-st4" cx="76.4" cy="345.1" r="2.5"/>
<circle class="EEI-HW-2-01-st5" cx="76.4" cy="345.1" r="2.5"/>
<circle class="EEI-HW-2-01-st4" cx="205.2" cy="284.6" r="2.5"/>
<circle class="EEI-HW-2-01-st5" cx="205.2" cy="284.6" r="2.5"/>
<circle class="EEI-HW-2-01-st4" cx="277.2" cy="249.2" r="2.5"/>
<circle class="EEI-HW-2-01-st5" cx="277.2" cy="249.2" r="2.5"/>
<ellipse transform="matrix(0.9239 -0.3827 0.3827 0.9239 -50.2741 156.4636)" class="EEI-HW-2-01-st4" cx="368.2" cy="204.6" rx="2.5" ry="2.5"/>
<ellipse transform="matrix(0.9239 -0.3827 0.3827 0.9239 -50.2741 156.4636)" class="EEI-HW-2-01-st5" cx="368.2" cy="204.6" rx="2.5" ry="2.5"/>
<ellipse transform="matrix(0.1602 -0.9871 0.9871 0.1602 272.6581 608.4792)" class="EEI-HW-2-01-st4" cx="493.9" cy="144" rx="2.5" ry="2.5"/>
<ellipse transform="matrix(0.1602 -0.9871 0.9871 0.1602 272.6581 608.4792)" class="EEI-HW-2-01-st5" cx="493.9" cy="144" rx="2.5" ry="2.5"/>
<path class="EEI-HW-2-01-st4" d="M624.8,83.4c0,1.4-1.1,2.5-2.5,2.5c-1.4,0-2.5-1.1-2.5-2.5c0-1.4,1.1-2.5,2.5-2.5
	C623.7,80.9,624.8,82,624.8,83.4z"/>
<path class="EEI-HW-2-01-st5" d="M624.8,83.4c0,1.4-1.1,2.5-2.5,2.5c-1.4,0-2.5-1.1-2.5-2.5c0-1.4,1.1-2.5,2.5-2.5
	C623.7,80.9,624.8,82,624.8,83.4z"/>
<line class="EEI-HW-2-01-st6" x1="76.4" y1="345.6" x2="622.3" y2="82.9"/>
<g>
	<defs>
		<rect id="SVGID_1_" y="0" width="732.2" height="478.2"/>
	</defs>
	<clipPath id="SVGID_2_">
		<use xlink:href="#SVGID_1_"  style="overflow:visible;"/>
	</clipPath>
	<g class="EEI-HW-2-01-st7">
		<text transform="matrix(1 0 0 1 442.8695 82.5441)" class="EEI-HW-2-01-st8 EEI-HW-2-01-st9 EEI-HW-2-01-st10">y</text>
	</g>
</g>
<g>
	<defs>
		<rect id="SVGID_3_" y="0" width="732.2" height="478.2"/>
	</defs>
	<clipPath id="SVGID_4_">
		<use xlink:href="#SVGID_3_"  style="overflow:visible;"/>
	</clipPath>
	<g class="EEI-HW-2-01-st11">
		<text transform="matrix(1 0 0 1 456.7904 82.5441)"><tspan x="0" y="0" class="EEI-HW-2-01-st8 EEI-HW-2-01-st12 EEI-HW-2-01-st10">=</tspan><tspan x="11.3" y="0" class="EEI-HW-2-01-st8 EEI-HW-2-01-st12 EEI-HW-2-01-st10"> </tspan><tspan x="16.2" y="0" class="EEI-HW-2-01-st8 EEI-HW-2-01-st12 EEI-HW-2-01-st10">0</tspan><tspan x="26.2" y="0" class="EEI-HW-2-01-st8 EEI-HW-2-01-st12 EEI-HW-2-01-st10">.</tspan><tspan x="31.3" y="0" class="EEI-HW-2-01-st8 EEI-HW-2-01-st12 EEI-HW-2-01-st10">6</tspan><tspan x="41.3" y="0" class="EEI-HW-2-01-st8 EEI-HW-2-01-st12 EEI-HW-2-01-st10">2</tspan><tspan x="51.4" y="0" class="EEI-HW-2-01-st8 EEI-HW-2-01-st12 EEI-HW-2-01-st10">36</tspan></text>
	</g>
</g>
<g>
	<defs>
		<rect id="SVGID_5_" y="0" width="732.2" height="478.2"/>
	</defs>
	<clipPath id="SVGID_6_">
		<use xlink:href="#SVGID_5_"  style="overflow:visible;"/>
	</clipPath>
	<g class="EEI-HW-2-01-st13">
		<text transform="matrix(1 0 0 1 528.4301 82.5441)" class="EEI-HW-2-01-st8 EEI-HW-2-01-st9 EEI-HW-2-01-st10">x</text>
	</g>
</g>
<g>
	<defs>
		<rect id="SVGID_7_" y="0" width="732.2" height="478.2"/>
	</defs>
	<clipPath id="SVGID_8_">
		<use xlink:href="#SVGID_7_"  style="overflow:visible;"/>
	</clipPath>
	<g class="EEI-HW-2-01-st14">
		<text transform="matrix(1 0 0 1 541.8695 82.5441)"><tspan x="0" y="0" class="EEI-HW-2-01-st8 EEI-HW-2-01-st12 EEI-HW-2-01-st10">+ </tspan><tspan x="16.3" y="0" class="EEI-HW-2-01-st8 EEI-HW-2-01-st12 EEI-HW-2-01-st10">2</tspan><tspan x="26.4" y="0" class="EEI-HW-2-01-st8 EEI-HW-2-01-st12 EEI-HW-2-01-st10">.</tspan><tspan x="31.4" y="0" class="EEI-HW-2-01-st8 EEI-HW-2-01-st12 EEI-HW-2-01-st10">3</tspan><tspan x="41.4" y="0" class="EEI-HW-2-01-st8 EEI-HW-2-01-st12 EEI-HW-2-01-st10">4</tspan><tspan x="51.5" y="0" class="EEI-HW-2-01-st8 EEI-HW-2-01-st12 EEI-HW-2-01-st10">1</tspan><tspan x="61.6" y="0" class="EEI-HW-2-01-st8 EEI-HW-2-01-st12 EEI-HW-2-01-st10">9</tspan></text>
	</g>
</g>
<g>
	<defs>
		<rect id="SVGID_9_" y="0" width="732.2" height="478.2"/>
	</defs>
	<clipPath id="SVGID_10_">
		<use xlink:href="#SVGID_9_"  style="overflow:visible;"/>
	</clipPath>
	<g class="EEI-HW-2-01-st15">
		<text transform="matrix(1 0 0 1 483.0697 105.464)" class="EEI-HW-2-01-st8 EEI-HW-2-01-st9 EEI-HW-2-01-st10">r</text>
	</g>
</g>
<g>
	<defs>
		<rect id="SVGID_11_" y="0" width="732.2" height="478.2"/>
	</defs>
	<clipPath id="SVGID_12_">
		<use xlink:href="#SVGID_11_"  style="overflow:visible;"/>
	</clipPath>
	<g class="EEI-HW-2-01-st16">
		<text transform="matrix(1 0 0 1 490.8695 105.464)"><tspan x="0" y="0" class="EEI-HW-2-01-st8 EEI-HW-2-01-st12 EEI-HW-2-01-st10">²</tspan><tspan x="6" y="0" class="EEI-HW-2-01-st8 EEI-HW-2-01-st12 EEI-HW-2-01-st10"> </tspan><tspan x="11" y="0" class="EEI-HW-2-01-st8 EEI-HW-2-01-st12 EEI-HW-2-01-st10">= </tspan><tspan x="27.3" y="0" class="EEI-HW-2-01-st8 EEI-HW-2-01-st12 EEI-HW-2-01-st10">0</tspan><tspan x="37.3" y="0" class="EEI-HW-2-01-st8 EEI-HW-2-01-st12 EEI-HW-2-01-st10">.</tspan><tspan x="42.3" y="0" class="EEI-HW-2-01-st8 EEI-HW-2-01-st12 EEI-HW-2-01-st10">9</tspan><tspan x="52.4" y="0" class="EEI-HW-2-01-st8 EEI-HW-2-01-st12 EEI-HW-2-01-st10">9</tspan><tspan x="62.4" y="0" class="EEI-HW-2-01-st8 EEI-HW-2-01-st12 EEI-HW-2-01-st10">9</tspan><tspan x="72.5" y="0" class="EEI-HW-2-01-st8 EEI-HW-2-01-st12 EEI-HW-2-01-st10">9</tspan></text>
	</g>
</g>
<g>
	<defs>
		<rect id="SVGID_13_" y="0" width="732.2" height="478.2"/>
	</defs>
	<clipPath id="SVGID_14_">
		<use xlink:href="#SVGID_13_"  style="overflow:visible;"/>
	</clipPath>
	<g class="EEI-HW-2-01-st17">
		<text transform="matrix(1 0 0 1 349.6801 412.0841)" class="EEI-HW-2-01-st8 EEI-HW-2-01-st12 EEI-HW-2-01-st10">0</text>
	</g>
</g>
<g>
	<defs>
		<rect id="SVGID_15_" y="0" width="732.2" height="478.2"/>
	</defs>
	<clipPath id="SVGID_16_">
		<use xlink:href="#SVGID_15_"  style="overflow:visible;"/>
	</clipPath>
	<g class="EEI-HW-2-01-st18">
		<text transform="matrix(1 0 0 1 334.6601 368.4044)" class="EEI-HW-2-01-st8 EEI-HW-2-01-st12 EEI-HW-2-01-st10">0.5</text>
	</g>
</g>
<g>
	<defs>
		<rect id="SVGID_17_" y="0" width="732.2" height="478.2"/>
	</defs>
	<clipPath id="SVGID_18_">
		<use xlink:href="#SVGID_17_"  style="overflow:visible;"/>
	</clipPath>
	<g class="EEI-HW-2-01-st19">
		<text transform="matrix(1 0 0 1 349.6801 324.7042)" class="EEI-HW-2-01-st8 EEI-HW-2-01-st12 EEI-HW-2-01-st10">1</text>
	</g>
</g>
<g>
	<defs>
		<rect id="SVGID_19_" y="0" width="732.2" height="478.2"/>
	</defs>
	<clipPath id="SVGID_20_">
		<use xlink:href="#SVGID_19_"  style="overflow:visible;"/>
	</clipPath>
	<g class="EEI-HW-2-01-st20">
		<text transform="matrix(1 0 0 1 334.6601 281.0236)" class="EEI-HW-2-01-st8 EEI-HW-2-01-st12 EEI-HW-2-01-st10">1.5</text>
	</g>
</g>
<g>
	<defs>
		<rect id="SVGID_21_" y="0" width="732.2" height="478.2"/>
	</defs>
	<clipPath id="SVGID_22_">
		<use xlink:href="#SVGID_21_"  style="overflow:visible;"/>
	</clipPath>
	<g class="EEI-HW-2-01-st21">
		<text transform="matrix(1 0 0 1 349.6801 237.3439)" class="EEI-HW-2-01-st8 EEI-HW-2-01-st12 EEI-HW-2-01-st10">2</text>
	</g>
</g>
<g>
	<defs>
		<rect id="SVGID_23_" y="0" width="732.2" height="478.2"/>
	</defs>
	<clipPath id="SVGID_24_">
		<use xlink:href="#SVGID_23_"  style="overflow:visible;"/>
	</clipPath>
	<g class="EEI-HW-2-01-st22">
		<text transform="matrix(1 0 0 1 334.6601 193.6339)" class="EEI-HW-2-01-st8 EEI-HW-2-01-st12 EEI-HW-2-01-st10">2.5</text>
	</g>
</g>
<g>
	<defs>
		<rect id="SVGID_25_" y="0" width="732.2" height="478.2"/>
	</defs>
	<clipPath id="SVGID_26_">
		<use xlink:href="#SVGID_25_"  style="overflow:visible;"/>
	</clipPath>
	<g class="EEI-HW-2-01-st23">
		<text transform="matrix(1 0 0 1 349.6801 149.9542)" class="EEI-HW-2-01-st8 EEI-HW-2-01-st12 EEI-HW-2-01-st10">3</text>
	</g>
</g>
<g>
	<defs>
		<rect id="SVGID_27_" y="0" width="732.2" height="478.2"/>
	</defs>
	<clipPath id="SVGID_28_">
		<use xlink:href="#SVGID_27_"  style="overflow:visible;"/>
	</clipPath>
	<g class="EEI-HW-2-01-st24">
		<text transform="matrix(1 0 0 1 334.6601 106.274)" class="EEI-HW-2-01-st8 EEI-HW-2-01-st12 EEI-HW-2-01-st10">3.5</text>
	</g>
</g>
<g>
	<defs>
		<rect id="SVGID_29_" y="0" width="732.2" height="478.2"/>
	</defs>
	<clipPath id="SVGID_30_">
		<use xlink:href="#SVGID_29_"  style="overflow:visible;"/>
	</clipPath>
	<g class="EEI-HW-2-01-st25">
		<text transform="matrix(1 0 0 1 349.6801 62.5739)" class="EEI-HW-2-01-st8 EEI-HW-2-01-st12 EEI-HW-2-01-st10">4</text>
	</g>
</g>
<g>
	<defs>
		<rect id="SVGID_31_" y="0" width="732.2" height="478.2"/>
	</defs>
	<clipPath id="SVGID_32_">
		<use xlink:href="#SVGID_31_"  style="overflow:visible;"/>
	</clipPath>
	<g class="EEI-HW-2-01-st26">
		<text transform="matrix(1 0 0 1 28.6801 435.5841)"><tspan x="0" y="0" class="EEI-HW-2-01-st8 EEI-HW-2-01-st12 EEI-HW-2-01-st10">-</tspan><tspan x="6.7" y="0" class="EEI-HW-2-01-st8 EEI-HW-2-01-st12 EEI-HW-2-01-st10">3</tspan></text>
	</g>
</g>
<g>
	<defs>
		<rect id="SVGID_33_" y="0" width="732.2" height="478.2"/>
	</defs>
	<clipPath id="SVGID_34_">
		<use xlink:href="#SVGID_33_"  style="overflow:visible;"/>
	</clipPath>
	<g class="EEI-HW-2-01-st27">
		<text transform="matrix(1 0 0 1 141.91 435.5841)"><tspan x="0" y="0" class="EEI-HW-2-01-st8 EEI-HW-2-01-st12 EEI-HW-2-01-st10">-</tspan><tspan x="6.7" y="0" class="EEI-HW-2-01-st8 EEI-HW-2-01-st12 EEI-HW-2-01-st10">2</tspan></text>
	</g>
</g>
<g>
	<defs>
		<rect id="SVGID_35_" y="0" width="732.2" height="478.2"/>
	</defs>
	<clipPath id="SVGID_36_">
		<use xlink:href="#SVGID_35_"  style="overflow:visible;"/>
	</clipPath>
	<g class="EEI-HW-2-01-st28">
		<text transform="matrix(1 0 0 1 255.12 435.5841)"><tspan x="0" y="0" class="EEI-HW-2-01-st8 EEI-HW-2-01-st12 EEI-HW-2-01-st10">-</tspan><tspan x="6.7" y="0" class="EEI-HW-2-01-st8 EEI-HW-2-01-st12 EEI-HW-2-01-st10">1</tspan></text>
	</g>
</g>
<g>
	<defs>
		<rect id="SVGID_37_" y="0" width="732.2" height="478.2"/>
	</defs>
	<clipPath id="SVGID_38_">
		<use xlink:href="#SVGID_37_"  style="overflow:visible;"/>
	</clipPath>
	<g class="EEI-HW-2-01-st29">
		<text transform="matrix(1 0 0 1 371.6898 435.5841)" class="EEI-HW-2-01-st8 EEI-HW-2-01-st12 EEI-HW-2-01-st10">0</text>
	</g>
</g>
<g>
	<defs>
		<rect id="SVGID_39_" y="0" width="732.2" height="478.2"/>
	</defs>
	<clipPath id="SVGID_40_">
		<use xlink:href="#SVGID_39_"  style="overflow:visible;"/>
	</clipPath>
	<g class="EEI-HW-2-01-st30">
		<text transform="matrix(1 0 0 1 484.9203 435.5841)" class="EEI-HW-2-01-st8 EEI-HW-2-01-st12 EEI-HW-2-01-st10">1</text>
	</g>
</g>
<g>
	<defs>
		<rect id="SVGID_41_" y="0" width="732.2" height="478.2"/>
	</defs>
	<clipPath id="SVGID_42_">
		<use xlink:href="#SVGID_41_"  style="overflow:visible;"/>
	</clipPath>
	<g class="EEI-HW-2-01-st31">
		<text transform="matrix(1 0 0 1 598.1302 435.5841)" class="EEI-HW-2-01-st8 EEI-HW-2-01-st12 EEI-HW-2-01-st10">2</text>
	</g>
</g>
<g>
	<defs>
		<rect id="SVGID_43_" y="0" width="732.2" height="478.2"/>
	</defs>
	<clipPath id="SVGID_44_">
		<use xlink:href="#SVGID_43_"  style="overflow:visible;"/>
	</clipPath>
	<g class="EEI-HW-2-01-st32">
		<text transform="matrix(1 0 0 1 711.3597 435.5841)" class="EEI-HW-2-01-st8 EEI-HW-2-01-st12 EEI-HW-2-01-st10">3</text>
	</g>
</g>
<g>
	<defs>
		<rect id="SVGID_45_" y="0" width="732.2" height="478.2"/>
	</defs>
	<clipPath id="SVGID_46_">
		<use xlink:href="#SVGID_45_"  style="overflow:visible;"/>
	</clipPath>
	<g class="EEI-HW-2-01-st33">
		<text transform="matrix(-6.123234e-17 -1 1 -6.123234e-17 31.2241 249.7941)" class="EEI-HW-2-01-st8 EEI-HW-2-01-st12 EEI-HW-2-01-st10">ln </text>
	</g>
</g>
<g>
	<defs>
		<rect id="SVGID_47_" y="0" width="732.2" height="478.2"/>
	</defs>
	<clipPath id="SVGID_48_">
		<use xlink:href="#SVGID_47_"  style="overflow:visible;"/>
	</clipPath>
	<g class="EEI-HW-2-01-st34">
		<text transform="matrix(-6.123234e-17 -1 1 -6.123234e-17 31.2241 229.2736)" class="EEI-HW-2-01-st8 EEI-HW-2-01-st9 EEI-HW-2-01-st10">d</text>
	</g>
</g>
<g>
	<defs>
		<rect id="SVGID_49_" y="0" width="732.2" height="478.2"/>
	</defs>
	<clipPath id="SVGID_50_">
		<use xlink:href="#SVGID_49_"  style="overflow:visible;"/>
	</clipPath>
	<g class="EEI-HW-2-01-st35">
		<text transform="matrix(-6.123234e-17 -1 1 -6.123234e-17 36.144 219.1945)" class="EEI-HW-2-01-st8 EEI-HW-2-01-st12 EEI-HW-2-01-st36">p</text>
	</g>
</g>
<g>
	<defs>
		<rect id="SVGID_51_" y="0" width="732.2" height="478.2"/>
	</defs>
	<clipPath id="SVGID_52_">
		<use xlink:href="#SVGID_51_"  style="overflow:visible;"/>
	</clipPath>
	<g class="EEI-HW-2-01-st37">
		<text transform="matrix(1 0 0 1 372.2602 461.5724)" class="EEI-HW-2-01-st8 EEI-HW-2-01-st9 EEI-HW-2-01-st10">x</text>
	</g>
</g>
<g>
	<defs>
		<rect id="SVGID_53_" y="0" width="732.2" height="478.2"/>
	</defs>
	<clipPath id="SVGID_54_">
		<use xlink:href="#SVGID_53_"  style="overflow:visible;"/>
	</clipPath>
	<g class="EEI-HW-2-01-st38">
		<text transform="matrix(1 0 0 1 285.7899 31.7838)" class="EEI-HW-2-01-st8 EEI-HW-2-01-st9 EEI-HW-2-01-st39">G</text>
	</g>
</g>
<g>
	<defs>
		<rect id="SVGID_55_" y="0" width="732.2" height="478.2"/>
	</defs>
	<clipPath id="SVGID_56_">
		<use xlink:href="#SVGID_55_"  style="overflow:visible;"/>
	</clipPath>
	<g class="EEI-HW-2-01-st40">
		<text transform="matrix(1 0 0 1 303.0702 31.7838)" class="EEI-HW-2-01-st8 EEI-HW-2-01-st12 EEI-HW-2-01-st39">-</text>
	</g>
</g>
<g>
	<defs>
		<rect id="SVGID_57_" y="0" width="732.2" height="478.2"/>
	</defs>
	<clipPath id="SVGID_58_">
		<use xlink:href="#SVGID_57_"  style="overflow:visible;"/>
	</clipPath>
	<g class="EEI-HW-2-01-st41">
		<text transform="matrix(1 0 0 1 311.1098 31.7838)" class="EEI-HW-2-01-st8 EEI-HW-2-01-st9 EEI-HW-2-01-st39">x</text>
	</g>
</g>
<g>
	<defs>
		<rect id="SVGID_59_" y="0" width="732.2" height="478.2"/>
	</defs>
	<clipPath id="SVGID_60_">
		<use xlink:href="#SVGID_59_"  style="overflow:visible;"/>
	</clipPath>
	<g class="EEI-HW-2-01-st42">
		<text transform="matrix(1 0 0 1 321.7899 31.7838)" class="EEI-HW-2-01-st8 EEI-HW-2-01-st12 EEI-HW-2-01-st39">-</text>
	</g>
</g>
<g>
	<defs>
		<rect id="SVGID_61_" y="0" width="732.2" height="478.2"/>
	</defs>
	<clipPath id="SVGID_62_">
		<use xlink:href="#SVGID_61_"  style="overflow:visible;"/>
	</clipPath>
	<g class="EEI-HW-2-01-st43">
		<text transform="matrix(1 0 0 1 329.83 31.7838)" class="EEI-HW-2-01-st8 EEI-HW-2-01-st12 EEI-HW-2-01-st39">ln </text>
	</g>
</g>
<g>
	<defs>
		<rect id="SVGID_63_" y="0" width="732.2" height="478.2"/>
	</defs>
	<clipPath id="SVGID_64_">
		<use xlink:href="#SVGID_63_"  style="overflow:visible;"/>
	</clipPath>
	<g class="EEI-HW-2-01-st44">
		<text transform="matrix(1 0 0 1 354.4599 31.7838)" class="EEI-HW-2-01-st8 EEI-HW-2-01-st9 EEI-HW-2-01-st39">d</text>
	</g>
</g>
<g>
	<defs>
		<rect id="SVGID_65_" y="0" width="732.2" height="478.2"/>
	</defs>
	<clipPath id="SVGID_66_">
		<use xlink:href="#SVGID_65_"  style="overflow:visible;"/>
	</clipPath>
	<g class="EEI-HW-2-01-st45">
		<text transform="matrix(1 0 0 1 366.4599 37.6642)" class="EEI-HW-2-01-st8 EEI-HW-2-01-st12 EEI-HW-2-01-st46">p</text>
	</g>
</g>
<g>
	<defs>
		<rect id="SVGID_67_" y="0" width="732.2" height="478.2"/>
	</defs>
	<clipPath id="SVGID_68_">
		<use xlink:href="#SVGID_67_"  style="overflow:visible;"/>
	</clipPath>
	<g class="EEI-HW-2-01-st47">
		<text transform="matrix(1 0 0 1 374.5004 31.7838)" class="EEI-HW-2-01-st8 EEI-HW-2-01-st48 EEI-HW-2-01-st39">分布表</text>
	</g>
</g>
<g>
	<defs>
		<rect id="SVGID_69_" y="0" width="741.2" height="487"/>
	</defs>
	<clipPath id="SVGID_70_">
		<use xlink:href="#SVGID_69_"  style="overflow:visible;"/>
	</clipPath>
	<rect class="EEI-HW-2-01-st49" width="732.3" height="478.2"/>
</g>
</svg>
