<svg class="svgImage" version="1.1" xmlns="http://www.w3.org/2000/svg" xmlns:xlink="http://www.w3.org/1999/xlink" x="0px" y="0px"
	 viewBox="0 0 647.4 710.5" style="enable-background:new 0 0 647.4 710.5;" xml:space="preserve">
<style type="text/css">
	.EEI-2-01-st0{font-family:'SimSun';}
	.EEI-2-01-st1{font-size:30px;}
	.EEI-2-01-st2{font-family:'Times New Roman';}
</style>
<path d="M600.8,233.1c4.2,2.5,4.3,0.6,4.3-2.3c-0.1-9.3-2.2-18.4-2.9-27.7c-0.1-1.7-0.3-3.2,1.4-3.7c2.4-0.7,2,1.3,2.3,2.7
	c1.7,9.2,1.6,18.6,2.9,27.8c0.2,1.3-1.8,4.8,3.1,4c2-0.3,1.2,4.2,1,6.5c-0.4,4.4-1.1,8.8-1.7,13.2c-0.6,3.9,0.9,5.1,4.7,4.2
	c4.8-1.1,9.8,0,14.6-1.8c2.6-1,3.3,1.4,3.7,3.4c0.5,2.6-1.4,2.3-3.1,2.5c-16.2,1.7-32.3,4.1-48.5,5.2c-13.1,0.9-26.2,3-39.4,2.6
	c-3.3-0.1-5,1.3-6.5,4.1c-5.7,10.3-12.3,20.1-19,29.8c-6.1,8.8-12,17.6-18.6,26c-5.9,7.5-11.9,14.9-18.2,22.1
	c-5.8,6.6-11.8,13.1-18,19.3c-13.3,13.2-26.7,26.4-41.4,38.1c-3.4,2.7-2.3,4.5,0.5,6.2c20.4,12.6,40.7,25.5,62.3,36
	c23.3,11.3,46.9,21.7,71.2,30.2c1.3,0.5,2.6,1.2,4.8,2.3c-1.9-6.9-3.6-13.2-5.4-19.4c-0.6-2.2-2.8-4.5,1.5-5.6
	c1.2-0.3,0.7-2.2,0.6-3.6c-0.4-8.4-0.9-16.8-2.3-25.1c-0.2-1.1-0.1-2.3,0-3.5c0-0.8,0-1.8,1.1-1.9c1.3-0.2,1.7,0.6,1.8,1.7
	c0.7,5.7,1.8,11.4,2.1,17.1c0.2,4.5,1.8,8.8,1.2,13.3c-0.1,0.6,0.2,1.8,0.4,1.8c6.8,0.2,3.8,5.8,3.3,8c-1.2,5.1,0.4,10.3-1.5,15.3
	c-0.7,1.7,0.6,2.9,2.6,3.5c3.8,1.1,7.5,2.6,11.3,3.6c2.4,0.6,2.2,2.1,1.8,3.8c-0.5,2-2,1.9-3.5,1.3c-9.4-3.3-18.9-6.6-28.3-9.9
	c-20.5-7.2-40.2-16.4-59.9-25.2c-11.1-5-21.7-11.1-32.4-16.8c-11.4-6-22.1-13.2-32.9-20.1c-9.5-6.1-9.6-6.4-18.3,0.4
	c-16.5,12.9-34.3,23.8-52.8,33.7c-21.5,11.5-43.7,21.7-66.7,30c-17.6,6.4-35.6,11.5-53.5,17.1c-16.5,5.2-33.4,8.9-50.4,11.1
	c-13.5,1.7-27,4.7-40.8,4.6c-1.2,0-2.4,0.1-3.4,0.4c-1.6,0.4-3.3,1.5-3.6-1.3c-0.3-2.4,0.6-3.9,3.2-4c6.9-0.1,13.7-1.6,20.6-2.2
	c14.4-1.3,28.6-4.1,42.8-6.7c3.9-0.7,7.6-2,11.5-2.5c3.2-0.4,3.1-1.7,1.8-3.9c-3-5.3-6.2-10.6-9-15.9c-0.7-1.4-3-3.5,0.9-4.4
	c1.5-0.3,0.4-1.6,0.1-2.4c-1.9-7.7-4.4-15.1-7.7-22.2c-1.1-2.5-3.9-6.2-0.9-7.5c3.5-1.5,4.1,3.6,4.9,5.9c2.5,6.9,4.6,14,7.5,20.7
	c0.7,1.6,0.4,4.4,3.5,2.1c1.1-0.8,1.3,0.7,1.5,1.7c1,5.5,2.3,10.9,3,16.4c0.9,7.8,1.4,8.4,8.5,6.1c18.5-6,37.4-11,55.6-17.9
	c10.5-4,20.9-8.3,31.2-12.7c16-6.9,31.4-14.9,46.6-23.5c13.8-7.8,27.1-16.4,39.8-26c2.2-1.7,4.9-2.6,6.9-4.8
	c1.5-1.7,1.5-2.6-0.3-3.9c-5.6-4.1-11.3-8-16.7-12.3c-8.9-7-17.4-14.3-26.4-21.1c-11.2-8.4-20.7-18.7-31.3-27.7
	c-8.5-7.2-15.6-16.3-23.1-24.7c-7.5-8.3-15-16.7-22.3-25.2c-5.7-6.6-11.6-12.9-16.7-20c-8.1-11.4-16.9-22.3-24.8-33.9
	c-4.2-6.2-9.2-11.9-12.4-18.8c-3.5-7.6-11.2-9-17.7-12.1c-16.9-8.2-33.8-16.4-49.9-26.1c-11.6-7-23.5-13.5-35.1-20.5
	c-9-5.5-17.6-11.7-26.6-17.2c-2.8-1.7-1.5-3.4-0.8-4.9c1.1-2.3,3-0.8,4.2,0c8.2,5.2,16.3,10.6,24.5,15.9
	c18,11.8,37.1,21.9,55.8,32.5c9.5,5.4,19.6,9.5,29.5,14.1c1.1,0.5,2.4,1.9,3.6,0.6c1.5-1.6-0.7-2.2-1.3-3.2
	c-5.7-10.2-11.5-20.4-17.4-30.5c-6.5-11.3-13.1-22.6-18.4-34.5c-5.8-13.1-11.5-26.3-17.5-39.3c-3.4-7.5-6.6-8.7-14.7-7.6
	c-14.5,2.1-29.2,0.8-43.7,1.5c-2.2,0.1-3.5-0.9-3.4-3.2c0.1-2.2,1.4-2.1,3.3-2.3c13.6-1.2,27.2-0.6,40.7-1c1.3,0,2.7,0,4,0
	c7.9-0.2,7.8-0.1,5-7.4c-4.1-10.7-8-21.6-12.2-32.3c-1-2.5-1.7-4.5,1.3-5.6c3.5-1.2,3.4,2.1,4.1,3.9c4.3,12.1,8.9,24,14.2,35.7
	c1.5,3.3,3.3,4.7,7.1,4.5c25.2-1.1,50.4-1.5,75.6-3c8.8-0.6,17.6-0.6,26.4-1c14.3-0.5,28.7-1.2,43-1.1c15.2,0.1,30.3-1.1,45.5-0.5
	c17.8,0.7,35.5-1.3,53.2-0.5c1.4,0.1,3.4,0.8,4.1-0.8c0.8-2-1.9-1.8-2.7-2.9c-3.4-4.6-7-9.2-11.3-13c-0.4-0.4-0.9-1.4-0.7-1.7
	c3.4-5.7-2.6-7.8-4.3-11.6c-2.7-6-8.1-10.3-10.4-16.7c-0.9-2.4-0.9-4.5,0.6-5.3c1.8-0.9,4-0.2,5.7,2c3.7,4.8,5.7,10.6,9.2,15.5
	c1.5,2.1,2.7,4.4,4,6.7c0.7,1.2,1.6,2.7,2.8,2.7c5.2-0.1,6,4,7.2,7.3c1.6,4.1,3.5,8.1,4.7,12.4c1.4,5.1,8.9,7.5,14.3,4.8
	c1.9-1,3.5-3.4,5.3,0.2c0.3,0.5,2.2,0.3,3.3,0.3c13.1-0.1,26.1-0.3,39.1-1.5c6.8-0.6,13.7,1.2,20.6,0.3c2.3-0.3,4.5-0.5,6.8-0.6
	c27.2-0.3,54.3-0.5,81.5-0.8c6.7-0.1,6.6-0.5,7.7-7.3c1.8-11.9,1.5-24.1,4.4-36c0.5-2,0.2-4.3,0.1-6.5c-0.1-2.2,1.5-3.5,2.9-3.6
	c1.8-0.2,3.2,1.2,3.2,3.6c-0.1,4.5-0.7,8.9-1.2,13.3c-1,10.4-2.9,20.8-4.4,31.2c-0.7,4.7,0.8,6.1,5.5,4.8c2.9-0.8,4.9-0.7,5.5,2.6
	c0.4,2.2,0,3.6-3,3.8c-10,0.6-10.3,0.7-11.7,10.4c-2.2,15.3-7,30-10.3,45c-2,8.8-4,17.9-7.1,26.1c-4.9,12.9-8.9,26.2-14.2,39
	c-7.7,18.5-15.8,36.7-25.6,54.1c-1.5,2.7-1.8,4.4,2.4,4.2c12.9-0.6,25.8-1.8,38.6-3.3c6.2-0.7,12.5-1.1,18.8-1.4
	c2.9-0.1,3.3-1.1,2.5-3.7C605,248.3,603,241.1,600.8,233.1z M196.4,92.8c-6-0.6-11.8,1.4-17.8,1.2c-12.6-0.3-12.5-0.1-6.9,11.5
	c5.7,11.9,10.8,24.1,16.7,35.9c6.1,12.2,12.6,24.1,19.2,36c5.3,9.5,11,18.8,16.6,28.1c3.6,6,7.4,11.3,14.8,13.7
	c6.9,2.2,13.6,5.1,20.3,7.8c14.8,5.9,29.8,10.9,45,15.5c14.6,4.4,29.3,8.2,44.2,10.9c16.3,2.9,32.6,5.8,49,7.7
	c15.1,1.7,30.2,4,45.5,3.6c1,0,2,0,3,0.1c11.4,1.1,22.8,1.7,34.2,1.4c7.9-0.3,15.7-0.9,23.6-1.1c9-0.2,18.1-0.1,27.1-0.1
	c3.1,0,5.2-1.1,6.7-4.1c4.5-9.3,9.9-18.1,14.2-27.5c10.8-23.8,20.6-47.9,27.8-73.2c4.6-16.1,10-31.9,13.1-48.4
	c1.4-7.2,3.5-14.3,4.2-21.7c0.4-4.3-1-5.4-4.8-4.9c-12.4,1.8-24.9,0.4-37.4,1.3c-10.4,0.7-20.9,0.9-31.4,0.7
	c-13.7-0.4-27.4,0.7-41.1,1c-14.4,0.3-28.8,0.5-43.1,0.6c-22.1,0.2-44.2,0.2-66.3,0.4c-12.8,0.1-25.7,0.7-38.5,0.4
	c-12.4-0.2-24.7,2.5-37.1,1.3c-2.4-0.2-4.9,1.5-6.7,1c-5.4-1.6-10.8-1.1-16.1-0.8c-13.8,0.7-27.7,0.1-41.6,1.4
	C221,93.5,208.6,93.9,196.4,92.8z M531,272.1c-0.3-2-2-1.2-3-1.2c-11.3,0.3-22.6,0.8-33.9,1.1c-23.9,0.6-47.7,0.1-71.6-2.2
	c-8.7-0.8-17.5-0.7-26.1-2.1c-16.3-2.7-32.8-4.6-49-8.1c-19.4-4.2-38.6-8.9-57.4-14.9c-15.4-4.9-30.7-10.4-45.5-17.1
	c-1.4-0.6-3.5-2.5-4.9-0.5c-0.9,1.3,0.8,3.1,1.7,4.4c8.9,12.6,17,25.8,26.7,37.8c11,13.5,22.1,26.9,33.5,40.1
	c10.8,12.5,22.6,24,34.1,35.7c11.8,12,24.4,23.4,37.7,33.9c11.8,9.3,23.5,18.5,35.6,27.3c2.7,2,4.7,1.7,7-0.2
	c9.5-7.9,19.2-15.6,27.8-24.4c14.3-14.7,29-29,42-45c13.8-17,26.2-34.9,38.4-53C526.5,279.9,528.6,276,531,272.1z"/>
<path d="M64,394.9c0,19,0,38,0,57c0,15.3,0.1,30.6-0.2,45.9c-0.8,42.2,0.8,84.3,0.5,126.4c0,4.6,0.3,9.2,0.1,13.7
	c-0.1,3.1,1,4,4,3.9c11.2-0.2,22.4-0.6,33.6-0.1c34.3,1.3,68.6-0.4,102.9-0.1c12.7,0.1,25.5-0.6,38.2-1.3
	c12.9-0.7,25.8,0.4,38.8,0.4c20.1,0.1,40.2-0.3,60.3,0.1c22.1,0.5,44.3-0.8,66.4,0c27.6,1,55.2-0.3,82.8,0.2
	c26.9,0.6,53.8-0.1,80.7,0.6c17.2,0.5,34.3-0.3,51.4,0.1c1,0,2,0,3,0c1.6,0,3.8-0.2,3.7,2.1c0,1.9-2,1.8-3.5,1.9
	c-8.2,0.1-16.3,0.4-24.5,0.1c-7.9-0.3-15.7-0.3-23.6-0.4c-22.8-0.3-45.6,1.1-68.4,0.2c-32.9-1.3-65.7,1.3-98.5-0.1
	c-22.1-0.9-44.3,0.6-66.3-0.4c-20.1-1-40.2,0.3-60.3-0.6c-15.3-0.7-30.8-1-46.1-0.1c-19.2,1.1-38.5,1.3-57.7,1.4
	c-18,0.1-36,0.4-54.1,0c-19.1-0.5-38.1,0.2-57.2,0c-2.3,0-4.6-0.2-6.8-0.5c-2.2-0.3-2.9-1.9-2.9-3.9c-0.1-12.7-0.2-25.3-0.3-38
	c-0.1-7.8-0.2-15.6-0.1-23.3c0.1-12,0.7-23.9,0.6-35.8c-0.2-34.8-0.5-69.5-0.8-104.3c-0.1-11.2-0.8-22.4-0.4-33.6
	c1.8-54.2-0.7-108.4-0.4-162.6c0.1-10.1,0.5-20.2,0.6-30.3c0.3-32.2-0.4-64.5-0.7-96.8c-0.3-26.2-0.6-52.3-0.8-78.5
	c0-5.1,0.2-10.2,0.6-15.3c0.1-1.2-0.2-3.7,2-3.4c1.9,0.2,1.3,2.3,1.4,3.7c0.3,22.3,0.5,44.7,0.7,67c0.1,12.6,0.5,25.2,0.2,37.8
	c-1.5,58.5,0.9,117,0.4,175.4C63.2,334,63.3,364.4,64,394.9z"/>
<path d="M428.7,674.6c-3.9,2.5-8.2,2-12.1,2.9c-5,1.1-10,1.8-15,2.4c-0.8,0.1-3.8,1.6-2.5-2c0.4-1.2-1.4-0.8-2.2-0.8
	c-10.2-0.3-20.5-0.7-30.7-0.8c-23.4-0.2-46.9-0.2-70.3-0.3c-0.5,0-1,0-1.5,0c-1.6,0-3.2-0.3-3.2-2.2c-0.1-2.6,2-1.7,3.3-1.7
	c10.2-0.1,20.3-0.6,30.5-0.1c16.1,0.7,32.2,0.4,48.4,0.3c5.5,0,11,0.5,16.5,0.5c3.2,0,8.5,3.5,9.9-3.3c0.1-0.4,2.5-0.5,3.7-0.3
	c7.8,1.3,15.4,3.5,23.2,4.1C427.2,673.2,427.8,673.9,428.7,674.6z"/>
<path d="M33.1,267.6c1.8,9.6,3.7,19.1,5.8,30c-4.5-4.2-4.5-1.7-4.4,1.1c0.1,9.9,0.4,19.9,0.1,29.8c-0.6,24.1-0.4,48.2-0.3,72.3
	c0,1.2,0.6,3.1-1.5,3c-1.9-0.1-1.4-2-1.4-3.2c-0.2-29-0.3-57.9-0.4-86.9c0-6.2,0-12.3,0-18.2c-2-1.2-2.7,1.6-4.5,0.8
	c1.8-9.5,3.7-19.1,5.5-28.7C32.3,267.6,32.7,267.6,33.1,267.6z"/>
<text transform="matrix(1 0 0 1 318.7559 25.7811)" class="EEI-2-01-st0 EEI-2-01-st1">硫的氧化物</text>
<text transform="matrix(1 0 0 1 587.4225 190.9106)" class="EEI-2-01-st0 EEI-2-01-st1">粉尘</text>
<text transform="matrix(1 0 0 1 474.585 380.2443)"><tspan x="0" y="0" class="EEI-2-01-st2 EEI-2-01-st1">CO</tspan><tspan x="41.7" y="0" class="EEI-2-01-st0 EEI-2-01-st1">及未燃尽</tspan><tspan x="-9.2" y="36" class="EEI-2-01-st0 EEI-2-01-st1">的碳氢化合物</tspan></text>
<text transform="matrix(1 0 0 1 74.4224 422.2437)" class="EEI-2-01-st0 EEI-2-01-st1">氮的氧化物</text>
<text transform="matrix(1 0 0 1 224.8765 702.9113)" class="EEI-2-01-st0 EEI-2-01-st1">燃烧反应的最高温度</text>
<text transform="matrix(6.123234e-17 -1 1 6.123234e-17 26.4005 393.4106)" class="EEI-2-01-st0 EEI-2-01-st1">排出物</text>
</svg>
