<svg id="8d473722-a1bd-46fc-8dee-bc6a005609dc" data-name="图层 1" xmlns="http://www.w3.org/2000/svg" viewBox="0 0 608.16001 405.12"><defs><style>.\39 6a18706-53c4-42f0-bb4c-9b9a9c40d896{fill:#fff;}.\38 10d99cf-dd80-404a-9a33-b78c84d01162,.\39 eaebc1b-cc7d-4636-a2af-9857c10f7cc8,.df2b38bd-7db1-441b-9f60-a9782fa134bd{fill:none;stroke:#292934;}.\39 eaebc1b-cc7d-4636-a2af-9857c10f7cc8{stroke-miterlimit:10;}.\38 10d99cf-dd80-404a-9a33-b78c84d01162,.\39 eaebc1b-cc7d-4636-a2af-9857c10f7cc8{stroke-width:1.92px;}.\37 e6f8347-e762-4ca3-ab5b-35ed840b8ee4,.a35bc63d-b587-49c0-9f82-2e310dd1865e,.aadaaf49-3fb3-4dc5-9a9a-10f60ebb551a,.d370c202-76dd-405b-920e-46b9b6f9ec88,.f9d3513c-10cf-41ac-a531-72023585e925{font-size:24px;}.\37 e6f8347-e762-4ca3-ab5b-35ed840b8ee4,.\38 713873c-c28c-4e23-b7ed-4abcf2c76fd9,.\38 9e37cf5-5036-41d0-8c34-8e47eb169562,.\38 a707340-666c-47c4-9c47-07c7587b8155,.a35bc63d-b587-49c0-9f82-2e310dd1865e,.aadaaf49-3fb3-4dc5-9a9a-10f60ebb551a,.c13871d7-d673-4416-a179-d58a82cd77d6,.d370c202-76dd-405b-920e-46b9b6f9ec88{font-family:FZHTK--GBK1-0, FZHei-B01;}.df2b38bd-7db1-441b-9f60-a9782fa134bd{stroke-linejoin:round;stroke-width:0.72px;}.\38 10d99cf-dd80-404a-9a33-b78c84d01162{stroke-miterlimit:8;}.\38 713873c-c28c-4e23-b7ed-4abcf2c76fd9,.\38 9e37cf5-5036-41d0-8c34-8e47eb169562,.\38 a707340-666c-47c4-9c47-07c7587b8155,.b311d6a7-b03d-4d9a-bbae-2e9ce9f223f2,.c13871d7-d673-4416-a179-d58a82cd77d6{font-size:24.024px;}.\38 713873c-c28c-4e23-b7ed-4abcf2c76fd9{fill:#002060;}.\31 c755fda-e072-456e-9c73-16813dedcdf8,.aadaaf49-3fb3-4dc5-9a9a-10f60ebb551a{fill:#292934;}.c13871d7-d673-4416-a179-d58a82cd77d6,.d370c202-76dd-405b-920e-46b9b6f9ec88{fill:#7030a0;}.\37 e6f8347-e762-4ca3-ab5b-35ed840b8ee4,.f9d3513c-10cf-41ac-a531-72023585e925{fill:red;}.\31 b431639-b2c3-41f6-959d-10f489424ebe,.b311d6a7-b03d-4d9a-bbae-2e9ce9f223f2,.f9d3513c-10cf-41ac-a531-72023585e925{font-family:ArialMT, Arial;}.bfbde55d-b4c1-4a42-a985-27a4dae349a1{letter-spacing:0.00102em;}.\31 b431639-b2c3-41f6-959d-10f489424ebe,.\38 9e37cf5-5036-41d0-8c34-8e47eb169562,.b311d6a7-b03d-4d9a-bbae-2e9ce9f223f2{fill:#009;}.\37 d965cd2-4c97-4a56-b7db-d1eeeb7f3449{letter-spacing:-0.03102em;}.\33 cb2d2ca-7f50-4790-83b8-3ab6b2baf834{letter-spacing:0.00004em;}.\34 d3fbbd0-9cb4-4750-9953-389373a4e3d1{letter-spacing:-0.005em;}.\31 b431639-b2c3-41f6-959d-10f489424ebe{font-size:16.104px;}</style></defs><title>ItEN-06-05</title><rect class="96a18706-53c4-42f0-bb4c-9b9a9c40d896" x="0.96" y="54.96" width="43.44" height="173.52"/><rect class="9eaebc1b-cc7d-4636-a2af-9857c10f7cc8" x="0.96" y="54.96" width="43.44" height="173.52"/><text class="a35bc63d-b587-49c0-9f82-2e310dd1865e" transform="translate(8.85618 91.29997)">二</text><text class="a35bc63d-b587-49c0-9f82-2e310dd1865e" transform="translate(8.85618 115.32389)">氧</text><text class="a35bc63d-b587-49c0-9f82-2e310dd1865e" transform="translate(8.85618 139.34782)">化</text><text class="a35bc63d-b587-49c0-9f82-2e310dd1865e" transform="translate(8.85618 163.37223)">钛</text><text class="a35bc63d-b587-49c0-9f82-2e310dd1865e" transform="translate(8.85618 187.39567)">合</text><text class="a35bc63d-b587-49c0-9f82-2e310dd1865e" transform="translate(8.85618 211.42008)">成</text><path class="df2b38bd-7db1-441b-9f60-a9782fa134bd" d="M81.24,224.28c-8.55,0-15.48-1.15-15.48-2.58V127.26c0-1.43-6.93-2.58-15.48-2.58,8.55,0,15.48-1.15,15.48-2.58V27.66c0-1.43,6.93-2.58,15.48-2.58"/><rect class="96a18706-53c4-42f0-bb4c-9b9a9c40d896" x="85.92001" y="0.96" width="99.12" height="36.48001"/><rect class="810d99cf-dd80-404a-9a33-b78c84d01162" x="85.92001" y="0.96" width="99.12" height="36.48001"/><text class="8713873c-c28c-4e23-b7ed-4abcf2c76fd9" transform="translate(99.46018 27.73991)">物理法</text><rect class="96a18706-53c4-42f0-bb4c-9b9a9c40d896" x="85.92001" y="205.92001" width="99.12" height="36.24001"/><rect class="810d99cf-dd80-404a-9a33-b78c84d01162" x="85.92001" y="205.92001" width="99.12" height="36.24001"/><text class="8713873c-c28c-4e23-b7ed-4abcf2c76fd9" transform="translate(99.46018 232.60954)">化学法</text><path class="1c755fda-e072-456e-9c73-16813dedcdf8" d="M217.87,15.39l6.74,3.93-6.74,3.93a.4974.4974,0,0,1-.5-.86l6-3.5v.86l-6-3.5a.4974.4974,0,0,1,.5-.86Zm-32.71,3.43h38.46v1H185.16Z"/><rect class="96a18706-53c4-42f0-bb4c-9b9a9c40d896" x="224.40002" y="0.96" width="138.23999" height="36.48001"/><rect class="810d99cf-dd80-404a-9a33-b78c84d01162" x="224.40002" y="0.96" width="138.23999" height="36.48001"/><text class="c13871d7-d673-4416-a179-d58a82cd77d6" transform="translate(233.71018 27.73991)">机械粉碎法</text><path class="df2b38bd-7db1-441b-9f60-a9782fa134bd" d="M218.04,322.92c-7.42,0-13.44-1-13.44-2.24V224.36c0-1.24-6.02-2.24-13.44-2.24,7.42,0,13.44-1,13.44-2.24V123.56c0-1.24,6.02-2.24,13.44-2.24"/><rect class="96a18706-53c4-42f0-bb4c-9b9a9c40d896" x="226.55999" y="97.20002" width="99.12" height="36.23999"/><rect class="810d99cf-dd80-404a-9a33-b78c84d01162" x="226.55999" y="97.20002" width="99.12" height="36.23999"/><text class="c13871d7-d673-4416-a179-d58a82cd77d6" transform="translate(240.17014 123.88981)">液</text><text class="c13871d7-d673-4416-a179-d58a82cd77d6" transform="translate(264.17014 123.88981)">相法</text><rect class="96a18706-53c4-42f0-bb4c-9b9a9c40d896" x="226.55999" y="299.04" width="99.12" height="36.48"/><rect class="810d99cf-dd80-404a-9a33-b78c84d01162" x="226.55999" y="299.04" width="99.12" height="36.48"/><text class="d370c202-76dd-405b-920e-46b9b6f9ec88" transform="translate(240.17014 325.84782)">气相</text><text class="d370c202-76dd-405b-920e-46b9b6f9ec88" transform="translate(288.17014 325.84782)">法</text><path class="df2b38bd-7db1-441b-9f60-a9782fa134bd" d="M378.84,180.84c-9.28,0-16.8-1.25-16.8-2.8V114.88c0-1.55-7.52-2.8-16.8-2.8,9.28,0,16.8-1.25,16.8-2.8V46.12c0-1.55,7.52-2.8,16.8-2.8"/><rect class="96a18706-53c4-42f0-bb4c-9b9a9c40d896" x="380.40002" y="19.68" width="155.76001" height="36.23999"/><rect class="810d99cf-dd80-404a-9a33-b78c84d01162" x="380.40002" y="19.68" width="155.76001" height="36.23999"/><text class="aadaaf49-3fb3-4dc5-9a9a-10f60ebb551a" transform="translate(398.34983 46.29997)">液相沉淀法</text><rect class="96a18706-53c4-42f0-bb4c-9b9a9c40d896" x="380.40002" y="55.68" width="155.76001" height="36.23999"/><rect class="810d99cf-dd80-404a-9a33-b78c84d01162" x="380.40002" y="55.68" width="155.76001" height="36.23999"/><text class="7e6f8347-e762-4ca3-ab5b-35ed840b8ee4" transform="translate(394.50999 82.31999)">溶胶</text><text class="f9d3513c-10cf-41ac-a531-72023585e925" transform="translate(442.50999 82.31999)">-</text><text class="7e6f8347-e762-4ca3-ab5b-35ed840b8ee4" transform="translate(450.42991 82.31999)"><tspan class="bfbde55d-b4c1-4a42-a985-27a4dae349a1">凝胶</tspan><tspan x="48.04785" y="0">法</tspan></text><rect class="96a18706-53c4-42f0-bb4c-9b9a9c40d896" x="380.40002" y="91.68" width="155.76001" height="36.23999"/><rect class="810d99cf-dd80-404a-9a33-b78c84d01162" x="380.40002" y="91.68" width="155.76001" height="36.23999"/><text class="8a707340-666c-47c4-9c47-07c7587b8155" transform="translate(398.34983 118.31999)">醇盐水解法</text><rect class="96a18706-53c4-42f0-bb4c-9b9a9c40d896" x="380.40002" y="127.68" width="155.76001" height="36.48001"/><rect class="810d99cf-dd80-404a-9a33-b78c84d01162" x="380.40002" y="127.68" width="155.76001" height="36.48001"/><text class="a35bc63d-b587-49c0-9f82-2e310dd1865e" transform="translate(410.34983 154.4904)">微乳液法</text><rect class="96a18706-53c4-42f0-bb4c-9b9a9c40d896" x="380.40002" y="163.68" width="155.76001" height="36.48001"/><rect class="810d99cf-dd80-404a-9a33-b78c84d01162" x="380.40002" y="163.68" width="155.76001" height="36.48001"/><text class="a35bc63d-b587-49c0-9f82-2e310dd1865e" transform="translate(422.34983 190.50993)">水热法</text><rect class="96a18706-53c4-42f0-bb4c-9b9a9c40d896" x="380.40002" y="223.68002" width="226.79999" height="36.48"/><rect class="810d99cf-dd80-404a-9a33-b78c84d01162" x="380.40002" y="223.68002" width="226.79999" height="36.48"/><text class="b311d6a7-b03d-4d9a-bbae-2e9ce9f223f2" transform="translate(396.62034 250.4904)"><tspan class="7d965cd2-4c97-4a56-b7db-d1eeeb7f3449">T</tspan><tspan class="3cb2d2ca-7f50-4790-83b8-3ab6b2baf834" x="13.92969" y="0">i</tspan><tspan class="4d3fbbd0-9cb4-4750-9953-389373a4e3d1" x="19.26758" y="0">C</tspan><tspan x="36.49707" y="0">l</tspan></text><text class="1b431639-b2c3-41f6-959d-10f489424ebe" transform="translate(438.41038 256.25016)">4</text><text class="89e37cf5-5036-41d0-8c34-8e47eb169562" transform="translate(447.29026 250.4904)">氢氧焰水解法</text><rect class="96a18706-53c4-42f0-bb4c-9b9a9c40d896" x="380.40002" y="259.68" width="226.79999" height="36.48"/><rect class="810d99cf-dd80-404a-9a33-b78c84d01162" x="380.40002" y="259.68" width="226.79999" height="36.48"/><text class="b311d6a7-b03d-4d9a-bbae-2e9ce9f223f2" transform="translate(408.62034 286.50993)"><tspan class="7d965cd2-4c97-4a56-b7db-d1eeeb7f3449">T</tspan><tspan class="3cb2d2ca-7f50-4790-83b8-3ab6b2baf834" x="13.92969" y="0">i</tspan><tspan class="4d3fbbd0-9cb4-4750-9953-389373a4e3d1" x="19.26758" y="0">C</tspan><tspan x="36.49707" y="0">l</tspan></text><text class="1b431639-b2c3-41f6-959d-10f489424ebe" transform="translate(450.41038 292.26969)">4</text><text class="89e37cf5-5036-41d0-8c34-8e47eb169562" transform="translate(459.29026 286.50993)">气相氧化法</text><rect class="96a18706-53c4-42f0-bb4c-9b9a9c40d896" x="380.40002" y="295.92001" width="226.79999" height="36.24"/><rect class="810d99cf-dd80-404a-9a33-b78c84d01162" x="380.40002" y="295.92001" width="226.79999" height="36.24"/><text class="89e37cf5-5036-41d0-8c34-8e47eb169562" transform="translate(397.81956 322.66032)">钛醇盐气相氧化法</text><rect class="96a18706-53c4-42f0-bb4c-9b9a9c40d896" x="380.40002" y="331.92001" width="226.79999" height="36.24"/><rect class="810d99cf-dd80-404a-9a33-b78c84d01162" x="380.40002" y="331.92001" width="226.79999" height="36.24"/><text class="89e37cf5-5036-41d0-8c34-8e47eb169562" transform="translate(397.81956 358.67985)">钛醇盐气相水解法</text><rect class="96a18706-53c4-42f0-bb4c-9b9a9c40d896" x="380.40002" y="367.92" width="226.79999" height="36.24"/><rect class="810d99cf-dd80-404a-9a33-b78c84d01162" x="380.40002" y="367.92" width="226.79999" height="36.24"/><text class="89e37cf5-5036-41d0-8c34-8e47eb169562" transform="translate(397.81956 394.70426)">钛醇盐气相热解法</text><path class="df2b38bd-7db1-441b-9f60-a9782fa134bd" d="M378.84,386.04c-9.28,0-16.8-1.253-16.8-2.798V320.08c0-1.55-7.52-2.8-16.8-2.8,9.28,0,16.8-1.25,16.8-2.8V251.32c0-1.55,7.52-2.8,16.8-2.8"/></svg>