<svg xmlns="http://www.w3.org/2000/svg" viewBox="0 0 752.04407 511.78027"><defs><style>.a,.b,.l,.n,.p,.q,.s{isolation:isolate;}.a,.b,.d,.l,.m,.n,.p,.q,.s{font-size:16px;}.a,.c,.d,.l,.m,.q{font-family:ArialMT, Arial;}.b,.e,.n,.p,.s{font-family:FZHTK--GBK1-0, FZHei-B01;}.f{fill:#ffe61a;}.g{fill:#f33;stroke-width:0.3px;}.g,.i,.j,.k,.o,.r{stroke:#000;}.h,.i,.j,.k,.r{fill:none;}.h{stroke:#7f7f7f;}.h,.j{stroke-width:2px;}.i{stroke-dasharray:3 3;}.l,.m,.n{fill:#2700a0;}.o,.p{fill:#aa9800;}.q{fill:#2b0000;}.r{stroke-width:1.5px;}.s{fill:#7f3333;}</style></defs><title>ItEN-06-03</title><text class="a" transform="translate(68.57864 469.0771)">250</text><text class="a" transform="translate(139.43312 469.0771)">500</text><text class="a" transform="translate(210.83937 469.0771)">750</text><text class="a" transform="translate(276.25928 469.0771)">1000</text><text class="a" transform="translate(347.46045 469.0771)">1250</text><text class="a" transform="translate(418.66162 469.0771)">1500</text><text class="a" transform="translate(489.8432 469.0771)">1750</text><text class="a" transform="translate(561.75238 469.0771)">2000</text><text class="a" transform="translate(632.95355 469.0771)">2250</text><text class="a" transform="translate(704.15472 469.0771)">2500</text><text class="b" transform="translate(366.65192 506.58479)">波长（<tspan class="c" x="48" y="0">nm</tspan><tspan x="70.22656" y="0">）</tspan></text><text class="a" transform="translate(51.13084 451.3105)">0</text><text class="a" transform="translate(33.82615 363.79445)">0.5</text><text class="a" transform="translate(54.20701 276.47371)">1</text><text class="a" transform="translate(33.82615 188.76239)">1.5</text><text class="a" transform="translate(51.56052 101.44165)">2</text><text class="a" transform="translate(33.82615 13.73035)">2.5</text><text class="b" transform="translate(19.40826 301.79688) rotate(-90)">辐照度（<tspan class="c" x="64" y="0">W/m</tspan></text><text class="d" transform="translate(14.08014 204.92188) rotate(-90) scale(0.583)">2</text><text class="d" transform="translate(19.40826 199.73389) rotate(-90)">/nm<tspan class="e" x="26.67188" y="0">）</tspan></text><path class="f" d="M81.50637,444.73878c3.8996-4.25738,8.4852-19.29772,10.19434-33.43658.29919-2.475.97469-5.036,1.50112-5.69092s1.15909-8.98,1.40589-18.5c.486-18.74652,1.41713-36.13684,1.90755-35.62732a22.02611,22.02611,0,0,1,.92658,4.26c.98954,6.2879,1.57027,5.45185,1.57027-2.26068a62.76948,62.76948,0,0,1,1.00807-11.41669A243.09342,243.09342,0,0,0,105.106,306.8022c.92864-13.95233,1.29264-16.31482,4.23708-27.5l1.44784-5.5.21026,4.5c.17812,3.81213.33265,4.11786,1.0109,2a42.618,42.618,0,0,0,.90032-8.809c.12524-7.9267,2.03795-7.40146,2.25056.618.083,3.13007.53713-3.084,1.00921-13.809.93969-21.34882,1.95574-26.63635,2.88236-15l.59723,7.5.18016-7.75c.09909-4.26251.59592-7.75,1.10408-7.75.53106,0,.97134,8.59015,1.03543,20.20209.06133,11.11114.32057,20.41113.57608,20.66668s.4962-5.57293.53486-12.95208c.07692-14.68439,1.60776-22.50653,2.03859-10.41666.1372,3.85.57158-15.725.96528-43.5.921-64.974.99086-67.34012,1.95858-66.3403a9.31026,9.31026,0,0,1,1.24048,3.8403c.30623,2.151.46952,1.67239.577-1.691.18283-5.72418,2.11948-7.57178,2.22012-2.118.0523,2.83719.26522,3.3107.83436,1.85583,1.30319-3.33132,2.09535,3.37726,2.09535,17.74488,0,7.17291.32929,12.71237.73175,12.3099s.77808-7.78994.83471-16.41665.38748-16.75437.73521-18.0615a35.28374,35.28374,0,0,0,.72722-6.5c.0961-4.17254,1.61576-25.68924,2.65721-37.62341.407-4.66339.79415-5.93487,1.37028-4.5.44167,1.1.83467,1.4375.87332.75a1.49465,1.49465,0,0,1,1.57029-1.25c.825,0,1.4467.3375,1.38157.75a36.67432,36.67432,0,0,0,.116,4.25c.14757,2.20331.40481,2.759.69432,1.5,2.90162-12.61853,4.3081-11.96557,4.3081,2,0,5.84262.43723,10.65219,1,11,.59391.36707,1-.80328,1-2.882,0-1.925.45-3.7781,1-4.118.59391-.36706,1,.80329,1,2.882,0,1.925.45,3.77811,1,4.118s1-.17352,1-1.141c0-1.32611.28315-1.47586,1.15052-.60849.68.68,1.43341,6.79419,1.84219,14.95.669,13.34757.69679,13.4802.84946,4.04947.09269-5.72812.57032-9.75,1.15783-9.75.55,0,1-.87344,1-1.941,0-2.4967,1.96161-3.76346,2.11843-1.368a16.30525,16.30525,0,0,1,0,2.559c-.0651.41251.37971.75.98857.75s.87547.6033.59251,1.34067a3.51175,3.51175,0,0,0,.3777,2.75c.697,1.101.89887.97177.92279-.59067.02271-1.48111.25025-1.65353.87713-.66458.46557.73447,1.24618,1.18448,1.73468,1s1.0299,1.38629,1.20309,3.4906l.3149,3.826,2.4351-2.62753c1.33929-1.44513,2.4351-2.15433,2.4351-1.576a.88851.88851,0,0,0,1.18357.80151c.69729-.14728,1.6217,1.92771,2.25,5.05051.58653,2.91528,1.51643,5.26379,2.06643,5.2189s1.14313,1.065,1.31806,2.46646.73742,2.28885,1.25,1.97208.93194.3294.93194,1.436c0,2.52713,2.09081,7.3721,3.5951,8.33084.62547.39862.92886,1.81464.67422,3.14667-.31779,1.66242.74072,4.25742,3.37551,8.27521a43.67255,43.67255,0,0,1,4.648,8.85333c2.34373,8.68613,2.49852,9.08725,2.60484,6.75.1722-3.78491,1.77124-2.511,3.13813,2.5a29.60053,29.60053,0,0,0,2.63,6.72251,8.14637,8.14637,0,0,1,1.33428,3.75c0,.97763.542,1.665,1.20454,1.52749a.98916.98916,0,0,1,1.29264.75c.20269,2.30075,2.71916,8.5,3.45039,8.5.43587,0,1.36412,2.13751,2.06279,4.75s1.81667,5.20172,2.48444,5.75385a8.17349,8.17349,0,0,1,1.927,3.25c.39211,1.23538,1.08251,2.24615,1.53423,2.24615s1.12543,1.621,1.49708,3.60217.94112,3.33686,1.2654,3.01258c.77124-.77124,5.8093,6.17413,6.79739,9.37076a24.32843,24.32843,0,0,0,3.66291,6.08746,18.26484,18.26484,0,0,1,3.38176,6.28839,10.39353,10.39353,0,0,0,2.46325,4.66254,6.77817,6.77817,0,0,1,1.97611,2.9761c0,.55.675,1,1.5,1,.93489,0,1.5.94553,1.5,2.5098a6.377,6.377,0,0,0,2,4.22223,5.94661,5.94661,0,0,1,2,2.532,7.952,7.952,0,0,0,1.98756,2.953,12.815,12.815,0,0,1,2.56578,5.70816,29.56454,29.56454,0,0,0,1.44477,5.57483c.72789,1.68.87736,1.48.93422-1.25.07829-3.76184,2.06767-4.49383,2.06767-.76074,0,1.77392,2.27183,4.76721,7.90617,10.41669,4.34839,4.3601,8.19643,8.842,8.5512,9.95971.39186,1.23462,1.2082,1.81617,2.07992,1.48169.929-.3565,1.81537.45008,2.51392,2.28736a15.01479,15.01479,0,0,0,2.7639,4.50048c.92669.91437,3.21617,3.51429,5.08771,5.77753s3.642,3.87592,3.93426,3.58362c.77048-.77051,7.16293,5.655,7.16293,7.19989a1.41646,1.41646,0,0,0,1.5,1.30383,1.44857,1.44857,0,0,1,1.5,1.38129c0,.7597,1.4625,2.51569,3.25,3.90216s6.36029,5.48987,10.16172,9.11871,7.28894,6.59784,7.75,6.59784.83828.72315.83828,1.607c0,1.05835.54312,1.39856,1.59079.99652.89246-.34247,2.96851.37878,4.72925,1.643a52.28229,52.28229,0,0,0,9.50528,5.71442,15.38344,15.38344,0,0,1,3.82144,2.543,5.11946,5.11946,0,0,0,2.92469,1.49609c.7857,0,1.42855.44141,1.42855.981s1.19834,1.28174,2.66294,1.64929a12.43892,12.43892,0,0,1,4.25,2.02722,6.35768,6.35768,0,0,0,2.30481,1.40424,47.71228,47.71228,0,0,1,6.44116,3.49182c3.14789,1.89557,6.53738,3.44647,7.53223,3.44647s1.80883.45,1.80883,1,.675,1,1.5,1,1.5.4209,1.5.93524,1.575,1.50483,3.5,2.20087,3.5,1.5351,3.5,1.8645,3.7125,2.31214,8.25,4.40613,10.1366,4.70789,12.44248,5.80866a21.56974,21.56974,0,0,0,4.76046,1.87268,13.83,13.83,0,0,1,3.80753,1.587,23.02232,23.02232,0,0,0,4.62021,1.951,5.38019,5.38019,0,0,1,2.45,1.30457,4.28687,4.28687,0,0,0,2.61929,1.07543,11.83477,11.83477,0,0,1,4.11664,1.34559,28.71664,28.71664,0,0,0,5.2059,2.00183,48.53359,48.53359,0,0,1,5.43335,1.8081c21.10962,5.55731,42.15766,11.65888,63.81775,16.83838,1.27033,0,2.45966.39942,2.643.88757s2.35834,1.188,4.83334,1.55512,5.625.83453,7,1.0387,7.9,1.3269,14.5,2.49493,13.8,2.33325,16,2.58936,5.125.72283,6.5,1.03723,4.075.73413,6,.93274,9.125,1.07867,16,1.95568c12.22425,1.55939,14.76459,1.85511,26,3.02692,9.38159.97846,12.75769,1.24707,38.5,3.06317,13.75.97,25.25507,2.14179,25.56684,2.60376s2.44842.69116,4.74817.50928,9.6947.01092,16.43316.42859c26.49,1.64178,56.48645,3.08533,61.00183,2.93561,4.66266-.15461,4.75-.10144,4.75,2.8919v3.04944H78.24233l3.264-3.56341Z"/><path class="g" d="M96.88671,447.50667c1.04278-1.68726,4.60954-21.564,5.25208-29.26856.37125-4.4516,1.21327-8.632,1.87115-9.28991a12.06885,12.06885,0,0,0,1.895-4.92109c.38433-2.0487,1.07089-3.72491,1.52567-3.72491s1.1181-1.82117,1.474-4.04706,1.05182-3.79693,1.54644-3.49127c1.09046.67395,1.72212-2.42908,2.63857-12.96167.38284-4.4.89817-7.43469,1.14518-6.74377a.97587.97587,0,0,0,1.431.64935c.54-.33374,1.22909.33844,1.53122,1.49377,1.16079,4.43891,2.32231,1.77826,2.46625-5.64935.12792-6.60034.24411-7.08246.78328-3.25l.63308,4.5.67209-4c.36965-2.2.96772-18.625,1.329-36.5.37908-18.7536,1.06025-32.75366,1.61048-33.09973.52446-.32984,1.28563-3.02985,1.6915-6a27.35934,27.35934,0,0,1,1.90373-7.40027c.94343-1.61853,1.17158-.05621,1.19619,8.191.03019,10.11438,1.21547,14.13373,2.40867,8.16778a113.71072,113.71072,0,0,0,.6293-13.73376,135.28519,135.28519,0,0,1,.97379-16.625c.53141-3.3,1.67785-13.8385,2.54764-23.41888s2.00656-18.21329,2.52621-19.18427a9.3767,9.3767,0,0,0,.9448-3.72c0-1.225.63241-1.90277,1.6942-1.81574,1.23088.10093,1.97091-1.0917,2.70607-4.36111.91594-4.07327,1.04008-4.21552,1.30935-1.5,1.0765,10.85623,1.53911,13.5,2.36233,13.5.51043,0,.93493-2.58749.94335-5.75.008-3.16251.45154-6.425.98469-7.25.78387-1.21295.97231-1.06943.9847.75.008,1.23749.46531,2.25,1.0153,2.25s1-1.09845,1-2.441.43082-2.70724.95736-3.03265c.56982-.35218,1.0758,2.55865,1.25,7.191.322,8.56207,2.09827,10.30093,2.60266,2.54779.17049-2.62082.733-5.19263,1.25-5.71512a4.49528,4.49528,0,0,0,.94-2.75c0-.99.45-1.8,1-1.8s1,.675,1,1.5c0,2.51984,1.43185,1.67755,2.97491-1.75l1.46315-3.25.54079,3c.29744,1.65.93607,2.84906,1.41918,2.66458s1.215.20926,1.62645.875,1.92425,1.21042,3.3618,1.21042c2.45648,0,2.61372.28973,2.61372,4.816,0,5.86407,1.52542,7.27734,2.46263,2.28155a11.86268,11.86268,0,0,1,2.169-5.12207c1.31618-1.31619,1.55289-1.23568,2.05916.70026.3456,1.32156,1.11373,1.97952,1.9406,1.66223.96056-.36859,1.36858.3234,1.36858,2.321a5.97621,5.97621,0,0,0,1.43847,4.04c1.19243.98963,1.65.488,2.675-2.93322l1.2365-4.127,1.79872,6.80567a56.84818,56.84818,0,0,1,1.825,9.49664c.0499,5.10236,1.75823,3.74713,2.4247-1.92352.36742-3.12616.92934-6.725,1.24867-7.99741.58052-2.313.58106-2.31305,2.33947-.28558,1.48172,1.70843,1.87365,5.02072,2.48791,21.0256.401,10.44873,1.06593,19.20587,1.47765,19.46033s1.249-4.98041,1.86067-11.633,1.33462-12.31811,1.60657-12.59,1.18884-.228,2.03756.09768c1.25608.482,1.56159,2.69065,1.64237,11.87354.05459,6.20477.3921,14.96072.75,19.45773.6165,7.746.74866,8.10437,2.51085,6.80927,1.51974-1.117,2.0117-3.416,2.68875-12.56513.45576-6.1589,1.30623-11.67557,1.88989-12.25924a4.57852,4.57852,0,0,0,1.06125-2.82987c0-1.08966.52777-1.5661,1.37477-1.24106,1.13468.43543,1.50456,11.34534,2.11792,62.4686.41446,34.54608,1.13326,61.941,1.62521,61.941.48516,0,.88726-2.8125.89357-6.25.0315-17.20288,2.07407-108.16888,2.43694-108.53174,1.1203-1.1203,2.52329,1.32846,3.5246,6.1518.80612,3.88305,1.74012,5.6737,3.43167,6.579,1.95379,1.04565,2.42425,2.304,2.9526,7.8974.34566,3.65948.63665,9.57861.64661,13.15356.0202,7.23413.92925,14.00781,1.87695,13.98529,1.193-.02832,4.97416-11.5404,5.65714-17.224.3793-3.15625,1.05691-5.51166,1.50584-5.23425s1.13288,3.03912,1.52,6.13708l.70374,5.63263,1.844-2.39837c1.5163-1.97217,1.848-2.08741,1.86623-.64838.0278,2.1875,1.76156,2.31165,2.19893.15747.238-1.17242.94665-.74707,2.68635,1.61243,2.15952,2.92889,2.4353,4.63782,3.20214,19.84253.46151,9.15069.86064,18.32507.887,20.38757.04671,3.66254,1.96782,5.46686,2.12942,2,.049-1.05017.65743-.432,1.52153,1.54572,1.9486,4.4599,3.3969,3.17169,3.3969-3.02143,0-2.8092.25652-4.85113.57005-4.5376s1,18.726,1.52538,40.91669,1.23083,41.02161,1.56759,41.84662c1.00661,2.466,2.1258-2.691,2.23731-10.309.06039-4.124.48247-6.57245,1.07037-6.20911.53388.33,1.27817-.656,1.654-2.191a7.44846,7.44846,0,0,1,1.50729-3.3363c.86457-.57227,2.61933-16.81921,3.82932-35.45459.39284-6.05.78723-10.4375.87646-9.75s.54578,1.25,1.01456,1.25,1.43037-4.68561,2.13692-10.41254,1.62268-10.95953,2.03589-11.62811c.91922-1.4873,2.97488-.382,2.97488,1.59967a1.47759,1.47759,0,0,0,1.50351,1.441c1.76138,0,15.92865,13.68445,16.82339,16.25a2.476,2.476,0,0,0,1.91431,1.75c4.79373,0,9.4133,21.51483,11.24,52.34833.787,13.28345,1.81265,25.47235,2.27936,27.08655,1.10077,3.80731,3.23947,4.56555,3.23947,1.14849,0-1.42083.45-2.58331,1-2.58331s1.03552-2.13751,1.079-4.75.30408-4.075.57925-3.25.71988,2.175.98831,3c1.071,3.29175,2.34964-2.06085,3.85306-16.12878.8447-7.90418,2.04157-17.64582,2.65967-21.64807,1.10049-7.12555,1.16437-7.24024,3.07263-5.51325,1.86637,1.689,2.01007,1.67981,3.39795-.2182,1.24649-1.70465,1.586-1.77277,2.42771-.48675.82989,1.26806,1.32788,1.11541,3.2788-1.00489q11.01673-11.97307,14.663,5.49646c.74643,3.57691,1.67883,6.50354,2.072,6.50354,1.03512,0,1.92877-2.74042,1.92877-5.91467,0-2.23077.42557-2.72272,2.25-2.60107,1.703.11352,2.63556,1.22772,3.83588,4.58288.87222,2.43811,2.04779,5.55786,2.61242,6.93286s1.63236,4.3,2.37271,6.5a33.73962,33.73962,0,0,0,2.01612,5c.3685.55.99579,4.13416,1.394,7.96479.416,4.002,1.31223,7.40515,2.10675,8,1.17114.87683,3.363,17.48205,3.40357,25.78521.008,1.65882-7.68146,1.75-147.55047,1.75-81.15747,0-147.33775-.358-147.06733-.79553Zm317.12634-.20447a3.01756,3.01756,0,0,1,2.34341-1c1.93628,0,5.09461-4.6593,6.762-9.97559l1.10541-3.52441.74111,4.30115c.772,4.48016,2.78922,5.30108,3.36762,1.37054.17575-1.19439.73825-2.17169,1.25-2.17169s.93045-.87341.93045-1.941a3.31606,3.31606,0,0,1,.94223-2.52331c.51822-.32026,1.21777-2.70935,1.5546-5.309.98324-7.58935,1.33715-8.72924,3.476-11.19531a8.1467,8.1467,0,0,0,2.02722-4.09552c0-2.3789,5.59225-6.93585,8.51163-6.93585,3.66729,0,7.48837,1.78931,7.48837,3.50665,0,1.93561,2.60413,3.0315,4.26273,1.79389,1.84362-1.37567,3.48819-1.02338,5.02331,1.076,1.24964,1.70892,1.70725,1.75537,5.12442.51971,3.37064-1.21887,3.85074-1.18085,4.72058.37347.62622,1.119,2.18735,1.73029,4.41864,1.73029,1.89768,0,3.45029.49817,3.45029,1.107,0,.61146.72815.82758,1.62674.48273a3.32,3.32,0,0,1,2.98727.50488,3.10942,3.10942,0,0,0,2.75568.59375c1.39053-.53356,8.19656,2.4936,12.70294,5.65a9.09475,9.09475,0,0,0,4.00385,1.66168c2.37033,0,6.26477,3.96094,7.86566,8a23.33827,23.33827,0,0,0,2.64352,5,35.43888,35.43888,0,0,1,3.32071,6.75l2.06445,5.25H467.43941c-35.775,0-53.83548-.33807-53.42639-1ZM569.12056,443.689c4.1886-8.27356,5.82813-9.25079,6.94043-4.13678,1.51905,6.98419,2.09,7.72894,4.92914,6.43012a6.35558,6.35558,0,0,0,3.19165-3.68012c1.81464-7.41333,5.41663-9.78027,6.7569-4.44019.79272,3.15851,4.91943,2.99256,9.02948-.36322,2.80011-2.28619,3.45593-2.38208,12.5-1.82769,5.24969.32177,11.56982.82586,14.04486,1.12011s7.65.68714,11.5.87305c9.5365.46051,34.08679,3.53027,36.95538,4.62091a8.61251,8.61251,0,0,0,4.43726.33478c1.26349-.33038,2.1073-.0788,2.1073.62842,0,.64874.78754,1.04992,1.75.8916a5.0155,5.0155,0,0,1,2.99206.49127,3.16317,3.16317,0,0,0,2.87622-.13538c1.061-.59375,2.55433-.4577,4.25794.38794a14.3346,14.3346,0,0,0,6.32184,1.00379c2.41559-.19507,3.87854.17181,4.21863,1.058.43518,1.134-10.77222,1.35657-68.312,1.35657H566.78505l2.33551-4.61322Zm138.09607,3.50958c.791-.791,1.62677-.79956,2.95-.03039,1.61865.94085,1.48248,1.077-1.10364,1.10363-2.15131.02222-2.65119-.26837-1.84638-1.07318Z"/><path class="h" d="M69.50828,428.6848c4.5-11.4,7.5-23.3,10.3-35.3,3.5-15.5,6.5-31.1,9.4-46.8,8.5-46.5,15.6-93.4,26.4-139.4,2.6-10.7,5.3-21.3,8.6-31.8a160.93245,160.93245,0,0,1,9.4-24.5,57.86353,57.86353,0,0,1,8.5-13.3,20.13834,20.13834,0,0,1,7.7-5.6c7.7-2.9,15.1,2.1,20.5,7.1a109.76655,109.76655,0,0,1,14.5,17.4c5.5,7.7,10.5,15.6,15.4,23.7,15.3,25,29.8,50.6,46.1,75.1,22.6,33.8,48.5,65.6,80.3,91.2a305.17954,305.17954,0,0,0,61.5,38.2c40.4,19,84.2,29.7,128.1,37,36.5,6,73.4,9.7,110.2,12.5,41.8,3.2,83.7,5.1,125.6,6.6"/><path class="i" d="M125.89265,10.47763V448.38148"/><path class="i" d="M211.44567,10.47763V448.38148"/><path class="j" d="M70.50625,10.47763H749.02462a1.52893,1.52893,0,0,1,1.52893,1.52893v434.846a1.52893,1.52893,0,0,1-1.52893,1.52893H70.50626a1.52893,1.52893,0,0,1-1.52893-1.52893V12.00655a1.52892,1.52892,0,0,1,1.52892-1.52892Z"/><path class="k" d="M68.443,359.84578l-5.74524.08838"/><path class="k" d="M68.88494,271.811H63.49325"/><path class="k" d="M68.97333,184.21812H63.58164"/><path class="k" d="M68.443,95.91817l-4.68458-.08838"/><path class="k" d="M69.68044,10.62343l-5.65685.08839"/><path class="k" d="M69.59205,448.23415h0l-5.39169.08838h0"/><path class="k" d="M82.93869,448.76448V452.3"/><path class="k" d="M154.53325,448.6761v3.71228"/><path class="k" d="M225.68587,448.6761v3.71228"/><path class="k" d="M296.39656,448.76448v3.27039"/><path class="k" d="M367.72594,448.58766v3.00519"/><path class="k" d="M438.96694,448.85286v3.53552"/><path class="k" d="M510.11959,448.85286v3.35876"/><path class="k" d="M581.36055,449.118V452.3"/><path class="k" d="M652.248,449.20638v2.82843"/><path class="k" d="M723.489,449.29482v2.9168"/><text class="l" transform="translate(697.28485 431.03682)">H</text><text class="m" transform="translate(708.83954 436.36494) scale(0.583)">2</text><text class="m" transform="translate(714.02753 431.03682)">O</text><text class="n" transform="translate(535.31573 383.02412)">大气吸收带</text><text class="l" transform="translate(390.87936 367.79802)">H</text><text class="m" transform="translate(402.43405 373.12614) scale(0.583)">2</text><text class="m" transform="translate(407.62204 367.79802)">O</text><text class="l" transform="translate(258.88205 431.08439)">H</text><text class="m" transform="translate(270.43674 436.41252) scale(0.583)">2</text><text class="m" transform="translate(275.62473 431.08439)">O</text><text class="l" transform="translate(311.31937 317.1689)">H</text><text class="m" transform="translate(322.87405 322.49702) scale(0.583)">2</text><text class="m" transform="translate(328.06204 317.1689)">O</text><text class="l" transform="translate(518.41125 413.19438)">H</text><text class="m" transform="translate(529.96594 418.52251) scale(0.583)">2</text><text class="m" transform="translate(535.15393 413.19438)">O</text><text class="l" transform="translate(575.58765 420.23529)">CO</text><text class="m" transform="translate(599.58765 425.56342) scale(0.583)">2</text><text class="l" transform="translate(218.13002 394.92075)">O</text><text class="m" transform="translate(230.57533 400.24887) scale(0.583)">2</text><text class="l" transform="translate(77.66725 434.70076)">O</text><text class="m" transform="translate(90.11256 440.02888) scale(0.583)">3</text><text class="b" transform="translate(82.2292 36.58478)">紫外</text><text class="b" transform="translate(136.94014 36.58478)">可见光</text><text class="b" transform="translate(230.7738 36.58478)">红外</text><path class="k" d="M332.06755,30.08543l371.3519-.83514"/><path d="M699.131,20.30614l14.67786,8.86337L699.417,38.557A24.84681,24.84681,0,0,0,699.131,20.30614Z"/><path class="o" d="M241.15744,141.72765l-68.71092,41.58819"/><text class="p" transform="translate(241.15747 141.72766)">无大气吸收的太阳光（<tspan class="a">AM0</tspan>）</text><path d="M181.17076,187.644l-17.0798,1.50961,6.07581-16.07288A24.84708,24.84708,0,0,0,181.17076,187.644Z"/><path class="k" d="M322.52568,241.50642,275.5129,273.725"/><text class="q" transform="translate(323.40839 241.50626)">5778 K <tspan class="e" x="55.15625" y="0">黑体</tspan></text><path d="M288.69316,275.847l-17.10354,1.21112,6.3555-15.96435a24.847,24.847,0,0,0,10.748,14.75317Z"/><path class="r" d="M482.60509,316.23543l.92685,106.1922"/><text class="s" transform="translate(435.06891 316.2352)">海平面太阳光（<tspan class="a">AM1</tspan>）</text><path d="M492.52712,419.80055l-8.96271,14.61737-9.2897-14.4552A24.8471,24.8471,0,0,0,492.52712,419.80055Z"/></svg>