<svg xmlns="http://www.w3.org/2000/svg" viewBox="0 0 330.21578 157.76367"><defs><style>.cls-1{font-size:18px;}.cls-1,.cls-2,.cls-4,.cls-5{font-family:SimHei, SimHei;}.cls-2,.cls-4{font-size:18.024px;}.cls-3{fill:none;stroke:#000;stroke-miterlimit:10;stroke-width:0.96px;}.cls-4{fill:#fff;}.cls-5{font-size:13.92px;}</style></defs><text class="cls-1" transform="translate(0 15.46875)">能量</text><path d="M20.97576,27.92889l-3-6-3,6Zm-2.5,127.56v-128.56h-1v128.56Z"/><text class="cls-2" transform="translate(28.34375 72.18896)">导带</text><text class="cls-2" transform="translate(28.34375 128.89893)">价带</text><rect class="cls-3" x="102.93576" y="50.24887" width="56.88" height="28.32001"/><text class="cls-2" transform="translate(122.30566 72.18896)">空</text><rect x="102.93576" y="106.88889" width="56.88" height="28.56"/><rect class="cls-3" x="102.93576" y="106.88889" width="56.88" height="28.56"/><text class="cls-4" transform="translate(122.30566 128.89893)">满</text><text class="cls-1" transform="translate(113.42578 100.54883)">禁</text><text class="cls-1" transform="translate(131.42578 100.54883)">带</text><text class="cls-5" transform="translate(110.30566 155.58887)">绝缘体</text><rect class="cls-3" x="188.13576" y="78.56888" width="56.64" height="28.32001"/><text class="cls-1" transform="translate(207.35596 100.54883)">空</text><rect x="188.13576" y="106.88889" width="56.64" height="28.56"/><rect class="cls-3" x="188.13576" y="106.88889" width="56.64" height="28.56"/><text class="cls-4" transform="translate(207.35596 128.89893)">满</text><text class="cls-5" transform="translate(202.31592 155.58887)">导体</text><rect class="cls-3" x="273.09576" y="64.40887" width="56.64001" height="28.32001"/><text class="cls-1" transform="translate(292.41553 86.36865)">空</text><rect x="273.09576" y="106.88889" width="56.64001" height="28.56"/><rect class="cls-3" x="273.09576" y="106.88889" width="56.64001" height="28.56"/><text class="cls-4" transform="translate(292.41553 128.89893)">满</text><text class="cls-5" transform="translate(280.41553 155.58887)">半导体</text></svg>