<svg xmlns="http://www.w3.org/2000/svg" viewBox="0 0 292.48047 123.76001"><defs><style>.a{fill:#fff;}.b{fill:none;stroke:#000;stroke-miterlimit:10;}.c{isolation:isolate;font-size:16px;font-family:FZHTK--GBK1-0, FZHei-B01;}</style></defs><title>ItEN-03-07</title><path class="a" d="M5.1.5H72.58008a4.6001,4.6001,0,0,1,4.6001,4.6001V41.92a4.6,4.6,0,0,1-4.6,4.6H5.1001A4.6001,4.6001,0,0,1,.5,41.91992V5.1A4.6,4.6,0,0,1,5.1.5Z"/><path class="b" d="M5.1.5H72.58008a4.6001,4.6001,0,0,1,4.6001,4.6001V41.92a4.6,4.6,0,0,1-4.6,4.6H5.1001A4.6001,4.6001,0,0,1,.5,41.91992V5.1A4.6,4.6,0,0,1,5.1.5Z"/><text class="c" transform="translate(22.76953 19.66983)">金属</text><text class="c" transform="translate(14.79004 36.9501)">化合物</text><polygon class="a" points="83.96 17.8 92.09 17.8 92.09 14 100.22 23.51 92.09 33.02 92.09 29.22 83.96 29.22 83.96 17.8"/><polygon class="b" points="83.96 17.8 92.09 17.8 92.09 14 100.22 23.51 92.09 33.02 92.09 29.22 83.96 29.22 83.96 17.8"/><path class="a" d="M112.5.5h67.48a4.6,4.6,0,0,1,4.6001,4.5999V41.92a4.60007,4.60007,0,0,1-4.6001,4.6H112.5a4.6,4.6,0,0,1-4.6001-4.5999V5.1A4.60007,4.60007,0,0,1,112.5.5Z"/><path class="b" d="M112.5.5h67.48a4.6,4.6,0,0,1,4.6001,4.5999V41.92a4.60007,4.60007,0,0,1-4.6001,4.6H112.5a4.6,4.6,0,0,1-4.6001-4.5999V5.1A4.60007,4.60007,0,0,1,112.5.5Z"/><text class="c" transform="translate(130.19043 28.30996)">溶液</text><polygon class="a" points="191.36 17.8 199.49 17.8 199.49 14 207.62 23.51 199.49 33.02 199.49 29.22 191.36 29.22 191.36 17.8"/><polygon class="b" points="191.36 17.8 199.49 17.8 199.49 14 207.62 23.51 199.49 33.02 199.49 29.22 191.36 29.22 191.36 17.8"/><path class="a" d="M219.90039.5h67.48a4.6,4.6,0,0,1,4.6001,4.5999V41.92a4.60007,4.60007,0,0,1-4.6001,4.6h-67.48a4.6,4.6,0,0,1-4.6001-4.5999V5.1a4.60007,4.60007,0,0,1,4.6001-4.6Z"/><path class="b" d="M219.90039.5h67.48a4.6,4.6,0,0,1,4.6001,4.5999V41.92a4.60007,4.60007,0,0,1-4.6001,4.6h-67.48a4.6,4.6,0,0,1-4.6001-4.5999V5.1a4.60007,4.60007,0,0,1,4.6001-4.6Z"/><text class="c" transform="translate(237.58984 28.30996)">溶胶</text><polygon class="a" points="259.36 53.3 259.36 61.43 263.18 61.43 253.64 69.56 244.1 61.43 247.92 61.43 247.92 53.3 259.36 53.3"/><polygon class="b" points="259.36 53.3 259.36 61.43 263.18 61.43 253.64 69.56 244.1 61.43 247.92 61.43 247.92 53.3 259.36 53.3"/><path class="a" d="M219.90039,77.24h67.48a4.6,4.6,0,0,1,4.6001,4.5999v36.82a4.60007,4.60007,0,0,1-4.6001,4.6h-67.48a4.6,4.6,0,0,1-4.6001-4.5999V81.83993a4.6,4.6,0,0,1,4.6001-4.59993Z"/><path class="b" d="M219.90039,77.24h67.48a4.6,4.6,0,0,1,4.6001,4.5999v36.82a4.60007,4.60007,0,0,1-4.6001,4.6h-67.48a4.6,4.6,0,0,1-4.6001-4.5999V81.83993a4.6,4.6,0,0,1,4.6001-4.59993Z"/><text class="c" transform="translate(237.58984 105.02969)">凝胶</text><polygon class="a" points="208.52 105.96 200.39 105.96 200.39 109.76 192.26 100.25 200.39 90.74 200.39 94.54 208.52 94.54 208.52 105.96"/><polygon class="b" points="208.52 105.96 200.39 105.96 200.39 109.76 192.26 100.25 200.39 90.74 200.39 94.54 208.52 94.54 208.52 105.96"/><path class="a" d="M112.5004,77.24h67.48016a4.6,4.6,0,0,1,4.6,4.6v36.82a4.6,4.6,0,0,1-4.6,4.6H112.50049a4.6001,4.6001,0,0,1-4.6001-4.6001V81.84A4.6,4.6,0,0,1,112.5004,77.24Z"/><path class="b" d="M112.5004,77.24h67.48016a4.6,4.6,0,0,1,4.6,4.6v36.82a4.6,4.6,0,0,1-4.6,4.6H112.50049a4.6001,4.6001,0,0,1-4.6001-4.6001V81.84A4.6,4.6,0,0,1,112.5004,77.24Z"/><text class="c" transform="translate(122.20996 105.02969)">热处理</text><polygon class="a" points="101.12 105.96 92.99 105.96 92.99 109.76 84.86 100.25 92.99 90.74 92.99 94.54 101.12 94.54 101.12 105.96"/><polygon class="b" points="101.12 105.96 92.99 105.96 92.99 109.76 84.86 100.25 92.99 90.74 92.99 94.54 101.12 94.54 101.12 105.96"/><path class="a" d="M5.1,77.24H72.58017a4.6,4.6,0,0,1,4.6,4.6v36.82a4.6,4.6,0,0,1-4.6,4.6H5.1001A4.6001,4.6001,0,0,1,.5,118.65991V81.84A4.6,4.6,0,0,1,5.1,77.24Z"/><path class="b" d="M5.1,77.24H72.58017a4.6,4.6,0,0,1,4.6,4.6v36.82a4.6,4.6,0,0,1-4.6,4.6H5.1001A4.6001,4.6001,0,0,1,.5,118.65991V81.84A4.6,4.6,0,0,1,5.1,77.24Z"/><text class="c" transform="translate(22.76953 96.39004)">纳米</text><text class="c" transform="translate(22.76953 115.59024)">材料</text></svg>