<svg xmlns="http://www.w3.org/2000/svg" viewBox="0 0 680.59998 274.02429"><defs><style>.a{fill:none;stroke:#000;stroke-linejoin:round;}.b{fill:#fff;}.c,.d,.e,.f{isolation:isolate;}.c,.d,.f{font-size:18px;}.c,.e{font-family:ArialMT, Arial;}.d{font-family:FZHTK--GBK1-0, FZHei-B01;}.e{font-size:12px;}.f{font-family:Arial-ItalicMT, Arial;font-style:italic;}</style></defs><title>ItEN-04-01</title><line class="a" x1="9.6" y1="58.7" x2="663.59998" y2="58.7"/><line class="a" x1="99.6" y1="58.7" x2="99.6" y2="70.7"/><line class="a" x1="189.60001" y1="58.7" x2="189.60001" y2="70.7"/><line class="a" x1="285.60001" y1="58.7" x2="285.60001" y2="70.7"/><line class="a" x1="375.60001" y1="58.7" x2="375.60001" y2="70.7"/><line class="a" x1="465.60001" y1="58.7" x2="465.60001" y2="70.7"/><line class="a" x1="561.59998" y1="58.7" x2="561.59998" y2="70.7"/><line class="a" x1="663.59998" y1="58.7" x2="663.59998" y2="70.7"/><rect class="b" x="16.1" y="14.7" width="83" height="28.3"/><rect class="a" x="16.1" y="14.7" width="83" height="28.3"/><text class="c" transform="translate(33.5801 35.34009)">X</text><text class="d" transform="translate(45.5801 35.34009)">射线</text><rect class="b" x="99.9" y="14.7" width="88.99999" height="28.3"/><rect class="a" x="99.9" y="14.7" width="88.99999" height="28.3"/><text class="d" transform="translate(126.3604 35.34009)">紫外</text><rect class="b" x="189.7" y="14.7" width="41" height="28.3"/><rect class="a" x="189.7" y="14.7" width="41" height="28.3"/><text class="d" transform="translate(192.1602 35.34009)">可见</text><text class="d" transform="translate(282.62009 132.66)">波数（</text><text class="c" transform="translate(336.62009 132.66)">m</text><text class="e" transform="translate(351.62009 127.2601)">-</text><text class="e" transform="translate(355.64059 127.2601)">1</text><text class="d" transform="translate(362.2998 132.66)">）</text><rect class="b" x="231.5" y="0.5" width="35" height="56.7"/><rect class="a" x="231.5" y="0.5" width="35" height="56.7"/><text class="d" transform="translate(239.9404 24.53979)">近</text><text class="d" transform="translate(230.9404 46.13989)">红外</text><rect class="b" x="267.20001" y="14.7" width="101" height="28.3"/><rect class="a" x="267.20001" y="14.7" width="101" height="28.3"/><text class="d" transform="translate(290.7402 35.34009)">中红外</text><rect class="b" x="369" y="0.5" width="48.5" height="56.7"/><rect class="a" x="369" y="0.5" width="48.5" height="56.7"/><text class="d" transform="translate(384.2402 24.53979)">远</text><text class="d" transform="translate(375.2998 46.13989)">红外</text><rect class="b" x="418.29999" y="14.7" width="77" height="28.3"/><rect class="a" x="418.29999" y="14.7" width="77" height="28.3"/><text class="d" transform="translate(438.82031 35.34009)">微波</text><rect class="b" x="496.10001" y="14.7" width="166.99997" height="28.3"/><rect class="a" x="496.10001" y="14.7" width="166.99997" height="28.3"/><text class="d" transform="translate(543.62012 35.34009)">无线电波</text><line class="a" x1="14.6" y1="189.2" x2="668.59998" y2="189.2"/><line class="a" x1="14.6" y1="189.2" x2="14.6" y2="201.2"/><line class="a" x1="194.60001" y1="189.2" x2="194.60001" y2="201.2"/><line class="a" x1="380.60001" y1="189.2" x2="380.60001" y2="201.2"/><line class="a" x1="668.59998" y1="189.2" x2="668.59998" y2="201.2"/><line class="a" x1="566.59998" y1="189.2" x2="566.59998" y2="201.2"/><line class="a" x1="470.60001" y1="189.2" x2="470.60001" y2="201.2"/><line class="a" x1="290.60001" y1="189.2" x2="290.60001" y2="201.2"/><line class="a" x1="104.6" y1="189.2" x2="104.6" y2="201.2"/><text class="d" transform="translate(284.56009 268.17999)">波长（</text><text class="f" transform="translate(338.56049 268.17999)">μ</text><text class="c" transform="translate(348.40039 268.17999)">m</text><text class="d" transform="translate(363.40039 268.17999)">）</text><rect class="b" x="15.1" y="153.60001" width="89" height="28.39999"/><rect class="a" x="15.1" y="153.60001" width="89" height="28.39999"/><text class="d" transform="translate(32.5801 174.2796)">核转变</text><rect class="b" x="105.1" y="153.60001" width="125.00001" height="28.39999"/><rect class="a" x="105.1" y="153.60001" width="125.00001" height="28.39999"/><text class="d" transform="translate(131.58009 174.2796)">电子跃迁</text><rect class="b" x="231.10001" y="153.60001" width="185" height="28.39999"/><rect class="a" x="231.10001" y="153.60001" width="185" height="28.39999"/><text class="d" transform="translate(287.6001 174.2796)">分子振动</text><rect class="b" x="417.10001" y="153.60001" width="77" height="28.39999"/><rect class="a" x="417.10001" y="153.60001" width="77" height="28.39999"/><text class="d" transform="translate(437.60059 174.2796)">转动</text><rect class="b" x="495.10001" y="153.8" width="184.99997" height="28.39999"/><rect class="a" x="495.10001" y="153.8" width="184.99997" height="28.39999"/><text class="d" transform="translate(569.62012 174.4202)">跃迁</text><path d="M416.3,151l2-2-2,4-2-4Zm.5-91.9V151a.5.5,0,0,1-1,0V59.1a.47239.47239,0,0,1,.5-.5A.53569.53569,0,0,1,416.8,59.1Z" transform="translate(0 -0.00001)"/><path d="M232.1,151l2-2-2,4-2-4Zm.5-91.9V151a.5.5,0,0,1-1,0V59.1a.47238.47238,0,0,1,.5-.5A.53571.53571,0,0,1,232.6,59.1Z" transform="translate(0 -0.00001)"/><text class="c" transform="translate(0 89.70001)">10</text><text class="e" transform="translate(20.04 84.30011)">9</text><text class="c" transform="translate(91.06009 89.70001)">10</text><text class="e" transform="translate(111.1001 84.30011)">7</text><text class="c" transform="translate(182.1201 89.70001)">10</text><text class="e" transform="translate(202.1602 84.30011)">5</text><text class="c" transform="translate(273.18021 89.70001)">10</text><text class="e" transform="translate(293.22021 84.30011)">3</text><text class="c" transform="translate(364.2207 89.70001)">10</text><text class="e" transform="translate(384.2598 84.30011)">1</text><text class="c" transform="translate(455.2803 89.70001)">10</text><text class="e" transform="translate(475.32031 84.30011)">-</text><text class="e" transform="translate(479.33984 84.30011)">1</text><text class="c" transform="translate(550.37988 89.70001)">10</text><text class="e" transform="translate(570.41992 84.30011)">-</text><text class="e" transform="translate(574.44043 84.30011)">3</text><text class="c" transform="translate(645.48053 89.70001)">10</text><text class="e" transform="translate(665.52051 84.30011)">-</text><text class="e" transform="translate(669.53998 84.30011)">5</text><text class="c" transform="translate(0 220.05991)">10</text><text class="e" transform="translate(20.04 214.6604)">-</text><text class="e" transform="translate(24.0601 214.6604)">5</text><text class="c" transform="translate(94.51999 220.05991)">10</text><text class="e" transform="translate(114.56009 214.6604)">-</text><text class="e" transform="translate(118.58011 214.6604)">3</text><text class="c" transform="translate(189.03999 220.05991)">10</text><text class="e" transform="translate(209.08009 214.6604)">-</text><text class="e" transform="translate(213.1001 214.6604)">1</text><text class="c" transform="translate(283.56009 220.05991)">10</text><text class="e" transform="translate(303.6001 214.6604)">1</text><text class="c" transform="translate(374.04001 220.05991)">10</text><text class="e" transform="translate(394.08011 214.6604)">3</text><text class="c" transform="translate(464.52051 220.05991)">10</text><text class="e" transform="translate(484.56049 214.6604)">5</text><text class="c" transform="translate(555 220.05991)">10</text><text class="e" transform="translate(575.03998 214.6604)">7</text><text class="c" transform="translate(645.48053 220.05991)">10</text><text class="e" transform="translate(665.52051 214.6604)">9</text><line class="a" x1="9.7" y1="58.7" x2="9.7" y2="70.7"/></svg>