<svg id="2baeea8f-19fb-4cff-9422-c5a0e10140c1" data-name="图层 1" xmlns="http://www.w3.org/2000/svg" viewBox="0 0 609.95605 354.00002"><defs><style>.\33 1babd87-7803-4785-992b-501e7d5bc298,.\36 f40b0d1-ce5c-4cb8-8d47-2f6e326e65f7,.ae4727fe-1e0d-44ec-9887-599f2d7aaa91,.cff0054a-71a6-40ab-bd6a-8e2697d9527f{stroke:#292934;}.\33 1babd87-7803-4785-992b-501e7d5bc298,.\36 009435d-1cb7-4d03-b9d6-a8d42133f4e9,.\36 f40b0d1-ce5c-4cb8-8d47-2f6e326e65f7,.ae4727fe-1e0d-44ec-9887-599f2d7aaa91,.cff0054a-71a6-40ab-bd6a-8e2697d9527f,.fa938924-56ff-4cb4-8b1c-ec930e5bee37{stroke-linejoin:round;}.\33 1babd87-7803-4785-992b-501e7d5bc298,.\36 f40b0d1-ce5c-4cb8-8d47-2f6e326e65f7{stroke-width:1.44px;}.\33 1babd87-7803-4785-992b-501e7d5bc298{stroke-dasharray:5.76 4.32;}.fa938924-56ff-4cb4-8b1c-ec930e5bee37{stroke:#000;stroke-width:1.92px;}.ae4727fe-1e0d-44ec-9887-599f2d7aaa91{stroke-width:2.16px;}.cff0054a-71a6-40ab-bd6a-8e2697d9527f{stroke-width:0.96px;}.\37 8b31d85-d3b2-4138-8493-2b14243e8e64,.\39 4234627-a9a2-4ad4-989a-36c91c40ef0d{font-size:13.92px;}.\31 f3ee384-8560-49f2-b339-4d0df16d576c,.\36 a4a6774-4b3f-480e-a424-287de3234a1e,.\37 17496d7-03c4-4e95-a1e7-2dbc83a2541d,.\37 8b31d85-d3b2-4138-8493-2b14243e8e64,.\39 4234627-a9a2-4ad4-989a-36c91c40ef0d,.a10ce5c6-1634-4881-a0b2-b771effbeae8,.cf7ed741-1b27-45bc-bdbb-6d385e0cde58{font-family:TimesNewRomanPSMT, Times New Roman;}.ec523907-b43c-4697-aa58-d3ac1fb9f9b4{letter-spacing:0.00498em;}.d7688a8f-3632-44b2-bf41-6629df88eba8{letter-spacing:-0.01501em;}.\30 e53a744-80e5-4f48-8138-6c8128d1cbe7{letter-spacing:0.00004em;}.eaf48d18-2116-4db2-8165-872c68a9132d{letter-spacing:-0.00498em;}.\37 fdb00ec-f098-45de-b9ec-b9d4bca2d1e6{letter-spacing:-0.01701em;}.\37 0b203b2-ab5f-43fc-82a5-dc5f8565af9e{letter-spacing:0.00702em;}.\36 a4a6774-4b3f-480e-a424-287de3234a1e,.\37 17496d7-03c4-4e95-a1e7-2dbc83a2541d,.cf7ed741-1b27-45bc-bdbb-6d385e0cde58{font-size:13.944px;}.\38 47ab3cb-3544-4962-ab83-55958be84c35{letter-spacing:0.00501em;}.\32 33e6beb-e101-46e3-9c99-d2113271b6f1{letter-spacing:-0.00004em;}.\30 82a8494-eb26-49ce-8c4e-d455b3a39c65{letter-spacing:0.008em;}.\32 e3066ea-e287-42c6-9afd-0561eb53f142{letter-spacing:0.004em;}.df6cc116-9bf5-41ec-9080-3c954529fb04{letter-spacing:0.00301em;}.cf7ed741-1b27-45bc-bdbb-6d385e0cde58,.d8579213-108b-4922-97f4-0aea01fdda62{letter-spacing:-0.00602em;}.\31 af0ec5f-d835-45d6-a5da-f4456ef2d8fb{letter-spacing:-0.01698em;}.\39 00b05e7-2e6f-4a67-ba16-9697303f5665,.\39 4234627-a9a2-4ad4-989a-36c91c40ef0d{letter-spacing:-0.00702em;}.a7c80e58-0904-4ba6-83b8-f7777d2053a8{letter-spacing:-0.01698em;}.\34 df65cc8-09d8-4cdf-a53c-091de7422ba3{letter-spacing:-0.00004em;}.\31 f3ee384-8560-49f2-b339-4d0df16d576c{font-size:9.36px;}.\36 a4370ba-e405-47c0-a8d4-54fbd98dbd6a{letter-spacing:-0.00505em;}.\35 201ce25-9260-4465-abf2-dc8c10d63f7f{letter-spacing:-0.004em;}.dd04b96c-080c-442c-83be-8d724dba650a{letter-spacing:-0.016em;}.\34 beb42b6-8d07-4c83-9c1c-4fd1b02ab321{letter-spacing:-0.04097em;}.\34 aca8f4d-abd1-4e32-b21f-20aa2c1ad244{letter-spacing:-0.01803em;}.\33 e6ba1b8-b919-436a-b35b-248400bd644c{letter-spacing:0.02403em;}.\38 81abf04-1616-43d8-ac24-9758fa8c3a91{letter-spacing:0.00396em;}.\30 7c13682-e52d-4d0a-94d7-69edf308e43c{letter-spacing:-0.008em;}.b0952d38-5bbd-42a9-a03f-f426dcde3913{letter-spacing:-0.00901em;}.\30 82f258f-5d15-49c7-801b-5b16cffe1f29{letter-spacing:0.00302em;}.\36 009435d-1cb7-4d03-b9d6-a8d42133f4e9{stroke:#669;stroke-width:0.72px;}.fc4761ef-f8ed-40f8-97a7-c1ab17bf5f20{letter-spacing:0.00793em;}.d7051026-401f-4dd4-9406-4eeea7d760ef{letter-spacing:-0.00007em;}.f293621c-7842-4de1-b68c-67df832710c0{letter-spacing:-0.00105em;}.a10ce5c6-1634-4881-a0b2-b771effbeae8{font-size:9.384px;}.\34 d511ee5-ed2a-43b6-bb8b-7b1e0e900dc9,.\37 17496d7-03c4-4e95-a1e7-2dbc83a2541d{letter-spacing:-0.00196em;}.\32 19a847b-3e97-489a-b460-931ced04449f{letter-spacing:-0.00007em;}.\37 8c1ba1f-cb95-4b57-901b-8b84575a03a8{letter-spacing:0.012em;}.\32 89afc22-e099-4b03-8536-1f214a22dab4{letter-spacing:0.00695em;}.b90e4239-2823-407f-a705-f6d083de8e63{letter-spacing:0.00294em;}.\37 7321710-f78f-420d-b1c1-69888bb5843c{letter-spacing:0.00007em;}.b83ad55d-7a74-49b5-b517-d4c963e0df38{letter-spacing:0.00595em;}.\32 c242170-7727-471f-ac07-11b0fe844e4e{letter-spacing:0.00505em;}.\39 b12de1a-2e17-476e-81b0-01ef713a90a2{letter-spacing:0.00203em;}.\37 711107c-a8ea-4190-8eb8-0bee3b863e43{letter-spacing:0.00996em;}.c4628ea8-0aee-436e-96d4-8e5e50b8b77d{letter-spacing:0.00196em;}.\30 f88ec01-75ad-4ba0-95d7-98538bd67470{letter-spacing:0.00098em;}.d73c016b-5640-4ea5-8159-8e0c794ad762{letter-spacing:-0.00098em;}.\38 b167ddb-3720-48b0-a56a-937080019086{letter-spacing:0.00898em;}.\37 f99dd22-25d2-4142-8369-1a26aa43a0c2{letter-spacing:0.00497em;}.e95f3548-6e2a-45ed-9e95-882a29e0c83f{letter-spacing:-0.01301em;}</style></defs><title>ItEN-06-02</title><path d="M33.79,6.48l2.16,4.32L33.79,0,31.63,10.8ZM34.87,354V6.48H32.71V354Z"/><line class="31babd87-7803-4785-992b-501e7d5bc298" x1="27.67003" y1="119.88" x2="459.67001" y2="119.88"/><line class="fa938924-56ff-4cb4-8b1c-ec930e5bee37" x1="459.67001" y1="5.88" x2="459.67001" y2="353.88001"/><line class="ae4727fe-1e0d-44ec-9887-599f2d7aaa91" x1="87.79002" y1="102" x2="111.79002" y2="102"/><line class="cff0054a-71a6-40ab-bd6a-8e2697d9527f" x1="87.67003" y1="95.88" x2="93.67003" y2="101.88"/><line class="cff0054a-71a6-40ab-bd6a-8e2697d9527f" x1="87.67003" y1="95.88" x2="93.67003" y2="101.88"/><line class="cff0054a-71a6-40ab-bd6a-8e2697d9527f" x1="93.67003" y1="95.88" x2="99.67003" y2="101.88"/><line class="cff0054a-71a6-40ab-bd6a-8e2697d9527f" x1="99.67003" y1="95.88" x2="105.67003" y2="101.88"/><line class="cff0054a-71a6-40ab-bd6a-8e2697d9527f" x1="105.67003" y1="95.88" x2="111.67003" y2="101.88"/><line class="ae4727fe-1e0d-44ec-9887-599f2d7aaa91" x1="87.79002" y1="168" x2="111.79002" y2="168"/><line class="cff0054a-71a6-40ab-bd6a-8e2697d9527f" x1="87.67003" y1="167.88" x2="93.67003" y2="173.88"/><line class="cff0054a-71a6-40ab-bd6a-8e2697d9527f" x1="87.67003" y1="167.88" x2="93.67003" y2="173.88"/><line class="cff0054a-71a6-40ab-bd6a-8e2697d9527f" x1="93.67003" y1="167.88" x2="99.67003" y2="173.88"/><line class="cff0054a-71a6-40ab-bd6a-8e2697d9527f" x1="99.67003" y1="167.88" x2="105.67003" y2="173.88"/><line class="cff0054a-71a6-40ab-bd6a-8e2697d9527f" x1="105.67003" y1="167.88" x2="111.67003" y2="173.88"/><line class="6f40b0d1-ce5c-4cb8-8d47-2f6e326e65f7" x1="33.67003" y1="47.88" x2="39.67003" y2="47.88"/><line class="6f40b0d1-ce5c-4cb8-8d47-2f6e326e65f7" x1="33.67003" y1="71.88" x2="39.67003" y2="71.88"/><line class="6f40b0d1-ce5c-4cb8-8d47-2f6e326e65f7" x1="33.67003" y1="143.88" x2="39.67003" y2="143.88"/><line class="6f40b0d1-ce5c-4cb8-8d47-2f6e326e65f7" x1="33.67003" y1="95.88" x2="39.67003" y2="95.88"/><line class="6f40b0d1-ce5c-4cb8-8d47-2f6e326e65f7" x1="33.67003" y1="215.88" x2="39.67003" y2="215.88"/><line class="6f40b0d1-ce5c-4cb8-8d47-2f6e326e65f7" x1="33.67003" y1="191.88" x2="39.67003" y2="191.88"/><line class="6f40b0d1-ce5c-4cb8-8d47-2f6e326e65f7" x1="33.67003" y1="167.88" x2="39.67003" y2="167.88"/><line class="6f40b0d1-ce5c-4cb8-8d47-2f6e326e65f7" x1="33.67003" y1="287.88" x2="39.67003" y2="287.88"/><line class="6f40b0d1-ce5c-4cb8-8d47-2f6e326e65f7" x1="33.67003" y1="263.88" x2="39.67003" y2="263.88"/><line class="6f40b0d1-ce5c-4cb8-8d47-2f6e326e65f7" x1="33.67003" y1="239.88" x2="39.67003" y2="239.88"/><line class="6f40b0d1-ce5c-4cb8-8d47-2f6e326e65f7" x1="33.67003" y1="311.88" x2="39.67003" y2="311.88"/><line class="ae4727fe-1e0d-44ec-9887-599f2d7aaa91" x1="315.79004" y1="300.00002" x2="339.79004" y2="300.00002"/><line class="cff0054a-71a6-40ab-bd6a-8e2697d9527f" x1="315.67004" y1="299.88" x2="321.67004" y2="305.88"/><line class="cff0054a-71a6-40ab-bd6a-8e2697d9527f" x1="315.67004" y1="299.88" x2="321.67004" y2="305.88"/><line class="cff0054a-71a6-40ab-bd6a-8e2697d9527f" x1="321.67004" y1="299.88" x2="327.67004" y2="305.88"/><line class="cff0054a-71a6-40ab-bd6a-8e2697d9527f" x1="327.67004" y1="299.88" x2="333.67004" y2="305.88"/><line class="cff0054a-71a6-40ab-bd6a-8e2697d9527f" x1="333.67004" y1="299.88" x2="339.67004" y2="305.88"/><line class="ae4727fe-1e0d-44ec-9887-599f2d7aaa91" x1="141.79002" y1="222.00002" x2="165.79004" y2="222.00002"/><line class="cff0054a-71a6-40ab-bd6a-8e2697d9527f" x1="141.67003" y1="221.88" x2="147.67003" y2="227.88"/><line class="cff0054a-71a6-40ab-bd6a-8e2697d9527f" x1="141.67003" y1="221.88" x2="147.67003" y2="227.88"/><line class="cff0054a-71a6-40ab-bd6a-8e2697d9527f" x1="147.67003" y1="221.88" x2="153.67003" y2="227.88"/><line class="cff0054a-71a6-40ab-bd6a-8e2697d9527f" x1="153.67003" y1="221.88" x2="159.67004" y2="227.88"/><line class="cff0054a-71a6-40ab-bd6a-8e2697d9527f" x1="159.67004" y1="221.88" x2="165.67004" y2="227.88"/><line class="ae4727fe-1e0d-44ec-9887-599f2d7aaa91" x1="195.79004" y1="264.00002" x2="219.79004" y2="264.00002"/><line class="cff0054a-71a6-40ab-bd6a-8e2697d9527f" x1="195.67004" y1="263.88" x2="201.67004" y2="269.88"/><line class="cff0054a-71a6-40ab-bd6a-8e2697d9527f" x1="195.67004" y1="263.88" x2="201.67004" y2="269.88"/><line class="cff0054a-71a6-40ab-bd6a-8e2697d9527f" x1="201.67004" y1="263.88" x2="207.67004" y2="269.88"/><line class="cff0054a-71a6-40ab-bd6a-8e2697d9527f" x1="207.67004" y1="263.88" x2="213.67004" y2="269.88"/><line class="cff0054a-71a6-40ab-bd6a-8e2697d9527f" x1="213.67004" y1="263.88" x2="219.67004" y2="269.88"/><line class="ae4727fe-1e0d-44ec-9887-599f2d7aaa91" x1="255.79004" y1="282.00002" x2="279.79004" y2="282.00002"/><line class="cff0054a-71a6-40ab-bd6a-8e2697d9527f" x1="255.67004" y1="281.88" x2="261.67004" y2="287.88"/><line class="cff0054a-71a6-40ab-bd6a-8e2697d9527f" x1="255.67004" y1="281.88" x2="261.67004" y2="287.88"/><line class="cff0054a-71a6-40ab-bd6a-8e2697d9527f" x1="261.67004" y1="281.88" x2="267.67004" y2="287.88"/><line class="cff0054a-71a6-40ab-bd6a-8e2697d9527f" x1="267.67004" y1="281.88" x2="273.67004" y2="287.88"/><line class="cff0054a-71a6-40ab-bd6a-8e2697d9527f" x1="273.67004" y1="281.88" x2="279.67004" y2="287.88"/><line class="ae4727fe-1e0d-44ec-9887-599f2d7aaa91" x1="381.79004" y1="264.00002" x2="405.79004" y2="264.00002"/><line class="cff0054a-71a6-40ab-bd6a-8e2697d9527f" x1="381.67004" y1="263.88" x2="387.67004" y2="269.88"/><line class="cff0054a-71a6-40ab-bd6a-8e2697d9527f" x1="381.67004" y1="263.88" x2="387.67004" y2="269.88"/><line class="cff0054a-71a6-40ab-bd6a-8e2697d9527f" x1="387.67004" y1="263.88" x2="393.67004" y2="269.88"/><line class="cff0054a-71a6-40ab-bd6a-8e2697d9527f" x1="393.67004" y1="263.88" x2="399.67004" y2="269.88"/><line class="cff0054a-71a6-40ab-bd6a-8e2697d9527f" x1="399.67004" y1="263.88" x2="405.67004" y2="269.88"/><text class="78b31d85-d3b2-4138-8493-2b14243e8e64" transform="translate(86.8501 59.05988)">G<tspan class="ec523907-b43c-4697-aa58-d3ac1fb9f9b4" x="10.05273" y="0">a</tspan><tspan class="d7688a8f-3632-44b2-bf41-6629df88eba8" x="16.30029" y="0">A</tspan><tspan class="0e53a744-80e5-4f48-8138-6c8128d1cbe7" x="26.14404" y="0">s</tspan></text><text class="78b31d85-d3b2-4138-8493-2b14243e8e64" transform="translate(86.60986 84.26007)"><tspan class="eaf48d18-2116-4db2-8165-872c68a9132d">(</tspan><tspan class="7fdb00ec-f098-45de-b9ec-b9d4bca2d1e6" x="4.56592" y="0">n</tspan><tspan class="70b203b2-ab5f-43fc-82a5-dc5f8565af9e" x="11.28906" y="0">,</tspan><tspan x="14.8667" y="0">p)</tspan></text><text class="78b31d85-d3b2-4138-8493-2b14243e8e64" transform="translate(9.29004 125.09015)">0</text><text class="6a4a6774-4b3f-480e-a424-287de3234a1e" transform="translate(1.68018 101.05988)">-</text><text class="6a4a6774-4b3f-480e-a424-287de3234a1e" transform="translate(6.24023 101.05988)">0<tspan class="847ab3cb-3544-4962-ab83-55958be84c35" x="6.97217" y="0">.</tspan><tspan class="233e6beb-e101-46e3-9c99-d2113271b6f1" x="10.52783" y="0">5</tspan></text><text class="78b31d85-d3b2-4138-8493-2b14243e8e64" transform="translate(1.68018 77.05988)">-</text><text class="78b31d85-d3b2-4138-8493-2b14243e8e64" transform="translate(6.24023 77.05988)">1<tspan class="082a8494-eb26-49ce-8c4e-d455b3a39c65" x="6.95996" y="0">.</tspan><tspan x="10.55127" y="0">0</tspan></text><text class="78b31d85-d3b2-4138-8493-2b14243e8e64" transform="translate(1.68018 53.05988)">-</text><text class="78b31d85-d3b2-4138-8493-2b14243e8e64" transform="translate(6.24023 53.05988)">1<tspan class="082a8494-eb26-49ce-8c4e-d455b3a39c65" x="6.95996" y="0">.</tspan><tspan x="10.55127" y="0">5</tspan></text><text class="78b31d85-d3b2-4138-8493-2b14243e8e64" transform="translate(0 149.09015)"><tspan class="2e3066ea-e287-42c6-9afd-0561eb53f142">+</tspan><tspan x="7.90625" y="0">0</tspan><tspan class="082a8494-eb26-49ce-8c4e-d455b3a39c65" x="14.86621" y="0">.</tspan><tspan x="18.45752" y="0">5</tspan></text><text class="78b31d85-d3b2-4138-8493-2b14243e8e64" transform="translate(0 173.11017)"><tspan class="2e3066ea-e287-42c6-9afd-0561eb53f142">+</tspan><tspan x="7.90625" y="0">1</tspan><tspan class="082a8494-eb26-49ce-8c4e-d455b3a39c65" x="14.86621" y="0">.</tspan><tspan x="18.45752" y="0">0</tspan></text><text class="78b31d85-d3b2-4138-8493-2b14243e8e64" transform="translate(0 197.11017)"><tspan class="2e3066ea-e287-42c6-9afd-0561eb53f142">+</tspan><tspan x="7.90625" y="0">1</tspan><tspan class="082a8494-eb26-49ce-8c4e-d455b3a39c65" x="14.86621" y="0">.</tspan><tspan x="18.45752" y="0">5</tspan></text><text class="78b31d85-d3b2-4138-8493-2b14243e8e64" transform="translate(0 221.14044)"><tspan class="2e3066ea-e287-42c6-9afd-0561eb53f142">+</tspan><tspan x="7.90625" y="0">2</tspan><tspan class="082a8494-eb26-49ce-8c4e-d455b3a39c65" x="14.86621" y="0">.</tspan><tspan x="18.45752" y="0">0</tspan></text><text class="78b31d85-d3b2-4138-8493-2b14243e8e64" transform="translate(0 245.14044)"><tspan class="2e3066ea-e287-42c6-9afd-0561eb53f142">+</tspan><tspan x="7.90625" y="0">2</tspan><tspan class="082a8494-eb26-49ce-8c4e-d455b3a39c65" x="14.86621" y="0">.</tspan><tspan x="18.45752" y="0">5</tspan></text><text class="6a4a6774-4b3f-480e-a424-287de3234a1e" transform="translate(0 269.14044)"><tspan class="df6cc116-9bf5-41ec-9080-3c954529fb04">+</tspan><tspan x="7.90576" y="0">3</tspan><tspan class="847ab3cb-3544-4962-ab83-55958be84c35" x="14.87793" y="0">.</tspan><tspan class="233e6beb-e101-46e3-9c99-d2113271b6f1" x="18.43359" y="0">0</tspan></text><text class="78b31d85-d3b2-4138-8493-2b14243e8e64" transform="translate(0 293.15997)"><tspan class="2e3066ea-e287-42c6-9afd-0561eb53f142">+</tspan><tspan x="7.90625" y="0">3</tspan><tspan class="082a8494-eb26-49ce-8c4e-d455b3a39c65" x="14.86621" y="0">.</tspan><tspan x="18.45752" y="0">5</tspan></text><text class="78b31d85-d3b2-4138-8493-2b14243e8e64" transform="translate(0 317.15997)"><tspan class="2e3066ea-e287-42c6-9afd-0561eb53f142">+</tspan><tspan x="7.90625" y="0">4</tspan><tspan class="082a8494-eb26-49ce-8c4e-d455b3a39c65" x="14.86621" y="0">.</tspan><tspan x="18.45752" y="0">0</tspan></text><text class="78b31d85-d3b2-4138-8493-2b14243e8e64" transform="translate(138.72021 63.94025)"><tspan class="2e3066ea-e287-42c6-9afd-0561eb53f142">C</tspan><tspan x="9.34033" y="0">dS</tspan></text><text class="cf7ed741-1b27-45bc-bdbb-6d385e0cde58" transform="translate(141.6001 89.13995)">(<tspan class="1af0ec5f-d835-45d6-a5da-f4456ef2d8fb" x="4.55957" y="0">n</tspan><tspan class="233e6beb-e101-46e3-9c99-d2113271b6f1" x="11.29492" y="0">)</tspan></text><line class="ae4727fe-1e0d-44ec-9887-599f2d7aaa91" x1="141.79002" y1="102" x2="165.79004" y2="102"/><line class="cff0054a-71a6-40ab-bd6a-8e2697d9527f" x1="141.67003" y1="95.88" x2="147.67003" y2="101.88"/><line class="cff0054a-71a6-40ab-bd6a-8e2697d9527f" x1="141.67003" y1="95.88" x2="147.67003" y2="101.88"/><line class="cff0054a-71a6-40ab-bd6a-8e2697d9527f" x1="147.67003" y1="95.88" x2="153.67003" y2="101.88"/><line class="cff0054a-71a6-40ab-bd6a-8e2697d9527f" x1="153.67003" y1="95.88" x2="159.67004" y2="101.88"/><line class="cff0054a-71a6-40ab-bd6a-8e2697d9527f" x1="159.67004" y1="95.88" x2="165.67004" y2="101.88"/><line class="ae4727fe-1e0d-44ec-9887-599f2d7aaa91" x1="195.79004" y1="108" x2="219.79004" y2="108"/><line class="cff0054a-71a6-40ab-bd6a-8e2697d9527f" x1="195.67004" y1="101.88" x2="201.67004" y2="107.88"/><line class="cff0054a-71a6-40ab-bd6a-8e2697d9527f" x1="195.67004" y1="101.88" x2="201.67004" y2="107.88"/><line class="cff0054a-71a6-40ab-bd6a-8e2697d9527f" x1="201.67004" y1="101.88" x2="207.67004" y2="107.88"/><line class="cff0054a-71a6-40ab-bd6a-8e2697d9527f" x1="207.67004" y1="101.88" x2="213.67004" y2="107.88"/><line class="cff0054a-71a6-40ab-bd6a-8e2697d9527f" x1="213.67004" y1="101.88" x2="219.67004" y2="107.88"/><line class="ae4727fe-1e0d-44ec-9887-599f2d7aaa91" x1="255.79004" y1="138" x2="279.79004" y2="138"/><line class="cff0054a-71a6-40ab-bd6a-8e2697d9527f" x1="255.67004" y1="131.88" x2="261.67004" y2="137.88"/><line class="cff0054a-71a6-40ab-bd6a-8e2697d9527f" x1="255.67004" y1="131.88" x2="261.67004" y2="137.88"/><line class="cff0054a-71a6-40ab-bd6a-8e2697d9527f" x1="261.67004" y1="131.88" x2="267.67004" y2="137.88"/><line class="cff0054a-71a6-40ab-bd6a-8e2697d9527f" x1="267.67004" y1="131.88" x2="273.67004" y2="137.88"/><line class="cff0054a-71a6-40ab-bd6a-8e2697d9527f" x1="273.67004" y1="131.88" x2="279.67004" y2="137.88"/><line class="ae4727fe-1e0d-44ec-9887-599f2d7aaa91" x1="315.79004" y1="144" x2="339.79004" y2="144"/><line class="cff0054a-71a6-40ab-bd6a-8e2697d9527f" x1="315.67004" y1="137.88" x2="321.67004" y2="143.88"/><line class="cff0054a-71a6-40ab-bd6a-8e2697d9527f" x1="315.67004" y1="137.88" x2="321.67004" y2="143.88"/><line class="cff0054a-71a6-40ab-bd6a-8e2697d9527f" x1="321.67004" y1="137.88" x2="327.67004" y2="143.88"/><line class="cff0054a-71a6-40ab-bd6a-8e2697d9527f" x1="327.67004" y1="137.88" x2="333.67004" y2="143.88"/><line class="cff0054a-71a6-40ab-bd6a-8e2697d9527f" x1="333.67004" y1="137.88" x2="339.67004" y2="143.88"/><line class="ae4727fe-1e0d-44ec-9887-599f2d7aaa91" x1="381.79004" y1="114" x2="405.79004" y2="114"/><line class="cff0054a-71a6-40ab-bd6a-8e2697d9527f" x1="381.67004" y1="107.88" x2="387.67004" y2="113.88"/><line class="cff0054a-71a6-40ab-bd6a-8e2697d9527f" x1="381.67004" y1="107.88" x2="387.67004" y2="113.88"/><line class="cff0054a-71a6-40ab-bd6a-8e2697d9527f" x1="387.67004" y1="107.88" x2="393.67004" y2="113.88"/><line class="cff0054a-71a6-40ab-bd6a-8e2697d9527f" x1="393.67004" y1="107.88" x2="399.67004" y2="113.88"/><line class="cff0054a-71a6-40ab-bd6a-8e2697d9527f" x1="399.67004" y1="107.88" x2="405.67004" y2="113.88"/><text class="94234627-a9a2-4ad4-989a-36c91c40ef0d" transform="translate(192.24023 71.05988)">Z<tspan class="a7c80e58-0904-4ba6-83b8-f7777d2053a8" x="8.40527" y="0">n</tspan><tspan class="4df65cc8-09d8-4cdf-a53c-091de7422ba3" x="15.12891" y="0">O</tspan></text><text class="cf7ed741-1b27-45bc-bdbb-6d385e0cde58" transform="translate(195.6001 96.26007)">(<tspan class="1af0ec5f-d835-45d6-a5da-f4456ef2d8fb" x="4.55957" y="0">n</tspan><tspan class="233e6beb-e101-46e3-9c99-d2113271b6f1" x="11.29492" y="0">)</tspan></text><text class="78b31d85-d3b2-4138-8493-2b14243e8e64" transform="translate(250.81982 75.94025)"><tspan class="2e3066ea-e287-42c6-9afd-0561eb53f142">W</tspan><tspan x="13.19385" y="0">O</tspan></text><text class="1f3ee384-8560-49f2-b339-4d0df16d576c" transform="translate(274.09961 80.01984)">3</text><text class="78b31d85-d3b2-4138-8493-2b14243e8e64" transform="translate(255.62012 101.15997)"><tspan class="6a4370ba-e405-47c0-a8d4-54fbd98dbd6a">(</tspan><tspan class="a7c80e58-0904-4ba6-83b8-f7777d2053a8" x="4.56543" y="0">n</tspan><tspan x="11.28906" y="0">)</tspan></text><text class="78b31d85-d3b2-4138-8493-2b14243e8e64" transform="translate(310.12988 105.95978)"><tspan class="5201ce25-9260-4465-abf2-dc8c10d63f7f">S</tspan><tspan class="a7c80e58-0904-4ba6-83b8-f7777d2053a8" x="7.68555" y="0">n</tspan><tspan x="14.40918" y="0">O</tspan></text><text class="1f3ee384-8560-49f2-b339-4d0df16d576c" transform="translate(334.61035 110.03986)">2</text><text class="78b31d85-d3b2-4138-8493-2b14243e8e64" transform="translate(315.65039 131.15997)"><tspan class="6a4370ba-e405-47c0-a8d4-54fbd98dbd6a">(</tspan><tspan class="dd04b96c-080c-442c-83be-8d724dba650a" x="4.56543" y="0">n</tspan><tspan x="11.30273" y="0">)</tspan></text><text class="78b31d85-d3b2-4138-8493-2b14243e8e64" transform="translate(377.58984 75.94025)"><tspan class="4beb42b6-8d07-4c83-9c1c-4fd1b02ab321">T</tspan><tspan class="4aca8f4d-abd1-4e32-b21f-20aa2c1ad244" x="7.93262" y="0">i</tspan><tspan x="11.54883" y="0">O</tspan></text><text class="1f3ee384-8560-49f2-b339-4d0df16d576c" transform="translate(399.19043 80.01984)">2</text><text class="78b31d85-d3b2-4138-8493-2b14243e8e64" transform="translate(381.66992 101.15997)"><tspan class="6a4370ba-e405-47c0-a8d4-54fbd98dbd6a">(</tspan><tspan class="dd04b96c-080c-442c-83be-8d724dba650a" x="4.56543" y="0">n</tspan><tspan x="11.30273" y="0">)</tspan></text><text class="78b31d85-d3b2-4138-8493-2b14243e8e64" transform="translate(34.99023 137.09015)">Δ</text><text class="78b31d85-d3b2-4138-8493-2b14243e8e64" transform="translate(43.87012 137.09015)"><tspan class="900b05e7-2e6f-4a67-ba16-9697303f5665">E</tspan><tspan class="3e6ba1b8-b919-436a-b35b-248400bd644c" x="8.40527" y="0"> </tspan><tspan class="881abf04-1616-43d8-ac24-9758fa8c3a91" x="12.21973" y="0">=</tspan><tspan class="07c13682-e52d-4d0a-94d7-69edf308e43c" x="20.12549" y="0"> </tspan><tspan x="23.49414" y="0">1</tspan><tspan class="70b203b2-ab5f-43fc-82a5-dc5f8565af9e" x="30.4541" y="0">.</tspan><tspan x="34.03174" y="0">4</tspan><tspan class="b0952d38-5bbd-42a9-a03f-f426dcde3913" x="40.9917" y="0"> </tspan><tspan class="082f258f-5d15-49c7-801b-5b16cffe1f29" x="44.34619" y="0">e</tspan><tspan x="50.56641" y="0">V</tspan></text><line class="6009435d-1cb7-4d03-b9d6-a8d42133f4e9" x1="105.79002" y1="102" x2="105.79002" y2="168"/><line class="6009435d-1cb7-4d03-b9d6-a8d42133f4e9" x1="159.79004" y1="102" x2="159.79004" y2="222.00002"/><line class="6009435d-1cb7-4d03-b9d6-a8d42133f4e9" x1="213.79004" y1="108" x2="213.79004" y2="264.00002"/><line class="6009435d-1cb7-4d03-b9d6-a8d42133f4e9" x1="273.79004" y1="138" x2="273.79004" y2="282.00002"/><line class="6009435d-1cb7-4d03-b9d6-a8d42133f4e9" x1="333.79004" y1="144" x2="333.79004" y2="300.00002"/><line class="6009435d-1cb7-4d03-b9d6-a8d42133f4e9" x1="399.79004" y1="114" x2="399.79004" y2="264.00002"/><text class="78b31d85-d3b2-4138-8493-2b14243e8e64" transform="translate(123.31006 149.09015)">2<tspan class="70b203b2-ab5f-43fc-82a5-dc5f8565af9e" x="6.95996" y="0">.</tspan><tspan x="10.5376" y="0">5</tspan><tspan class="082a8494-eb26-49ce-8c4e-d455b3a39c65" x="17.49756" y="0"> </tspan><tspan class="082f258f-5d15-49c7-801b-5b16cffe1f29" x="21.08887" y="0">e</tspan><tspan class="4df65cc8-09d8-4cdf-a53c-091de7422ba3" x="27.30908" y="0">V</tspan></text><text class="78b31d85-d3b2-4138-8493-2b14243e8e64" transform="translate(176.9502 173.11017)">3<tspan class="082a8494-eb26-49ce-8c4e-d455b3a39c65" x="6.95996" y="0">.</tspan><tspan x="10.55127" y="0">2</tspan><tspan class="082a8494-eb26-49ce-8c4e-d455b3a39c65" x="17.51123" y="0"> </tspan><tspan class="082f258f-5d15-49c7-801b-5b16cffe1f29" x="21.10254" y="0">e</tspan><tspan x="27.32275" y="0">V</tspan></text><text class="78b31d85-d3b2-4138-8493-2b14243e8e64" transform="translate(236.97021 203.11017)">3<tspan class="082a8494-eb26-49ce-8c4e-d455b3a39c65" x="6.95996" y="0">.</tspan><tspan x="10.55127" y="0">2</tspan><tspan class="082a8494-eb26-49ce-8c4e-d455b3a39c65" x="17.51123" y="0"> </tspan><tspan class="082f258f-5d15-49c7-801b-5b16cffe1f29" x="21.10254" y="0">e</tspan><tspan x="27.32275" y="0">V</tspan></text><text class="78b31d85-d3b2-4138-8493-2b14243e8e64" transform="translate(297.37988 233.14044)">3<tspan class="082a8494-eb26-49ce-8c4e-d455b3a39c65" x="6.95996" y="0">.</tspan><tspan x="10.55176" y="0">8</tspan><tspan class="fc4761ef-f8ed-40f8-97a7-c1ab17bf5f20" x="17.51172" y="0"> </tspan><tspan class="082f258f-5d15-49c7-801b-5b16cffe1f29" x="21.10254" y="0">e</tspan><tspan class="d7051026-401f-4dd4-9406-4eeea7d760ef" x="27.32324" y="0">V</tspan></text><text class="78b31d85-d3b2-4138-8493-2b14243e8e64" transform="translate(363.01953 227.14044)">3<tspan class="082a8494-eb26-49ce-8c4e-d455b3a39c65" x="6.95996" y="0">.</tspan><tspan x="10.55176" y="0">2</tspan><tspan class="fc4761ef-f8ed-40f8-97a7-c1ab17bf5f20" x="17.51172" y="0"> </tspan><tspan class="082f258f-5d15-49c7-801b-5b16cffe1f29" x="21.10254" y="0">e</tspan><tspan class="d7051026-401f-4dd4-9406-4eeea7d760ef" x="27.32324" y="0">V</tspan></text><text class="6a4a6774-4b3f-480e-a424-287de3234a1e" transform="translate(468.48047 109.44025)"><tspan class="f293621c-7842-4de1-b68c-67df832710c0">→</tspan><tspan x="13.92969" y="0"> </tspan></text><text class="6a4a6774-4b3f-480e-a424-287de3234a1e" transform="translate(486 109.44025)">2H</text><text class="a10ce5c6-1634-4881-a0b2-b771effbeae8" transform="translate(502.82031 105.11993)">+</text><text class="717496d7-03c4-4e95-a1e7-2dbc83a2541d" transform="translate(508.09961 109.44025)">/<tspan class="219a847b-3e97-489a-b460-931ced04449f" x="3.84668" y="0">H</tspan></text><text class="1f3ee384-8560-49f2-b339-4d0df16d576c" transform="translate(521.78027 113.53986)"><tspan class="78c1ba1f-cb95-4b57-901b-8b84575a03a8">2</tspan><tspan x="4.79199" y="0"> </tspan></text><line class="6f40b0d1-ce5c-4cb8-8d47-2f6e326e65f7" x1="453.67001" y1="71.88" x2="459.67001" y2="71.88"/><line class="6f40b0d1-ce5c-4cb8-8d47-2f6e326e65f7" x1="453.67001" y1="215.88" x2="459.67001" y2="215.88"/><line class="6f40b0d1-ce5c-4cb8-8d47-2f6e326e65f7" x1="453.67001" y1="167.88" x2="459.67001" y2="167.88"/><line class="6f40b0d1-ce5c-4cb8-8d47-2f6e326e65f7" x1="453.67001" y1="263.88" x2="459.67001" y2="263.88"/><line class="6f40b0d1-ce5c-4cb8-8d47-2f6e326e65f7" x1="453.67001" y1="311.88" x2="459.67001" y2="311.88"/><text class="78b31d85-d3b2-4138-8493-2b14243e8e64" transform="translate(429.42969 137.09015)">0</text><text class="78b31d85-d3b2-4138-8493-2b14243e8e64" transform="translate(421.82031 77.05988)">-</text><text class="78b31d85-d3b2-4138-8493-2b14243e8e64" transform="translate(426.37988 77.05988)">1<tspan class="289afc22-e099-4b03-8536-1f214a22dab4" x="6.95996" y="0">.</tspan><tspan x="10.53711" y="0">0</tspan></text><text class="78b31d85-d3b2-4138-8493-2b14243e8e64" transform="translate(420.13965 173.11017)"><tspan class="2e3066ea-e287-42c6-9afd-0561eb53f142">+</tspan><tspan x="7.90625" y="0">1</tspan><tspan class="fc4761ef-f8ed-40f8-97a7-c1ab17bf5f20" x="14.86621" y="0">.</tspan><tspan x="18.45703" y="0">0</tspan></text><text class="78b31d85-d3b2-4138-8493-2b14243e8e64" transform="translate(420.13965 221.14044)"><tspan class="2e3066ea-e287-42c6-9afd-0561eb53f142">+</tspan><tspan x="7.90625" y="0">2</tspan><tspan class="fc4761ef-f8ed-40f8-97a7-c1ab17bf5f20" x="14.86621" y="0">.</tspan><tspan x="18.45703" y="0">0</tspan></text><text class="6a4a6774-4b3f-480e-a424-287de3234a1e" transform="translate(420.13965 269.14044)"><tspan class="b90e4239-2823-407f-a705-f6d083de8e63">+</tspan><tspan class="77321710-f78f-420d-b1c1-69888bb5843c" x="7.90527" y="0">3</tspan><tspan class="b83ad55d-7a74-49b5-b517-d4c963e0df38" x="14.87793" y="0">.</tspan><tspan x="18.44727" y="0">0</tspan></text><text class="78b31d85-d3b2-4138-8493-2b14243e8e64" transform="translate(420.13965 317.15997)"><tspan class="2e3066ea-e287-42c6-9afd-0561eb53f142">+</tspan><tspan x="7.90625" y="0">4</tspan><tspan class="fc4761ef-f8ed-40f8-97a7-c1ab17bf5f20" x="14.86621" y="0">.</tspan><tspan x="18.45703" y="0">0</tspan></text><text class="78b31d85-d3b2-4138-8493-2b14243e8e64" transform="translate(468.5 191.11017)">→ </text><text class="78b31d85-d3b2-4138-8493-2b14243e8e64" transform="translate(486.01953 191.11017)"><tspan class="2c242170-7727-471f-ac07-11b0fe844e4e">C</tspan><tspan x="9.35449" y="0">l</tspan></text><text class="1f3ee384-8560-49f2-b339-4d0df16d576c" transform="translate(498.98047 195.19025)">2</text><text class="78b31d85-d3b2-4138-8493-2b14243e8e64" transform="translate(503.78027 191.11017)">/2<tspan class="9b12de1a-2e17-476e-81b0-01ef713a90a2" x="10.82715" y="0">C</tspan><tspan x="20.13965" y="0">l</tspan></text><text class="1f3ee384-8560-49f2-b339-4d0df16d576c" transform="translate(527.54004 186.78986)">-</text><text class="78b31d85-d3b2-4138-8493-2b14243e8e64" transform="translate(534.74023 191.11017)">(</text><text class="78b31d85-d3b2-4138-8493-2b14243e8e64" transform="translate(539.2998 191.11017)">1<tspan class="7711107c-a8ea-4190-8eb8-0bee3b863e43" x="6.95996" y="0">.</tspan><tspan x="10.5791" y="0">4</tspan><tspan class="9b12de1a-2e17-476e-81b0-01ef713a90a2" x="17.53906" y="0">0</tspan><tspan class="ec523907-b43c-4697-aa58-d3ac1fb9f9b4" x="24.52734" y="0">e</tspan><tspan class="c4628ea8-0aee-436e-96d4-8e5e50b8b77d" x="30.77539" y="0">V</tspan><tspan x="40.85547" y="0">)</tspan></text><text class="78b31d85-d3b2-4138-8493-2b14243e8e64" transform="translate(469.2002 221.14044)"><tspan class="0f88ec01-75ad-4ba0-95d7-98538bd67470">→</tspan><tspan x="13.93359" y="0"> </tspan></text><text class="78b31d85-d3b2-4138-8493-2b14243e8e64" transform="translate(486.74023 221.14044)">O</text><text class="1f3ee384-8560-49f2-b339-4d0df16d576c" transform="translate(496.82031 225.21954)">3</text><text class="78b31d85-d3b2-4138-8493-2b14243e8e64" transform="translate(501.62012 221.14044)"><tspan class="d73c016b-5640-4ea5-8159-8e0c794ad762">/</tspan><tspan x="3.85352" y="0">O</tspan></text><text class="1f3ee384-8560-49f2-b339-4d0df16d576c" transform="translate(515.54004 225.21954)">2</text><text class="78b31d85-d3b2-4138-8493-2b14243e8e64" transform="translate(520.33984 221.14044)">+</text><text class="78b31d85-d3b2-4138-8493-2b14243e8e64" transform="translate(528.25977 221.14044)">H</text><text class="1f3ee384-8560-49f2-b339-4d0df16d576c" transform="translate(538.09961 225.21954)">2</text><text class="78b31d85-d3b2-4138-8493-2b14243e8e64" transform="translate(542.90039 221.14044)"><tspan class="c4628ea8-0aee-436e-96d4-8e5e50b8b77d">O</tspan><tspan class="07c13682-e52d-4d0a-94d7-69edf308e43c" x="10.08008" y="0"> </tspan><tspan class="6a4370ba-e405-47c0-a8d4-54fbd98dbd6a" x="13.44922" y="0">(</tspan><tspan x="18.01465" y="0">2</tspan><tspan class="8b167ddb-3720-48b0-a56a-937080019086" x="24.97461" y="0">.</tspan><tspan x="28.58008" y="0">0</tspan><tspan class="9b12de1a-2e17-476e-81b0-01ef713a90a2" x="35.54004" y="0">7</tspan><tspan class="fc4761ef-f8ed-40f8-97a7-c1ab17bf5f20" x="42.52832" y="0"> </tspan><tspan class="082f258f-5d15-49c7-801b-5b16cffe1f29" x="46.11914" y="0">e</tspan><tspan class="c4628ea8-0aee-436e-96d4-8e5e50b8b77d" x="52.33984" y="0">V</tspan><tspan x="62.41992" y="0">)</tspan></text><text class="6a4a6774-4b3f-480e-a424-287de3234a1e" transform="translate(469.00977 263.14044)"><tspan class="f293621c-7842-4de1-b68c-67df832710c0">→</tspan><tspan x="13.92969" y="0"> </tspan></text><text class="6a4a6774-4b3f-480e-a424-287de3234a1e" transform="translate(486.53027 263.14044)">F</text><text class="a10ce5c6-1634-4881-a0b2-b771effbeae8" transform="translate(493.96973 267.21954)">2</text><text class="6a4a6774-4b3f-480e-a424-287de3234a1e" transform="translate(498.76953 263.14044)">/<tspan class="4d511ee5-ed2a-43b6-bb8b-7b1e0e900dc9" x="3.87402" y="0">2</tspan><tspan x="10.81836" y="0">F</tspan></text><text class="1f3ee384-8560-49f2-b339-4d0df16d576c" transform="translate(517.00977 258.82013)">-</text><text class="6a4a6774-4b3f-480e-a424-287de3234a1e" transform="translate(524.23047 263.14044)"><tspan class="d8579213-108b-4922-97f4-0aea01fdda62">(</tspan><tspan class="77321710-f78f-420d-b1c1-69888bb5843c" x="4.55957" y="0">2</tspan><tspan class="b83ad55d-7a74-49b5-b517-d4c963e0df38" x="11.53223" y="0">.</tspan><tspan x="15.10156" y="0">87</tspan><tspan class="7f99dd22-25d2-4142-8369-1a26aa43a0c2" x="29.0459" y="0"> </tspan><tspan class="b90e4239-2823-407f-a705-f6d083de8e63" x="32.60156" y="0">e</tspan><tspan x="38.83203" y="0">V)</tspan></text><text class="78b31d85-d3b2-4138-8493-2b14243e8e64" transform="translate(51.14014 23.03986)"><tspan class="eaf48d18-2116-4db2-8165-872c68a9132d">(</tspan><tspan x="4.56592" y="0">N</tspan><tspan class="e95f3548-6e2a-45ed-9e95-882a29e0c83f" x="14.61865" y="0">H</tspan><tspan class="900b05e7-2e6f-4a67-ba16-9697303f5665" x="24.49023" y="0">E</tspan><tspan x="32.89551" y="0">)</tspan></text></svg>