<svg xmlns="http://www.w3.org/2000/svg" viewBox="0 0 426.75995 149.44003"><defs><style>.a{fill:#fff;}.b{fill:none;stroke:#000;stroke-miterlimit:10;}.c{isolation:isolate;font-size:16px;font-family:FZHTK--GBK1-0, FZHei-B01;}</style></defs><title>ItEN-03-03</title><path class="a" d="M12.22.5H78.66A11.72,11.72,0,0,1,90.38,12.22V59.1A11.72,11.72,0,0,1,78.66,70.82H12.22A11.72,11.72,0,0,1,.5,59.1V12.22A11.72,11.72,0,0,1,12.22.5Z"/><path class="b" d="M12.22.5H78.66A11.72,11.72,0,0,1,90.38,12.22V59.1A11.72,11.72,0,0,1,78.66,70.82H12.22A11.72,11.72,0,0,1,.5,59.1V12.22A11.72,11.72,0,0,1,12.22.5Z"/><text class="c" transform="translate(29.43011 41.41022)">原料</text><path class="a" d="M143.14008.5h113.24A11.72,11.72,0,0,1,268.1,12.22V59.1a11.72,11.72,0,0,1-11.72,11.72h-113.24a11.72,11.72,0,0,1-11.72-11.72V12.22A11.72,11.72,0,0,1,143.14008.5Z"/><path class="b" d="M143.14008.5h113.24A11.72,11.72,0,0,1,268.1,12.22V59.1a11.72,11.72,0,0,1-11.72,11.72h-113.24a11.72,11.72,0,0,1-11.72-11.72V12.22A11.72,11.72,0,0,1,143.14008.5Z"/><text class="c" transform="translate(143.68988 41.41022)">气体或等离子体</text><path class="a" d="M320.8.5h93.74a11.72,11.72,0,0,1,11.72,11.72V59.1a11.72,11.72,0,0,1-11.72,11.72H320.8A11.72,11.72,0,0,1,309.08,59.1V12.22A11.72,11.72,0,0,1,320.8.5Z"/><path class="b" d="M320.8.5h93.74a11.72,11.72,0,0,1,11.72,11.72V59.1a11.72,11.72,0,0,1-11.72,11.72H320.8A11.72,11.72,0,0,1,309.08,59.1V12.22A11.72,11.72,0,0,1,320.8.5Z"/><text class="c" transform="translate(335.63031 41.41022)">纳米材料</text><path class="a" d="M24.9101,66.92h87.85v68.35a13.66964,13.66964,0,0,1-13.66931,13.67H11.24005V80.59A13.66966,13.66966,0,0,1,24.90936,66.92Z"/><path class="b" d="M24.9101,66.92h87.85v68.35a13.66964,13.66964,0,0,1-13.66931,13.67H11.24005V80.59A13.66966,13.66966,0,0,1,24.90936,66.92Z"/><text class="c" transform="translate(21.97015 94.40973)">真空蒸发加</text><text class="c" transform="translate(54.01019 113.67047)">热</text><text class="c" transform="translate(29.94965 132.86969)">高频感应</text><path class="a" d="M172.46,67.4H261.02v65.1a13.02089,13.02089,0,0,1-13.02,13.02H159.43988V80.42A13.021,13.021,0,0,1,172.46,67.4Z"/><path class="b" d="M172.46,67.4H261.02v65.1a13.02089,13.02089,0,0,1-13.02,13.02H159.43988V80.42A13.021,13.021,0,0,1,172.46,67.4Z"/><text class="c" transform="translate(194.18988 112.23004)">骤冷</text><polygon class="a" points="102.08 23.96 115.73 23.96 115.73 16.16 129.38 31.76 115.73 47.36 115.73 39.56 102.08 39.56 102.08 23.96"/><polygon class="b" points="102.08 23.96 115.73 23.96 115.73 16.16 129.38 31.76 115.73 47.36 115.73 39.56 102.08 39.56 102.08 23.96"/><polygon class="a" points="277.82 23.96 291.5 23.96 291.5 16.16 305.18 31.76 291.5 47.36 291.5 39.56 277.82 39.56 277.82 23.96"/><polygon class="b" points="277.82 23.96 291.5 23.96 291.5 16.16 305.18 31.76 291.5 47.36 291.5 39.56 277.82 39.56 277.82 23.96"/></svg>