<svg xmlns="http://www.w3.org/2000/svg" viewBox="0 0 290.56006 97.57277"><defs><style>.a{fill:#fff;}.b{fill:none;stroke:#000;stroke-miterlimit:10;}.c,.d{isolation:isolate;}.d{font-size:16px;font-family:FZHTK--GBK1-0, FZHei-B01;}</style></defs><title>ItEN-03-04</title><polygon class="a" points="34.04 15.476 177.88 15.476 177.88 1.206 225.5 48.786 177.88 96.366 177.88 82.096 34.04 82.096 34.04 15.476"/><polygon class="b" points="34.04 15.476 177.88 15.476 177.88 1.206 225.5 48.786 177.88 96.366 177.88 82.096 34.04 82.096 34.04 15.476"/><g class="c"><text class="d" transform="translate(97.73047 53.57628)">化学反</text><text class="d" transform="translate(145.83887 53.57628)">应</text></g><ellipse class="a" cx="35.63" cy="49.38647" rx="35.13" ry="34.44"/><ellipse class="b" cx="35.63" cy="49.38647" rx="35.13" ry="34.44"/><text class="d" transform="translate(19.58984 30.15636)">金属</text><text class="d" transform="translate(11.61035 54.15636)">化合物</text><text class="d" transform="translate(19.58984 78.15685)">蒸气</text><ellipse class="a" cx="275.03003" cy="48.45646" rx="6.98999" ry="4.65002"/><ellipse class="b" cx="275.03003" cy="48.45646" rx="6.98999" ry="4.65002"/><ellipse class="a" cx="254.09009" cy="49.11646" rx="35.96997" ry="33.99"/><ellipse class="b" cx="254.09009" cy="49.11646" rx="35.96997" ry="33.99"/><g class="c"><text class="d" transform="translate(222.03027 53.8966)">纳米材</text><text class="d" transform="translate(270.13867 53.8966)">料</text></g></svg>