<svg id="688936be-994d-4322-a940-2b263df73e01" data-name="c414f8f8-810a-49c0-91dd-e3d3dd5cc039" xmlns="http://www.w3.org/2000/svg" viewBox="0 0 548.76005 443.63996"><defs><style>.\39 a0f341e-e20d-41e7-aa06-245b149951c0,.e8926964-3524-4dc8-a48c-df0265d232f3{fill:none;stroke-linejoin:round;stroke-width:2.04px;}.e8926964-3524-4dc8-a48c-df0265d232f3{stroke:#24242e;}.\36 7b552ec-df7f-4a95-99a1-d74121ee356c{fill:#fff;}.\32 018d652-3531-4a1c-aa69-922b6f3737f3,.\34 6e3b28d-480e-48f2-8b1d-268568b5570e,.b60d806d-6214-454f-9104-948f6c254ec2{isolation:isolate;font-size:20px;font-family:FZHTK--GBK1-0, FZHei-B01;}.\32 018d652-3531-4a1c-aa69-922b6f3737f3,.b60d806d-6214-454f-9104-948f6c254ec2{fill:#292934;}.\32 018d652-3531-4a1c-aa69-922b6f3737f3{letter-spacing:-0.00098em;}.\39 a0f341e-e20d-41e7-aa06-245b149951c0{stroke:#1e1e27;}</style></defs><title>3.1</title><polyline class="e8926964-3524-4dc8-a48c-df0265d232f3" points="333.78 385.38 344.51 385.38 344.51 426.267 355.24 426.267"/><line class="e8926964-3524-4dc8-a48c-df0265d232f3" x1="333.78" y1="385.38" x2="355.24002" y2="385.38"/><polyline class="e8926964-3524-4dc8-a48c-df0265d232f3" points="333.78 385.347 344.51 385.347 344.51 344.46 355.24 344.46"/><polyline class="e8926964-3524-4dc8-a48c-df0265d232f3" points="162.42 283.14 173.15 283.14 173.15 385.357 183.88 385.357"/><polyline class="e8926964-3524-4dc8-a48c-df0265d232f3" points="333.78 283.14 344.51 283.14 344.51 303.58 355.24 303.58"/><polyline class="e8926964-3524-4dc8-a48c-df0265d232f3" points="333.78 283.06 344.51 283.06 344.51 262.62 355.24 262.62"/><line class="e8926964-3524-4dc8-a48c-df0265d232f3" x1="162.42001" y1="283.13998" x2="183.88" y2="283.13998"/><polyline class="e8926964-3524-4dc8-a48c-df0265d232f3" points="333.78 180.9 344.51 180.9 344.51 221.79 355.24 221.79"/><line class="e8926964-3524-4dc8-a48c-df0265d232f3" x1="333.78" y1="180.89996" x2="355.24002" y2="180.89996"/><polyline class="e8926964-3524-4dc8-a48c-df0265d232f3" points="333.78 180.87 344.51 180.87 344.51 139.98 355.24 139.98"/><polyline class="e8926964-3524-4dc8-a48c-df0265d232f3" points="162.42 283.12 173.15 283.12 173.15 180.9 183.88 180.9"/><polyline class="e8926964-3524-4dc8-a48c-df0265d232f3" points="162.42 58.26 173.15 58.26 173.15 99.15 183.88 99.15"/><line class="e8926964-3524-4dc8-a48c-df0265d232f3" x1="162.42001" y1="58.25999" x2="183.88" y2="58.25999"/><polyline class="e8926964-3524-4dc8-a48c-df0265d232f3" points="162.42 58.23 173.15 58.23 173.15 17.34 183.88 17.34"/><path class="67b552ec-df7f-4a95-99a1-d74121ee356c" d="M6.46,84.66H28.22a5.44,5.44,0,0,1,5.44,5.44h0V251.3a5.44,5.44,0,0,1-5.44,5.44H6.46a5.44,5.44,0,0,1-5.44-5.44h0V90.1a5.44,5.44,0,0,1,5.44-5.44Z"/><path class="e8926964-3524-4dc8-a48c-df0265d232f3" d="M6.46,84.66H28.22a5.44,5.44,0,0,1,5.44,5.44h0V251.3a5.44,5.44,0,0,1-5.44,5.44H6.46a5.44,5.44,0,0,1-5.44-5.44h0V90.1a5.44,5.44,0,0,1,5.44-5.44Z"/><text class="b60d806d-6214-454f-9104-948f6c254ec2" transform="translate(22.90027 210.83984) rotate(-90)">制备方法</text><path class="67b552ec-df7f-4a95-99a1-d74121ee356c" d="M60.58,41.94h96.4a5.44,5.44,0,0,1,5.44,5.44h0V69.14a5.44,5.44,0,0,1-5.44,5.44H60.58a5.44,5.44,0,0,1-5.44-5.44h0V47.38a5.44,5.44,0,0,1,5.44-5.44Z"/><path class="e8926964-3524-4dc8-a48c-df0265d232f3" d="M60.58,41.94h96.4a5.44,5.44,0,0,1,5.44,5.44h0V69.14a5.44,5.44,0,0,1-5.44,5.44H60.58a5.44,5.44,0,0,1-5.44-5.44h0V47.38a5.44,5.44,0,0,1,5.44-5.44Z"/><text class="b60d806d-6214-454f-9104-948f6c254ec2" transform="translate(68.63983 63.82021)">制备状态</text><path class="67b552ec-df7f-4a95-99a1-d74121ee356c" d="M189.34,1.02H371.06a5.44,5.44,0,0,1,5.44,5.44h0V28.22a5.44,5.44,0,0,1-5.44,5.44H189.34a5.44,5.44,0,0,1-5.44-5.44h0V6.46a5.44,5.44,0,0,1,5.44-5.44Z"/><path class="e8926964-3524-4dc8-a48c-df0265d232f3" d="M189.34,1.02H371.06a5.44,5.44,0,0,1,5.44,5.44h0V28.22a5.44,5.44,0,0,1-5.44,5.44H189.34a5.44,5.44,0,0,1-5.44-5.44h0V6.46a5.44,5.44,0,0,1,5.44-5.44Z"/><text class="b60d806d-6214-454f-9104-948f6c254ec2" transform="translate(240.11981 22.91982)">气相制备</text><rect class="67b552ec-df7f-4a95-99a1-d74121ee356c" x="183.89999" y="41.93998" width="192.60001" height="32.64001" rx="5.44" ry="5.44"/><rect class="e8926964-3524-4dc8-a48c-df0265d232f3" x="183.89999" y="41.93998" width="192.60001" height="32.64001" rx="5.44" ry="5.44"/><text class="b60d806d-6214-454f-9104-948f6c254ec2" transform="translate(240.11981 63.82021)">液相制备</text><path class="67b552ec-df7f-4a95-99a1-d74121ee356c" d="M189.36,82.74H371.04a5.46,5.46,0,0,1,5.46,5.46v21.84a5.46,5.46,0,0,1-5.46,5.46H189.36a5.46,5.46,0,0,1-5.46-5.46h0V88.2a5.46,5.46,0,0,1,5.46-5.46Z"/><path class="e8926964-3524-4dc8-a48c-df0265d232f3" d="M189.36,82.74H371.04a5.46,5.46,0,0,1,5.46,5.46v21.84a5.46,5.46,0,0,1-5.46,5.46H189.36a5.46,5.46,0,0,1-5.46-5.46h0V88.2a5.46,5.46,0,0,1,5.46-5.46Z"/><text class="b60d806d-6214-454f-9104-948f6c254ec2" transform="translate(240.11981 104.70985)">固相制备</text><path class="67b552ec-df7f-4a95-99a1-d74121ee356c" d="M60.58,266.82h96.4a5.44,5.44,0,0,1,5.44,5.44h0v21.76a5.44,5.44,0,0,1-5.44,5.44H60.58a5.44,5.44,0,0,1-5.44-5.44h0V272.26a5.44,5.44,0,0,1,5.44-5.44Z"/><path class="e8926964-3524-4dc8-a48c-df0265d232f3" d="M60.58,266.82h96.4a5.44,5.44,0,0,1,5.44,5.44h0v21.76a5.44,5.44,0,0,1-5.44,5.44H60.58a5.44,5.44,0,0,1-5.44-5.44h0V272.26a5.44,5.44,0,0,1,5.44-5.44Z"/><text class="46e3b28d-480e-48f2-8b1d-268568b5570e" transform="translate(68.63983 288.72009)">变化形式</text><rect class="67b552ec-df7f-4a95-99a1-d74121ee356c" x="183.89999" y="164.58" width="149.88" height="32.63998" rx="5.44" ry="5.44"/><rect class="e8926964-3524-4dc8-a48c-df0265d232f3" x="183.89999" y="164.58" width="149.88" height="32.63998" rx="5.44" ry="5.44"/><text class="46e3b28d-480e-48f2-8b1d-268568b5570e" transform="translate(218.63983 186.47987)">化学方法</text><path class="67b552ec-df7f-4a95-99a1-d74121ee356c" d="M360.6,123.66H542.28a5.46,5.46,0,0,1,5.46,5.46v21.84a5.46,5.46,0,0,1-5.46,5.46H360.6a5.46,5.46,0,0,1-5.46-5.46V129.12A5.46,5.46,0,0,1,360.6,123.66Z"/><path class="e8926964-3524-4dc8-a48c-df0265d232f3" d="M360.6,123.66H542.28a5.46,5.46,0,0,1,5.46,5.46v21.84a5.46,5.46,0,0,1-5.46,5.46H360.6a5.46,5.46,0,0,1-5.46-5.46V129.12A5.46,5.46,0,0,1,360.6,123.66Z"/><text class="b60d806d-6214-454f-9104-948f6c254ec2" transform="translate(381.31024 145.60976)">化学气相沉积法</text><rect class="67b552ec-df7f-4a95-99a1-d74121ee356c" x="355.14001" y="164.58" width="192.59998" height="32.63998" rx="5.44" ry="5.44"/><rect class="e8926964-3524-4dc8-a48c-df0265d232f3" x="355.14001" y="164.58" width="192.59998" height="32.63998" rx="5.44" ry="5.44"/><text class="2018d652-3531-4a1c-aa69-922b6f3737f3" transform="translate(401.35028 186.47987)">水热合成法</text><path class="67b552ec-df7f-4a95-99a1-d74121ee356c" d="M360.6,205.38H542.28a5.46,5.46,0,0,1,5.46,5.46v21.84a5.46,5.46,0,0,1-5.46,5.46H360.6a5.46,5.46,0,0,1-5.46-5.46V210.84A5.46,5.46,0,0,1,360.6,205.38Z"/><path class="e8926964-3524-4dc8-a48c-df0265d232f3" d="M360.6,205.38H542.28a5.46,5.46,0,0,1,5.46,5.46v21.84a5.46,5.46,0,0,1-5.46,5.46H360.6a5.46,5.46,0,0,1-5.46-5.46V210.84A5.46,5.46,0,0,1,360.6,205.38Z"/><text class="2018d652-3531-4a1c-aa69-922b6f3737f3" transform="translate(401.35028 227.38026)">化学沉淀法</text><rect class="67b552ec-df7f-4a95-99a1-d74121ee356c" x="183.89999" y="266.81998" width="149.88" height="32.63998" rx="5.44" ry="5.44"/><rect class="e8926964-3524-4dc8-a48c-df0265d232f3" x="183.89999" y="266.81998" width="149.88" height="32.63998" rx="5.44" ry="5.44"/><text class="46e3b28d-480e-48f2-8b1d-268568b5570e" transform="translate(218.63983 288.72009)">物理方法</text><path class="67b552ec-df7f-4a95-99a1-d74121ee356c" d="M360.6,246.3H542.28a5.46,5.46,0,0,1,5.46,5.46V273.6a5.46,5.46,0,0,1-5.46,5.46H360.6a5.46,5.46,0,0,1-5.46-5.46V251.76A5.46,5.46,0,0,1,360.6,246.3Z"/><path class="e8926964-3524-4dc8-a48c-df0265d232f3" d="M360.6,246.3H542.28a5.46,5.46,0,0,1,5.46,5.46V273.6a5.46,5.46,0,0,1-5.46,5.46H360.6a5.46,5.46,0,0,1-5.46-5.46V251.76A5.46,5.46,0,0,1,360.6,246.3Z"/><text class="2018d652-3531-4a1c-aa69-922b6f3737f3" transform="translate(401.35028 268.2699)">物理粉碎法</text><rect class="67b552ec-df7f-4a95-99a1-d74121ee356c" x="355.14001" y="287.21997" width="192.59998" height="32.64001" rx="5.44" ry="5.44"/><rect class="e8926964-3524-4dc8-a48c-df0265d232f3" x="355.14001" y="287.21997" width="192.59998" height="32.64001" rx="5.44" ry="5.44"/><text class="2018d652-3531-4a1c-aa69-922b6f3737f3" transform="translate(381.31024 309.17029)">物理气相沉积法</text><path class="67b552ec-df7f-4a95-99a1-d74121ee356c" d="M189.36,368.94H328.32a5.46,5.46,0,0,1,5.46,5.46v21.84a5.46,5.46,0,0,1-5.46,5.46H189.36a5.46,5.46,0,0,1-5.46-5.46V374.4A5.46,5.46,0,0,1,189.36,368.94Z"/><path class="e8926964-3524-4dc8-a48c-df0265d232f3" d="M189.36,368.94H328.32a5.46,5.46,0,0,1,5.46,5.46v21.84a5.46,5.46,0,0,1-5.46,5.46H189.36a5.46,5.46,0,0,1-5.46-5.46V374.4A5.46,5.46,0,0,1,189.36,368.94Z"/><text class="b60d806d-6214-454f-9104-948f6c254ec2" transform="translate(218.63983 390.96033)">物化方法</text><rect class="67b552ec-df7f-4a95-99a1-d74121ee356c" x="355.14001" y="328.13998" width="192.59998" height="32.64001" rx="5.44" ry="5.44"/><rect class="e8926964-3524-4dc8-a48c-df0265d232f3" x="355.14001" y="328.13998" width="192.59998" height="32.64001" rx="5.44" ry="5.44"/><text class="b60d806d-6214-454f-9104-948f6c254ec2" transform="translate(397.98993 350.05994)">溶胶-凝胶法</text><path class="67b552ec-df7f-4a95-99a1-d74121ee356c" d="M360.6,368.94H542.28a5.46,5.46,0,0,1,5.46,5.46h0v21.84a5.46,5.46,0,0,1-5.46,5.46H360.6a5.46,5.46,0,0,1-5.46-5.46V374.4A5.46,5.46,0,0,1,360.6,368.94Z"/><path class="e8926964-3524-4dc8-a48c-df0265d232f3" d="M360.6,368.94H542.28a5.46,5.46,0,0,1,5.46,5.46h0v21.84a5.46,5.46,0,0,1-5.46,5.46H360.6a5.46,5.46,0,0,1-5.46-5.46V374.4A5.46,5.46,0,0,1,360.6,368.94Z"/><text class="b60d806d-6214-454f-9104-948f6c254ec2" transform="translate(411.43036 390.96033)">微乳液法</text><path class="67b552ec-df7f-4a95-99a1-d74121ee356c" d="M360.6,409.86H542.28a5.46,5.46,0,0,1,5.46,5.46h0v21.84a5.46,5.46,0,0,1-5.46,5.46H360.6a5.46,5.46,0,0,1-5.46-5.46V415.32a5.46,5.46,0,0,1,5.46-5.46Z"/><path class="e8926964-3524-4dc8-a48c-df0265d232f3" d="M360.6,409.86H542.28a5.46,5.46,0,0,1,5.46,5.46h0v21.84a5.46,5.46,0,0,1-5.46,5.46H360.6a5.46,5.46,0,0,1-5.46-5.46V415.32a5.46,5.46,0,0,1,5.46-5.46Z"/><text class="b60d806d-6214-454f-9104-948f6c254ec2" transform="translate(421.39032 431.85583)">模板法</text><polyline class="9a0f341e-e20d-41e7-aa06-245b149951c0" points="33.66 170.7 44.39 170.7 44.39 283.14 55.12 283.14"/><polyline class="9a0f341e-e20d-41e7-aa06-245b149951c0" points="33.66 170.7 44.39 170.7 44.39 58.26 55.12 58.26"/></svg>