<svg xmlns="http://www.w3.org/2000/svg" viewBox="0 0 412.72021 160.70063"><defs><style>.a{fill:#fff;}.b{fill:none;stroke:#000;stroke-miterlimit:10;}.c,.d,.e{isolation:isolate;}.c,.d{font-size:16px;}.c{font-family:FZHTK--GBK1-0, FZHei-B01;}.d,.e{font-family:ArialMT, Arial;}.e{font-size:10.7px;}</style></defs><title>ItEN-03-05</title><path class="a" d="M9.52,34.02708h91.34009a9.01994,9.01994,0,0,1,9.02,9.02v72.2a9.02,9.02,0,0,1-9.02,9.02H9.52a9.01994,9.01994,0,0,1-9.02-9.02v-72.2a9.02,9.02,0,0,1,9.02-9.02Z"/><path class="b" d="M9.52,34.02708h91.34009a9.01994,9.01994,0,0,1,9.02,9.02v72.2a9.02,9.02,0,0,1-9.02,9.02H9.52a9.01994,9.01994,0,0,1-9.02-9.02v-72.2a9.02,9.02,0,0,1,9.02-9.02Z"/><text class="c" transform="translate(39.12988 50.27692)">混合</text><path class="a" d="M95.46,146.90708l2.05-1.97c18.15991,17.02,47.86011,16.46,66.34009-1.26a46.30231,46.30231,0,0,0,10-13.97l-1.81006-.5,5-3.7,1.3999,5.46-1.81006-.5c-10.90991,24.27-40.21,36.05-65.41992,26.32A48.207,48.207,0,0,1,95.46,146.90708Z"/><path class="b" d="M95.46,146.90708l2.05-1.97c18.15991,17.02,47.86011,16.46,66.34009-1.26a46.30231,46.30231,0,0,0,10-13.97l-1.81006-.5,5-3.7,1.3999,5.46-1.81006-.5c-10.90991,24.27-40.21,36.05-65.41992,26.32A48.207,48.207,0,0,1,95.46,146.90708Z"/><path class="a" d="M28.67017,104.88708h89.52a3.86989,3.86989,0,0,1,3.87011,3.86988v30.96012a3.87,3.87,0,0,1-3.87011,3.87h-89.52a3.86988,3.86988,0,0,1-3.87012-3.86988V108.75708a3.87,3.87,0,0,1,3.87012-3.87Z"/><path class="b" d="M28.67017,104.88708h89.52a3.86989,3.86989,0,0,1,3.87011,3.86988v30.96012a3.87,3.87,0,0,1-3.87011,3.87h-89.52a3.86988,3.86988,0,0,1-3.87012-3.86988V108.75708a3.87,3.87,0,0,1,3.87012-3.87Z"/><text class="c" transform="translate(49.38965 129.03669)">盐溶液</text><path class="a" d="M142.1001,43.04707a9.02423,9.02423,0,0,1,9.02832-9.02H256.67017a9.02417,9.02417,0,0,1,9.03,9.01833v72.20169a9.02408,9.02408,0,0,1-9.02832,9.02H151.13013a9.0242,9.0242,0,0,1-9.03-9.01837V43.04707Z"/><path class="b" d="M142.1001,43.04707a9.02423,9.02423,0,0,1,9.02832-9.02H256.67017a9.02417,9.02417,0,0,1,9.03,9.01833v72.20169a9.02408,9.02408,0,0,1-9.02832,9.02H151.13013a9.0242,9.0242,0,0,1-9.03-9.01837V43.04707Z"/><text class="c" transform="translate(179.88965 97.39704)">沉淀剂</text><text class="d" transform="translate(166.69043 117.73689)">OH</text><text class="e" transform="translate(190.75 112.93708)">-</text><text class="d" transform="translate(194.29004 117.73689)">,</text><text class="d" transform="translate(201.66992 117.73689)">CO</text><text class="e" transform="translate(225.73047 121.69685)">3</text><text class="e" transform="translate(231.66992 112.93708)">2</text><text class="e" transform="translate(237.61035 112.93708)">-</text><path class="a" d="M244.40015,14.29707c19.37988-18.55,51.62988-18.37,72.03.39a50.02211,50.02211,0,0,1,11.24,15.1l1.63989-.49-1.12012,5.03-4.66992-3.31,1.63989-.49c-11.3-22.95-40.07007-33.61-64.28-23.82a46.55506,46.55506,0,0,0-14.57007,9.34Z"/><path class="b" d="M244.40015,14.29707c19.37988-18.55,51.62988-18.37,72.03.39a50.02211,50.02211,0,0,1,11.24,15.1l1.63989-.49-1.12012,5.03-4.66992-3.31,1.63989-.49c-11.3-22.95-40.07007-33.61-64.28-23.82a46.55506,46.55506,0,0,0-14.57007,9.34Z"/><path class="a" d="M170.81006,14.64707H273.47a3.86989,3.86989,0,0,1,3.87012,3.86988V49.47707a3.87,3.87,0,0,1-3.87012,3.87H170.81006a3.8699,3.8699,0,0,1-3.87012-3.86989V18.51707a3.87,3.87,0,0,1,3.87012-3.87Z"/><path class="b" d="M170.81006,14.64707H273.47a3.86989,3.86989,0,0,1,3.87012,3.86988V49.47707a3.87,3.87,0,0,1-3.87012,3.87H170.81006a3.8699,3.8699,0,0,1-3.87012-3.86989V18.51707a3.87,3.87,0,0,1,3.87012-3.87Z"/><text class="c" transform="translate(198.08984 38.79694)">沉淀物</text><path class="a" d="M306.46,34.02708h91.34009a9.01994,9.01994,0,0,1,9.02,9.02v72.2a9.02,9.02,0,0,1-9.02,9.02H306.46a9.01994,9.01994,0,0,1-9.02-9.02v-72.2a9.02,9.02,0,0,1,9.02-9.02Z"/><path class="b" d="M306.46,34.02708h91.34009a9.01994,9.01994,0,0,1,9.02,9.02v72.2a9.02,9.02,0,0,1-9.02,9.02H306.46a9.01994,9.01994,0,0,1-9.02-9.02v-72.2a9.02,9.02,0,0,1,9.02-9.02Z"/><text class="c" transform="translate(328.12988 50.27692)">热处理</text><text class="c" transform="translate(320.08984 70.43708)">离心分离</text><text class="c" transform="translate(328.12988 90.59724)">膜分离</text><path class="a" d="M318.83008,104.64709h89.52a3.86989,3.86989,0,0,1,3.87011,3.86988v30.96012a3.87,3.87,0,0,1-3.87011,3.87h-89.52A3.86989,3.86989,0,0,1,314.96,139.4772V108.51709a3.87,3.87,0,0,1,3.87012-3.87Z"/><path class="b" d="M318.83008,104.64709h89.52a3.86989,3.86989,0,0,1,3.87011,3.86988v30.96012a3.87,3.87,0,0,1-3.87011,3.87h-89.52A3.86989,3.86989,0,0,1,314.96,139.4772V108.51709a3.87,3.87,0,0,1,3.87012-3.87Z"/><text class="c" transform="translate(331.5498 128.77692)">纳米材料</text></svg>