<svg xmlns="http://www.w3.org/2000/svg" viewBox="0 0 567.63965 89.97991"><defs><style>.a{fill:#fff;}.b{fill:none;stroke:#000;stroke-miterlimit:10;}.c,.d{isolation:isolate;font-size:16px;}.c{font-family:FZHTK--GBK1-0, FZHei-B01;}.d{font-family:ArialMT, Arial;}</style></defs><title>ItEN-03-08</title><polygon class="a" points="0.5 89.39 0.5 0.59 107.36 18.35 107.36 71.63 0.5 89.39"/><polygon class="b" points="0.5 89.39 0.5 0.59 107.36 18.35 107.36 71.63 0.5 89.39"/><text class="c" transform="translate(6.04932 37.77985)">溶剂</text><text class="d" transform="translate(38.08936 37.77985)">1 +</text><text class="c" transform="translate(60.77002 37.77985)">溶剂</text><text class="d" transform="translate(92.80908 37.77985)">2</text><text class="d" transform="translate(4.84912 61.78034)">•</text><text class="c" transform="matrix(0.94869, 0, -0.3162, 0.94869, 22.84984, 61.78117)">表面活性剂</text><polygon class="a" points="115.34 89.39 115.34 0.59 222.2 18.35 222.2 71.63 115.34 89.39"/><polygon class="b" points="115.34 89.39 115.34 0.59 222.2 18.35 222.2 71.63 115.34 89.39"/><text class="c" transform="translate(152.72998 49.77985)">乳液</text><polygon class="a" points="230.24 89.39 230.24 0.59 337.1 18.35 337.1 71.63 230.24 89.39"/><polygon class="b" points="230.24 89.39 230.24 0.59 337.1 18.35 337.1 71.63 230.24 89.39"/><text class="c" transform="translate(267.60986 49.77985)">成核</text><polygon class="a" points="460.28 89.39 460.28 0.59 567.14 18.35 567.14 71.63 460.28 89.39"/><polygon class="b" points="460.28 89.39 460.28 0.59 567.14 18.35 567.14 71.63 460.28 89.39"/><text class="c" transform="translate(481.6499 49.77985)">纳米材料</text><polygon class="a" points="345.44 89.39 345.44 0.59 452.3 18.35 452.3 71.63 345.44 89.39"/><polygon class="b" points="345.44 89.39 345.44 0.59 452.3 18.35 452.3 71.63 345.44 89.39"/><text class="c" transform="translate(382.80908 37.77985)">团聚</text><text class="d" transform="translate(365.80908 61.78034)">•</text><text class="c" transform="matrix(0.94869, 0, -0.3162, 0.94869, 383.83129, 61.78117)">热处理</text></svg>