<svg id="图层_1" data-name="图层 1" xmlns="http://www.w3.org/2000/svg" viewBox="0 0 330.33577 166.67548"><defs><style>.cls-1,.cls-3{font-size:18px;}.cls-1,.cls-3,.cls-4{font-family:FZHTK--GBK1-0, FZHei-B01;}.cls-2{fill:none;stroke:#000;stroke-miterlimit:10;stroke-width:1px;}.cls-3{fill:#fff;}.cls-4{font-size:14px;}</style></defs><title>ItEN-02-02</title><text class="cls-1" transform="translate(0 15.36572)">能量</text><path d="M20.97576,30.9455l-3-6-3,6Zm-2.5,135.73V29.9455h-1v136.73Z"/><text class="cls-1" transform="translate(28.34375 72.08545)">导带</text><text class="cls-1" transform="translate(28.34375 128.76563)">价带</text><rect class="cls-2" x="103.05576" y="53.26547" width="56.64" height="28.44"/><text class="cls-1" transform="translate(122.396 72.08545)">空</text><rect x="103.05576" y="110.02548" width="56.64" height="28.32"/><rect class="cls-2" x="103.05576" y="110.02548" width="56.64" height="28.32"/><text class="cls-3" transform="translate(122.396 128.76563)">满</text><text class="cls-1" transform="translate(113.396 100.42529)">禁带</text><text class="cls-4" transform="translate(110.27588 156.17529)">绝缘体</text><rect class="cls-2" x="188.13576" y="81.70547" width="56.64" height="28.32"/><text class="cls-1" transform="translate(207.45557 100.42529)">空</text><rect x="188.13576" y="110.02548" width="56.64" height="28.32"/><rect class="cls-2" x="188.13576" y="110.02548" width="56.64" height="28.32"/><text class="cls-3" transform="translate(207.45557 128.76563)">满</text><text class="cls-4" transform="translate(202.41553 156.17529)">导体</text><rect class="cls-2" x="273.09576" y="67.54547" width="56.76" height="28.32"/><text class="cls-1" transform="translate(292.48584 86.24561)">空</text><rect x="273.09576" y="110.02548" width="56.76" height="28.32"/><rect class="cls-2" x="273.09576" y="110.02548" width="56.76" height="28.32"/><text class="cls-3" transform="translate(292.48584 128.76563)">满</text><text class="cls-4" transform="translate(280.36572 156.17529)">半导体</text></svg>