<svg xmlns="http://www.w3.org/2000/svg" viewBox="0 0 290.5603 97.57279"><defs><style>.a{fill:#fff;}.b{fill:none;stroke:#000;stroke-miterlimit:10;}.c,.d{isolation:isolate;}.d{font-size:16px;font-family:FZHTK--GBK1-0, FZHei-B01;}</style></defs><title>ItEN-03-06</title><polygon class="a" points="34.04 15.476 177.88 15.476 177.88 1.206 225.5 48.786 177.88 96.366 177.88 82.096 34.04 82.096 34.04 15.476"/><polygon class="b" points="34.04 15.476 177.88 15.476 177.88 1.206 225.5 48.786 177.88 96.366 177.88 82.096 34.04 82.096 34.04 15.476"/><g class="c"><text class="d" transform="translate(97.73047 29.57629)">高温高</text><text class="d" transform="translate(145.83887 29.57629)">压</text></g><text class="d" transform="translate(113.76953 53.57629)">分离</text><text class="d" transform="translate(105.73047 77.57678)">热处理</text><ellipse class="a" cx="35.62988" cy="49.38647" rx="35.12988" ry="34.44"/><ellipse class="b" cx="35.62988" cy="49.38647" rx="35.12988" ry="34.44"/><text class="d" transform="translate(11.61035 42.15637)">水溶液</text><text class="d" transform="translate(19.58984 66.15686)">蒸汽</text><ellipse class="a" cx="275.03003" cy="48.45647" rx="6.99023" ry="4.65002"/><ellipse class="b" cx="275.03003" cy="48.45647" rx="6.99023" ry="4.65002"/><ellipse class="a" cx="254.09009" cy="49.11647" rx="35.97021" ry="33.99"/><ellipse class="b" cx="254.09009" cy="49.11647" rx="35.97021" ry="33.99"/><g class="c"><text class="d" transform="translate(222.03003 53.8966)">纳米材</text><text class="d" transform="translate(270.13843 53.8966)">料</text></g></svg>