<svg xmlns="http://www.w3.org/2000/svg" viewBox="0 0 290.56001 97.57278"><defs><style>.a{fill:#fff;}.b{fill:none;stroke:#000;stroke-miterlimit:10;}.c,.d{isolation:isolate;}.d{font-size:16px;font-family:FZHTK--GBK1-0, FZHei-B01;}</style></defs><title>ItEN-03-02</title><polygon class="a" points="34.04 15.476 177.88 15.476 177.88 1.206 225.5 48.786 177.88 96.366 177.88 82.096 34.04 82.096 34.04 15.476"/><polygon class="b" points="34.04 15.476 177.88 15.476 177.88 1.206 225.5 48.786 177.88 96.366 177.88 82.096 34.04 82.096 34.04 15.476"/><g class="c"><text class="d" transform="translate(97.73048 53.57629)">机械粉</text><text class="d" transform="translate(145.83888 53.57629)">碎</text></g><ellipse class="a" cx="35.63" cy="49.38647" rx="35.13" ry="34.44"/><ellipse class="b" cx="35.63" cy="49.38647" rx="35.13" ry="34.44"/><text class="d" transform="translate(19.58986 54.15636)">原料</text><ellipse class="a" cx="275.03001" cy="48.45647" rx="6.99002" ry="4.65002"/><ellipse class="b" cx="275.03001" cy="48.45647" rx="6.99002" ry="4.65002"/><ellipse class="a" cx="254.09001" cy="49.11646" rx="35.97" ry="33.99"/><ellipse class="b" cx="254.09001" cy="49.11646" rx="35.97" ry="33.99"/><g class="c"><text class="d" transform="translate(222.03028 53.8966)">纳米材</text><text class="d" transform="translate(270.13868 53.8966)">料</text></g></svg>