<svg xmlns="http://www.w3.org/2000/svg" xmlns:xlink="http://www.w3.org/1999/xlink" viewBox="0 0 451.22461 435.59589"><defs><style>.a{fill:#e18700;stroke-width:0.625px;}.a,.b,.c,.d,.e,.f,.g,.j,.k,.m,.o{stroke:#000;}.b{fill:#b3d1ff;stroke-width:0.08519px;}.c{stroke-width:0.08725px;fill:url(#a);}.d{stroke-width:0.10008px;fill:url(#b);}.e{stroke-width:0.15868px;fill:url(#c);}.f,.j,.m,.o,.p{fill:none;}.g{stroke-width:0.34801px;fill:url(#d);}.h,.i,.l,.n{isolation:isolate;}.i,.q{font-size:12px;}.i,.l,.n{font-family:ArialMT, Arial;}.j{stroke-width:3px;}.k{fill:#ddd;stroke-width:1.36014px;}.l,.n{font-size:18.0491px;}.l{letter-spacing:-0.05516em;}.m{stroke-width:0.76166px;}.o{stroke-width:1.67045px;}.q{font-family:FZHTK--GBK1-0, FZHei-B01;}</style><radialGradient id="a" cx="2524.67719" cy="6850.86697" r="24.81124" gradientTransform="matrix(-0.00158, 0.01335, 0.02542, 0.003, 204.39127, 322.98456)" gradientUnits="userSpaceOnUse"><stop offset="0" stop-color="#040"/><stop offset="1" stop-color="#76ff78"/></radialGradient><radialGradient id="b" cx="112.27775" cy="-345.78403" r="24.81124" gradientTransform="matrix(12.63601, 0.00004, 0.00003, -12.48353, -1044.18171, -3939.33402)" gradientUnits="userSpaceOnUse"><stop offset="0"/><stop offset="1" stop-color="#00fd2a"/></radialGradient><radialGradient id="c" cx="120.80537" cy="-348.28403" r="24.82808" gradientTransform="matrix(7.87755, -0.00001, -0.00001, -7.87755, -577.10447, -2366.3521)" gradientUnits="userSpaceOnUse"><stop offset="0" stop-color="#cd6500"/><stop offset="1" stop-color="#ffb027"/></radialGradient><radialGradient id="d" cx="147.82294" cy="-356.36856" r="24.92274" gradientTransform="matrix(3.59185, -0.00001, -0.00001, -3.59186, -156.4105, -902.74869)" gradientUnits="userSpaceOnUse"><stop offset="0" stop-color="#f0fd00"/><stop offset="1" stop-color="#ff2c2c"/></radialGradient></defs><title>ItS-04-01 3</title><path class="a" d="M4.99432,376.961C13.15652,272.527,48.62238,171.30561,145.68311,135.696c9.6224-3.53025,68.062-29.24772,78.14718-35.02386,37.17252-21.29,39.54849-87.42379,150.40671-88.4176V376.961Z"/><path class="b" d="M65.47388,193.54744A359.10166,359.10166,0,0,1,307.50661,24.11063L374.20013,376.9641Z"/><path class="c" d="M35.674,376.9605c1.67014-32.1595-1.26551-56.22359,2.54347-79.47316,4.05513-24.75139,6.349-37.32952,15.31987-58.53906s13.947-41.365,26.69064-60.22756A355.60082,355.60082,0,0,1,236.22553,50.26025a351.87245,351.87245,0,0,1,66.5551-20.66c23.08124-4.72319,46.97942,2.7964,71.45689,2.7964V376.96006Z"/><path class="d" d="M65.13116,376.961c0-170.71471,138.39173-309.10681,309.10663-309.10681h0V376.961Z"/><path class="e" d="M179.27761,376.96072c0-107.673,87.28627-194.95951,194.95939-194.95951h0V376.96072Z"/><path class="f" d="M179.65225,377.19809v43.31885"/><path class="f" d="M285.65225,377.19809v43.31885"/><path class="g" d="M285.34441,376.961a88.89347,88.89347,0,0,1,88.89339-88.89345h0V376.961Z"/><g class="h"><text class="i" transform="translate(26.02307 431.69925)">35</text></g><g class="h"><text class="i" transform="translate(53.85742 431.61264)">700</text></g><path class="f" d="M65.08085,377.19809v43.31885"/><g class="h"><text class="i" transform="translate(167.85742 431.61264)">2885</text></g><g class="h"><text class="i" transform="translate(269.85742 431.61264)">5155</text></g><path class="f" d="M35.08084,377.19809v43.31885"/><g class="h"><text class="i" transform="translate(0.00024 431.61264)">0</text></g><path class="f" d="M5.08084,377.19809v43.31885"/><path class="f" d="M374.15735,377.19809v43.31885"/><g class="h"><text class="i" transform="translate(347.85742 431.61264)">6371 km</text></g><path class="j" d="M35.67393,376.599c1.67005-32.1596-1.26554-56.22345,2.54354-79.473,4.05505-24.75122,6.34887-37.32934,15.31978-58.53906s13.947-41.36485,26.69054-60.22772"/><path class="k" d="M49.13883,355.08731a12.25423,12.25423,0,0,1-24.5084.05129v-.05129a12.25423,12.25423,0,0,1,24.5084-.05129Z"/><g class="h"><text class="l" transform="translate(30.77612 361.51737)">A</text></g><path class="m" d="M179.27761,376.96072a194.95906,194.95906,0,0,1,28.49445-101.48187"/><path class="k" d="M192.55661,355.08731a12.25422,12.25422,0,0,1-24.50839.05129v-.05129a12.25422,12.25422,0,1,1,24.50839-.05129Z"/><g class="h"><text class="n" transform="translate(174.19385 361.51737)">B</text></g><path class="o" d="M285.34441,376.961a88.89342,88.89342,0,0,1,18.2353-53.93959"/><path class="k" d="M300.556,355.08731a12.25422,12.25422,0,0,1-24.50839.05129v-.05129A12.25422,12.25422,0,1,1,300.556,355.036Z"/><g class="h"><text class="n" transform="translate(281.18359 361.51737)">C</text></g><path class="p"/><path d="M388.15287,39.17189l2.352-6.3961,2.352,6.3961A4.00162,4.00162,0,0,0,388.15287,39.17189Z"/><path d="M392.87563,175.406l-2.352,6.3961-2.352-6.3961A4.00162,4.00162,0,0,0,392.87563,175.406Z"/><path d="M390.51425,177.58287"/><path class="p"/><path d="M388.09462,189.33852l2.41063-6.55553,2.41064,6.55553A4.10137,4.10137,0,0,0,388.09462,189.33852Z"/><path d="M392.9351,281.53936l-2.41063,6.55553-2.41063-6.55553A4.10137,4.10137,0,0,0,392.9351,281.53936Z"/><path d="M390.51486,283.77051"/><path class="p"/><path d="M388.09462,295.25838l2.41063-6.55553,2.41064,6.55553A4.10139,4.10139,0,0,0,388.09462,295.25838Z"/><path d="M392.9351,371.96218l-2.41063,6.55553-2.41063-6.55553A4.10137,4.10137,0,0,0,392.9351,371.96218Z"/><path d="M390.51486,374.19333"/><path class="p"/><path d="M388.19945,16.671l2.20561-5.998,2.2056,5.998A3.75256,3.75256,0,0,0,388.19945,16.671Z"/><path d="M392.62824,26.70414l-2.2056,5.998-2.2056-5.998A3.75254,3.75254,0,0,0,392.62824,26.70414Z"/><path d="M390.41385,28.74553"/><path class="k" d="M369.40866,12.93429A12.2542,12.2542,0,1,1,357.15447.68007,12.25423,12.25423,0,0,1,369.40866,12.93429Z"/><g class="h"><text class="n" transform="translate(351.0459 19.36435)">1</text></g><path class="k" d="M280.2706,34.23021a12.25422,12.25422,0,0,1-24.50839.0513v-.0513a12.25422,12.25422,0,1,1,24.50839-.05129Z"/><g class="h"><text class="n" transform="translate(261.90771 40.66028)">2</text></g><path class="k" d="M369.40866,46.93428a12.25422,12.25422,0,0,1-24.50839.05129v-.05129a12.25422,12.25422,0,1,1,24.50839-.05129Z"/><g class="h"><text class="n" transform="translate(351.0459 53.36432)">3</text></g><path class="k" d="M369.40866,132.93428a12.25422,12.25422,0,0,1-24.50839.05129v-.05129a12.25422,12.25422,0,1,1,24.50839-.05129Z"/><g class="h"><text class="n" transform="translate(351.0459 139.36432)">4</text></g><path class="k" d="M369.40866,244.93431a12.25422,12.25422,0,0,1-24.50839.05129v-.05129a12.25422,12.25422,0,1,1,24.50839-.05129Z"/><g class="h"><text class="n" transform="translate(351.0459 251.36437)">5</text></g><path class="k" d="M369.40866,334.93431a12.25422,12.25422,0,0,1-24.50839.05129v-.05129a12.25422,12.25422,0,1,1,24.50839-.05129Z"/><g class="h"><text class="n" transform="translate(351.0459 341.36437)">6</text></g><g class="h"><text class="i" transform="translate(401.20288 113.41449)">2885 km</text></g><g class="h"><text class="i" transform="translate(401.20288 243.41452)">2270 km</text></g><g class="h"><text class="i" transform="translate(401.20288 339.41459)">1216 km</text></g><g class="h"><text class="i" transform="translate(401.20288 25.41449)">30-65 km</text></g><text class="q" transform="translate(11.99976 22.24119)">1：大陆地壳<tspan x="0" y="14.3999">2：海洋地壳</tspan><tspan x="0" y="28.80029">3：上地幔</tspan><tspan x="0" y="43.2002">4：下地幔</tspan><tspan x="0" y="57.6001">5：外核</tspan><tspan x="0" y="72">6：内核</tspan><tspan x="0" y="86.3999">A：莫霍面</tspan><tspan x="0" y="100.80029">B：古登堡面</tspan><tspan x="0" y="115.19971">C：莱曼面</tspan></text></svg>