<svg id="fe303b95-df2b-4f32-9482-4e75da6334da" data-name="图层 1" xmlns="http://www.w3.org/2000/svg" viewBox="0 0 303.23999 213.95999"><defs><style>.\37 0a9174d-1832-4434-a79d-68213dbf1a92{fill:#c30;}.\32 3110944-1d0c-4921-9389-4ab206fcbabe,.ac479470-a6a9-43a0-83f4-86e19f2c0910,.e56d2514-0eec-47a7-b2ed-63d206741646{fill:none;stroke:#000;stroke-linejoin:round;}.\34 1b4a1ba-82d9-4201-bdd6-06ca284a37b1,.dacd91f9-362d-4456-869d-8f637238a008{font-size:18px;}.\32 c5a211c-590a-4d3f-86d3-fcc890cea94d,.\33 f8b533d-40c7-43f2-add7-3893b3cb4b97,.\34 1b4a1ba-82d9-4201-bdd6-06ca284a37b1{font-family:TimesNewRomanPS-ItalicMT, Times New Roman;font-style:italic;}.\31 867a0a7-e4fc-4832-ae1e-e39f220304a1,.\32 c5a211c-590a-4d3f-86d3-fcc890cea94d{font-size:12px;}.\31 867a0a7-e4fc-4832-ae1e-e39f220304a1,.\38 2b4ae6f-3035-4cbe-ab32-058bbc4074de,.dacd91f9-362d-4456-869d-8f637238a008{font-family:TimesNewRomanPSMT, Times New Roman;}.\33 f8b533d-40c7-43f2-add7-3893b3cb4b97,.\38 2b4ae6f-3035-4cbe-ab32-058bbc4074de{font-size:18.024px;}.\32 3110944-1d0c-4921-9389-4ab206fcbabe{stroke-width:2.04px;}.ac479470-a6a9-43a0-83f4-86e19f2c0910{stroke-width:0.96px;}</style></defs><title>ItS-HW-02</title><path class="70a9174d-1832-4434-a79d-68213dbf1a92" d="M148.97,132.19l.85,6.65-5.84-3.31ZM74.52,25.76l72.93,108.65-.83.56L73.68,26.32Z"/><path class="70a9174d-1832-4434-a79d-68213dbf1a92" d="M240.86,169.71l4.6,4.89-6.67.75Zm-90.87-30.74,90.95,33.44-.35.93-90.94-33.43Z"/><path class="e56d2514-0eec-47a7-b2ed-63d206741646" d="M124.17,102.06c5.89-9.9,17.57-13.8,26.09-8.73"/><text class="41b4a1ba-82d9-4201-bdd6-06ca284a37b1" transform="translate(13.56995 157.90012)">v</text><text class="1867a0a7-e4fc-4832-ae1e-e39f220304a1" transform="translate(21.60999 162.33957)">2</text><text class="41b4a1ba-82d9-4201-bdd6-06ca284a37b1" transform="translate(13.56995 120.11984)">v</text><text class="1867a0a7-e4fc-4832-ae1e-e39f220304a1" transform="translate(21.60999 124.55978)">1</text><path class="e56d2514-0eec-47a7-b2ed-63d206741646" d="M170.42,152.63c-2.27,5.28-10.81,8.11-20.11,6.65h-.03"/><path class="70a9174d-1832-4434-a79d-68213dbf1a92" d="M189.5,43.51l-.68-6.67-4.93,4.55Zm-2.92-2.17-37.11,97.92.94.36,37.11-97.93Z"/><path class="e56d2514-0eec-47a7-b2ed-63d206741646" d="M151.5,68.57c6.52-4.7,16.5-1.97,22.29,6.08"/><path class="70a9174d-1832-4434-a79d-68213dbf1a92" d="M229.49,187.64l3.37,5.8-6.66-.79Zm-79.52-49.22,78.98,51.86-.54.83-78.98-51.85Z"/><path class="e56d2514-0eec-47a7-b2ed-63d206741646" d="M184.65,151.07a31.63456,31.63456,0,0,1-35.13,21.41h-.05"/><text class="dacd91f9-362d-4456-869d-8f637238a008" transform="translate(49.35999 16.82004)">P</text><text class="1867a0a7-e4fc-4832-ae1e-e39f220304a1" transform="translate(59.31995 21.25998)">1</text><text class="dacd91f9-362d-4456-869d-8f637238a008" transform="translate(192.10999 33.07004)">S</text><text class="1867a0a7-e4fc-4832-ae1e-e39f220304a1" transform="translate(202.06995 37.50998)">1</text><text class="dacd91f9-362d-4456-869d-8f637238a008" transform="translate(248.75012 172.44016)">P</text><text class="1867a0a7-e4fc-4832-ae1e-e39f220304a1" transform="translate(258.71008 176.87961)">2</text><text class="82b4ae6f-3035-4cbe-ab32-058bbc4074de" transform="translate(237.04016 202.5798)">S</text><text class="1867a0a7-e4fc-4832-ae1e-e39f220304a1" transform="translate(247.00012 207.04953)">2</text><line class="23110944-1d0c-4921-9389-4ab206fcbabe" y1="139.5" x2="303.23999" y2="139.5"/><line class="ac479470-a6a9-43a0-83f4-86e19f2c0910" x1="149.94" x2="149.94" y2="213.95999"/><text class="41b4a1ba-82d9-4201-bdd6-06ca284a37b1" transform="translate(169.88 184.62961)">θ</text><text class="2c5a211c-590a-4d3f-86d3-fcc890cea94d" transform="translate(178.75989 189.07004)">α</text><text class="1867a0a7-e4fc-4832-ae1e-e39f220304a1" transform="translate(185.00012 189.07004)">2</text><text class="41b4a1ba-82d9-4201-bdd6-06ca284a37b1" transform="translate(122.87024 84.17014)">θ</text><text class="2c5a211c-590a-4d3f-86d3-fcc890cea94d" transform="translate(131.75012 88.61008)">α</text><text class="1867a0a7-e4fc-4832-ae1e-e39f220304a1" transform="translate(137.98987 88.61008)">1</text><text class="3f8b533d-40c7-43f2-add7-3893b3cb4b97" transform="translate(152.0802 58.55978)">θ</text><text class="2c5a211c-590a-4d3f-86d3-fcc890cea94d" transform="translate(160.96008 63.02023)">β</text><text class="1867a0a7-e4fc-4832-ae1e-e39f220304a1" transform="translate(166.96008 63.02023)">1</text><text class="41b4a1ba-82d9-4201-bdd6-06ca284a37b1" transform="translate(125.81995 158.87961)">θ</text><text class="2c5a211c-590a-4d3f-86d3-fcc890cea94d" transform="translate(134.69983 163.32004)">β</text><text class="1867a0a7-e4fc-4832-ae1e-e39f220304a1" transform="translate(140.69983 163.32004)">2</text></svg>