<svg id="15c7d933-6075-45f2-9dae-ef2df3358799" data-name="图层 1" xmlns="http://www.w3.org/2000/svg" viewBox="0 0 410.60997 145.31998"><defs><style>.\30 3d662fe-0971-416b-a8d6-cda9edb0c392,.\34 8e989b2-659d-4d7b-928d-6ad845c5bcb4,.\34 fca3d7d-3db8-48f2-b23a-ea3a3ac2bb72{fill:none;stroke:#000;stroke-linecap:round;stroke-linejoin:round;}.\34 8e989b2-659d-4d7b-928d-6ad845c5bcb4{stroke-width:0.96px;}.\30 3d662fe-0971-416b-a8d6-cda9edb0c392{stroke-width:0.48px;}.\32 5158116-2885-4f8e-9788-e1f1efe2f03d{fill-rule:evenodd;}.\34 fca3d7d-3db8-48f2-b23a-ea3a3ac2bb72{stroke-width:0.06px;}</style></defs><title>第10章习题-1</title><line class="48e989b2-659d-4d7b-928d-6ad845c5bcb4" x1="22.89" y1="22.89" x2="22.89" y2="135.98999"/><line class="48e989b2-659d-4d7b-928d-6ad845c5bcb4" x1="22.89" y1="22.89" x2="393.38999" y2="22.89"/><line class="48e989b2-659d-4d7b-928d-6ad845c5bcb4" x1="164.31" y1="22.89" x2="164.31" y2="135.98999"/><line class="48e989b2-659d-4d7b-928d-6ad845c5bcb4" x1="22.89" y1="135.98999" x2="164.31" y2="135.98999"/><polyline class="48e989b2-659d-4d7b-928d-6ad845c5bcb4" points="376.41 22.89 376.41 51.15 164.31 135.99"/><line class="48e989b2-659d-4d7b-928d-6ad845c5bcb4" x1="393.39002" y1="22.88999" x2="376.41" y2="51.14998"/><line class="03d662fe-0971-416b-a8d6-cda9edb0c392" x1="11.55" y1="22.89" x2="11.55" y2="135.98999"/><polyline class="25158116-2885-4f8e-9788-e1f1efe2f03d" points="11.55 22.89 12.99 34.17 10.11 34.17 11.55 22.89"/><polyline class="25158116-2885-4f8e-9788-e1f1efe2f03d" points="11.55 135.99 12.99 124.71 10.11 124.71 11.55 135.99"/><line class="03d662fe-0971-416b-a8d6-cda9edb0c392" x1="22.89" y1="22.89" x2="5.91" y2="22.89"/><line class="03d662fe-0971-416b-a8d6-cda9edb0c392" x1="22.89" y1="135.98999" x2="5.91" y2="135.98999"/><path d="M5.88,86.88H1.44l4.44,1.74V86.88M.12,86.4H5.88v-.54h.84v.54H9.3v.48H6.72v2.04H5.76L.12,86.64Z" transform="translate(-0.09 -0.09001)"/><polygon class="4fca3d7d-3db8-48f2-b23a-ea3a3ac2bb72" points="0.03 86.31 5.79 86.31 5.79 85.77 6.63 85.77 6.63 86.31 9.21 86.31 9.21 86.79 6.63 86.79 6.63 88.83 5.67 88.83 0.03 86.55 0.03 86.31"/><polygon class="4fca3d7d-3db8-48f2-b23a-ea3a3ac2bb72" points="5.79 86.79 1.35 86.79 5.79 88.53 5.79 86.79"/><path d="M3.84,76.8c-.18,0-.3.06-.3.24h-.3v-1.5h.3a.89173.89173,0,0,0,.48.84L5.7,77.52l2.7-1.44c.36-.18.54-.36.54-.6H9.3v1.56H8.94c0-.24-.12-.36-.42-.24L5.94,78.06h2.7c.24-.06.3-.24.3-.66H9.3v1.74H8.94a.47811.47811,0,0,0-.42-.54H1.86c-.42,0-.66.06-.66.18a.64335.64335,0,0,0,.12.36h-.3a3.58427,3.58427,0,0,0-.9-1.08H5.88L3.84,76.8" transform="translate(-0.09 -0.09001)"/><path class="4fca3d7d-3db8-48f2-b23a-ea3a3ac2bb72" d="M3.84,76.8c-.18,0-.3.06-.3.24h-.3v-1.5h.3a.89173.89173,0,0,0,.48.84L5.7,77.52l2.7-1.44c.36-.18.54-.36.54-.6H9.3v1.56H8.94c0-.24-.12-.36-.42-.24L5.94,78.06h2.7c.24-.06.3-.24.3-.66H9.3v1.74H8.94a.47811.47811,0,0,0-.42-.54H1.86c-.42,0-.66.06-.66.18a.64335.64335,0,0,0,.12.36h-.3a3.58427,3.58427,0,0,0-.9-1.08H5.88Z" transform="translate(-0.09 -0.09001)"/><path d="M4.02,73.38a2.1312,2.1312,0,0,0,.54.24H8.4q.54-.09.54-.36H9.3V74.4H8.94c0-.12-.12-.18-.48-.3H4.8c-.42,0-.66.06-.66.18l.12.12h-.3a2.35417,2.35417,0,0,0-.9-.78h.96a6.32683,6.32683,0,0,1-.78-.48.68127.68127,0,0,1-.18-.48q0-.27.36-.36a1.661,1.661,0,0,1,.78-.18,9.07142,9.07142,0,0,1-.96-.54.68127.68127,0,0,1-.18-.48c0-.18.12-.3.42-.42a2.67933,2.67933,0,0,1,1.44-.24H8.46c.36,0,.48-.12.48-.36H9.3v1.26H8.94c0-.18-.12-.3-.48-.36H4.98a3.56689,3.56689,0,0,0-1.02.12.40519.40519,0,0,0-.24.36.38026.38026,0,0,0,.3.36,1.79024,1.79024,0,0,0,.96.18h3.6a.3182.3182,0,0,0,.36-.36H9.3V72.9H8.94q0-.27-.36-.36H4.98a4.62924,4.62924,0,0,0-.9.12q-.36.09-.36.36a.38032.38032,0,0,0,.3.36" transform="translate(-0.09 -0.09001)"/><path class="4fca3d7d-3db8-48f2-b23a-ea3a3ac2bb72" d="M4.02,73.38a2.1312,2.1312,0,0,0,.54.24H8.4q.54-.09.54-.36H9.3V74.4H8.94c0-.12-.12-.18-.48-.3H4.8c-.42,0-.66.06-.66.18l.12.12h-.3a2.35417,2.35417,0,0,0-.9-.78h.96a6.32683,6.32683,0,0,1-.78-.48.68127.68127,0,0,1-.18-.48q0-.27.36-.36a1.661,1.661,0,0,1,.78-.18,9.07142,9.07142,0,0,1-.96-.54.68127.68127,0,0,1-.18-.48c0-.18.12-.3.42-.42a2.67933,2.67933,0,0,1,1.44-.24H8.46c.36,0,.48-.12.48-.36H9.3v1.26H8.94c0-.18-.12-.3-.48-.36H4.98a3.56689,3.56689,0,0,0-1.02.12.40519.40519,0,0,0-.24.36.38026.38026,0,0,0,.3.36,1.79024,1.79024,0,0,0,.96.18h3.6a.3182.3182,0,0,0,.36-.36H9.3V72.9H8.94q0-.27-.36-.36H4.98a4.62924,4.62924,0,0,0-.9.12q-.36.09-.36.36A.38032.38032,0,0,0,4.02,73.38Z" transform="translate(-0.09 -0.09001)"/><line class="03d662fe-0971-416b-a8d6-cda9edb0c392" x1="22.89" y1="11.54999" x2="164.31" y2="11.54999"/><polyline class="25158116-2885-4f8e-9788-e1f1efe2f03d" points="22.89 11.55 34.17 10.17 34.17 12.99 22.89 11.55"/><polyline class="25158116-2885-4f8e-9788-e1f1efe2f03d" points="164.31 11.55 152.97 10.17 152.97 12.99 164.31 11.55"/><line class="03d662fe-0971-416b-a8d6-cda9edb0c392" x1="22.89" y1="5.90999" x2="22.89" y2="22.88999"/><line class="03d662fe-0971-416b-a8d6-cda9edb0c392" x1="164.31" y1="5.90999" x2="164.31" y2="22.88999"/><path d="M79.98,8.46h1.44a1.41294,1.41294,0,0,0,.6-.78h.24L81.9,9.3H79.2V8.94c1.02-2.04,1.62-3.36,1.86-4.02A7.11039,7.11039,0,0,0,81.36,3a5.1143,5.1143,0,0,0-.18-1.5c-.12-.42-.3-.6-.66-.6a.6881.6881,0,0,0-.66.54,7.01989,7.01989,0,0,0-.3,1.2h-.18A5.05207,5.05207,0,0,1,79.74.72,1.11677,1.11677,0,0,1,80.4.18a1.22724,1.22724,0,0,1,.66,0,1.25582,1.25582,0,0,1,.6.72,3.67313,3.67313,0,0,1,.36,1.8,6.29526,6.29526,0,0,1-.54,2.46,23.4961,23.4961,0,0,1-1.5,3.3" transform="translate(-0.09 -0.09001)"/><path class="4fca3d7d-3db8-48f2-b23a-ea3a3ac2bb72" d="M79.98,8.46h1.44a1.41294,1.41294,0,0,0,.6-.78h.24L81.9,9.3H79.2V8.94c1.02-2.04,1.62-3.36,1.86-4.02A7.11039,7.11039,0,0,0,81.36,3a5.1143,5.1143,0,0,0-.18-1.5c-.12-.42-.3-.6-.66-.6a.6881.6881,0,0,0-.66.54,7.01989,7.01989,0,0,0-.3,1.2h-.18A5.05207,5.05207,0,0,1,79.74.72,1.11677,1.11677,0,0,1,80.4.18a1.22724,1.22724,0,0,1,.66,0,1.25582,1.25582,0,0,1,.6.72,3.67313,3.67313,0,0,1,.36,1.8,6.29526,6.29526,0,0,1-.54,2.46A23.4961,23.4961,0,0,1,79.98,8.46Z" transform="translate(-0.09 -0.09001)"/><path d="M85.32,7.86c.12.66.3,1.02.42,1.08a.365.365,0,0,0,.48,0c.12-.06.24-.42.42-1.08a17.786,17.786,0,0,0,.18-3.06,19.98291,19.98291,0,0,0-.18-3.18C86.46.9,86.28.54,85.98.54s-.54.36-.66,1.08a19.98412,19.98412,0,0,0-.18,3.18,17.78708,17.78708,0,0,0,.18,3.06M87.06,1.5a9.57114,9.57114,0,0,1,.42,3.3,9.145,9.145,0,0,1-.42,3.42q-.36,1.26-1.08,1.26T84.9,8.22a10.584,10.584,0,0,1-.42-3.42,9.57061,9.57061,0,0,1,.42-3.3c.24-.78.48-1.2.72-1.32a1.46274,1.46274,0,0,1,.72,0A2.65734,2.65734,0,0,1,87.06,1.5Z" transform="translate(-0.09 -0.09001)"/><path class="4fca3d7d-3db8-48f2-b23a-ea3a3ac2bb72" d="M87.06,1.5a9.57114,9.57114,0,0,1,.42,3.3,9.145,9.145,0,0,1-.42,3.42q-.36,1.26-1.08,1.26T84.9,8.22a10.584,10.584,0,0,1-.42-3.42,9.57061,9.57061,0,0,1,.42-3.3c.24-.78.48-1.2.72-1.32a1.46274,1.46274,0,0,1,.72,0A2.65734,2.65734,0,0,1,87.06,1.5Z" transform="translate(-0.09 -0.09001)"/><path class="4fca3d7d-3db8-48f2-b23a-ea3a3ac2bb72" d="M85.32,7.86c.12.66.3,1.02.42,1.08a.365.365,0,0,0,.48,0c.12-.06.24-.42.42-1.08a17.7873,17.7873,0,0,0,.18-3.06,19.98421,19.98421,0,0,0-.18-3.18C86.46.9,86.28.54,85.98.54s-.54.36-.66,1.08a19.983,19.983,0,0,0-.18,3.18A17.78626,17.78626,0,0,0,85.32,7.86Z" transform="translate(-0.09 -0.09001)"/><path d="M90.36,7.86c.12.66.3,1.02.42,1.08a.365.365,0,0,0,.48,0c.12-.06.24-.42.42-1.08a17.78631,17.78631,0,0,0,.18-3.06,19.9832,19.9832,0,0,0-.18-3.18C91.5.9,91.32.54,91.02.54s-.54.36-.66,1.08a19.98562,19.98562,0,0,0-.18,3.18,17.7884,17.7884,0,0,0,.18,3.06M92.1,1.5a9.57085,9.57085,0,0,1,.42,3.3,9.145,9.145,0,0,1-.42,3.42q-.36,1.26-1.08,1.26T89.94,8.22a10.584,10.584,0,0,1-.42-3.42,9.57065,9.57065,0,0,1,.42-3.3c.24-.78.48-1.2.72-1.32a1.46274,1.46274,0,0,1,.72,0A2.65744,2.65744,0,0,1,92.1,1.5Z" transform="translate(-0.09 -0.09001)"/><path class="4fca3d7d-3db8-48f2-b23a-ea3a3ac2bb72" d="M92.1,1.5a9.57085,9.57085,0,0,1,.42,3.3,9.145,9.145,0,0,1-.42,3.42q-.36,1.26-1.08,1.26T89.94,8.22a10.584,10.584,0,0,1-.42-3.42,9.57065,9.57065,0,0,1,.42-3.3c.24-.78.48-1.2.72-1.32a1.46274,1.46274,0,0,1,.72,0A2.65744,2.65744,0,0,1,92.1,1.5Z" transform="translate(-0.09 -0.09001)"/><path class="4fca3d7d-3db8-48f2-b23a-ea3a3ac2bb72" d="M90.36,7.86c.12.66.3,1.02.42,1.08a.365.365,0,0,0,.48,0c.12-.06.24-.42.42-1.08a17.78862,17.78862,0,0,0,.18-3.06,19.98571,19.98571,0,0,0-.18-3.18C91.5.9,91.32.54,91.02.54s-.54.36-.66,1.08a19.98328,19.98328,0,0,0-.18,3.18A17.78653,17.78653,0,0,0,90.36,7.86Z" transform="translate(-0.09 -0.09001)"/><path d="M101.4,3.84c0-.18-.06-.24-.24-.3v-.3h1.5v.3a1.01018,1.01018,0,0,0-.84.48L100.74,5.7l1.38,2.7c.18.36.36.54.6.54V9.3h-1.56V8.94c.24,0,.36-.12.24-.42L100.14,6V8.64c.06.24.3.3.66.3V9.3H99.06V8.94a.47811.47811,0,0,0,.54-.42V1.86c0-.42-.06-.66-.18-.66a.8529.8529,0,0,0-.36.12v-.3a3.584,3.584,0,0,0,1.08-.9V5.88l1.26-2.04" transform="translate(-0.09 -0.09001)"/><path class="4fca3d7d-3db8-48f2-b23a-ea3a3ac2bb72" d="M101.4,3.84c0-.18-.06-.24-.24-.3v-.3h1.5v.3a1.01018,1.01018,0,0,0-.84.48L100.74,5.7l1.38,2.7c.18.36.36.54.6.54V9.3h-1.56V8.94c.24,0,.36-.12.24-.42L100.14,6V8.64c.06.24.3.3.66.3V9.3H99.06V8.94a.47811.47811,0,0,0,.54-.42V1.86c0-.42-.06-.66-.18-.66a.8529.8529,0,0,0-.36.12v-.3a3.584,3.584,0,0,0,1.08-.9V5.88Z" transform="translate(-0.09 -0.09001)"/><path d="M104.76,4.02a.96768.96768,0,0,0-.18.54v3.9c0,.36.12.48.3.48V9.3h-1.14V8.94c.12,0,.18-.12.3-.48V4.8c0-.42-.06-.66-.18-.66l-.12.12v-.3a3.081,3.081,0,0,0,.84-.9v.96a3.02742,3.02742,0,0,1,.42-.78.68135.68135,0,0,1,.48-.18c.18,0,.3.12.42.36a3.03987,3.03987,0,0,1,.12.78,9.07569,9.07569,0,0,1,.54-.96.68136.68136,0,0,1,.48-.18c.18,0,.3.12.48.42a3.7446,3.7446,0,0,1,.18,1.44V8.46c.06.36.18.48.36.48V9.3h-1.2V8.94c.12,0,.24-.12.3-.48V5.04a3.74863,3.74863,0,0,0-.12-1.08.40516.40516,0,0,0-.36-.24.38026.38026,0,0,0-.36.3,2.67447,2.67447,0,0,0-.18.96v3.6a.31821.31821,0,0,0,.36.36V9.3h-1.26V8.94q.27,0,.36-.36V5.04a4.6623,4.6623,0,0,0-.12-.96q-.09-.36-.36-.36a.38026.38026,0,0,0-.36.3" transform="translate(-0.09 -0.09001)"/><path class="4fca3d7d-3db8-48f2-b23a-ea3a3ac2bb72" d="M104.76,4.02a.96768.96768,0,0,0-.18.54v3.9c0,.36.12.48.3.48V9.3h-1.14V8.94c.12,0,.18-.12.3-.48V4.8c0-.42-.06-.66-.18-.66l-.12.12v-.3a3.081,3.081,0,0,0,.84-.9v.96a3.02742,3.02742,0,0,1,.42-.78.68135.68135,0,0,1,.48-.18c.18,0,.3.12.42.36a3.03987,3.03987,0,0,1,.12.78,9.07569,9.07569,0,0,1,.54-.96.68136.68136,0,0,1,.48-.18c.18,0,.3.12.48.42a3.7446,3.7446,0,0,1,.18,1.44V8.46c.06.36.18.48.36.48V9.3h-1.2V8.94c.12,0,.24-.12.3-.48V5.04a3.74863,3.74863,0,0,0-.12-1.08.40516.40516,0,0,0-.36-.24.38026.38026,0,0,0-.36.3,2.67447,2.67447,0,0,0-.18.96v3.6a.31821.31821,0,0,0,.36.36V9.3h-1.26V8.94q.27,0,.36-.36V5.04a4.6623,4.6623,0,0,0-.12-.96q-.09-.36-.36-.36A.38026.38026,0,0,0,104.76,4.02Z" transform="translate(-0.09 -0.09001)"/><line class="03d662fe-0971-416b-a8d6-cda9edb0c392" x1="359.48999" y1="11.54999" x2="410.36997" y2="11.54999"/><polyline class="25158116-2885-4f8e-9788-e1f1efe2f03d" points="376.41 11.55 365.13 10.17 365.13 12.99 376.41 11.55"/><polyline class="25158116-2885-4f8e-9788-e1f1efe2f03d" points="393.389 11.55 404.729 10.17 404.729 12.99 393.389 11.55"/><line class="03d662fe-0971-416b-a8d6-cda9edb0c392" x1="376.41" y1="5.90999" x2="376.41" y2="22.88999"/><line class="03d662fe-0971-416b-a8d6-cda9edb0c392" x1="393.39002" y1="5.90999" x2="393.39002" y2="22.88999"/><path d="M373.38,2.16a3.57419,3.57419,0,0,1,.3-1.32,1.3108,1.3108,0,0,1,.6-.66,1.02266,1.02266,0,0,1,.6,0,1.54176,1.54176,0,0,1,.6.54,3.213,3.213,0,0,1,.3,1.44,3.82512,3.82512,0,0,1-.72,2.04,2.24265,2.24265,0,0,1,.78.9,5.12251,5.12251,0,0,1,.24,1.62,3.37276,3.37276,0,0,1-.66,1.92,1.59366,1.59366,0,0,1-1.2.84.85686.85686,0,0,1-.78-.3,1.07789,1.07789,0,0,1-.24-.54.86726.86726,0,0,1,.12-.42.33.33,0,0,1,.3-.18.38776.38776,0,0,1,.3.12,1.5214,1.5214,0,0,1,.24.72,1.22141,1.22141,0,0,0,1.14-.6,3.70528,3.70528,0,0,0,.3-1.5,2.4856,2.4856,0,0,0-.36-1.38,1.34622,1.34622,0,0,0-1.14-.6V4.5c.3,0,.54-.24.84-.6a2.62981,2.62981,0,0,0,.36-1.38,2.951,2.951,0,0,0-.18-1.2c-.18-.3-.36-.42-.6-.42a.63188.63188,0,0,0-.6.24,2.58157,2.58157,0,0,0-.3,1.02h-.24" transform="translate(-0.09 -0.09001)"/><path class="4fca3d7d-3db8-48f2-b23a-ea3a3ac2bb72" d="M373.38,2.16a3.57419,3.57419,0,0,1,.3-1.32,1.3108,1.3108,0,0,1,.6-.66,1.02266,1.02266,0,0,1,.6,0,1.54176,1.54176,0,0,1,.6.54,3.213,3.213,0,0,1,.3,1.44,3.82512,3.82512,0,0,1-.72,2.04,2.24265,2.24265,0,0,1,.78.9,5.12251,5.12251,0,0,1,.24,1.62,3.37276,3.37276,0,0,1-.66,1.92,1.59366,1.59366,0,0,1-1.2.84.85686.85686,0,0,1-.78-.3,1.07789,1.07789,0,0,1-.24-.54.86726.86726,0,0,1,.12-.42.33.33,0,0,1,.3-.18.38776.38776,0,0,1,.3.12,1.5214,1.5214,0,0,1,.24.72,1.22141,1.22141,0,0,0,1.14-.6,3.70528,3.70528,0,0,0,.3-1.5,2.4856,2.4856,0,0,0-.36-1.38,1.34622,1.34622,0,0,0-1.14-.6V4.5c.3,0,.54-.24.84-.6a2.62981,2.62981,0,0,0,.36-1.38,2.951,2.951,0,0,0-.18-1.2c-.18-.3-.36-.42-.6-.42a.63188.63188,0,0,0-.6.24,2.58157,2.58157,0,0,0-.3,1.02Z" transform="translate(-0.09 -0.09001)"/><path d="M379.02,7.86c.12.66.3,1.02.42,1.08a.365.365,0,0,0,.48,0c.12-.06.24-.42.42-1.08a17.78736,17.78736,0,0,0,.18-3.06,19.98441,19.98441,0,0,0-.18-3.18c-.18-.72-.36-1.08-.66-1.08s-.54.36-.66,1.08a19.98441,19.98441,0,0,0-.18,3.18,17.78736,17.78736,0,0,0,.18,3.06m1.74-6.36a9.57117,9.57117,0,0,1,.42,3.3,9.145,9.145,0,0,1-.42,3.42q-.36,1.26-1.08,1.26T378.6,8.22a10.5834,10.5834,0,0,1-.42-3.42,9.57008,9.57008,0,0,1,.42-3.3c.24-.78.48-1.2.72-1.32a1.46278,1.46278,0,0,1,.72,0A2.65752,2.65752,0,0,1,380.76,1.5Z" transform="translate(-0.09 -0.09001)"/><path class="4fca3d7d-3db8-48f2-b23a-ea3a3ac2bb72" d="M380.76,1.5a9.57117,9.57117,0,0,1,.42,3.3,9.145,9.145,0,0,1-.42,3.42q-.36,1.26-1.08,1.26T378.6,8.22a10.5834,10.5834,0,0,1-.42-3.42,9.57008,9.57008,0,0,1,.42-3.3c.24-.78.48-1.2.72-1.32a1.46278,1.46278,0,0,1,.72,0A2.65752,2.65752,0,0,1,380.76,1.5Z" transform="translate(-0.09 -0.09001)"/><path class="4fca3d7d-3db8-48f2-b23a-ea3a3ac2bb72" d="M379.02,7.86c.12.66.3,1.02.42,1.08a.365.365,0,0,0,.48,0c.12-.06.24-.42.42-1.08a17.78675,17.78675,0,0,0,.18-3.06,19.98364,19.98364,0,0,0-.18-3.18c-.18-.72-.36-1.08-.66-1.08s-.54.36-.66,1.08a19.98,19.98,0,0,0-.18,3.18A17.78361,17.78361,0,0,0,379.02,7.86Z" transform="translate(-0.09 -0.09001)"/><path d="M390,3.84c0-.18-.06-.24-.24-.3v-.3h1.5v.3a1.01019,1.01019,0,0,0-.84.48L389.34,5.7l1.38,2.7c.18.36.36.54.6.54V9.3h-1.56V8.94c.24,0,.36-.12.24-.42L388.74,6V8.64c.06.24.3.3.66.3V9.3h-1.74V8.94a.4781.4781,0,0,0,.54-.42V1.86c0-.42-.06-.66-.18-.66a.853.853,0,0,0-.36.12v-.3a3.58407,3.58407,0,0,0,1.08-.9V5.88L390,3.84" transform="translate(-0.09 -0.09001)"/><path class="4fca3d7d-3db8-48f2-b23a-ea3a3ac2bb72" d="M390,3.84c0-.18-.06-.24-.24-.3v-.3h1.5v.3a1.01019,1.01019,0,0,0-.84.48L389.34,5.7l1.38,2.7c.18.36.36.54.6.54V9.3h-1.56V8.94c.24,0,.36-.12.24-.42L388.74,6V8.64c.06.24.3.3.66.3V9.3h-1.74V8.94a.4781.4781,0,0,0,.54-.42V1.86c0-.42-.06-.66-.18-.66a.853.853,0,0,0-.36.12v-.3a3.58407,3.58407,0,0,0,1.08-.9V5.88Z" transform="translate(-0.09 -0.09001)"/><path d="M393.42,4.02a.96754.96754,0,0,0-.18.54v3.9c0,.36.12.48.3.48V9.3H392.4V8.94c.12,0,.18-.12.3-.48V4.8c0-.42-.06-.66-.18-.66l-.12.12v-.3a3.08065,3.08065,0,0,0,.84-.9v.96a3.0271,3.0271,0,0,1,.42-.78.6813.6813,0,0,1,.48-.18c.18,0,.3.12.42.36a3.03987,3.03987,0,0,1,.12.78,9.07847,9.07847,0,0,1,.54-.96.68131.68131,0,0,1,.48-.18c.18,0,.3.12.48.42a3.7446,3.7446,0,0,1,.18,1.44V8.46c.06.36.18.48.36.48V9.3h-1.2V8.94c.12,0,.24-.12.3-.48V5.04a3.74874,3.74874,0,0,0-.12-1.08.4052.4052,0,0,0-.36-.24.38026.38026,0,0,0-.36.3,2.67436,2.67436,0,0,0-.18.96v3.6a.31822.31822,0,0,0,.36.36V9.3H393.9V8.94q.27,0,.36-.36V5.04a4.66087,4.66087,0,0,0-.12-.96q-.09-.36-.36-.36a.38026.38026,0,0,0-.36.3" transform="translate(-0.09 -0.09001)"/><path class="4fca3d7d-3db8-48f2-b23a-ea3a3ac2bb72" d="M393.42,4.02a.96754.96754,0,0,0-.18.54v3.9c0,.36.12.48.3.48V9.3H392.4V8.94c.12,0,.18-.12.3-.48V4.8c0-.42-.06-.66-.18-.66l-.12.12v-.3a3.08065,3.08065,0,0,0,.84-.9v.96a3.0271,3.0271,0,0,1,.42-.78.6813.6813,0,0,1,.48-.18c.18,0,.3.12.42.36a3.03987,3.03987,0,0,1,.12.78,9.07847,9.07847,0,0,1,.54-.96.68131.68131,0,0,1,.48-.18c.18,0,.3.12.48.42a3.7446,3.7446,0,0,1,.18,1.44V8.46c.06.36.18.48.36.48V9.3h-1.2V8.94c.12,0,.24-.12.3-.48V5.04a3.74874,3.74874,0,0,0-.12-1.08.4052.4052,0,0,0-.36-.24.38026.38026,0,0,0-.36.3,2.67436,2.67436,0,0,0-.18.96v3.6a.31822.31822,0,0,0,.36.36V9.3H393.9V8.94q.27,0,.36-.36V5.04a4.66087,4.66087,0,0,0-.12-.96q-.09-.36-.36-.36A.38026.38026,0,0,0,393.42,4.02Z" transform="translate(-0.09 -0.09001)"/><line class="03d662fe-0971-416b-a8d6-cda9edb0c392" x1="164.31" y1="11.54999" x2="376.41" y2="11.54999"/><polyline class="25158116-2885-4f8e-9788-e1f1efe2f03d" points="164.31 11.55 175.59 10.17 175.59 12.99 164.31 11.55"/><polyline class="25158116-2885-4f8e-9788-e1f1efe2f03d" points="376.41 11.55 365.13 10.17 365.13 12.99 376.41 11.55"/><line class="03d662fe-0971-416b-a8d6-cda9edb0c392" x1="164.31" y1="5.90999" x2="164.31" y2="22.88999"/><line class="03d662fe-0971-416b-a8d6-cda9edb0c392" x1="376.41" y1="5.90999" x2="376.41" y2="22.88999"/><path d="M256.32,2.16a3.57419,3.57419,0,0,1,.3-1.32,1.31084,1.31084,0,0,1,.6-.66,1.02266,1.02266,0,0,1,.6,0,1.54176,1.54176,0,0,1,.6.54,3.213,3.213,0,0,1,.3,1.44A3.82512,3.82512,0,0,1,258,4.2a2.24275,2.24275,0,0,1,.78.9,5.1228,5.1228,0,0,1,.24,1.62,3.3727,3.3727,0,0,1-.66,1.92,1.59365,1.59365,0,0,1-1.2.84.85688.85688,0,0,1-.78-.3,1.078,1.078,0,0,1-.24-.54.86716.86716,0,0,1,.12-.42.33.33,0,0,1,.3-.18.38776.38776,0,0,1,.3.12,1.52128,1.52128,0,0,1,.24.72,1.2214,1.2214,0,0,0,1.14-.6,3.70528,3.70528,0,0,0,.3-1.5,2.48561,2.48561,0,0,0-.36-1.38,1.34621,1.34621,0,0,0-1.14-.6V4.5c.3,0,.54-.24.84-.6a2.62981,2.62981,0,0,0,.36-1.38,2.95117,2.95117,0,0,0-.18-1.2c-.18-.3-.36-.42-.6-.42a.63188.63188,0,0,0-.6.24,2.58143,2.58143,0,0,0-.3,1.02h-.24" transform="translate(-0.09 -0.09001)"/><path class="4fca3d7d-3db8-48f2-b23a-ea3a3ac2bb72" d="M256.32,2.16a3.57419,3.57419,0,0,1,.3-1.32,1.31084,1.31084,0,0,1,.6-.66,1.02266,1.02266,0,0,1,.6,0,1.54176,1.54176,0,0,1,.6.54,3.213,3.213,0,0,1,.3,1.44A3.82512,3.82512,0,0,1,258,4.2a2.24275,2.24275,0,0,1,.78.9,5.1228,5.1228,0,0,1,.24,1.62,3.3727,3.3727,0,0,1-.66,1.92,1.59365,1.59365,0,0,1-1.2.84.85688.85688,0,0,1-.78-.3,1.078,1.078,0,0,1-.24-.54.86716.86716,0,0,1,.12-.42.33.33,0,0,1,.3-.18.38776.38776,0,0,1,.3.12,1.52128,1.52128,0,0,1,.24.72,1.2214,1.2214,0,0,0,1.14-.6,3.70528,3.70528,0,0,0,.3-1.5,2.48561,2.48561,0,0,0-.36-1.38,1.34621,1.34621,0,0,0-1.14-.6V4.5c.3,0,.54-.24.84-.6a2.62981,2.62981,0,0,0,.36-1.38,2.95117,2.95117,0,0,0-.18-1.2c-.18-.3-.36-.42-.6-.42a.63188.63188,0,0,0-.6.24,2.58143,2.58143,0,0,0-.3,1.02Z" transform="translate(-0.09 -0.09001)"/><path d="M261.96,7.86c.12.66.3,1.02.42,1.08a.365.365,0,0,0,.48,0c.12-.06.24-.42.42-1.08a17.78868,17.78868,0,0,0,.18-3.06,19.98591,19.98591,0,0,0-.18-3.18c-.18-.72-.36-1.08-.66-1.08s-.54.36-.66,1.08a19.9847,19.9847,0,0,0-.18,3.18,17.78763,17.78763,0,0,0,.18,3.06M263.7,1.5a9.57093,9.57093,0,0,1,.42,3.3,9.14484,9.14484,0,0,1-.42,3.42q-.36,1.26-1.08,1.26t-1.08-1.26a10.58337,10.58337,0,0,1-.42-3.42,9.57,9.57,0,0,1,.42-3.3c.24-.78.48-1.2.72-1.32a1.46274,1.46274,0,0,1,.72,0A2.65752,2.65752,0,0,1,263.7,1.5Z" transform="translate(-0.09 -0.09001)"/><path class="4fca3d7d-3db8-48f2-b23a-ea3a3ac2bb72" d="M263.7,1.5a9.57093,9.57093,0,0,1,.42,3.3,9.14484,9.14484,0,0,1-.42,3.42q-.36,1.26-1.08,1.26t-1.08-1.26a10.58337,10.58337,0,0,1-.42-3.42,9.57,9.57,0,0,1,.42-3.3c.24-.78.48-1.2.72-1.32a1.46274,1.46274,0,0,1,.72,0A2.65752,2.65752,0,0,1,263.7,1.5Z" transform="translate(-0.09 -0.09001)"/><path class="4fca3d7d-3db8-48f2-b23a-ea3a3ac2bb72" d="M261.96,7.86c.12.66.3,1.02.42,1.08a.365.365,0,0,0,.48,0c.12-.06.24-.42.42-1.08a17.78807,17.78807,0,0,0,.18-3.06,19.98514,19.98514,0,0,0-.18-3.18c-.18-.72-.36-1.08-.66-1.08s-.54.36-.66,1.08a19.98029,19.98029,0,0,0-.18,3.18A17.78389,17.78389,0,0,0,261.96,7.86Z" transform="translate(-0.09 -0.09001)"/><path d="M267,7.86c.12.66.3,1.02.42,1.08a.365.365,0,0,0,.48,0c.12-.06.24-.42.42-1.08a17.78736,17.78736,0,0,0,.18-3.06,19.98441,19.98441,0,0,0-.18-3.18c-.18-.72-.36-1.08-.66-1.08s-.54.36-.66,1.08a19.98441,19.98441,0,0,0-.18,3.18A17.78736,17.78736,0,0,0,267,7.86m1.74-6.36a9.57093,9.57093,0,0,1,.42,3.3,9.14484,9.14484,0,0,1-.42,3.42q-.36,1.26-1.08,1.26t-1.08-1.26a10.58368,10.58368,0,0,1-.42-3.42,9.57033,9.57033,0,0,1,.42-3.3c.24-.78.48-1.2.72-1.32a1.46274,1.46274,0,0,1,.72,0A2.65752,2.65752,0,0,1,268.74,1.5Z" transform="translate(-0.09 -0.09001)"/><path class="4fca3d7d-3db8-48f2-b23a-ea3a3ac2bb72" d="M268.74,1.5a9.57093,9.57093,0,0,1,.42,3.3,9.14484,9.14484,0,0,1-.42,3.42q-.36,1.26-1.08,1.26t-1.08-1.26a10.58368,10.58368,0,0,1-.42-3.42,9.57033,9.57033,0,0,1,.42-3.3c.24-.78.48-1.2.72-1.32a1.46274,1.46274,0,0,1,.72,0A2.65752,2.65752,0,0,1,268.74,1.5Z" transform="translate(-0.09 -0.09001)"/><path class="4fca3d7d-3db8-48f2-b23a-ea3a3ac2bb72" d="M267,7.86c.12.66.3,1.02.42,1.08a.365.365,0,0,0,.48,0c.12-.06.24-.42.42-1.08a17.78675,17.78675,0,0,0,.18-3.06,19.98364,19.98364,0,0,0-.18-3.18c-.18-.72-.36-1.08-.66-1.08s-.54.36-.66,1.08a19.98,19.98,0,0,0-.18,3.18A17.78361,17.78361,0,0,0,267,7.86Z" transform="translate(-0.09 -0.09001)"/><path d="M277.98,3.84c0-.18-.06-.24-.24-.3v-.3h1.5v.3a1.01019,1.01019,0,0,0-.84.48L277.32,5.7l1.38,2.7c.18.36.36.54.6.54V9.3h-1.56V8.94c.24,0,.36-.12.24-.42L276.72,6V8.64c.06.24.3.3.66.3V9.3h-1.74V8.94a.4781.4781,0,0,0,.54-.42V1.86c0-.42-.06-.66-.18-.66a.853.853,0,0,0-.36.12v-.3a3.58407,3.58407,0,0,0,1.08-.9V5.88l1.26-2.04" transform="translate(-0.09 -0.09001)"/><path class="4fca3d7d-3db8-48f2-b23a-ea3a3ac2bb72" d="M277.98,3.84c0-.18-.06-.24-.24-.3v-.3h1.5v.3a1.01019,1.01019,0,0,0-.84.48L277.32,5.7l1.38,2.7c.18.36.36.54.6.54V9.3h-1.56V8.94c.24,0,.36-.12.24-.42L276.72,6V8.64c.06.24.3.3.66.3V9.3h-1.74V8.94a.4781.4781,0,0,0,.54-.42V1.86c0-.42-.06-.66-.18-.66a.853.853,0,0,0-.36.12v-.3a3.58407,3.58407,0,0,0,1.08-.9V5.88Z" transform="translate(-0.09 -0.09001)"/><path d="M281.4,4.02a.96761.96761,0,0,0-.18.54v3.9c0,.36.12.48.3.48V9.3h-1.14V8.94c.12,0,.18-.12.3-.48V4.8c0-.42-.06-.66-.18-.66l-.12.12v-.3a3.08065,3.08065,0,0,0,.84-.9v.96a3.0271,3.0271,0,0,1,.42-.78.6813.6813,0,0,1,.48-.18c.18,0,.3.12.42.36a3.04032,3.04032,0,0,1,.12.78,9.07847,9.07847,0,0,1,.54-.96.68131.68131,0,0,1,.48-.18c.18,0,.3.12.48.42a3.7444,3.7444,0,0,1,.18,1.44V8.46c.06.36.18.48.36.48V9.3h-1.2V8.94c.12,0,.24-.12.3-.48V5.04a3.74863,3.74863,0,0,0-.12-1.08.4052.4052,0,0,0-.36-.24.38026.38026,0,0,0-.36.3,2.67441,2.67441,0,0,0-.18.96v3.6a.31821.31821,0,0,0,.36.36V9.3h-1.26V8.94q.27,0,.36-.36V5.04a4.66087,4.66087,0,0,0-.12-.96q-.09-.36-.36-.36a.38026.38026,0,0,0-.36.3" transform="translate(-0.09 -0.09001)"/><path class="4fca3d7d-3db8-48f2-b23a-ea3a3ac2bb72" d="M281.4,4.02a.96761.96761,0,0,0-.18.54v3.9c0,.36.12.48.3.48V9.3h-1.14V8.94c.12,0,.18-.12.3-.48V4.8c0-.42-.06-.66-.18-.66l-.12.12v-.3a3.08065,3.08065,0,0,0,.84-.9v.96a3.0271,3.0271,0,0,1,.42-.78.6813.6813,0,0,1,.48-.18c.18,0,.3.12.42.36a3.04032,3.04032,0,0,1,.12.78,9.07847,9.07847,0,0,1,.54-.96.68131.68131,0,0,1,.48-.18c.18,0,.3.12.48.42a3.7444,3.7444,0,0,1,.18,1.44V8.46c.06.36.18.48.36.48V9.3h-1.2V8.94c.12,0,.24-.12.3-.48V5.04a3.74863,3.74863,0,0,0-.12-1.08.4052.4052,0,0,0-.36-.24.38026.38026,0,0,0-.36.3,2.67441,2.67441,0,0,0-.18.96v3.6a.31821.31821,0,0,0,.36.36V9.3h-1.26V8.94q.27,0,.36-.36V5.04a4.66087,4.66087,0,0,0-.12-.96q-.09-.36-.36-.36A.38026.38026,0,0,0,281.4,4.02Z" transform="translate(-0.09 -0.09001)"/><line class="03d662fe-0971-416b-a8d6-cda9edb0c392" x1="404.72901" y1="5.90999" x2="404.72901" y2="68.12998"/><polyline class="25158116-2885-4f8e-9788-e1f1efe2f03d" points="404.729 22.89 406.109 11.55 403.289 11.55 404.729 22.89"/><polyline class="25158116-2885-4f8e-9788-e1f1efe2f03d" points="404.729 51.15 406.109 62.49 403.289 62.49 404.729 51.15"/><line class="03d662fe-0971-416b-a8d6-cda9edb0c392" x1="393.38901" y1="22.89" x2="410.36899" y2="22.89"/><line class="03d662fe-0971-416b-a8d6-cda9edb0c392" x1="376.409" y1="51.15" x2="410.36899" y2="51.15"/><path d="M395.46,45.3c-.54,0-.78.12-.78.36a1.59772,1.59772,0,0,0,.18.72h-.3a7.83568,7.83568,0,0,0-1.32-1.62h8.22c.42,0,.6-.36.6-.96h.36v2.52h-.36c0-.6-.18-.96-.54-1.02h-6.06" transform="translate(-0.09 -0.09001)"/><path class="4fca3d7d-3db8-48f2-b23a-ea3a3ac2bb72" d="M395.46,45.3c-.54,0-.78.12-.78.36a1.59772,1.59772,0,0,0,.18.72h-.3a7.83568,7.83568,0,0,0-1.32-1.62h8.22c.42,0,.6-.36.6-.96h.36v2.52h-.36c0-.6-.18-.96-.54-1.02Z" transform="translate(-0.09 -0.09001)"/><path d="M396.96,34.5c-.18,0-.3.06-.3.24h-.3v-1.5h.3a.8917.8917,0,0,0,.48.84l1.68,1.14,2.7-1.44c.36-.18.54-.36.54-.6h.36v1.56h-.36c0-.24-.12-.36-.42-.24l-2.58,1.26h2.7c.24-.06.3-.24.3-.66h.36v1.74h-.36a.47811.47811,0,0,0-.42-.54h-6.66c-.42,0-.66.06-.66.18a.64331.64331,0,0,0,.12.36h-.3a3.58446,3.58446,0,0,0-.9-1.08H399l-2.04-1.26" transform="translate(-0.09 -0.09001)"/><path class="4fca3d7d-3db8-48f2-b23a-ea3a3ac2bb72" d="M396.96,34.5c-.18,0-.3.06-.3.24h-.3v-1.5h.3a.8917.8917,0,0,0,.48.84l1.68,1.14,2.7-1.44c.36-.18.54-.36.54-.6h.36v1.56h-.36c0-.24-.12-.36-.42-.24l-2.58,1.26h2.7c.24-.06.3-.24.3-.66h.36v1.74h-.36a.47811.47811,0,0,0-.42-.54h-6.66c-.42,0-.66.06-.66.18a.64331.64331,0,0,0,.12.36h-.3a3.58446,3.58446,0,0,0-.9-1.08H399Z" transform="translate(-0.09 -0.09001)"/><path d="M397.14,31.08a2.13108,2.13108,0,0,0,.54.24h3.84q.54-.09.54-.36h.36V32.1h-.36c0-.12-.12-.18-.48-.3h-3.66c-.42,0-.66.06-.66.18l.12.12h-.3a2.35431,2.35431,0,0,0-.9-.78h.96a6.32957,6.32957,0,0,1-.78-.48.68135.68135,0,0,1-.18-.48q0-.27.36-.36a1.66066,1.66066,0,0,1,.78-.18,9.07722,9.07722,0,0,1-.96-.54.68136.68136,0,0,1-.18-.48c0-.18.12-.3.42-.42a2.67933,2.67933,0,0,1,1.44-.24h3.54c.36,0,.48-.12.48-.36h.36v1.26h-.36c0-.18-.12-.3-.48-.36H398.1a3.56708,3.56708,0,0,0-1.02.12.40516.40516,0,0,0-.24.36.38026.38026,0,0,0,.3.36,1.79038,1.79038,0,0,0,.96.18h3.6a.31819.31819,0,0,0,.36-.36h.36V30.6h-.36q0-.27-.36-.36h-3.6a4.63033,4.63033,0,0,0-.9.12q-.36.09-.36.36a.38029.38029,0,0,0,.3.36" transform="translate(-0.09 -0.09001)"/><path class="4fca3d7d-3db8-48f2-b23a-ea3a3ac2bb72" d="M397.14,31.08a2.13108,2.13108,0,0,0,.54.24h3.84q.54-.09.54-.36h.36V32.1h-.36c0-.12-.12-.18-.48-.3h-3.66c-.42,0-.66.06-.66.18l.12.12h-.3a2.35431,2.35431,0,0,0-.9-.78h.96a6.32957,6.32957,0,0,1-.78-.48.68135.68135,0,0,1-.18-.48q0-.27.36-.36a1.66066,1.66066,0,0,1,.78-.18,9.07722,9.07722,0,0,1-.96-.54.68136.68136,0,0,1-.18-.48c0-.18.12-.3.42-.42a2.67933,2.67933,0,0,1,1.44-.24h3.54c.36,0,.48-.12.48-.36h.36v1.26h-.36c0-.18-.12-.3-.48-.36H398.1a3.56708,3.56708,0,0,0-1.02.12.40516.40516,0,0,0-.24.36.38026.38026,0,0,0,.3.36,1.79038,1.79038,0,0,0,.96.18h3.6a.31819.31819,0,0,0,.36-.36h.36V30.6h-.36q0-.27-.36-.36h-3.6a4.63033,4.63033,0,0,0-.9.12q-.36.09-.36.36A.38029.38029,0,0,0,397.14,31.08Z" transform="translate(-0.09 -0.09001)"/><path d="M22.26,18.96l.24-3.3-1.38,3.3h1.14m-.24,2.52c0-.18.06-.48.06-.78.06-.36.06-.78.12-1.38H21l-.78,1.92c-.18.36-.06.6.18.72l-.06.3H19.2l.06-.3c.24-.06.54-.42.9-1.2l3.12-7.68-.48,7.68a3.49026,3.49026,0,0,0,.06,1.02c0,.12.12.18.24.18l-.06.3h-1.5l.06-.3a.45826.45826,0,0,0,.3-.12A.5072.5072,0,0,0,22.02,21.48Z" transform="translate(-0.09 -0.09001)"/><path class="4fca3d7d-3db8-48f2-b23a-ea3a3ac2bb72" d="M22.02,21.48c0-.18.06-.48.06-.78.06-.36.06-.78.12-1.38H21l-.78,1.92c-.18.36-.06.6.18.72l-.06.3H19.2l.06-.3c.24-.06.54-.42.9-1.2l3.12-7.68-.48,7.68a3.49026,3.49026,0,0,0,.06,1.02c0,.12.12.18.24.18l-.06.3h-1.5l.06-.3a.45826.45826,0,0,0,.3-.12A.5072.5072,0,0,0,22.02,21.48Z" transform="translate(-0.09 -0.09001)"/><polygon class="4fca3d7d-3db8-48f2-b23a-ea3a3ac2bb72" points="22.17 18.87 22.41 15.57 21.03 18.87 22.17 18.87"/><path d="M166.32,13.8a.85957.85957,0,0,0-.66.3l-.78,3.18c.06.18.24.24.48.24a1.441,1.441,0,0,0,.9-.36,2.919,2.919,0,0,0,.72-1.44,2.06476,2.06476,0,0,0,0-1.5.81387.81387,0,0,0-.66-.42m-2.4,7.74c.06.24.12.36.24.36h.48a1.24179,1.24179,0,0,0,.84-.54,2.52619,2.52619,0,0,0,.72-1.5,1.86337,1.86337,0,0,0-.06-1.44.86479.86479,0,0,0-.78-.48c-.3,0-.54,0-.6.12Zm-1.26.48c.42-.06.66-.18.72-.48l1.68-7.38c0-.3-.18-.42-.54-.48l.12-.3h1.74c.6,0,1.02.18,1.2.6a2.13271,2.13271,0,0,1,.12,1.68,2.91881,2.91881,0,0,1-.66,1.5,2.34861,2.34861,0,0,1-.96.6,1.16,1.16,0,0,1,.84.66,2.78678,2.78678,0,0,1,.06,1.62,4.28552,4.28552,0,0,1-.84,1.74c-.42.36-1.56.6-3.54.6Z" transform="translate(-0.09 -0.09001)"/><path class="4fca3d7d-3db8-48f2-b23a-ea3a3ac2bb72" d="M162.66,22.02c.42-.06.66-.18.72-.48l1.68-7.38c0-.3-.18-.42-.54-.48l.12-.3h1.74c.6,0,1.02.18,1.2.6a2.13271,2.13271,0,0,1,.12,1.68,2.91881,2.91881,0,0,1-.66,1.5,2.34861,2.34861,0,0,1-.96.6,1.16,1.16,0,0,1,.84.66,2.78678,2.78678,0,0,1,.06,1.62,4.28552,4.28552,0,0,1-.84,1.74c-.42.36-1.56.6-3.54.6Z" transform="translate(-0.09 -0.09001)"/><path class="4fca3d7d-3db8-48f2-b23a-ea3a3ac2bb72" d="M163.92,21.54c.06.24.12.36.24.36h.48a1.24184,1.24184,0,0,0,.84-.54,2.52653,2.52653,0,0,0,.72-1.5,1.86321,1.86321,0,0,0-.06-1.44.86479.86479,0,0,0-.78-.48c-.3,0-.54,0-.6.12Z" transform="translate(-0.09 -0.09001)"/><path class="4fca3d7d-3db8-48f2-b23a-ea3a3ac2bb72" d="M166.32,13.8a.85959.85959,0,0,0-.66.3l-.78,3.18c.06.18.24.24.48.24a1.441,1.441,0,0,0,.9-.36,2.91886,2.91886,0,0,0,.72-1.44,2.06476,2.06476,0,0,0,0-1.5A.81386.81386,0,0,0,166.32,13.8Z" transform="translate(-0.09 -0.09001)"/><path d="M375.78,17.88a10.59654,10.59654,0,0,1,1.26-3.12c.6-.9,1.02-1.38,1.38-1.44a1.04969,1.04969,0,0,1,.72-.06,1.07661,1.07661,0,0,1,.42.3,1.38483,1.38483,0,0,1,.3.42c.06.12.18-.12.3-.78h.24c-.12.36-.18.78-.3,1.26s-.18,1.08-.3,1.8l-.18.06a7.5759,7.5759,0,0,0-.24-2.46.56854.56854,0,0,0-.66-.3c-.3,0-.66.42-1.14,1.26a11.20871,11.20871,0,0,0-1.02,2.94,7.9242,7.9242,0,0,0-.3,3c.06.78.24,1.2.66,1.2a1.267,1.267,0,0,0,1.02-.48,7.51908,7.51908,0,0,0,.9-1.44l.12.24a7.4633,7.4633,0,0,1-1.26,1.92,1.2366,1.2366,0,0,1-1.2.36c-.48-.06-.78-.54-.9-1.5a8.43159,8.43159,0,0,1,.18-3.18" transform="translate(-0.09 -0.09001)"/><path class="4fca3d7d-3db8-48f2-b23a-ea3a3ac2bb72" d="M375.78,17.88a10.59654,10.59654,0,0,1,1.26-3.12c.6-.9,1.02-1.38,1.38-1.44a1.04969,1.04969,0,0,1,.72-.06,1.07661,1.07661,0,0,1,.42.3,1.38483,1.38483,0,0,1,.3.42c.06.12.18-.12.3-.78h.24c-.12.36-.18.78-.3,1.26s-.18,1.08-.3,1.8l-.18.06a7.5759,7.5759,0,0,0-.24-2.46.56854.56854,0,0,0-.66-.3c-.3,0-.66.42-1.14,1.26a11.20871,11.20871,0,0,0-1.02,2.94,7.9242,7.9242,0,0,0-.3,3c.06.78.24,1.2.66,1.2a1.267,1.267,0,0,0,1.02-.48,7.51908,7.51908,0,0,0,.9-1.44l.12.24a7.4633,7.4633,0,0,1-1.26,1.92,1.2366,1.2366,0,0,1-1.2.36c-.48-.06-.78-.54-.9-1.5A8.43159,8.43159,0,0,1,375.78,17.88Z" transform="translate(-0.09 -0.09001)"/><path d="M394.799,21.66c.06.12.24.18.6.18s.78-.36,1.2-1.08a11.69664,11.69664,0,0,0,1.08-2.94,8.64032,8.64032,0,0,0,.24-2.88q-.18-1.08-.72-1.08a.8183.8183,0,0,0-.72.3l-1.68,7.5m-1.14.36c.3,0,.48-.12.6-.48l1.68-7.44a.3967.3967,0,0,0-.36-.42l.06-.3h1.5a1.62083,1.62083,0,0,1,1.5,1.14,6.24943,6.24943,0,0,1-.12,3.12,11.28946,11.28946,0,0,1-1.38,3.42c-.54.9-1.74,1.32-3.54,1.32Z" transform="translate(-0.09 -0.09001)"/><path class="4fca3d7d-3db8-48f2-b23a-ea3a3ac2bb72" d="M393.659,22.02c.3,0,.48-.12.6-.48l1.68-7.44a.3967.3967,0,0,0-.36-.42l.06-.3h1.5a1.62083,1.62083,0,0,1,1.5,1.14,6.24943,6.24943,0,0,1-.12,3.12,11.28946,11.28946,0,0,1-1.38,3.42c-.54.9-1.74,1.32-3.54,1.32Z" transform="translate(-0.09 -0.09001)"/><path class="4fca3d7d-3db8-48f2-b23a-ea3a3ac2bb72" d="M394.799,21.66c.06.12.24.18.6.18s.78-.36,1.2-1.08a11.69648,11.69648,0,0,0,1.08-2.94,8.63967,8.63967,0,0,0,.24-2.88q-.18-1.08-.72-1.08a.81826.81826,0,0,0-.72.3Z" transform="translate(-0.09 -0.09001)"/><path d="M24,138.6c.06-.96,0-1.5-.18-1.68H22.38l-.78,3.48h1.38a5.26712,5.26712,0,0,0,.6-1.38h.18l-.72,3.18H22.8a2.118,2.118,0,0,0,0-1.26H21.48l-.78,3.42c0,.3.12.48.42.48.84,0,1.32-.12,1.5-.42a12.036,12.036,0,0,0,.78-1.44l.18.06-.84,2.34H19.32l.06-.36a1.03248,1.03248,0,0,0,.78-.48l1.62-7.26a.54507.54507,0,0,0-.48-.6l.06-.3H24.6l-.36,2.22H24" transform="translate(-0.09 -0.09001)"/><path class="4fca3d7d-3db8-48f2-b23a-ea3a3ac2bb72" d="M24,138.6c.06-.96,0-1.5-.18-1.68H22.38l-.78,3.48h1.38a5.26712,5.26712,0,0,0,.6-1.38h.18l-.72,3.18H22.8a2.118,2.118,0,0,0,0-1.26H21.48l-.78,3.42c0,.3.12.48.42.48.84,0,1.32-.12,1.5-.42a12.036,12.036,0,0,0,.78-1.44l.18.06-.84,2.34H19.32l.06-.36a1.03248,1.03248,0,0,0,.78-.48l1.62-7.26a.54507.54507,0,0,0-.48-.6l.06-.3H24.6l-.36,2.22Z" transform="translate(-0.09 -0.09001)"/><path d="M166.38,140.34a2.93541,2.93541,0,0,0,.6-1.26h.18l-.72,3.12h-.18a3.39613,3.39613,0,0,0,.06-1.32h-1.56l-.84,3.66c0,.3.24.48.6.48l-.06.36H162.6l.06-.36a.87628.87628,0,0,0,.72-.24l1.68-7.44c0-.42-.12-.6-.48-.66l.06-.3h3.66l-.42,2.16h-.18a5.4351,5.4351,0,0,0-.12-1.62h-1.92l-.78,3.42h1.5" transform="translate(-0.09 -0.09001)"/><path class="4fca3d7d-3db8-48f2-b23a-ea3a3ac2bb72" d="M166.38,140.34a2.93541,2.93541,0,0,0,.6-1.26h.18l-.72,3.12h-.18a3.39613,3.39613,0,0,0,.06-1.32h-1.56l-.84,3.66c0,.3.24.48.6.48l-.06.36H162.6l.06-.36a.87628.87628,0,0,0,.72-.24l1.68-7.44c0-.42-.12-.6-.48-.66l.06-.3h3.66l-.42,2.16h-.18a5.4351,5.4351,0,0,0-.12-1.62h-1.92l-.78,3.42Z" transform="translate(-0.09 -0.09001)"/><path d="M378.24,51.42a1.03991,1.03991,0,0,1,.72-.06,1.40173,1.40173,0,0,1,.42.42c.12.18.24.3.24.24a1.79518,1.79518,0,0,0,.18-.66h.18c-.06.36-.18.78-.3,1.26-.06.42-.18,1.02-.3,1.68h-.18a7.04177,7.04177,0,0,0-.06-2.22c-.06-.18-.24-.3-.54-.3s-.6.36-1.02,1.14a11.21,11.21,0,0,0-1.02,2.94,10.16729,10.16729,0,0,0-.36,3.12c0,.84.18,1.26.48,1.26a.8569.8569,0,0,0,.78-.3,10.97636,10.97636,0,0,0,.78-2.64c0-.24-.06-.42-.3-.42l.06-.3h1.38l-.06.3c-.24,0-.42.18-.54.48l-.54,2.34a2.14367,2.14367,0,0,1-1.62.96c-.54.06-.96-.36-1.08-1.2a10.11546,10.11546,0,0,1,.24-3.42,9.60765,9.60765,0,0,1,1.26-3.24c.48-.84.9-1.32,1.2-1.38" transform="translate(-0.09 -0.09001)"/><path class="4fca3d7d-3db8-48f2-b23a-ea3a3ac2bb72" d="M378.24,51.42a1.03991,1.03991,0,0,1,.72-.06,1.40173,1.40173,0,0,1,.42.42c.12.18.24.3.24.24a1.79518,1.79518,0,0,0,.18-.66h.18c-.06.36-.18.78-.3,1.26-.06.42-.18,1.02-.3,1.68h-.18a7.04177,7.04177,0,0,0-.06-2.22c-.06-.18-.24-.3-.54-.3s-.6.36-1.02,1.14a11.21,11.21,0,0,0-1.02,2.94,10.16729,10.16729,0,0,0-.36,3.12c0,.84.18,1.26.48,1.26a.8569.8569,0,0,0,.78-.3,10.97636,10.97636,0,0,0,.78-2.64c0-.24-.06-.42-.3-.42l.06-.3h1.38l-.06.3c-.24,0-.42.18-.54.48l-.54,2.34a2.14367,2.14367,0,0,1-1.62.96c-.54.06-.96-.36-1.08-1.2a10.11546,10.11546,0,0,1,.24-3.42,9.60765,9.60765,0,0,1,1.26-3.24C377.52,51.96,377.94,51.48,378.24,51.42Z" transform="translate(-0.09 -0.09001)"/></svg>