<svg xmlns="http://www.w3.org/2000/svg" viewBox="0 0 532.36002 195.49999"><defs><style>.a{fill:none;}.a,.b{stroke:#000;stroke-width:0.72px;}.b{fill:#969696;}.c,.d{isolation:isolate;font-size:12px;}.c{font-family:FZHTK--GBK1-0, FZHei-B01;}.d{font-family:ArialMT, Arial;}.e{letter-spacing:-0.11084em;}</style></defs><title>MaToAAN-01</title><circle class="a" cx="78.36" cy="117.6" r="4.2"/><circle class="a" cx="55.66" cy="83.5" r="4.2"/><circle class="a" cx="118.06" cy="89.3" r="4.2"/><circle class="a" cx="123.76" cy="72.3" r="4.2"/><circle class="a" cx="135.06001" cy="117.6" r="4.2"/><circle class="a" cx="106.66" cy="117.6" r="4.2"/><circle class="a" cx="78.36" cy="83.5" r="4.2"/><circle class="a" cx="373.25999" cy="66.6" r="4.20001"/><circle class="a" cx="350.56001" cy="32.5" r="4.20001"/><circle class="a" cx="412.96" cy="38.3" r="4.20001"/><circle class="a" cx="418.56001" cy="21.3" r="4.20001"/><circle class="a" cx="429.96" cy="66.6" r="4.20001"/><circle class="a" cx="401.56001" cy="66.6" r="4.20001"/><circle class="a" cx="373.25999" cy="32.5" r="4.20001"/><circle class="a" cx="492.16001" cy="112" r="4.2"/><circle cx="81.36" cy="58.2" r="1.4"/><circle cx="98.26" cy="75.1" r="1.4"/><circle cx="149.26" cy="52.4" r="1.4"/><circle cx="109.56" cy="165.9" r="1.4"/><circle cx="143.46" cy="171.4" r="1.39999"/><circle cx="81.36" cy="177.1" r="1.4"/><circle cx="52.86" cy="154.49999" r="1.4"/><circle cx="169.06001" cy="86.5" r="1.4"/><circle cx="376.16001" cy="7.2" r="1.4"/><circle cx="393.16001" cy="24.1" r="1.4"/><circle cx="444.16001" cy="1.4" r="1.4"/><circle cx="461.16001" cy="69.4" r="1.4"/><circle cx="463.85999" cy="35.5" r="1.4"/><circle cx="415.66001" cy="109.3" r="1.4"/><circle cx="449.56001" cy="114.9" r="1.4"/><circle cx="387.46" cy="120.4" r="1.4"/><circle cx="358.96" cy="97.9" r="1.4"/><circle cx="404.35999" cy="194.1" r="1.39999"/><circle cx="444.16001" cy="177.1" r="1.39999"/><circle cx="347.75999" cy="182.70001" r="1.39999"/><circle cx="11.76" cy="97.8" r="1.4"/><circle cx="164.85999" cy="120.4" r="1.4"/><circle cx="306.56001" cy="46.8" r="1.4"/><rect class="b" x="0.36" y="124.6" width="209.89999" height="5.8"/><rect class="b" x="295.16001" y="73.6" width="209.89999" height="5.8"/><rect class="b" x="295.16001" y="153.1" width="209.89999" height="5.8"/><path d="M161.9,97.1l3-6-6.6,1.2Zm-19.5,11.4,18.8-14-.6-.8-18.8,14.1Z" transform="translate(-0.04 -0.40001)"/><path d="M28,112.7l.8,6.7L23,116.1ZM17.9,102.2,26.4,115l-.8.6-8.5-12.8Z" transform="translate(-0.04 -0.40001)"/><path d="M456.7,46.1l3-6-6.6,1.2ZM437.3,57.5l18.7-14-.6-.8-18.7,14Z" transform="translate(-0.04 -0.40001)"/><path d="M322.8,61.7l.8,6.7-5.8-3.3Zm-10-10.5L321.3,64l-.8.6L312,51.8Z" transform="translate(-0.04 -0.40001)"/><path d="M507.6,116l-6.3-2.2,5.6-3.7ZM473,33.8l7.8,1.3,3.8.7,3.8.7,3.7.7,3.7.8,3.6.9,3.4.9,3.3,1,3.2,1.1,1.5.6,1.5.6,1.4.7,1.4.7,1.3.7,1.3.8,1.2.8,1.2.9,1.1.9,1.1.9,1,1,.9,1,.9,1.1L526,54l.8,1.3.7,1.4.7,1.4.6,1.5.5,1.5.5,1.6.5,1.6.4,1.7.4,1.7.3,1.7.5,3.5.3,3.6.2,3.6v3.5l-.1,3.4-.1,1.6-.1,1.6-.2,1.6-.2,1.5-.2,1.4-.3,1.4-.3,1.3-.3,1.2-.3,1.1-.3,1-.4,1-.4.9-.5.9-.5.8-.6.8-.6.7-1.4,1.3-1.5,1.2-1.7,1-1.8.9-1.9.8-2,.6-2.1.6-2.1.5-2.2.4-2.2.4-1.9.3-.1-1,1.9-.3,2.2-.3,2.2-.4,2.1-.5,2-.5,1.9-.6,1.8-.7,1.7-.8,1.6-1,1.4-1.1,1.3-1.3.6-.7.6-.7.5-.8.4-.8.4-.9.4-.9.3-1,.3-1.1.3-1.2.3-1.3.2-1.3.2-1.4.2-1.5.2-1.5.1-1.6.1-1.6.1-3.3V80.2l-.2-3.5-.3-3.5-.5-3.5-.3-1.7-.4-1.7-.4-1.6-.5-1.6-.5-1.6-.5-1.5-.6-1.4-.6-1.4-.7-1.3-.7-1.2-.8-1.1-.9-1.1-.9-1-1-1-1-.9-1.1-.9-1.2-.8-1.2-.8-1.3-.8-1.3-.7-1.4-.7-1.4-.7-1.5-.6-1.5-.6-3.1-1.1-3.3-1-3.4-.9-3.5-.9-3.6-.8-3.7-.7-3.8-.7-3.8-.7-7.8-1.3Z" transform="translate(-0.04 -0.40001)"/><path d="M461.8,141.5l-2.1,6.4,6.4-2.1Zm25.9-22.4L462.9,144l.7.7,24.8-24.9Z" transform="translate(-0.04 -0.40001)"/><path d="M45.7,67.3V74l-5.4-4ZM34.9,51.1,44,69.3l-1,.5L34,51.6Z" transform="translate(-0.04 -0.40001)"/><path d="M154.3,39.1l-.8,6.7,5.8-3.3Zm10.2-10.7-8.6,12.9.8.6L165.3,29Z" transform="translate(-0.04 -0.40001)"/><text class="c" transform="translate(167.7197 28.0006)">气态</text><text class="c" transform="translate(13.15971 49.70059)">颗粒态</text><text class="c" transform="translate(9.0078 93.27081)">+</text><text class="c" transform="translate(244.85252 73.63308)">石英膜／</text><text class="d" transform="translate(245.35252 88.03311)"><tspan class="e">T</tspan><tspan x="6" y="0">eflon </tspan></text><text class="c" transform="translate(280.35252 88.03311)">膜</text><text class="c" transform="translate(256.8523 160.273)">石英膜</text></svg>