<svg xmlns="http://www.w3.org/2000/svg" viewBox="0 0 440.28002 152.66777"><defs><style>.a,.c{fill:none;stroke:#000;stroke-linejoin:round;}.a{stroke-width:2.28px;}.b{fill:#bbe0e3;}.c{stroke-width:0.96px;}.d,.h{isolation:isolate;font-family:Arial-ItalicMT, Arial;}.d,.h,.i{font-size:12px;}.e,.h{font-style:italic;}.f,.i{font-family:ArialMT, Arial;}.g{font-family:FZHTK--GBK1-0, FZHei-B01;}</style></defs><title>SaGN-01</title><ellipse class="a" cx="55.14" cy="103.52778" rx="54" ry="47.99999"/><ellipse class="a" cx="220.14" cy="103.52778" rx="51.00001" ry="47.99999"/><circle class="b" cx="64.08" cy="70.46778" r="9"/><circle class="c" cx="64.08" cy="70.46778" r="9"/><circle class="b" cx="82.08" cy="82.46778" r="9"/><circle class="c" cx="82.08" cy="82.46778" r="9"/><circle class="b" cx="40.08" cy="100.46778" r="9"/><circle class="c" cx="40.08" cy="100.46778" r="9"/><circle class="b" cx="58.08" cy="130.46777" r="9"/><circle class="c" cx="58.08" cy="130.46777" r="9"/><circle class="b" cx="82.08" cy="124.46777" r="9"/><circle class="c" cx="82.08" cy="124.46777" r="9"/><circle class="b" cx="34.08" cy="124.46777" r="9"/><circle class="c" cx="34.08" cy="124.46777" r="9"/><circle class="b" cx="22.08" cy="106.46778" r="9"/><circle class="c" cx="22.08" cy="106.46778" r="9"/><circle class="b" cx="88.08" cy="100.46778" r="9"/><circle class="c" cx="88.08" cy="100.46778" r="9"/><circle class="b" cx="64.08" cy="112.46778" r="9"/><circle class="c" cx="64.08" cy="112.46778" r="9"/><circle class="b" cx="40.08" cy="70.46778" r="9"/><circle class="c" cx="40.08" cy="70.46778" r="9"/><circle class="b" cx="22.08" cy="82.46778" r="9"/><circle class="c" cx="22.08" cy="82.46778" r="9"/><circle class="b" cx="64.08" cy="88.46778" r="9"/><circle class="c" cx="64.08" cy="88.46778" r="9"/><circle class="b" cx="46.08" cy="82.46778" r="9"/><circle class="c" cx="46.08" cy="82.46778" r="9"/><ellipse class="a" cx="388.14002" cy="103.52778" rx="51" ry="47.99999"/><circle class="b" cx="205.08" cy="79.46778" r="18"/><circle class="c" cx="205.08" cy="79.46778" r="18"/><circle class="b" cx="241.08001" cy="121.46777" r="18" transform="translate(82.56396 339.97785) rotate(-80.78253)"/><circle class="c" cx="241.08001" cy="121.46777" r="18" transform="translate(82.56396 339.97785) rotate(-80.78253)"/><circle class="b" cx="199.08" cy="121.46777" r="18"/><circle class="c" cx="199.08" cy="121.46777" r="18"/><circle class="b" cx="241.08001" cy="85.46778" r="18" transform="translate(118.0991 309.74441) rotate(-80.78253)"/><circle class="c" cx="241.08001" cy="85.46778" r="18" transform="translate(118.0991 309.74441) rotate(-80.78253)"/><path d="M51.08,111.46777l-2,4,4.39-.83Zm123.7-92.4-123.62,94.18.61.8,123.61-94.18Z"/><path d="M182.77,93.32776l-1.69,4.14-2.3-3.83Zm-7.19-73.86,5.77,75-1,.08-5.77-75Z"/><text class="d" transform="translate(382.56043 33.96942)"><tspan class="e">A</tspan><tspan class="f" x="8.00391" y="0"> </tspan><tspan class="g" x="11.33789" y="0">总面积</tspan></text><text class="h" transform="translate(164.33002 10.29779)">A</text><text class="i" transform="translate(172.33392 14.29388) scale(0.583)">v</text><text class="i" transform="translate(175.83197 10.29779)"> <tspan class="g" x="3.33398" y="0">孔隙面积</tspan></text><path d="M378.91,98.99777l.17,4.47,3.48-2.81Zm29.71-61.74-28.75,63.27.91.42,28.76-63.27Z"/></svg>