<svg xmlns="http://www.w3.org/2000/svg" viewBox="0 0 428.33008 355.08002"><defs><style>.a,.c{fill:none;stroke-linejoin:round;}.a{stroke:#000;stroke-width:4.56px;stroke-dasharray:18.24 13.68;}.b{isolation:isolate;font-size:24px;font-family:ArialMT, Arial;}.c{stroke:#f30;stroke-width:2.28px;}.d{fill:#ceceef;}</style></defs><title>SaGN-02</title><line class="a" x1="57.49" y1="51" x2="57.49" y2="306.23999"/><line class="a" x1="136.92999" y1="62.4" x2="136.92999" y2="300.48001"/><line class="a" x1="221.89" y1="62.4" x2="221.89" y2="300.48001"/><line class="a" x1="307.09" y1="62.4" x2="307.09" y2="300.48001"/><path d="M368.29,145.16l18-9-18-9Zm-310.8-6h313.8v-6H57.49Z"/><path d="M362.65,206.52l18,9-18,9Zm-305.16,6H365.65v6H57.49Z"/><line class="a" x1="386.41" y1="56.76" x2="386.41" y2="294.95999"/><text class="b" transform="translate(0 109.76001)">100</text><text class="b" transform="translate(401.63428 105.01999)">60</text><text class="b" transform="translate(404.95581 136.25989)">Ψ</text><text class="b" transform="translate(404.95587 231.12)">Ψ</text><line class="a" x1="97.21" y1="62.4" x2="97.21" y2="300.48001"/><line class="a" x1="176.53" y1="51" x2="176.53" y2="294.95999"/><line class="a" x1="267.25" y1="62.4" x2="267.25" y2="306.23999"/><line class="a" x1="346.69" y1="56.76" x2="346.69" y2="300.72"/><path d="M362.65,246.16l18,9-18,9Zm-305.16,6H365.65v6H57.49Z"/><path d="M362.65,166.8l18,9-18,9Zm-305.16,6H365.65v6H57.49Z"/><path d="M362.65,87.36l18,9-18,9Zm-305.16,6H365.65v6H57.49Z"/><ellipse class="c" cx="77.41" cy="156.06" rx="19.86" ry="19.8"/><rect class="d" x="48.97" width="337.44" height="56.64"/><rect class="d" x="49.69" y="298.44" width="337.44001" height="56.64001"/></svg>